<svg id="_2nd_Place" data-name="2nd Place" xmlns="http://www.w3.org/2000/svg" xmlns:xlink="http://www.w3.org/1999/xlink" viewBox="0 0 1256.71 2138.34"><defs><style>.cls-1{fill:ivory;}.cls-1,.cls-10,.cls-11,.cls-12,.cls-13,.cls-2,.cls-3,.cls-4,.cls-5,.cls-6,.cls-7,.cls-8,.cls-9{stroke:#000;stroke-miterlimit:10;}.cls-1,.cls-10,.cls-11,.cls-12,.cls-13,.cls-2,.cls-3,.cls-4,.cls-5,.cls-6,.cls-7,.cls-8{stroke-width:10px;}.cls-14,.cls-16,.cls-2{fill:#fff;}.cls-3{fill:#896834;}.cls-4{fill:#efd259;}.cls-6{fill:none;}.cls-7{fill:#541818;}.cls-8{fill:#a38f3b;}.cls-9{fill:#73c04a;stroke-width:12px;}.cls-10{fill:url(#linear-gradient);}.cls-11{fill:url(#linear-gradient-2);}.cls-12{fill:url(#linear-gradient-3);}.cls-13{fill:url(#linear-gradient-4);}.cls-15{fill:url(#linear-gradient-5);}.cls-16{font-size:150px;font-family:Montserrat;font-weight:700;}</style><linearGradient id="linear-gradient" x1="359.78" y1="1845.1" x2="407.82" y2="1608.52" gradientUnits="userSpaceOnUse"><stop offset="0.06" stop-color="#fff"/><stop offset="0.16" stop-color="#fff" stop-opacity="0.99"/><stop offset="0.23" stop-color="#fff" stop-opacity="0.95"/><stop offset="0.3" stop-color="#fff" stop-opacity="0.88"/><stop offset="0.36" stop-color="#fff" stop-opacity="0.79"/><stop offset="0.43" stop-color="#fff" stop-opacity="0.67"/><stop offset="0.49" stop-color="#fff" stop-opacity="0.52"/><stop offset="0.54" stop-color="#fff" stop-opacity="0.35"/><stop offset="0.6" stop-color="#fff" stop-opacity="0.15"/><stop offset="0.64" stop-color="#fff" stop-opacity="0"/><stop offset="0.85" stop-color="#fff" stop-opacity="0"/></linearGradient><linearGradient id="linear-gradient-2" x1="725.69" y1="1840.54" x2="772.22" y2="1611.37" xlink:href="#linear-gradient"/><linearGradient id="linear-gradient-3" x1="168.97" y1="1281.82" x2="208.79" y2="1085.67" gradientUnits="userSpaceOnUse"><stop offset="0" stop-color="#fff" stop-opacity="0"/><stop offset="0.01" stop-color="#fff" stop-opacity="0.11"/><stop offset="0.03" stop-color="#fff" stop-opacity="0.29"/><stop offset="0.05" stop-color="#fff" stop-opacity="0.46"/><stop offset="0.07" stop-color="#fff" stop-opacity="0.61"/><stop offset="0.1" stop-color="#fff" stop-opacity="0.73"/><stop offset="0.12" stop-color="#fff" stop-opacity="0.83"/><stop offset="0.15" stop-color="#fff" stop-opacity="0.91"/><stop offset="0.18" stop-color="#fff" stop-opacity="0.96"/><stop offset="0.22" stop-color="#fff" stop-opacity="0.99"/><stop offset="0.3" stop-color="#fff"/><stop offset="0.34" stop-color="#fff" stop-opacity="0.97"/><stop offset="0.4" stop-color="#fff" stop-opacity="0.88"/><stop offset="0.48" stop-color="#fff" stop-opacity="0.74"/><stop offset="0.57" stop-color="#fff" stop-opacity="0.54"/><stop offset="0.68" stop-color="#fff" stop-opacity="0.28"/><stop offset="0.78" stop-color="#fff" stop-opacity="0"/></linearGradient><linearGradient id="linear-gradient-4" x1="902.18" y1="1254.13" x2="941.85" y2="1058.77" gradientUnits="userSpaceOnUse"><stop offset="0" stop-color="#fff" stop-opacity="0"/><stop offset="0.01" stop-color="#fff" stop-opacity="0.11"/><stop offset="0.02" stop-color="#fff" stop-opacity="0.29"/><stop offset="0.03" stop-color="#fff" stop-opacity="0.46"/><stop offset="0.04" stop-color="#fff" stop-opacity="0.61"/><stop offset="0.06" stop-color="#fff" stop-opacity="0.73"/><stop offset="0.07" stop-color="#fff" stop-opacity="0.83"/><stop offset="0.09" stop-color="#fff" stop-opacity="0.91"/><stop offset="0.11" stop-color="#fff" stop-opacity="0.96"/><stop offset="0.13" stop-color="#fff" stop-opacity="0.99"/><stop offset="0.18" stop-color="#fff"/><stop offset="0.46" stop-color="#fff" stop-opacity="0.46"/><stop offset="0.7" stop-color="#fff" stop-opacity="0"/></linearGradient><linearGradient id="linear-gradient-5" x1="735.04" y1="462.37" x2="735.04" y2="232.87" gradientUnits="userSpaceOnUse"><stop offset="0" stop-color="#fff" stop-opacity="0"/><stop offset="0.24" stop-color="#fff" stop-opacity="0"/><stop offset="0.27" stop-color="#fff" stop-opacity="0.05"/><stop offset="0.41" stop-color="#fff" stop-opacity="0.34"/><stop offset="0.55" stop-color="#fff" stop-opacity="0.57"/><stop offset="0.67" stop-color="#fff" stop-opacity="0.76"/><stop offset="0.78" stop-color="#fff" stop-opacity="0.89"/><stop offset="0.87" stop-color="#fff" stop-opacity="0.97"/><stop offset="0.93" stop-color="#fff"/></linearGradient></defs><title>horse_main_</title><path class="cls-1" d="M407.66,1339.32s-1.64-1.93-4.58-5.11c-25.73-27.82-151.31-151.38-158,80.11-7.5,258-85.5,196.49-85.5,196.49s90.62,81,124.06-52.5c7.94,60,0,54,0,54s82.93-87,49.93-186S300,1265,406,1337.39"/><path id="body" class="cls-2" d="M531,298.5c-119.22,156.22-46.51,505.66-46.51,505.66L324.24,989.53s-48.6,14.67-56.82,51.67S193.84,1182.38,152.73,1207,13,1272.82,13,1272.82l78.11,45.76L169.18,1244s93.91-152.51,143.29-160.45c25.45-4.1,30.9-49.33,30.9-49.33l93-69.77s-4.11,102.78-28.78,131.55-111.55,215.58-37,312.44c75.91,98.63,8.22,172.66,8.22,172.66s-16.93,23-12.82,47.7,8.71,125-28.29,162-61.67,123.33-61.67,123.33,86.33,37,123.33,20.56,53.44-12.33,53.44-12.33l-49.33-111c-16.44-37-6.25-144.82,10.56-159.23,23.3-20,22.33-46.33,22.33-66.88s15.68-103,79-118c39-9.25,171.36-30.69,176.22,87.49,1.18,28.69-2.68,49.58-8.53,59.25-8.36,13.81-8,29.92.58,50.31,4.26,10.06,41.9,85.36,10.38,142.91s-11,90.44-11,90.44,127.44,37,152.11,0-65.78-82.22-86.33-119.22S725.67,1683.93,738,1651s5-56.2.92-76.75-6.67-108.08,27.89-142c81-79.62,76.58-196.42,35.47-270.41S736.5,943.94,736.5,943.94s76.43,60.49,95.84,104.48c10.07,22.83-6,37.26,22.83,53.71s86.89,92.59,86.89,133.7,16.44,82.76,16.44,82.76,90.44,15.91,90.44-41.65-53.44-28.78-69.89-49.33-77.57-132.44-77.57-153-16.55-41.29-33.57-57.74c-9.36-9-138.21-187.12-155.61-216.12S692,748.55,692,748.55"/><path class="cls-2" d="M614.6,693.52s50,39.63,77.42,55"/><path id="hair_bangs" class="cls-2" d="M888.85,94.4S851.78,227.87,751.67,227.87c-66.53,85.27-155.12,51.59-191.3,2.14,27.24-54.47,87.89-102.24,145.9-101-39.1,42.88-34.05,59.27-34.05,59.27s73.15-79.45,128.64-73.15c-47.92,27.74-68.34,67.45-68.34,67.45S819.21,193.45,888.85,94.4Z"/><ellipse id="eye_L" class="cls-2" cx="664.09" cy="371.05" rx="19.55" ry="29.01"/><ellipse id="eye_R" class="cls-2" cx="800.87" cy="349.46" rx="19.55" ry="29.01"/><path id="brow_R" class="cls-2" d="M628.77,342s10.71-74.29,63.37-45.29"/><path id="cheek" class="cls-2" d="M560.37,433s16.09,20.57,38,23.94a38.23,38.23,0,0,0,23.43-3.76c32.79-16.4,6.31-53.08,6.31-53.08"/><path id="mouth" class="cls-2" d="M724.61,599.43s-63.74-59.27-102.84-146.29c-23.43,3.76-15.14,4.16-15.14,4.16s20.77,290.95,141.25,290.95c13.69,0-19.16-57.23-25.82-79.45C710.43,630,724.61,599.43,724.61,599.43Z"/><circle id="nostril_R" class="cls-2" cx="918.77" cy="558.58" r="29.91"/><circle id="nostril_L" class="cls-2" cx="1071.79" cy="536.3" r="22.28"/><path class="cls-3" d="M942.06,1235.82s-9,62.73,0,86.08c79.67,15.14,110.9-12.8,145.41-55.53-60.8-49.3-108.41-38.78-108.41-38.78S970.85,1246.35,942.06,1235.82Z"/><path class="cls-3" d="M134.28,1213.5s-89.89-6-127.69,49.7C67.4,1360,134.28,1337,134.28,1337s28.17-49.57,25-79C131.49,1246.65,135.44,1226.37,134.28,1213.5Z"/><path class="cls-3" d="M337.73,1790.82s-65.38,57.32-75.24,116.48c39.44,75.6,207.07,19.72,207.07,19.72s-45.45-102.64-68.74-122.81C357.8,1826.77,337.73,1790.82,337.73,1790.82Z"/><path class="cls-3" d="M701.29,1790.82s-49.32,47.46-39.46,119.77c115,74,195.56,0,195.56,0s-12.81-85.68-98.43-118.44C706.2,1830.06,701.29,1790.82,701.29,1790.82Z"/><path id="shirt_green" class="cls-2" d="M458.77,806.26S291.93,928.61,254.85,928.61s102,140.89,102,140.89l57.47-48.2S355,1188.14,314.17,1210.39c166.84,122.35,396.72,155.72,537.6,40.78-37.08-118.64-94-204.13-110.05-280,69.27,105.77,65.56,92.94,65.56,92.94S900,1028.5,929.64,971.14c-92.69-42.53-217.32-170.39-217.32-170.39S607.07,991.64,458.77,806.26Z"/><path id="body-2" data-name="body" class="cls-4" d="M576.17,245.05l-15.8-15L403.51,80.61S382.59,205.71,531,280.13c-119.22,156.22-72.18,526.12-72.18,526.12L324.24,989.53s-48.6,14.67-56.82,51.67S193.84,1182.38,152.73,1207,13,1272.82,13,1272.82l78.11,45.76L169.18,1244s93.91-152.51,143.29-160.45c25.45-4.1,30.9-49.33,30.9-49.33l93-69.77s-4.11,102.78-28.78,131.55-111.55,215.58-37,312.44c75.91,98.63,8.22,172.66,8.22,172.66s-16.93,23-12.82,47.7,8.71,125-28.29,162-61.67,123.33-61.67,123.33,86.33,37,123.33,20.56,53.44-12.33,53.44-12.33l-49.33-111c-16.44-37-6.25-144.82,10.56-159.23,23.3-20,22.33-46.33,22.33-66.88s15.68-103,79-118c39-9.25,171.36-30.69,176.22,87.49,1.18,28.69-2.68,49.58-8.53,59.25-8.36,13.81-8,29.92.58,50.31,4.26,10.06,41.9,85.36,10.38,142.91s-11,90.44-11,90.44,127.44,37,152.11,0-65.78-82.22-86.33-119.22S725.67,1683.93,738,1651s5-56.2.92-76.75-6.67-108.08,27.89-142c81-79.62,76.58-196.42,35.47-270.41S736.5,943.94,736.5,943.94s76.43,60.49,95.84,104.48c10.07,22.83-6,37.26,22.83,53.71s86.89,92.59,86.89,133.7,16.44,82.76,16.44,82.76,90.44,15.91,90.44-41.65-53.44-28.78-69.89-49.33-77.57-132.44-77.57-153-16.55-41.29-33.57-57.74c-9.36-9-138.21-187.12-155.61-216.12S692,748.55,692,748.55s35.57,11.29,55.87-.31S704.32,663,724.61,599.43c162.77,149.12,296.16,133.31,362.85,37.62S1043.38,420.44,953,444.1C774.77,490.72,810.9,331,810.9,331s2.9-121.78-95.69-139.18C773.2,130.94,726.81,15,692,3.36c-31.89,113.08-31.89,185.57-31.89,185.57S579.21,231.59,576.17,245.05Z"/><path class="cls-2" d="M614.6,693.52s50,39.63,77.42,55"/><ellipse id="eye_L-2" data-name="eye_L" class="cls-5" cx="664.09" cy="371.05" rx="19.55" ry="29.01"/><ellipse id="eye_R-2" data-name="eye_R" class="cls-5" cx="804.87" cy="349.46" rx="19.55" ry="29.01"/><path id="brow_L" class="cls-6" d="M773.44,278s26.52-42.46,54.88,14.29"/><path id="cheek-2" data-name="cheek" class="cls-6" d="M560.37,433s16.09,20.57,38,23.94a38.23,38.23,0,0,0,23.43-3.76c32.79-16.4,6.31-53.08,6.31-53.08"/><path id="mouth-2" data-name="mouth" class="cls-7" d="M724.61,599.43s-63.74-59.27-102.84-146.29c-23.43,3.76-15.14,4.16-15.14,4.16s22.14,212.23,106,263.74c11.66,7.17,16.1-30,9.44-52.24C710.43,630,724.61,599.43,724.61,599.43Z"/><circle id="nostril_R-2" data-name="nostril_R" class="cls-8" cx="918.77" cy="558.58" r="29.91"/><circle id="nostril_L-2" data-name="nostril_L" class="cls-8" cx="1071.79" cy="536.3" r="22.28"/><path id="shirt_green-2" data-name="shirt_green" class="cls-9" d="M458.77,806.26S291.93,928.61,254.85,928.61s102,140.89,102,140.89l57.47-48.2S355,1188.14,314.17,1210.39c166.84,122.35,396.72,155.72,537.6,40.78-37.08-118.64-94-204.13-110.05-280,69.27,105.77,65.56,92.94,65.56,92.94S900,1028.5,929.64,971.14c-92.69-42.53-217.32-170.39-217.32-170.39S607.07,991.64,458.77,806.26Z"/><path class="cls-10" d="M365.62,1615.85a67.41,67.41,0,0,0,.4,13c4.11,24.67,8.71,125-28.29,162-11.27,11.27-21.39,27.12-30,43.71,3.89,0,7.78,0,11.68.33,32,2.53,64,3.28,96,3.3l-11.91-26.79c-16.44-37-6.25-144.82,10.56-159.23,13.28-11.38,18.67-24.84,20.86-38.12"/><path class="cls-11" d="M686.81,1605.42a41.27,41.27,0,0,1-3.75,8.62c-8.36,13.81-8,29.92.58,50.31,4.26,10.06,41.9,85.36,10.38,142.91a161.9,161.9,0,0,0-11,24.6c17.38-.26,34.77,0,52.4,2,27.12,3.22,53.83,7.07,80.59,11-22.84-22.78-55.73-45.83-67.13-66.35-20.56-37-23.17-94.56-10.83-127.45a100.87,100.87,0,0,0,6.46-45.3"/><path id="hair_bangs-2" data-name="hair_bangs" class="cls-1" d="M888.85,94.4S851.78,227.87,751.67,227.87c-66.53,85.27-155.12,51.59-191.3,2.14,27.24-54.47,87.89-102.24,145.9-101-39.1,42.88-34.05,59.27-34.05,59.27s73.15-79.45,128.64-73.15c-47.92,27.74-68.34,67.45-68.34,67.45S819.21,193.45,888.85,94.4Z"/><path id="hair_flow" class="cls-1" d="M490.24,255.68S409.9,311.89,432.6,340.9C407.66,474.5,288.83,499.8,344.33,627.17c63.33-152.67,66.84-7.57,31.53,53s3.78,83.24,22.7,93.32c-8.83-26.48,11.26-59.27,11.94-58s41,46.66,15.81,78.19,6.51,55.9,6.51,55.9l26-43.28S414.9,430.69,531,280.13C496.74,274.05,490.24,255.68,490.24,255.68Z"/><path id="brow_R-2" data-name="brow_R" class="cls-6" d="M597.09,342.14s10.71-74.58,63.37-45.46"/><path class="cls-12" d="M244.44,1092.91c-24.8,44.11-63.82,97.41-91.7,114.13-11.57,6.94-27.71,15.19-44.92,23.46,4.08,16.24,15.88,31.65,28.68,44.73L169.18,1244s58.31-94.69,107.2-138.73"/><path class="cls-13" d="M837.53,1082.42c1.66,6.7,6,13,17.63,19.71,28.78,16.44,86.89,92.58,86.89,133.7a189.63,189.63,0,0,0,2,26.82c12.74,0.42,25.1-.41,36.27-4.79,10.45-3.87,18.65-11.5,24.83-21.06-10.63-.92-20.55-2.19-26.16-9.2-16.44-20.56-77.57-132.44-77.57-153,0-8.6-2.9-17.22-7.52-25.56"/><path class="cls-3" d="M942.06,1235.82s-9,62.73,0,86.08c79.67,15.14,110.9-12.8,145.41-55.53-60.8-49.3-108.41-38.78-108.41-38.78S970.85,1246.35,942.06,1235.82Z"/><path class="cls-3" d="M134.28,1213.5s-89.89-6-127.69,49.7C67.4,1360,134.28,1337,134.28,1337s28.17-49.57,25-79C131.49,1246.65,135.44,1226.37,134.28,1213.5Z"/><path class="cls-3" d="M337.73,1790.82s-65.38,57.32-75.24,116.48c39.44,75.6,207.07,19.72,207.07,19.72s-45.45-102.64-68.74-122.81C357.8,1826.77,337.73,1790.82,337.73,1790.82Z"/><path class="cls-3" d="M701.29,1790.82s-49.32,47.46-39.46,119.77c115,74,195.56,0,195.56,0s-12.81-85.68-98.43-118.44C706.2,1830.06,701.29,1790.82,701.29,1790.82Z"/><path class="cls-14" d="M671.38,374.81c7.66,0,7.67-11.91,0-11.91s-7.67,11.91,0,11.91h0Z"/><path class="cls-14" d="M811.38,354.81c7.66,0,7.67-11.91,0-11.91s-7.67,11.91,0,11.91h0Z"/><path class="cls-15" d="M667.2,285.13c21.79-3.08,68.67-17.45,86.48-52.26,19.31,182.67,49.2,229.49,49.2,229.49S722,383.46,667.2,285.13Z"/><text class="cls-16" transform="translate(422.55 1192.74)">1590</text></svg>