<svg xmlns="http://www.w3.org/2000/svg" xmlns:xlink="http://www.w3.org/1999/xlink" viewBox="0 0 774.84 1913.92"><defs><style>.cls-1{fill:ivory;}.cls-1,.cls-12,.cls-13,.cls-2,.cls-3,.cls-4,.cls-5,.cls-6,.cls-7,.cls-8,.cls-9{stroke:#000;stroke-miterlimit:10;}.cls-1,.cls-12,.cls-13,.cls-2,.cls-3,.cls-4,.cls-5,.cls-6,.cls-7,.cls-8{stroke-width:10px;}.cls-2{fill:#efd259;}.cls-3{fill:none;}.cls-4{fill:#a38f3b;}.cls-6{fill:url(#linear-gradient);}.cls-7{fill:url(#linear-gradient-2);}.cls-8{fill:#896834;}.cls-9{fill:#a50e19;stroke-width:12px;}.cls-10{fill:#fff;}.cls-11{fill:url(#linear-gradient-3);}.cls-12{fill:url(#linear-gradient-4);}.cls-13{fill:url(#linear-gradient-5);}</style><linearGradient id="linear-gradient" x1="51.72" y1="1159.64" x2="83.67" y2="1002.29" gradientUnits="userSpaceOnUse"><stop offset="0" stop-color="#fff" stop-opacity="0.01"/><stop offset="0" stop-color="#fff" stop-opacity="0.07"/><stop offset="0" stop-color="#fff" stop-opacity="0.23"/><stop offset="0" stop-color="#fff" stop-opacity="0.49"/><stop offset="0" stop-color="#fff" stop-opacity="0.84"/><stop offset="0" stop-color="#fff"/><stop offset="0.1" stop-color="#fff" stop-opacity="0.98"/><stop offset="0.21" stop-color="#fff" stop-opacity="0.93"/><stop offset="0.33" stop-color="#fff" stop-opacity="0.85"/><stop offset="0.44" stop-color="#fff" stop-opacity="0.73"/><stop offset="0.56" stop-color="#fff" stop-opacity="0.58"/><stop offset="0.68" stop-color="#fff" stop-opacity="0.4"/><stop offset="0.79" stop-color="#fff" stop-opacity="0.18"/><stop offset="0.88" stop-color="#fff" stop-opacity="0"/></linearGradient><linearGradient id="linear-gradient-2" x1="595.36" y1="1168.1" x2="630.24" y2="996.32" gradientUnits="userSpaceOnUse"><stop offset="0" stop-color="#fff" stop-opacity="0.01"/><stop offset="0" stop-color="#fff" stop-opacity="0.07"/><stop offset="0" stop-color="#fff" stop-opacity="0.23"/><stop offset="0" stop-color="#fff" stop-opacity="0.49"/><stop offset="0" stop-color="#fff" stop-opacity="0.84"/><stop offset="0" stop-color="#fff"/><stop offset="0.11" stop-color="#fff" stop-opacity="0.98"/><stop offset="0.22" stop-color="#fff" stop-opacity="0.94"/><stop offset="0.33" stop-color="#fff" stop-opacity="0.86"/><stop offset="0.44" stop-color="#fff" stop-opacity="0.75"/><stop offset="0.55" stop-color="#fff" stop-opacity="0.61"/><stop offset="0.66" stop-color="#fff" stop-opacity="0.43"/><stop offset="0.77" stop-color="#fff" stop-opacity="0.23"/><stop offset="0.88" stop-color="#fff" stop-opacity="0"/></linearGradient><linearGradient id="linear-gradient-3" x1="496.82" y1="399.34" x2="496.82" y2="153.54" gradientUnits="userSpaceOnUse"><stop offset="0" stop-color="#fff" stop-opacity="0"/><stop offset="0.24" stop-color="#fff" stop-opacity="0"/><stop offset="0.27" stop-color="#fff" stop-opacity="0.05"/><stop offset="0.41" stop-color="#fff" stop-opacity="0.34"/><stop offset="0.55" stop-color="#fff" stop-opacity="0.57"/><stop offset="0.67" stop-color="#fff" stop-opacity="0.76"/><stop offset="0.78" stop-color="#fff" stop-opacity="0.89"/><stop offset="0.87" stop-color="#fff" stop-opacity="0.97"/><stop offset="0.93" stop-color="#fff"/></linearGradient><linearGradient id="linear-gradient-4" x1="160.16" y1="1809.84" x2="214.77" y2="1540.9" gradientUnits="userSpaceOnUse"><stop offset="0.06" stop-color="#fff"/><stop offset="0.16" stop-color="#fff" stop-opacity="0.99"/><stop offset="0.23" stop-color="#fff" stop-opacity="0.95"/><stop offset="0.3" stop-color="#fff" stop-opacity="0.88"/><stop offset="0.36" stop-color="#fff" stop-opacity="0.79"/><stop offset="0.43" stop-color="#fff" stop-opacity="0.67"/><stop offset="0.49" stop-color="#fff" stop-opacity="0.52"/><stop offset="0.54" stop-color="#fff" stop-opacity="0.35"/><stop offset="0.6" stop-color="#fff" stop-opacity="0.15"/><stop offset="0.64" stop-color="#fff" stop-opacity="0"/><stop offset="0.85" stop-color="#fff" stop-opacity="0"/></linearGradient><linearGradient id="linear-gradient-5" x1="398.93" y1="1781.04" x2="447.1" y2="1543.78" xlink:href="#linear-gradient-4"/></defs><title>1590 Tilia-4-negative</title><g id="Layer_2" data-name="Layer 2"><g id="_4th_Place" data-name="4th Place"><path class="cls-1" d="M293.58,1177.51S95.36,1192.23,77.49,1398.34c63.15-72.68,63.37-64.85,55.66-48.14-29.73,64.45,26.16,184.17,122.28,256.22,94.84,71.1,39.32,83.4,39.32,83.4s94.16-25.3,25-139.4C204.44,1360.11,245.92,1240.65,293.58,1177.51Z"/><path class="cls-1" d="M255.46,162s-129.12,61.66-118.3,180.69c39.68-83,49.12-54.11,58.83-54.11-66,205.61-9.62,209.21-59.47,245.28s-44.7,179.37,14,226.75,130.89-33.89,130.89-33.89l51.87-214.5L317.52,162Z"/><path class="cls-2" d="M368,137.12S191.27,46.94,176.84,75.8C166,97.44,210,141.41,255.46,162c15.16,6.88,30.49,11.16,44,11.16-75.75,97.39-97.39,367.93-93.79,465.32S156,797,156,797,79.45,927.08,72.23,970.37s-32.46,32.46-14.43,64.93c-7.21,50.5-1.92,129.86-6.37,162.32s24.41,36.07,24.41,36.07,3.61-148.93,21.64-175.46,0-35.44,10.82-58S144.37,844.12,166,851.33s0,148.85,0,148.85-126.25,165-3.61,320.08c32.46,126.25,32.46,180.36,32.46,194.78s-28.86,14.43-14.43,54.11S176.84,1724,169.62,1762s-18,59.64,10.82,66.85,36.07-194.78,57.71-234.46-7.93-61.51-7.21-79.36c.84-21-21.64-147.89,28.86-165.93s144.28,3.61,151.5,14.43,18,140.68,0,162.32-32.46,50.5-18,64.93,37.78,184,27.91,223.64S454.59,1829,454.59,1829s-10.82-180.54,0-205.79-7.21-72.14,0-93.78,14.43-162.32,54.11-194.78,125.43-166.15,67.72-310.43S542,838.74,544.76,820c1.72-11.47,25.09,52.68,45.68,189.08,3.05,20.22-5.9,31.11,7.09,49.14s9,88.37,9,128S629,1212.63,629,1212.63s10.33-95.83,17-145.67c4.3-32-8.11-51.4-18.93-66.78S613.3,822.3,555.59,746.64s-75.75-153.08-75.75-153.08,97.39,129.38,212.82,60.11,72.14-173.87,54.11-211.75-90.18-12.63-144.28-110-43.29-155.11-111.82-202c90.18,7.21,122.64-119,108.21-119s-86.57,34.46-144.28,93C371.62,104.66,368,137.12,368,137.12Z"/><path class="cls-1" d="M333.31,120.24S427.54,79.41,410.4,10.87c87.35,55.06,44.18,16.38,44.18,54.68,144.28,31.89,140.68,53.53,147.89,93.21s-10.82-7.21-61.32-18c86.57,86.57,119,68.54,119,68.54S482.1,208,443.76,158.77s-14.43,36.07-14.43,36.07Z"/><path class="cls-3" d="M479.84,593.56s-49.2-52.5-78.87-145.74c0,0-42.77,49.8-42.77-21.19"/><path class="cls-3" d="M383,431.93c0-18.2,46.62-82.64,72.78,2.13,9.4,30.44-7.44,120.15,94.21,219.62"/><circle id="nostril_R" class="cls-4" cx="565.94" cy="507.69" r="31.15"/><circle id="nostril_L" class="cls-4" cx="725.27" cy="484.49" r="23.2"/><ellipse id="eye_L" class="cls-5" cx="425.54" cy="316.23" rx="20.35" ry="30.2"/><ellipse id="eye_R" class="cls-5" cx="567.97" cy="293.75" rx="20.35" ry="30.2"/><path class="cls-2" d="M392.41,347.25s31.16-26.87,56.26,8.21"/><path class="cls-2" d="M560.62,334.85s9.32-29.93,33.52-13.61"/><path class="cls-2" d="M356.08,304.87s116.83-9.11,95.63-48.79"/><path class="cls-3" d="M539.79,241.35s-6.2,27.62,67.33,31.1"/><path class="cls-6" d="M60.8,999.91c-8.08,11.44-14.79,14.16-3,35.39-5.15,36-3.93,86.78-4.42,124.68a254,254,0,0,0,26.08,1.65c3.09-42.06,8.57-89.51,18-103.41,16.17-23.79,3.36-33.42,8.33-51.44"/><path class="cls-7" d="M589.91,1005.56c.18,1.17.36,2.34.54,3.52,3.05,20.22-5.9,31.11,7.09,49.14,11.4,15.82,9.74,71.87,9.16,112.19,4.38.11,8.76.18,13.15.18A32.13,32.13,0,0,0,634,1167c3.56-31.6,8.32-72.74,12-100.07,4.3-32-8.11-51.4-18.93-66.78a18.05,18.05,0,0,1-2.06-4.92"/><path class="cls-8" d="M613,1146.69s-31.86,54.54-31.86,94.21,75.75,32.46,90.18,21.64,14.93-56.24-34.43-122C619.35,1161.93,613,1146.69,613,1146.69Z"/><path class="cls-9" d="M193.88,703.49S82.29,869.65,51,923.86c57.34,76.31,84.2,49.26,84.2,49.26L87.82,1198.2s281.73,120.93,529.09,0c-24.3-162.62-22-198-59.43-344.39,30,137.07,26.27,116.2,26.27,116.2s43.83,8.79,81.69-31c-17.06-68.18-124.11-212.27-124.11-212.27S371.91,994.42,193.88,703.49Z"/><path class="cls-8" d="M51,1147.11S-7.13,1212,7.3,1251.72s89.38,24.25,95.19,19.34,7.77-123.95-21.88-123.95Z"/></g><g id="_1st_Place" data-name="1st Place"><path class="cls-10" d="M435.85,323.54c7.66,0,7.67-11.91,0-11.91s-7.67,11.91,0,11.91Z"/><path class="cls-10" d="M579.85,299.54c7.66,0,7.67-11.91,0-11.91s-7.67,11.91,0,11.91Z"/><path class="cls-11" d="M434.1,194.09s57.52,146.4,131.52,205.24c-45.76-127.74-21.38-150.78-43.54-195.74-41.91-12.13-57.72-14.25-78.47-40.5C415.4,129.84,434.1,194.09,434.1,194.09Z"/><path class="cls-12" d="M181.16,1534.07c-4.77,6.73-7.43,16.6-.72,35.08,14.43,39.68-3.61,154.86-10.82,192.86-4,20.87-9,36.81-8,48.13l34.21-.27c17-50.24,25.12-184,42.3-215.47"/><path class="cls-13" d="M394.66,1550.53c-8,15.55-10.73,30.92-1.4,40.26,12.08,12.09,30.43,133,30.27,195.25,9.63-1.13,19.2-1.61,28.77-1.88-2.44-55.22-5.06-143.78,2.28-160.91,8.68-20.25-1.19-54.41-1.73-78.31"/><path class="cls-8" d="M173.6,1739.34s-69.7,22.55-71.1,97.52,117.63,46.11,139.27,20.86-25.07-104.84-30.46-118.38C177.92,1758.92,173.6,1739.34,173.6,1739.34Z"/><path class="cls-8" d="M422.86,1762s-54.85,54.82-44,113.14,109.58,27.75,117.92,7-13.67-101.82-45.44-122.52C440.52,1782.92,422.86,1762,422.86,1762Z"/></g><g id="Text-_outline" data-name="Text- outline"><path class="cls-10" d="M225.08,957.16v118.11H206.39V980a59.59,59.59,0,0,1-10.92,6.16,90.07,90.07,0,0,1-13.33,4.47v-16q4.67-1.53,9-3.22t8.58-3.79q4.23-2.09,8.54-4.67t8.9-5.88Z"/><path class="cls-10" d="M254.41,1072.61v-18q11.36,7.66,23,7.65t18.93-6q7.17-6,7.17-16,0-9.83-7.29-15.31t-20.91-5.48q-4.67,0-18.93,1l4.11-60.75h56.88v16H276.08l-1.93,28.92q5.56-.32,10.07-.32,18.37,0,28.4,9.43t10,25.78q0,17.16-11.48,27.51t-31.54,10.35Q262.71,1077.37,254.41,1072.61Z"/><path class="cls-10" d="M417.88,1011.22q0,17.32-3.75,29.81t-10.31,20.54a40.57,40.57,0,0,1-15.39,11.88,47.16,47.16,0,0,1-19,3.83,55.48,55.48,0,0,1-6.65-.4q-3.35-.4-6.37-1t-5.48-1.41a36.65,36.65,0,0,1-4.07-1.49V1056.1a33,33,0,0,0,4.19,2.13,44,44,0,0,0,5.44,1.93,53.38,53.38,0,0,0,6.12,1.37,37.89,37.89,0,0,0,6.16.52,28.66,28.66,0,0,0,12.45-2.66,25.63,25.63,0,0,0,9.55-7.9,38.22,38.22,0,0,0,6.08-13,68.26,68.26,0,0,0,2.13-18h-.32a21.34,21.34,0,0,1-3.83,4.87,26.65,26.65,0,0,1-5.44,4,30.29,30.29,0,0,1-6.81,2.78,29.66,29.66,0,0,1-8,1,35.49,35.49,0,0,1-13.5-2.54,31.8,31.8,0,0,1-10.84-7.21,33.3,33.3,0,0,1-7.21-11.36,40.56,40.56,0,0,1-2.62-14.9,42.75,42.75,0,0,1,3-16.32A35.72,35.72,0,0,1,364,960.59a41.79,41.79,0,0,1,15.39-2.78,37.65,37.65,0,0,1,14.79,2.94,31.88,31.88,0,0,1,12.25,9.35,47.68,47.68,0,0,1,8.38,16.56Q417.88,996.8,417.88,1011.22Zm-19.5-12.33a35.15,35.15,0,0,0-1.49-10.55,25.29,25.29,0,0,0-4.15-8.14,18.76,18.76,0,0,0-6.32-5.24,17.52,17.52,0,0,0-8-1.85,17.81,17.81,0,0,0-7.37,1.57,18.19,18.19,0,0,0-6.12,4.47,21.53,21.53,0,0,0-4.15,7,25.88,25.88,0,0,0-1.53,9.1,28.77,28.77,0,0,0,1.49,9.67,20.09,20.09,0,0,0,4.15,7,17.4,17.4,0,0,0,6.41,4.35,22.12,22.12,0,0,0,8.26,1.49,18.46,18.46,0,0,0,7.45-1.49,19.14,19.14,0,0,0,6-4,18.47,18.47,0,0,0,4-6A19,19,0,0,0,398.38,998.9Z"/><path class="cls-10" d="M470.17,1077.21q-18,0-28.16-14.74t-10.11-42.62q0-30.61,10.55-46.33t30.46-15.71Q511,957.81,511,1017q0,29.33-10.76,44.75T470.17,1077.21ZM472,972.71q-21,0-21,46.33,0,43.35,20.63,43.34,20.3,0,20.3-44.07Q491.92,972.71,472,972.71Z"/></g></g></svg>