<svg id="_4th_Place" data-name="4th Place" xmlns="http://www.w3.org/2000/svg" xmlns:xlink="http://www.w3.org/1999/xlink" viewBox="0 0 1042.34 2042.3"><defs><style>.cls-1{fill:ivory;}.cls-1,.cls-12,.cls-13,.cls-2,.cls-3,.cls-4,.cls-5,.cls-6,.cls-7,.cls-8,.cls-9{stroke:#000;stroke-miterlimit:10;}.cls-1,.cls-12,.cls-13,.cls-2,.cls-3,.cls-4,.cls-5,.cls-6,.cls-7,.cls-8{stroke-width:10px;}.cls-2{fill:#efd259;}.cls-3{fill:none;}.cls-4{fill:#a38f3b;}.cls-6{fill:url(#linear-gradient);}.cls-7{fill:url(#linear-gradient-2);}.cls-8{fill:#896834;}.cls-9{fill:#73c04a;stroke-width:12px;}.cls-10,.cls-14{fill:#fff;}.cls-11{fill:url(#linear-gradient-3);}.cls-12{fill:url(#linear-gradient-4);}.cls-13{fill:url(#linear-gradient-5);}.cls-14{font-size:165px;font-family:Montserrat;font-weight:700;}</style><linearGradient id="linear-gradient" x1="207" y1="1245.52" x2="238.94" y2="1088.17" gradientUnits="userSpaceOnUse"><stop offset="0" stop-color="#fff" stop-opacity="0.01"/><stop offset="0" stop-color="#fff" stop-opacity="0.07"/><stop offset="0" stop-color="#fff" stop-opacity="0.23"/><stop offset="0" stop-color="#fff" stop-opacity="0.49"/><stop offset="0" stop-color="#fff" stop-opacity="0.84"/><stop offset="0" stop-color="#fff"/><stop offset="0.1" stop-color="#fff" stop-opacity="0.98"/><stop offset="0.21" stop-color="#fff" stop-opacity="0.93"/><stop offset="0.33" stop-color="#fff" stop-opacity="0.85"/><stop offset="0.44" stop-color="#fff" stop-opacity="0.73"/><stop offset="0.56" stop-color="#fff" stop-opacity="0.58"/><stop offset="0.68" stop-color="#fff" stop-opacity="0.4"/><stop offset="0.79" stop-color="#fff" stop-opacity="0.18"/><stop offset="0.88" stop-color="#fff" stop-opacity="0"/></linearGradient><linearGradient id="linear-gradient-2" x1="750.63" y1="1253.99" x2="785.51" y2="1082.2" gradientUnits="userSpaceOnUse"><stop offset="0" stop-color="#fff" stop-opacity="0.01"/><stop offset="0" stop-color="#fff" stop-opacity="0.07"/><stop offset="0" stop-color="#fff" stop-opacity="0.23"/><stop offset="0" stop-color="#fff" stop-opacity="0.49"/><stop offset="0" stop-color="#fff" stop-opacity="0.84"/><stop offset="0" stop-color="#fff"/><stop offset="0.11" stop-color="#fff" stop-opacity="0.98"/><stop offset="0.22" stop-color="#fff" stop-opacity="0.94"/><stop offset="0.33" stop-color="#fff" stop-opacity="0.86"/><stop offset="0.44" stop-color="#fff" stop-opacity="0.75"/><stop offset="0.55" stop-color="#fff" stop-opacity="0.61"/><stop offset="0.66" stop-color="#fff" stop-opacity="0.43"/><stop offset="0.77" stop-color="#fff" stop-opacity="0.23"/><stop offset="0.88" stop-color="#fff" stop-opacity="0"/></linearGradient><linearGradient id="linear-gradient-3" x1="652.09" y1="485.22" x2="652.09" y2="239.42" gradientUnits="userSpaceOnUse"><stop offset="0" stop-color="#fff" stop-opacity="0"/><stop offset="0.24" stop-color="#fff" stop-opacity="0"/><stop offset="0.27" stop-color="#fff" stop-opacity="0.05"/><stop offset="0.41" stop-color="#fff" stop-opacity="0.34"/><stop offset="0.55" stop-color="#fff" stop-opacity="0.57"/><stop offset="0.67" stop-color="#fff" stop-opacity="0.76"/><stop offset="0.78" stop-color="#fff" stop-opacity="0.89"/><stop offset="0.87" stop-color="#fff" stop-opacity="0.97"/><stop offset="0.93" stop-color="#fff"/></linearGradient><linearGradient id="linear-gradient-4" x1="315.43" y1="1895.72" x2="370.04" y2="1626.78" gradientUnits="userSpaceOnUse"><stop offset="0.06" stop-color="#fff"/><stop offset="0.16" stop-color="#fff" stop-opacity="0.99"/><stop offset="0.23" stop-color="#fff" stop-opacity="0.95"/><stop offset="0.3" stop-color="#fff" stop-opacity="0.88"/><stop offset="0.36" stop-color="#fff" stop-opacity="0.79"/><stop offset="0.43" stop-color="#fff" stop-opacity="0.67"/><stop offset="0.49" stop-color="#fff" stop-opacity="0.52"/><stop offset="0.54" stop-color="#fff" stop-opacity="0.35"/><stop offset="0.6" stop-color="#fff" stop-opacity="0.15"/><stop offset="0.64" stop-color="#fff" stop-opacity="0"/><stop offset="0.85" stop-color="#fff" stop-opacity="0"/></linearGradient><linearGradient id="linear-gradient-5" x1="554.2" y1="1866.92" x2="602.38" y2="1629.66" xlink:href="#linear-gradient-4"/></defs><title>horse_main_</title><path class="cls-1" d="M448.85,1263.39s-198.22,14.72-216.09,220.84c63.15-72.68,63.37-64.85,55.66-48.14-29.73,64.45,26.16,184.17,122.28,256.22,94.84,71.1,39.32,83.4,39.32,83.4s94.16-25.3,25-139.4C359.71,1446,401.19,1326.53,448.85,1263.39Z"/><path class="cls-1" d="M410.73,247.92s-129.12,61.66-118.3,180.69c39.68-83,49.12-54.11,58.83-54.11-66,205.61-9.62,209.21-59.47,245.28s-44.7,179.37,14,226.75,130.89-33.9,130.89-33.9l51.87-214.5-15.8-350.23H410.73Z"/><path class="cls-2" d="M523.29,223s-176.75-90.18-191.18-61.32c-10.82,21.64,33.14,65.6,78.62,86.23,15.16,6.88,30.49,11.16,44,11.16C379,356.47,357.36,627,361,724.39s-49.7,158.49-49.7,158.49S234.72,1013,227.5,1056.25s-32.46,32.46-14.43,64.93c-7.21,50.5-1.92,129.86-6.37,162.32s24.41,36.07,24.41,36.07,3.61-148.93,21.64-175.46,0-35.44,10.82-58S299.65,930,321.29,937.21s0,148.85,0,148.85S195,1251,317.68,1406.14c32.46,126.25,32.46,180.36,32.46,194.78s-28.86,14.43-14.43,54.11-3.61,154.86-10.82,192.86-18,59.64,10.82,66.85,36.07-194.78,57.71-234.46-7.93-61.51-7.21-79.36c0.84-21-21.64-147.89,28.86-165.93s144.29,3.61,151.5,14.43,18,140.68,0,162.32-32.46,50.5-18,64.93,37.78,184,27.91,223.64,33.41,14.62,33.41,14.62-10.82-180.54,0-205.79-7.21-72.14,0-93.78S624.29,1453,664,1420.57s125.43-166.15,67.72-310.43S697.22,924.62,700,905.88c1.72-11.47,25.09,52.68,45.68,189.08,3.05,20.22-5.9,31.11,7.09,49.14s9,88.37,9,128,22.43,26.36,22.43,26.36,10.33-95.83,17-145.67c4.3-32-8.11-51.4-18.93-66.78s-13.8-177.87-71.51-253.54-75.75-153.08-75.75-153.08,97.39,129.38,212.82,60.11S920.07,565.69,902,527.81s-90.18-12.63-144.28-110-43.29-155.11-111.82-202c90.18,7.21,122.64-119,108.21-119s-86.57,34.46-144.28,93C526.89,190.54,523.29,223,523.29,223Z"/><path class="cls-1" d="M488.59,206.12s94.23-40.83,77.09-109.36c87.35,55.06,44.18,16.38,44.18,54.68C754.14,183.33,750.54,205,757.75,244.65s-10.82-7.21-61.32-18c86.57,86.57,119,68.54,119,68.54s-178.09-1.3-216.43-50.5-14.43,36.07-14.43,36.07Z"/><path class="cls-3" d="M635.11,679.45s-49.2-52.5-78.87-145.74c0,0-42.77,49.8-42.77-21.19"/><path class="cls-3" d="M538.23,517.82c0-18.2,46.62-82.64,72.78,2.13,9.4,30.44-7.44,120.15,94.21,219.62"/><circle id="nostril_R" class="cls-4" cx="721.21" cy="593.57" r="31.15"/><circle id="nostril_L" class="cls-4" cx="880.54" cy="570.37" r="23.2"/><ellipse id="eye_L" class="cls-5" cx="580.81" cy="402.12" rx="20.35" ry="30.2"/><ellipse id="eye_R" class="cls-5" cx="723.24" cy="379.64" rx="20.35" ry="30.2"/><path class="cls-2" d="M547.68,433.13s31.16-26.87,56.26,8.21"/><path class="cls-2" d="M715.89,420.73s9.32-29.93,33.52-13.61"/><path class="cls-2" d="M511.36,390.75S628.18,381.64,607,342"/><path class="cls-3" d="M695.06,327.23s-6.2,27.62,67.33,31.1"/><path class="cls-6" d="M216.07,1085.79c-8.08,11.44-14.79,14.16-3,35.39-5.15,36-3.93,86.78-4.42,124.68a254,254,0,0,0,26.08,1.65c3.09-42.06,8.57-89.51,18-103.41,16.17-23.79,3.36-33.42,8.33-51.44"/><path class="cls-7" d="M745.18,1091.44c0.18,1.17.36,2.34,0.54,3.52,3.05,20.22-5.9,31.11,7.09,49.14,11.4,15.82,9.74,71.87,9.16,112.19,4.38,0.11,8.76.18,13.15,0.18a32.13,32.13,0,0,0,14.18-3.56c3.56-31.6,8.32-72.74,12-100.07,4.3-32-8.11-51.4-18.93-66.78a18.05,18.05,0,0,1-2.06-4.92"/><path class="cls-8" d="M768.23,1232.57s-31.86,54.54-31.86,94.21,75.75,32.46,90.18,21.64,14.93-56.24-34.43-122C774.62,1247.81,768.23,1232.57,768.23,1232.57Z"/><path class="cls-9" d="M349.15,789.38S237.56,955.53,206.24,1009.75c57.34,76.31,84.2,49.26,84.2,49.26l-47.34,225.08s281.73,120.93,529.09,0c-24.3-162.62-22-198-59.43-344.39,30,137.07,26.27,116.2,26.27,116.2s43.83,8.79,81.69-31c-17.06-68.18-124.11-212.27-124.11-212.27S527.18,1080.3,349.15,789.38Z"/><path class="cls-8" d="M206.24,1233s-58.09,64.93-43.66,104.61,89.38,24.25,95.19,19.34S265.53,1233,235.89,1233H206.24Z"/><path class="cls-10" d="M591.12,409.43c7.66,0,7.67-11.91,0-11.91s-7.67,11.91,0,11.91h0Z"/><path class="cls-10" d="M735.12,385.43c7.66,0,7.67-11.91,0-11.91s-7.67,11.91,0,11.91h0Z"/><path class="cls-11" d="M589.37,280s57.52,146.4,131.52,205.24c-45.76-127.74-21.38-150.78-43.54-195.74-41.91-12.13-57.72-14.25-78.47-40.5C570.68,215.72,589.37,280,589.37,280Z"/><path class="cls-12" d="M336.43,1620c-4.77,6.73-7.43,16.6-.72,35.08,14.43,39.68-3.61,154.86-10.82,192.86-4,20.87-9,36.81-8,48.13l34.21-.27c17-50.24,25.12-184,42.3-215.47"/><path class="cls-13" d="M549.94,1636.41c-8,15.55-10.73,30.92-1.4,40.26,12.08,12.09,30.43,133,30.27,195.25,9.63-1.13,19.2-1.61,28.77-1.88-2.44-55.22-5.06-143.78,2.28-160.91,8.68-20.25-1.19-54.41-1.73-78.31"/><path class="cls-8" d="M328.87,1825.22s-69.7,22.55-71.1,97.52S375.39,1968.85,397,1943.6,372,1838.76,366.58,1825.22C333.2,1844.81,328.87,1825.22,328.87,1825.22Z"/><path class="cls-8" d="M578.13,1847.89s-54.85,54.82-44,113.14,109.58,27.75,117.92,7-13.67-101.82-45.44-122.52C595.79,1868.81,578.13,1847.89,578.13,1847.89Z"/><text class="cls-14" transform="translate(330.81 1161.15)">1590</text></svg>