<svg xmlns="http://www.w3.org/2000/svg" xmlns:xlink="http://www.w3.org/1999/xlink" viewBox="0 0 1156.58 1957.66"><defs><style>.cls-1,.cls-15{fill:#fff;}.cls-1,.cls-10,.cls-11,.cls-12,.cls-13,.cls-14,.cls-2,.cls-3,.cls-4,.cls-5,.cls-6,.cls-7,.cls-8{stroke:#000;stroke-miterlimit:10;}.cls-1,.cls-10,.cls-11,.cls-12,.cls-13,.cls-14,.cls-2,.cls-3,.cls-4,.cls-6,.cls-7,.cls-8{stroke-width:10px;}.cls-2{fill:ivory;}.cls-3{fill:#efd259;}.cls-4{fill:#933a22;}.cls-5{fill:#a50e19;stroke-width:12px;}.cls-6{fill:#541818;}.cls-7{fill:none;}.cls-8{fill:#a38f3b;}.cls-9{fill:url(#linear-gradient);}.cls-10{fill:url(#linear-gradient-2);}.cls-11{fill:#896834;}.cls-12{fill:url(#linear-gradient-3);}.cls-13{fill:url(#linear-gradient-4);}.cls-14{fill:url(#linear-gradient-5);}</style><linearGradient id="linear-gradient" x1="617.67" y1="333.12" x2="642.61" y2="210.3" gradientUnits="userSpaceOnUse"><stop offset="0" stop-color="#fff" stop-opacity="0"/><stop offset="0.24" stop-color="#fff" stop-opacity="0"/><stop offset="0.93" stop-color="#fff"/></linearGradient><linearGradient id="linear-gradient-2" x1="248.2" y1="1831.22" x2="317.18" y2="1491.49" gradientUnits="userSpaceOnUse"><stop offset="0" stop-color="#fff"/><stop offset="0.09" stop-color="#fff" stop-opacity="0.99"/><stop offset="0.17" stop-color="#fff" stop-opacity="0.95"/><stop offset="0.23" stop-color="#fff" stop-opacity="0.88"/><stop offset="0.3" stop-color="#fff" stop-opacity="0.79"/><stop offset="0.36" stop-color="#fff" stop-opacity="0.67"/><stop offset="0.42" stop-color="#fff" stop-opacity="0.52"/><stop offset="0.48" stop-color="#fff" stop-opacity="0.34"/><stop offset="0.53" stop-color="#fff" stop-opacity="0.15"/><stop offset="0.57" stop-color="#fff" stop-opacity="0"/><stop offset="1" stop-color="#fff" stop-opacity="0"/></linearGradient><linearGradient id="linear-gradient-3" x1="639.5" y1="1847" x2="704.49" y2="1526.96" gradientUnits="userSpaceOnUse"><stop offset="0" stop-color="#fff"/><stop offset="0.1" stop-color="#fff" stop-opacity="0.99"/><stop offset="0.18" stop-color="#fff" stop-opacity="0.95"/><stop offset="0.25" stop-color="#fff" stop-opacity="0.89"/><stop offset="0.31" stop-color="#fff" stop-opacity="0.8"/><stop offset="0.37" stop-color="#fff" stop-opacity="0.69"/><stop offset="0.42" stop-color="#fff" stop-opacity="0.55"/><stop offset="0.47" stop-color="#fff" stop-opacity="0.38"/><stop offset="0.52" stop-color="#fff" stop-opacity="0.2"/><stop offset="0.57" stop-color="#fff" stop-opacity="0"/><stop offset="1" stop-color="#fff" stop-opacity="0"/></linearGradient><linearGradient id="linear-gradient-4" x1="121.42" y1="410.16" x2="169.3" y2="174.34" gradientUnits="userSpaceOnUse"><stop offset="0.27" stop-color="#fff" stop-opacity="0"/><stop offset="0.3" stop-color="#fff" stop-opacity="0.13"/><stop offset="0.34" stop-color="#fff" stop-opacity="0.31"/><stop offset="0.39" stop-color="#fff" stop-opacity="0.48"/><stop offset="0.44" stop-color="#fff" stop-opacity="0.62"/><stop offset="0.5" stop-color="#fff" stop-opacity="0.74"/><stop offset="0.56" stop-color="#fff" stop-opacity="0.83"/><stop offset="0.62" stop-color="#fff" stop-opacity="0.91"/><stop offset="0.7" stop-color="#fff" stop-opacity="0.96"/><stop offset="0.8" stop-color="#fff" stop-opacity="0.99"/><stop offset="1" stop-color="#fff"/><stop offset="1" stop-color="#fff" stop-opacity="0.99"/><stop offset="1" stop-color="#fff" stop-opacity="0.96"/><stop offset="1" stop-color="#fff" stop-opacity="0.91"/><stop offset="1" stop-color="#fff" stop-opacity="0.83"/><stop offset="1" stop-color="#fff" stop-opacity="0.73"/><stop offset="1" stop-color="#fff" stop-opacity="0.61"/><stop offset="1" stop-color="#fff" stop-opacity="0.47"/><stop offset="1" stop-color="#fff" stop-opacity="0.3"/><stop offset="1" stop-color="#fff" stop-opacity="0.12"/><stop offset="1" stop-color="#fff" stop-opacity="0"/></linearGradient><linearGradient id="linear-gradient-5" x1="1007.03" y1="344.73" x2="1027.94" y2="241.79" gradientUnits="userSpaceOnUse"><stop offset="0" stop-color="#fff" stop-opacity="0"/><stop offset="0.03" stop-color="#fff" stop-opacity="0.11"/><stop offset="0.1" stop-color="#fff" stop-opacity="0.29"/><stop offset="0.17" stop-color="#fff" stop-opacity="0.46"/><stop offset="0.24" stop-color="#fff" stop-opacity="0.61"/><stop offset="0.32" stop-color="#fff" stop-opacity="0.73"/><stop offset="0.41" stop-color="#fff" stop-opacity="0.83"/><stop offset="0.5" stop-color="#fff" stop-opacity="0.91"/><stop offset="0.61" stop-color="#fff" stop-opacity="0.96"/><stop offset="0.75" stop-color="#fff" stop-opacity="0.99"/><stop offset="1" stop-color="#fff"/><stop offset="1" stop-color="#fff" stop-opacity="0.99"/><stop offset="1" stop-color="#fff" stop-opacity="0.96"/><stop offset="1" stop-color="#fff" stop-opacity="0.91"/><stop offset="1" stop-color="#fff" stop-opacity="0.83"/><stop offset="1" stop-color="#fff" stop-opacity="0.73"/><stop offset="1" stop-color="#fff" stop-opacity="0.61"/><stop offset="1" stop-color="#fff" stop-opacity="0.47"/><stop offset="1" stop-color="#fff" stop-opacity="0.3"/><stop offset="1" stop-color="#fff" stop-opacity="0.12"/><stop offset="1" stop-color="#fff" stop-opacity="0"/></linearGradient></defs><title>1590 Tilia-1-negative</title><g id="Layer_2" data-name="Layer 2"><g id="_2nd_Place" data-name="2nd Place"><polyline class="cls-1" points="592.06 178.92 642.64 184.77 592.06 178.92 592.06 190.41 656.81 291.43 642.64 184.77 592.06 178.92"/></g><g id="_1st_Place" data-name="1st Place"><path class="cls-2" d="M480.69,190.63s-37.07-4.87-84.78,31.48-59.07,40.64-75,37.36c54.52,28.52,100-19.18,100-19.18s-61.34,168.12-159,77.24c25,131.77,86.33,56.8,86.33,56.8s-86.33,70.43-50,113.59c22.72-56.8,45.44-31.81,45.44-31.81S286.86,512.91,305,547c25,63.61-4,99.15-2.27,103.52S339,822.91,339,822.91l98.82-112.45s63-320.31,64.74-325.43,4.83-162,4.83-162Z"/><path class="cls-2" d="M317.55,1288.19s-1.86-2.19-5.2-5.81c-29.22-31.6-155-204-198.15.68-52.25,247.63-90.78,202.19-90.78,202.19s25.19,50,67.33-9.09c9,68.15-49.25,136.31-49.25,136.31s168.12-34.08,140.85-272.62c-13.46-117.77,12.93-136.13,133.34-53.86"/><path class="cls-3" d="M900.2,466.56c-.1-3.56-.08-7.09,0-10.61-24.44,45-44.25,80.79-48.58,86.56-13,17.27-56.13,47.49-69.08,86.35C777,645.5,768.41,661,744.88,689l39.73,25.84c34.43-52.34,57.76-80.64,71.33-90.33,30.22-21.59,25.91-69.08,38.86-95,3.21-6.42,14.91-25.31,30.69-50.09C915.6,478.5,906.68,474.74,900.2,466.56Z"/><path class="cls-4" d="M1015.69,240.29S948.79,366.43,900.21,455.95c-.09,3.52-.11,7,0,10.61,6.48,8.18,15.4,11.94,25.29,12.91,47.89-75.19,133.37-204.65,133.37-204.65Z"/><path class="cls-3" d="M771.59,732.85c-42.23,64.2-83.09,137.53-80.72,163.7C695.19,944,781.54,1237.63,721.1,1324s-38.86,211.56-38.86,237.46,13,51.81,8.64,86.35,30.22,168.38,30.22,168.38L690.88,1855s-34.54,13-25.9-60.44-13-138.16-25.9-164.06,9.23-21.68,0-77.72c-11.5-69.82-11.5-119.8-143.82-124.35-157-5.39-167,98.44-171.35,137.3s0,56.13-17.27,69.08-13,155.43-13,155.43l-34.54,43.17s-25.91-34.54-4.32-86.35,13-120.89,8.64-142.48-4.32-25.91,17.27-64.76,8.64-99.3-17.27-220.19,51.81-349.72,60.44-388.57S207.32,611.59,194.37,590s-25.9-34.54-25.9-99.3S90.75,201.43,90.75,201.43s25.9-103.62,51.81,30.22,77.71,215.87,95,246.1,30.22,43.17,25.9,73.4,4.32,246.1,99.3,198.6c-4.32-47.49-13-345.4,144.64-526.73-88.51-86.35-49.65-207.24-49.65-207.24L557,184.16l35-5.24s7.68-32.62-17.5-163.14c82.27,86.3,58.49,126.78,68.08,169,103.07,16.25,48.53,89,125.85,125.48,44.59,21,56.57-4.13,133.38-5.1,137.65-1.74,154.52,146.23,97,201.88s-139.74,98.53-303.16-5.76c19.19,88.26,3.84,209.14-15.35,207.22s-67.16-92.58-67.16-92.58-4.32,159.75,30.22,159.75c19.75,0,57.86-35.3,89.3-72.8Z"/><path class="cls-5" d="M287.44,606.67s33.95,113.92,75.31,143.08C387.07,816.41,531.08,898,634.07,771.1c42.41,4.2,113.85-117.69,113.85-117.69s77.36,56,84.18,113.94c-97.69,67-129.5,126.09-129.5,126.09s90,321.72,62.76,393.29c-87.75-33.2-167.27-51.37-296.76-30.93-31,4.9-161.3,46.24-248.53,46.24,39.52-164.38,73.6-347.69,69.77-387.74-3.51-36.68-131.46-191.92-131.46-191.92S199.28,625.82,287.44,606.67Z"/><path class="cls-6" d="M695.67,501.27s-86.21-61.06-111.2-126.95l-22.72,29.53S709.19,928.1,695.67,501.27Z"/><path class="cls-7" d="M574.31,333.43s32.88,86.33-51.18,59.07"/><path class="cls-7" d="M561.75,276.63s13.63-77.24,34.08,0"/><path class="cls-7" d="M670.8,276.63s11.36-81.79,34.08,0"/><path class="cls-2" d="M551.88,157.05S623.09,83.81,670.8,128c-56.8,1-72.3,25.35-75,29.08s38.62-23.55,75-7.64,31.81,31.19,97.69,7.64C727.6,217.57,580.4,223.79,557,184.16S551.88,157.05,551.88,157.05Z"/><circle id="nostril_R" class="cls-8" cx="829.18" cy="405.14" r="29.91"/><circle id="nostril_L" class="cls-8" cx="982.2" cy="382.86" r="22.28"/><path class="cls-9" d="M578.79,205.68s50.08,110.06,101.07,140.06c-40.5-88.5-23.22-132.59-23.22-132.59S613.57,218.56,578.79,205.68Z"/><path class="cls-10" d="M342.15,1496.56c-13.71,26-16.47,53.13-18.26,69.19-4.32,38.86,0,56.13-17.27,69.08s-13,155.43-13,155.43l-34.54,43.17s-25.91-34.54-4.32-86.35,13-120.89,8.64-142.48-4.32-25.91,17.27-64.76c7.73-13.91,11-30.58,10.9-51.79"/><path class="cls-11" d="M249.24,1763.86s-83.69,85.2-83.69,126.1c47.71,78.39,150,44.31,150,44.31s12-114-22.11-156.69C246.43,1794.1,249.24,1763.86,249.24,1763.86Z"/><path class="cls-12" d="M632.13,1512.27c2.67,12.51,4.55,26.1,6.93,40.54,9.23,56-13,51.81,0,77.72s34.54,90.67,25.9,164.06,25.9,60.44,25.9,60.44l30.22-38.86s-34.54-133.84-30.22-168.38-8.64-60.44-8.64-86.35"/><path class="cls-11" d="M665,1794.58s-46.15,74.93-35.93,122.64c54.53,61.35,170.41,24.41,170.41,24.41-6.82-44.86-39.22-141.34-85.94-156.35C679.75,1807.7,665,1794.58,665,1794.58Z"/><path class="cls-13" d="M196.44,400.5c-19.25-41.8-40.19-98.08-53.88-168.85-25.9-133.84-51.81-30.22-51.81-30.22s43.4,125.37,65.33,215.77"/><path class="cls-14" d="M1012.21,345.79c47.89-75.19,46.65-71,46.65-71l-43.17-34.54s8.29-14.58-40.3,74.94"/><path class="cls-11" d="M102.2,235.44s24.19,18.11,40.36-3.78,33.21-141.17,23-158.21C97.38,59.81,36,128,36,128S53.89,202.79,102.2,235.44Z"/><path class="cls-11" d="M1005.86,256.91s16.56,26.54,41.4,34,93-67.52,103.23-81.15C1106.18,141.6,1038,128,1038,128S999.72,169.25,1005.86,256.91Z"/></g><g id="Text-_outline" data-name="Text- outline"><path class="cls-15" d="M367.67,967.66v118.11H349V990.54a59.56,59.56,0,0,1-10.92,6.16,90,90,0,0,1-13.33,4.47v-16q4.67-1.53,9-3.22t8.58-3.79q4.23-2.09,8.54-4.67t8.9-5.88Z"/><path class="cls-15" d="M397,1083.11v-18q11.36,7.66,23,7.65t18.93-6q7.17-6,7.17-16,0-9.83-7.29-15.31T417.94,1030q-4.67,0-18.93,1l4.11-60.75H460v16H418.67l-1.93,28.92q5.56-.32,10.07-.32,18.37,0,28.4,9.43t10,25.78q0,17.16-11.48,27.51t-31.54,10.35Q405.29,1087.87,397,1083.11Z"/><path class="cls-15" d="M560.46,1021.72q0,17.32-3.75,29.81t-10.31,20.54A40.56,40.56,0,0,1,531,1084a47.18,47.18,0,0,1-19,3.83,55.69,55.69,0,0,1-6.65-.4q-3.34-.4-6.37-1t-5.48-1.41a36.83,36.83,0,0,1-4.07-1.49V1066.6a33.28,33.28,0,0,0,4.19,2.13,44,44,0,0,0,5.44,1.93,53.54,53.54,0,0,0,6.12,1.37,37.89,37.89,0,0,0,6.16.52,28.66,28.66,0,0,0,12.45-2.66,25.63,25.63,0,0,0,9.55-7.9,38.21,38.21,0,0,0,6.08-13,68.31,68.31,0,0,0,2.13-18h-.32a21.37,21.37,0,0,1-3.83,4.87,26.68,26.68,0,0,1-5.44,4,30.33,30.33,0,0,1-6.81,2.78,29.62,29.62,0,0,1-8,1,35.49,35.49,0,0,1-13.5-2.54,31.77,31.77,0,0,1-10.84-7.21,33.26,33.26,0,0,1-7.21-11.36A40.56,40.56,0,0,1,483,1007.7a42.74,42.74,0,0,1,3-16.31,35.72,35.72,0,0,1,20.54-20.3A41.8,41.8,0,0,1,522,968.31a37.65,37.65,0,0,1,14.78,2.94A31.86,31.86,0,0,1,549,980.59a47.68,47.68,0,0,1,8.38,16.56Q560.46,1007.3,560.46,1021.72ZM541,1009.39a35.19,35.19,0,0,0-1.49-10.55,25.29,25.29,0,0,0-4.15-8.14,18.76,18.76,0,0,0-6.33-5.24,17.53,17.53,0,0,0-8-1.85,17.81,17.81,0,0,0-7.37,1.57,18.18,18.18,0,0,0-6.12,4.47,21.53,21.53,0,0,0-4.15,7,25.9,25.9,0,0,0-1.53,9.1,28.74,28.74,0,0,0,1.49,9.67,20.08,20.08,0,0,0,4.15,7,17.41,17.41,0,0,0,6.41,4.35,22.14,22.14,0,0,0,8.26,1.49,18.47,18.47,0,0,0,7.45-1.49,19.14,19.14,0,0,0,6-4,18.48,18.48,0,0,0,4-6A19,19,0,0,0,541,1009.39Z"/><path class="cls-15" d="M612.75,1087.71q-18,0-28.16-14.74t-10.11-42.62q0-30.62,10.55-46.33t30.46-15.71q38.11,0,38.11,59.22,0,29.33-10.76,44.75T612.75,1087.71Zm1.85-104.5q-21,0-21,46.33,0,43.34,20.63,43.34,20.3,0,20.3-44.07Q634.5,983.21,614.6,983.21Z"/></g></g></svg>