<svg id="_2nd_Place" data-name="2nd Place" xmlns="http://www.w3.org/2000/svg" xmlns:xlink="http://www.w3.org/1999/xlink" viewBox="0 0 1380.55 2232.89"><defs><style>.cls-1,.cls-15{fill:#fff;}.cls-1,.cls-10,.cls-11,.cls-12,.cls-13,.cls-14,.cls-2,.cls-3,.cls-4,.cls-5,.cls-6,.cls-7,.cls-8{stroke:#000;stroke-miterlimit:10;}.cls-1,.cls-10,.cls-11,.cls-12,.cls-13,.cls-14,.cls-2,.cls-3,.cls-4,.cls-6,.cls-7,.cls-8{stroke-width:10px;}.cls-2{fill:ivory;}.cls-3{fill:#efd259;}.cls-4{fill:#933a22;}.cls-5{fill:#73c04a;stroke-width:12px;}.cls-6{fill:#541818;}.cls-7{fill:none;}.cls-8{fill:#a38f3b;}.cls-9{fill:url(#linear-gradient);}.cls-10{fill:url(#linear-gradient-2);}.cls-11{fill:#896834;}.cls-12{fill:url(#linear-gradient-3);}.cls-13{fill:url(#linear-gradient-4);}.cls-14{fill:url(#linear-gradient-5);}.cls-15{font-size:165px;font-family:Montserrat;font-weight:700;}</style><linearGradient id="linear-gradient" x1="731.73" y1="418.61" x2="756.66" y2="295.8" gradientUnits="userSpaceOnUse"><stop offset="0" stop-color="#fff" stop-opacity="0"/><stop offset="0.24" stop-color="#fff" stop-opacity="0"/><stop offset="0.93" stop-color="#fff"/></linearGradient><linearGradient id="linear-gradient-2" x1="362.26" y1="1916.72" x2="431.24" y2="1576.99" gradientUnits="userSpaceOnUse"><stop offset="0" stop-color="#fff"/><stop offset="0.09" stop-color="#fff" stop-opacity="0.99"/><stop offset="0.17" stop-color="#fff" stop-opacity="0.95"/><stop offset="0.23" stop-color="#fff" stop-opacity="0.88"/><stop offset="0.3" stop-color="#fff" stop-opacity="0.79"/><stop offset="0.36" stop-color="#fff" stop-opacity="0.67"/><stop offset="0.42" stop-color="#fff" stop-opacity="0.52"/><stop offset="0.48" stop-color="#fff" stop-opacity="0.34"/><stop offset="0.53" stop-color="#fff" stop-opacity="0.15"/><stop offset="0.57" stop-color="#fff" stop-opacity="0"/><stop offset="1" stop-color="#fff" stop-opacity="0"/></linearGradient><linearGradient id="linear-gradient-3" x1="753.56" y1="1932.5" x2="818.54" y2="1612.45" gradientUnits="userSpaceOnUse"><stop offset="0" stop-color="#fff"/><stop offset="0.1" stop-color="#fff" stop-opacity="0.99"/><stop offset="0.18" stop-color="#fff" stop-opacity="0.95"/><stop offset="0.25" stop-color="#fff" stop-opacity="0.89"/><stop offset="0.31" stop-color="#fff" stop-opacity="0.8"/><stop offset="0.37" stop-color="#fff" stop-opacity="0.69"/><stop offset="0.42" stop-color="#fff" stop-opacity="0.55"/><stop offset="0.47" stop-color="#fff" stop-opacity="0.38"/><stop offset="0.52" stop-color="#fff" stop-opacity="0.2"/><stop offset="0.57" stop-color="#fff" stop-opacity="0"/><stop offset="1" stop-color="#fff" stop-opacity="0"/></linearGradient><linearGradient id="linear-gradient-4" x1="235.48" y1="495.66" x2="283.36" y2="259.84" gradientUnits="userSpaceOnUse"><stop offset="0.27" stop-color="#fff" stop-opacity="0"/><stop offset="0.3" stop-color="#fff" stop-opacity="0.13"/><stop offset="0.34" stop-color="#fff" stop-opacity="0.31"/><stop offset="0.39" stop-color="#fff" stop-opacity="0.48"/><stop offset="0.44" stop-color="#fff" stop-opacity="0.62"/><stop offset="0.5" stop-color="#fff" stop-opacity="0.74"/><stop offset="0.56" stop-color="#fff" stop-opacity="0.83"/><stop offset="0.62" stop-color="#fff" stop-opacity="0.91"/><stop offset="0.7" stop-color="#fff" stop-opacity="0.96"/><stop offset="0.8" stop-color="#fff" stop-opacity="0.99"/><stop offset="1" stop-color="#fff"/><stop offset="1" stop-color="#fff" stop-opacity="0.99"/><stop offset="1" stop-color="#fff" stop-opacity="0.96"/><stop offset="1" stop-color="#fff" stop-opacity="0.91"/><stop offset="1" stop-color="#fff" stop-opacity="0.83"/><stop offset="1" stop-color="#fff" stop-opacity="0.73"/><stop offset="1" stop-color="#fff" stop-opacity="0.61"/><stop offset="1" stop-color="#fff" stop-opacity="0.47"/><stop offset="1" stop-color="#fff" stop-opacity="0.3"/><stop offset="1" stop-color="#fff" stop-opacity="0.12"/><stop offset="1" stop-color="#fff" stop-opacity="0"/></linearGradient><linearGradient id="linear-gradient-5" x1="1121.09" y1="430.23" x2="1141.99" y2="327.28" gradientUnits="userSpaceOnUse"><stop offset="0" stop-color="#fff" stop-opacity="0"/><stop offset="0.03" stop-color="#fff" stop-opacity="0.11"/><stop offset="0.1" stop-color="#fff" stop-opacity="0.29"/><stop offset="0.17" stop-color="#fff" stop-opacity="0.46"/><stop offset="0.24" stop-color="#fff" stop-opacity="0.61"/><stop offset="0.32" stop-color="#fff" stop-opacity="0.73"/><stop offset="0.41" stop-color="#fff" stop-opacity="0.83"/><stop offset="0.5" stop-color="#fff" stop-opacity="0.91"/><stop offset="0.61" stop-color="#fff" stop-opacity="0.96"/><stop offset="0.75" stop-color="#fff" stop-opacity="0.99"/><stop offset="1" stop-color="#fff"/><stop offset="1" stop-color="#fff" stop-opacity="0.99"/><stop offset="1" stop-color="#fff" stop-opacity="0.96"/><stop offset="1" stop-color="#fff" stop-opacity="0.91"/><stop offset="1" stop-color="#fff" stop-opacity="0.83"/><stop offset="1" stop-color="#fff" stop-opacity="0.73"/><stop offset="1" stop-color="#fff" stop-opacity="0.61"/><stop offset="1" stop-color="#fff" stop-opacity="0.47"/><stop offset="1" stop-color="#fff" stop-opacity="0.3"/><stop offset="1" stop-color="#fff" stop-opacity="0.12"/><stop offset="1" stop-color="#fff" stop-opacity="0"/></linearGradient></defs><title>horse_main_</title><polyline class="cls-1" points="706.12 264.42 756.7 270.27 706.12 264.42 706.12 275.91 770.86 376.93 756.7 270.27 706.12 264.42"/><path class="cls-2" d="M594.74,276.12s-37.07-4.87-84.78,31.48S450.9,348.25,435,345c54.52,28.52,100-19.18,100-19.18S473.61,493.9,375.92,403c25,131.77,86.33,56.8,86.33,56.8s-86.33,70.43-50,113.59c22.72-56.8,45.44-31.81,45.44-31.81s-56.8,56.8-38.62,90.87c25,63.61-4,99.15-2.27,103.52S453,908.4,453,908.4L551.86,796s63-320.31,64.74-325.43,4.83-162,4.83-162Z"/><path class="cls-2" d="M431.61,1373.68s-1.86-2.19-5.2-5.81c-29.22-31.6-155-204-198.15.68-52.25,247.63-90.78,202.19-90.78,202.19s25.19,50,67.33-9.09c9,68.15-49.25,136.31-49.25,136.31s168.12-34.08,140.85-272.62c-13.46-117.77,12.93-136.13,133.34-53.86"/><path class="cls-3" d="M1014.25,552.05c-0.1-3.56-.08-7.09,0-10.61-24.44,45-44.25,80.79-48.58,86.56-13,17.27-56.13,47.49-69.08,86.35-5.54,16.64-14.13,32.11-37.66,60.18l39.73,25.84C933.1,748,956.42,719.74,970,710c30.22-21.59,25.91-69.08,38.86-95,3.21-6.42,14.91-25.31,30.69-50.09C1029.65,564,1020.73,560.24,1014.25,552.05Z"/><path class="cls-4" d="M1129.74,325.78s-66.89,126.14-115.48,215.66c-0.09,3.52-.11,7,0,10.61,6.48,8.18,15.4,11.94,25.29,12.91,47.89-75.19,133.37-204.65,133.37-204.65Z"/><path class="cls-3" d="M885.65,818.35c-42.23,64.2-83.09,137.53-80.72,163.7,4.32,47.49,90.67,341.08,30.22,427.43S796.3,1621,796.3,1646.93s13,51.81,8.64,86.35,30.22,168.38,30.22,168.38l-30.22,38.86s-34.54,13-25.9-60.44-13-138.16-25.9-164.06,9.23-21.68,0-77.72c-11.5-69.82-11.5-119.8-143.82-124.35-157-5.39-167,98.44-171.35,137.3s0,56.13-17.27,69.08-13,155.43-13,155.43l-34.54,43.17s-25.91-34.54-4.32-86.35,13-120.89,8.64-142.48-4.32-25.91,17.27-64.76,8.64-99.3-17.27-220.19,51.81-349.72,60.44-388.57S321.38,697.09,308.42,675.5s-25.9-34.54-25.9-99.3S204.8,286.93,204.8,286.93s25.9-103.62,51.81,30.22,77.71,215.87,95,246.1,30.22,43.17,25.9,73.4,4.32,246.1,99.3,198.6c-4.32-47.49-13-345.4,144.64-526.73-88.51-86.35-49.65-207.24-49.65-207.24l99.3,168.38,35-5.24s7.68-32.62-17.5-163.14c82.27,86.3,58.49,126.78,68.08,169,103.07,16.25,48.53,89,125.85,125.48,44.59,21,56.57-4.13,133.38-5.1,137.65-1.74,154.52,146.23,97,201.88s-139.74,98.53-303.16-5.76C828.92,675,813.57,795.91,794.38,794s-67.16-92.58-67.16-92.58-4.32,159.75,30.22,159.75c19.75,0,57.86-35.3,89.29-72.8Z"/><path class="cls-5" d="M401.5,692.16s33.95,113.92,75.31,143.08c24.32,66.66,168.33,148.23,271.32,21.35C790.54,860.8,862,738.91,862,738.91s77.36,56,84.18,113.94c-97.69,67-129.5,126.09-129.5,126.09s90,321.72,62.76,393.29c-87.75-33.2-167.27-51.37-296.76-30.93-31,4.9-161.3,46.24-248.53,46.24,39.52-164.38,73.6-347.69,69.77-387.74-3.51-36.68-131.46-191.92-131.46-191.92S313.33,711.32,401.5,692.16Z"/><path class="cls-6" d="M809.73,586.77s-86.21-61.06-111.2-126.95l-22.72,29.53S823.24,1013.6,809.73,586.77Z"/><path class="cls-7" d="M688.36,418.93s32.88,86.33-51.18,59.07"/><path class="cls-7" d="M675.81,362.13s13.63-77.24,34.08,0"/><path class="cls-7" d="M784.86,362.13s11.36-81.79,34.08,0"/><path class="cls-2" d="M665.94,242.55s71.21-73.24,118.91-29.08c-56.8,1-72.3,25.35-75,29.08s38.62-23.55,75-7.64,31.81,31.19,97.69,7.64c-40.89,60.51-188.09,66.73-211.45,27.11S665.94,242.55,665.94,242.55Z"/><circle id="nostril_R" class="cls-8" cx="943.23" cy="490.64" r="29.91"/><circle id="nostril_L" class="cls-8" cx="1096.26" cy="468.36" r="22.28"/><path class="cls-9" d="M692.85,291.18s50.08,110.06,101.07,140.06c-40.5-88.5-23.22-132.59-23.22-132.59S727.63,304.05,692.85,291.18Z"/><path class="cls-10" d="M456.2,1582.06c-13.71,26-16.47,53.13-18.26,69.19-4.32,38.86,0,56.13-17.27,69.08s-13,155.43-13,155.43l-34.54,43.17s-25.91-34.54-4.32-86.35,13-120.89,8.64-142.48-4.32-25.91,17.27-64.76c7.73-13.91,11-30.58,10.9-51.79"/><path class="cls-11" d="M363.29,1849.35s-83.69,85.2-83.69,126.1c47.71,78.39,150,44.31,150,44.31s12-114-22.11-156.69C360.49,1879.6,363.29,1849.35,363.29,1849.35Z"/><path class="cls-12" d="M746.19,1597.76c2.67,12.51,4.55,26.1,6.93,40.54,9.23,56-13,51.81,0,77.72s34.54,90.67,25.9,164.06,25.9,60.44,25.9,60.44l30.22-38.86s-34.54-133.84-30.22-168.38-8.64-60.44-8.64-86.35"/><path class="cls-11" d="M779,1880.08S732.88,1955,743.1,2002.72c54.53,61.35,170.41,24.41,170.41,24.41-6.82-44.86-39.22-141.34-85.94-156.35C793.8,1893.19,779,1880.08,779,1880.08Z"/><path class="cls-13" d="M310.5,486c-19.25-41.8-40.19-98.08-53.88-168.85-25.9-133.84-51.81-30.22-51.81-30.22s43.4,125.37,65.33,215.77"/><path class="cls-14" d="M1126.27,431.28c47.89-75.19,46.65-71,46.65-71l-43.17-34.54s8.29-14.58-40.3,74.94"/><path class="cls-11" d="M216.26,320.93s24.19,18.11,40.36-3.78,33.21-141.17,23-158.21c-68.16-13.63-129.51,54.53-129.51,54.53S167.94,288.28,216.26,320.93Z"/><path class="cls-11" d="M1119.92,342.4s16.56,26.54,41.4,34,93-67.52,103.23-81.15c-44.31-68.16-112.47-81.79-112.47-81.79S1113.77,254.75,1119.92,342.4Z"/><text class="cls-15" transform="translate(432.18 1171.27)">1590</text></svg>