<svg xmlns="http://www.w3.org/2000/svg" xmlns:xlink="http://www.w3.org/1999/xlink" viewBox="0 0 774.84 1908.05"><defs><style>.cls-1,.cls-11,.cls-12,.cls-2,.cls-3,.cls-4,.cls-5,.cls-6,.cls-7,.cls-8{stroke:#000;stroke-miterlimit:10;}.cls-1{stroke-width:4px;}.cls-2{fill:#db8742;}.cls-11,.cls-12,.cls-2,.cls-3,.cls-4,.cls-5,.cls-6,.cls-7{stroke-width:10px;}.cls-3{fill:none;}.cls-4{fill:#995e36;}.cls-6{fill:url(#linear-gradient);}.cls-7{fill:url(#linear-gradient-2);}.cls-8{fill:#73c04a;stroke-width:12px;}.cls-9{fill:#fff;}.cls-10{fill:url(#linear-gradient-3);}.cls-11{fill:url(#linear-gradient-4);}.cls-12{fill:url(#linear-gradient-5);}</style><linearGradient id="linear-gradient" x1="51.72" y1="1153.77" x2="83.67" y2="996.42" gradientUnits="userSpaceOnUse"><stop offset="0"/><stop offset="0.91" stop-opacity="0.2"/><stop offset="1" stop-opacity="0"/></linearGradient><linearGradient id="linear-gradient-2" x1="595.36" y1="1162.23" x2="630.24" y2="990.44" xlink:href="#linear-gradient"/><linearGradient id="linear-gradient-3" x1="491.82" y1="385.46" x2="491.82" y2="139.67" gradientUnits="userSpaceOnUse"><stop offset="0" stop-color="#fff" stop-opacity="0"/><stop offset="0.24" stop-color="#fff" stop-opacity="0"/><stop offset="0.27" stop-color="#fff" stop-opacity="0.05"/><stop offset="0.41" stop-color="#fff" stop-opacity="0.34"/><stop offset="0.55" stop-color="#fff" stop-opacity="0.57"/><stop offset="0.67" stop-color="#fff" stop-opacity="0.76"/><stop offset="0.78" stop-color="#fff" stop-opacity="0.89"/><stop offset="0.87" stop-color="#fff" stop-opacity="0.97"/><stop offset="0.93" stop-color="#fff"/></linearGradient><linearGradient id="linear-gradient-4" x1="160.16" y1="1803.96" x2="214.77" y2="1535.02" gradientUnits="userSpaceOnUse"><stop offset="0.06"/><stop offset="0.73" stop-opacity="0.43"/><stop offset="0.85" stop-opacity="0"/></linearGradient><linearGradient id="linear-gradient-5" x1="398.93" y1="1775.17" x2="447.1" y2="1537.9" gradientUnits="userSpaceOnUse"><stop offset="0.06"/><stop offset="0.73" stop-opacity="0.48"/><stop offset="0.85" stop-opacity="0"/></linearGradient></defs><title>1605 Tilia-4-positive</title><g id="Layer_2" data-name="Layer 2"><g id="_4th_Place" data-name="4th Place"><path class="cls-1" d="M293.58,1171.63S95.36,1186.35,77.49,1392.47c63.15-72.68,63.37-64.85,55.66-48.14-29.73,64.45,26.16,184.17,122.28,256.22,94.84,71.1,39.32,83.4,39.32,83.4s94.16-25.3,25-139.4C204.44,1354.24,245.92,1234.78,293.58,1171.63Z"/><path class="cls-1" d="M255.46,156.16s-129.12,61.66-118.3,180.69c39.68-83,49.12-54.11,58.83-54.11C129.95,488.35,186.37,492,136.52,528s-44.7,179.37,14,226.75,130.89-33.89,130.89-33.89l51.87-214.5-15.8-350.23Z"/><path class="cls-2" d="M368,131.25S191.27,41.07,176.84,69.93C166,91.57,210,135.53,255.46,156.16c15.16,6.88,30.49,11.16,44,11.16-75.75,97.39-97.39,367.93-93.79,465.32S156,791.13,156,791.13,79.45,921.21,72.23,964.49,39.77,997,57.8,1029.42c-7.21,50.5-1.92,129.86-6.37,162.32s24.41,36.07,24.41,36.07,3.61-148.93,21.64-175.46,0-35.44,10.82-58S144.37,838.24,166,845.46s0,148.85,0,148.85-126.25,165-3.61,320.08c32.46,126.25,32.46,180.36,32.46,194.78s-28.86,14.43-14.43,54.11-3.61,154.86-10.82,192.86-18,59.64,10.82,66.85,36.07-194.78,57.71-234.46-7.93-61.51-7.21-79.36c.84-21-21.64-147.89,28.86-165.93s144.28,3.61,151.5,14.43,18,140.68,0,162.32-32.46,50.5-18,64.93,37.78,184,27.91,223.64,33.41,14.62,33.41,14.62-10.82-180.54,0-205.79-7.21-72.14,0-93.79,14.43-162.32,54.11-194.78,125.43-166.15,67.72-310.43S542,832.87,544.76,814.12c1.72-11.47,25.09,52.68,45.68,189.08,3.05,20.22-5.9,31.11,7.09,49.14s9,88.37,9,128S629,1206.76,629,1206.76s10.33-95.83,17-145.67c4.3-32-8.11-51.4-18.93-66.78s-13.8-177.87-71.51-253.54-75.75-153.08-75.75-153.08,97.39,129.38,212.82,60.11,72.14-173.87,54.11-211.75-90.18-12.63-144.28-110S559.19,170.93,490.66,124C580.83,131.25,613.3,5,598.87,5S512.3,39.46,454.59,98C371.62,98.79,368,131.25,368,131.25Z"/><path class="cls-1" d="M333.31,114.36S427.54,73.54,410.4,5c87.35,55.06,44.18,16.38,44.18,54.68,144.28,31.89,140.68,53.53,147.89,93.21s-10.82-7.21-61.32-18c86.57,86.57,119,68.54,119,68.54s-178.09-1.3-216.43-50.5S429.34,189,429.34,189Z"/><path class="cls-3" d="M479.84,587.69S430.64,535.19,401,442c0,0-42.77,49.8-42.77-21.19"/><path class="cls-3" d="M383,426.06c0-18.2,46.62-82.64,72.78,2.13,9.4,30.44-7.44,120.15,94.21,219.62"/><circle id="nostril_R" class="cls-4" cx="565.94" cy="501.81" r="31.15"/><circle id="nostril_L" class="cls-4" cx="725.27" cy="478.62" r="23.2"/><ellipse id="eye_L" class="cls-5" cx="425.54" cy="310.36" rx="20.35" ry="30.2"/><ellipse id="eye_R" class="cls-5" cx="567.97" cy="287.88" rx="20.35" ry="30.2"/><path class="cls-2" d="M392.41,341.38s31.16-26.87,56.26,8.21"/><path class="cls-2" d="M560.62,329s9.32-29.93,33.52-13.61"/><path class="cls-2" d="M356.08,299s116.83-9.11,95.63-48.79"/><path class="cls-3" d="M539.79,235.47s-6.2,27.62,67.33,31.1"/><path class="cls-6" d="M60.8,994c-8.08,11.44-14.79,14.16-3,35.39-5.15,36-3.93,86.78-4.42,124.68a254,254,0,0,0,26.08,1.65c3.09-42.06,8.57-89.51,18-103.41,16.17-23.79,3.36-33.42,8.33-51.44"/><path class="cls-7" d="M589.91,999.69c.18,1.17.36,2.34.54,3.52,3.05,20.22-5.9,31.11,7.09,49.14,11.4,15.82,9.74,71.87,9.16,112.19,4.38.11,8.76.18,13.15.18a32.13,32.13,0,0,0,14.18-3.56c3.56-31.6,8.32-72.74,12-100.07,4.3-32-8.11-51.4-18.93-66.78a18.05,18.05,0,0,1-2.06-4.92"/><path class="cls-5" d="M613,1140.81S581.1,1195.35,581.1,1235s75.75,32.46,90.18,21.64,14.93-56.24-34.43-122C619.35,1156.06,613,1140.81,613,1140.81Z"/><path class="cls-8" d="M193.88,697.62S82.29,863.77,51,918c57.34,76.31,84.2,49.26,84.2,49.26L87.82,1192.33s281.73,120.93,529.09,0c-24.3-162.62-22-198-59.43-344.39,30,137.07,26.27,116.2,26.27,116.2s43.83,8.79,81.69-31C648.37,865,541.32,720.89,541.32,720.89S371.91,988.55,193.88,697.62Z"/><path class="cls-5" d="M51,1141.24S-7.13,1206.17,7.3,1245.85s89.38,24.25,95.19,19.34,7.77-123.95-21.88-123.95Z"/></g><g id="_1st_Place" data-name="1st Place"><path class="cls-9" d="M435.85,317.67c7.66,0,7.67-11.91,0-11.91s-7.67,11.91,0,11.91Z"/><path class="cls-9" d="M579.85,293.67c7.66,0,7.67-11.91,0-11.91s-7.67,11.91,0,11.91Z"/><path class="cls-10" d="M429.1,180.22s57.52,146.4,131.52,205.24c-45.76-127.74-21.38-150.78-43.54-195.74-41.91-12.13-57.72-14.25-78.47-40.5C410.4,116,429.1,180.22,429.1,180.22Z"/><path class="cls-11" d="M181.16,1528.2c-4.77,6.73-7.43,16.6-.72,35.08,14.43,39.68-3.61,154.86-10.82,192.86-4,20.87-9,36.81-8,48.13l34.21-.27c17-50.24,25.12-184,42.3-215.47"/><path class="cls-12" d="M394.66,1544.66c-8,15.55-10.73,30.92-1.4,40.26,12.08,12.09,30.43,133,30.27,195.25,9.63-1.13,19.2-1.61,28.77-1.88-2.44-55.22-5.06-143.78,2.28-160.91,8.68-20.25-1.19-54.41-1.73-78.31"/><path class="cls-5" d="M173.6,1733.46S103.9,1756,102.49,1831s117.63,46.11,139.27,20.86S216.7,1747,211.31,1733.46C177.92,1753.05,173.6,1733.46,173.6,1733.46Z"/><path class="cls-5" d="M422.86,1756.13s-54.85,54.82-44,113.14,109.58,27.75,117.92,7-13.67-101.82-45.44-122.52C440.52,1777.05,422.86,1756.13,422.86,1756.13Z"/></g><g id="Text-_outline" data-name="Text- outline"><path class="cls-9" d="M224.52,958.07v118.11H205.83V981a59.54,59.54,0,0,1-10.92,6.16,89.91,89.91,0,0,1-13.33,4.47v-16q4.67-1.53,9-3.22t8.58-3.79q4.23-2.09,8.54-4.67t8.9-5.88Z"/><path class="cls-9" d="M327.16,1039a42.53,42.53,0,0,1-2.86,15.87,37.23,37.23,0,0,1-7.94,12.37,35.46,35.46,0,0,1-12,8.06,39.41,39.41,0,0,1-15.11,2.86,37.52,37.52,0,0,1-16-3.38,34.25,34.25,0,0,1-12.57-10.07,48.43,48.43,0,0,1-8.18-16.64,82.76,82.76,0,0,1-2.9-23.08,96.5,96.5,0,0,1,3.83-28.44,62.43,62.43,0,0,1,10.51-20.79,45,45,0,0,1,15.71-12.73,44.29,44.29,0,0,1,19.5-4.35,73.21,73.21,0,0,1,11.88.89,33,33,0,0,1,8.58,2.42v16.84a55.59,55.59,0,0,0-8.78-3.54,36.16,36.16,0,0,0-10.71-1.45,28.55,28.55,0,0,0-12.49,2.74,27.66,27.66,0,0,0-9.87,8,39.6,39.6,0,0,0-6.53,13.05,63.05,63.05,0,0,0-2.46,17.93h.48a26.11,26.11,0,0,1,10-9,31.69,31.69,0,0,1,14.87-3.3,36.16,36.16,0,0,1,13.65,2.46,28.69,28.69,0,0,1,10.39,7.09,31.84,31.84,0,0,1,6.65,11.28A44.9,44.9,0,0,1,327.16,1039Zm-18.85,1.53a33.23,33.23,0,0,0-1.17-9.1,19.61,19.61,0,0,0-3.54-7,16,16,0,0,0-6-4.55,20.41,20.41,0,0,0-8.42-1.61,19.7,19.7,0,0,0-8.5,1.73,18.65,18.65,0,0,0-9.91,11,22.57,22.57,0,0,0-1.25,7.41,32.09,32.09,0,0,0,1.17,8.42,25.81,25.81,0,0,0,3.59,7.85,20,20,0,0,0,6.16,5.84,16.7,16.7,0,0,0,8.9,2.3,18.66,18.66,0,0,0,8.14-1.69,16.61,16.61,0,0,0,5.92-4.67,21.14,21.14,0,0,0,3.63-7A29.94,29.94,0,0,0,308.31,1040.57Z"/><path class="cls-9" d="M378,1078.12q-18,0-28.16-14.74t-10.11-42.62q0-30.62,10.55-46.33t30.46-15.71q38.11,0,38.11,59.22,0,29.33-10.76,44.75T378,1078.12Zm1.85-104.49q-21,0-21,46.33,0,43.35,20.63,43.34,20.3,0,20.3-44.07Q399.75,973.62,379.85,973.62Z"/><path class="cls-9" d="M437.53,1073.53v-18q11.36,7.66,23,7.65t18.93-6q7.17-6,7.17-16,0-9.83-7.29-15.31t-20.91-5.48q-4.68,0-18.93,1l4.11-60.75h56.88v16H459.21l-1.93,28.92q5.56-.32,10.07-.32,18.37,0,28.4,9.43t10,25.78q0,17.16-11.48,27.51t-31.54,10.35Q445.83,1078.28,437.53,1073.53Z"/></g></g></svg>