<svg id="_3rd_Place" data-name="3rd Place" xmlns="http://www.w3.org/2000/svg" xmlns:xlink="http://www.w3.org/1999/xlink" viewBox="0 0 1176.47 2292.92"><defs><style>.cls-1,.cls-10,.cls-11,.cls-14,.cls-15,.cls-2,.cls-3,.cls-4,.cls-5,.cls-6,.cls-7,.cls-8,.cls-9{stroke:#000;stroke-miterlimit:10;}.cls-1{stroke-width:4px;}.cls-2{fill:#db8742;}.cls-10,.cls-11,.cls-14,.cls-15,.cls-2,.cls-4,.cls-5,.cls-6,.cls-7,.cls-8,.cls-9{stroke-width:10px;}.cls-3{fill:#a50e19;stroke-width:12px;}.cls-4{fill:#541818;}.cls-5{fill:#e8a246;}.cls-6{fill:none;}.cls-12,.cls-16,.cls-8{fill:#fff;}.cls-9{fill:url(#linear-gradient);}.cls-10{fill:url(#linear-gradient-2);}.cls-11{fill:#995e36;}.cls-13{fill:url(#linear-gradient-3);}.cls-14{fill:url(#linear-gradient-4);}.cls-15{fill:url(#linear-gradient-5);}.cls-16{font-size:165px;font-family:Montserrat;font-weight:700;}</style><linearGradient id="linear-gradient" x1="470.25" y1="1201.56" x2="513.69" y2="987.63" gradientUnits="userSpaceOnUse"><stop offset="0.18" stop-opacity="0"/><stop offset="0.25" stop-opacity="0.28"/><stop offset="0.75"/></linearGradient><linearGradient id="linear-gradient-2" x1="818.84" y1="1137.29" x2="850.69" y2="980.45" gradientUnits="userSpaceOnUse"><stop offset="0.24" stop-opacity="0"/><stop offset="0.76"/></linearGradient><linearGradient id="linear-gradient-3" x1="685.96" y1="555.17" x2="685.96" y2="307.49" gradientUnits="userSpaceOnUse"><stop offset="0" stop-color="#fff" stop-opacity="0"/><stop offset="0.24" stop-color="#fff" stop-opacity="0"/><stop offset="0.27" stop-color="#fff" stop-opacity="0.05"/><stop offset="0.41" stop-color="#fff" stop-opacity="0.34"/><stop offset="0.55" stop-color="#fff" stop-opacity="0.57"/><stop offset="0.67" stop-color="#fff" stop-opacity="0.76"/><stop offset="0.78" stop-color="#fff" stop-opacity="0.89"/><stop offset="0.87" stop-color="#fff" stop-opacity="0.97"/><stop offset="0.93" stop-color="#fff"/></linearGradient><linearGradient id="linear-gradient-4" x1="367.31" y1="1964.47" x2="417.94" y2="1715.12" gradientUnits="userSpaceOnUse"><stop offset="0.06"/><stop offset="0.73" stop-opacity="0.51"/><stop offset="0.85" stop-opacity="0"/></linearGradient><linearGradient id="linear-gradient-5" x1="636.84" y1="1946.59" x2="683.02" y2="1719.18" gradientUnits="userSpaceOnUse"><stop offset="0.06"/><stop offset="0.73" stop-opacity="0.5"/><stop offset="0.85" stop-opacity="0"/></linearGradient></defs><title>horse_main_</title><path class="cls-1" d="M353,1389.88s-1.7-2-4.77-5.33c-26.79-29-157.55-157.62-164.56,83.42-7.81,268.63-89,204.59-89,204.59s94.36,84.34,129.17-54.66c8.26,62.47,0,56.22,0,56.22s86.35-90.58,52-193.66-34.9-168,75.48-92.59"/><path class="cls-1" d="M490.78,342.42S351.45,402.76,327.51,478c53.36-18.81,49.06-27.59,66.17-10.27C296.09,527.37,314,588.5,327.51,600.26c6-44.67,28.43-45,35.91-49.55s-2,77.77-35.91,101.28-86.28,68.18-63.83,108.15c27.43-37.62,63.83-37.62,63.83-37.62s-79.4,58.33-1.5,148.83,142.13-75.94,142.13-75.94l42.57-244.7,33.76-208.29H490.78Z"/><path class="cls-2" d="M304.11,960.71c23.68-87.88,85.49-62.41,85.49-62.41s-43.44-393,124.94-551.57c-48.63,0-138.4-70.54-134.66-119.92s164.59,77.6,164.59,77.6,18.7-52.91,128.91-42.33c69.07-52.91,118-102.29,132.93-84.65s0,77.6-93.52,112.87c3.74-10.58,37.41,0,41.15,49.38s0,211,145.88,257.48c149.63,67,78.55,204.57,29.12,225.74s-133.85,49.38-234.85-93.1C735.24,827.17,638,798.21,638,798.21l67.33,119.92s78.55,151.67,93.52,151.67S823.69,953.4,823.69,953.4L851.19,971s15,105.81,0,172.83-48.63-3.53-75-21.16S634.24,932.24,634.24,932.24L387.36,964s-3.92,6.93-8.56,21.28Z"/><path class="cls-2" d="M276.14,1298.56s-20.07,124.95,51.37,208.6c60.86,71.27,63.59,105.81,44.89,162.25s4.32,53.15,7.2,69.68c2.29,13.13,15.55,95-7.2,156.05C354.94,1942,364,1963.8,364,1963.8l56.61-36s-3.44-165.42,13.78-206.52c11.29-26.94-8.66-33.21-5.87-51.31,7.7-50,2.65-74.86,27.62-87.77,58-30,76-32.11,162.69-22.92,42.59,4.51,56.53,103.07,45.31,124.23s-29.93,35.27-11.22,63.49-16,109.34-11.73,148.14,31.25,71,32.71,53.15,23-182.72,32.35-203c16.21-35.27,4.57-53.88,2.35-66.1-4.82-26.48-13.09-112.85,9.35-139.3,20.1-23.69,65.43-82.11,58.18-198.5S276.14,1298.56,276.14,1298.56Z"/><path class="cls-3" d="M657.55,833.07L776.93,981.15l-66,61.53s93.86,208.85,86.38,326.41c-324.67,122-573.5,16.46-573.5,23.51s83.36-291.55,80.33-333.87c-75.34-21.16-80.33-63.48-80.33-63.48S273.54,929,360.1,846C544.46,1065.47,657.55,833.07,657.55,833.07Z"/><path class="cls-4" d="M694.09,729.8s-91.45-121.26-113-109.44C591.22,654.59,688.5,866.21,694.09,729.8Z"/><path class="cls-1" d="M544.46,304.41s30.9-108.55,128.14-103.85c-29.92,18.81-39.52,37.62-39.52,37.62s79.55-42.32,143.07,47c30.35,42,58.46-2.35,58.46-2.35S829.7,384,672.61,304c4.59,37.21,21.48,45.4,21.48,45.4S631.09,365.28,544.46,304.41Z"/><path class="cls-5" d="M351.73,1069.25c-8.19,25.32,0,0,4.77,74.28,59.51,13.07,183.29-116.39,183.29-116.39s52.37-56.43,48.63-3.53c-48.63,109.34-185.9,172.83-185.9,172.83s-29.31,50.48-68.46,0c-18-48.35-18-48.35-49.87-144.36Z"/><path class="cls-6" d="M638,798.21s-91.73-59.22-93.52-93"/><ellipse id="eye_L" class="cls-7" cx="622.87" cy="462.66" rx="20.35" ry="30.2"/><ellipse id="eye_R" class="cls-7" cx="765.31" cy="440.18" rx="20.35" ry="30.2"/><line class="cls-8" x1="565.87" y1="406.16" x2="617.17" y2="377.57"/><line class="cls-8" x1="734" y1="361.2" x2="783.93" y2="386.96"/><path class="cls-9" d="M414.69,1190.28c33.47-17.73,127.27-73.22,169.49-157.72-0.08-.69-0.14-1.38-0.22-2.07h1.24q1-2,1.88-4c-0.27-1.84-.71-3.45-0.12-4,0.56-.35,1.08-0.7,1.59-1.06,2.15-49.15-48.75,5.7-48.75,5.7s-76,79.44-137.48,107.58c-0.11.25-.23,0.51-0.36,0.78"/><path class="cls-10" d="M851.19,1143.86c11.8-52.83,5-129.76,1.59-160-7.61-3.88-15.27-8.26-23.83-5.41a45.4,45.4,0,0,0-8.23,3.7c-4,34.47-11.79,87.6-21.9,87.6"/><path class="cls-7" d="M541.12,1024.07s15.22-140.21,96.49-144.91,84,10.54,98.94,34.05-49.91,129.87-155.42,129.47C563.35,1002.81,541.12,1024.07,541.12,1024.07Z"/><path class="cls-7" d="M818.77,998.07s37.94,31.25,37.4,23.76S940,936.48,837.47,880c-64.29,0-70.45,7.78-81.5,19.17S780.57,960.79,818.77,998.07Z"/><circle id="nostril_R" class="cls-11" cx="785.08" cy="728.36" r="31.15"/><circle id="nostril_L" class="cls-11" cx="944.41" cy="705.16" r="23.2"/><path class="cls-12" d="M633,469.45c7.66,0,7.67-11.91,0-11.91s-7.67,11.91,0,11.91h0Z"/><path class="cls-12" d="M777,445.45c7.66,0,7.67-11.91,0-11.91s-7.67,11.91,0,11.91h0Z"/><path class="cls-13" d="M620,344.83s55.48,150.35,132,210.35c-30-93-33.3-229.69-33.3-229.69s-12.71-2-43.37-18c4.33,34.93,23.9,42.49,23.9,42.49S671,359.49,620,344.83Z"/><path class="cls-14" d="M370.34,1723.54c3.65,5.43,8.09,8.88,9.25,15.55,2.29,13.13,15.55,95-7.2,156.05C354.94,1942,364,1963.8,364,1963.8l56.61-36s-3.44-165.42,13.78-206.52c0.37-.89.71-1.76,1-2.61"/><path class="cls-7" d="M372.39,1895.14s-108.93,61.75-98.85,129.93c94.86,98.75,172.16,18.81,172.16,18.81s11.19-97-25.35-148.74C365.33,1918.09,372.39,1895.14,372.39,1895.14Z"/><path class="cls-15" d="M645.39,1719.64c-1.28,7.85.39,16.57,7.55,27.36,18.7,28.22-16,109.34-11.73,148.14s31.25,71,32.71,53.15,23-182.72,32.35-203a96.7,96.7,0,0,0,6.84-20"/><path class="cls-7" d="M636.62,1895.14s-66.25,66.45-53.78,146.39c82.29,89.34,194.09,0,194.09,0s-46.16-128.2-96.43-146.39C652,1921.83,636.62,1895.14,636.62,1895.14Z"/><text class="cls-16" transform="translate(366.18 1350.87)">1605</text></svg>