<svg id="_2nd_Place" data-name="2nd Place" xmlns="http://www.w3.org/2000/svg" xmlns:xlink="http://www.w3.org/1999/xlink" viewBox="0 0 1320.53 2244.3"><defs><style>.cls-1,.cls-10,.cls-11,.cls-12,.cls-2,.cls-3,.cls-4,.cls-5,.cls-6,.cls-7,.cls-8,.cls-9{stroke:#000;stroke-miterlimit:10;}.cls-1{stroke-width:4px;}.cls-13,.cls-15,.cls-2{fill:#fff;}.cls-10,.cls-11,.cls-12,.cls-2,.cls-3,.cls-4,.cls-5,.cls-6,.cls-7,.cls-9{stroke-width:10px;}.cls-3{fill:#db8742;}.cls-5{fill:none;}.cls-6{fill:#541818;}.cls-7{fill:#995e36;}.cls-8{fill:#73c04a;stroke-width:12px;}.cls-9{fill:url(#linear-gradient);}.cls-10{fill:url(#linear-gradient-2);}.cls-11{fill:url(#linear-gradient-3);}.cls-12{fill:url(#linear-gradient-4);}.cls-14{fill:url(#linear-gradient-5);}.cls-15{font-size:150px;font-family:Montserrat;font-weight:700;}</style><linearGradient id="linear-gradient" x1="452.17" y1="1853.6" x2="500.21" y2="1617.03" gradientUnits="userSpaceOnUse"><stop offset="0.06"/><stop offset="0.74" stop-opacity="0.4"/><stop offset="0.85" stop-opacity="0"/></linearGradient><linearGradient id="linear-gradient-2" x1="818.08" y1="1849.04" x2="864.61" y2="1619.87" gradientUnits="userSpaceOnUse"><stop offset="0.06"/><stop offset="0.73" stop-opacity="0.42"/><stop offset="0.85" stop-opacity="0"/></linearGradient><linearGradient id="linear-gradient-3" x1="261.36" y1="1290.32" x2="301.18" y2="1094.18" gradientUnits="userSpaceOnUse"><stop offset="0.3"/><stop offset="0.76" stop-color="#eaeaea" stop-opacity="0.08"/><stop offset="0.78" stop-color="#fff" stop-opacity="0"/></linearGradient><linearGradient id="linear-gradient-4" x1="994.57" y1="1262.64" x2="1034.24" y2="1067.27" gradientUnits="userSpaceOnUse"><stop offset="0.18"/><stop offset="0.64" stop-color="#b0b0b0" stop-opacity="0.31"/><stop offset="0.7" stop-color="#fff" stop-opacity="0"/></linearGradient><linearGradient id="linear-gradient-5" x1="825.43" y1="465.87" x2="825.43" y2="236.37" gradientUnits="userSpaceOnUse"><stop offset="0" stop-color="#fff" stop-opacity="0"/><stop offset="0.24" stop-color="#fff" stop-opacity="0"/><stop offset="0.27" stop-color="#fff" stop-opacity="0.05"/><stop offset="0.41" stop-color="#fff" stop-opacity="0.34"/><stop offset="0.55" stop-color="#fff" stop-opacity="0.57"/><stop offset="0.67" stop-color="#fff" stop-opacity="0.76"/><stop offset="0.78" stop-color="#fff" stop-opacity="0.89"/><stop offset="0.87" stop-color="#fff" stop-opacity="0.97"/><stop offset="0.93" stop-color="#fff"/></linearGradient></defs><title>horse_main_</title><path class="cls-1" d="M500,1347.82s-1.64-1.93-4.58-5.11c-25.73-27.82-151.31-151.38-158,80.11-7.5,258-85.5,196.49-85.5,196.49s90.62,81,124.06-52.5c7.94,60,0,54,0,54s82.93-87,49.93-186-33.52-161.35,72.49-88.93"/><path id="body" class="cls-2" d="M623.34,307c-119.22,156.22-46.51,505.66-46.51,505.66L416.63,998s-48.6,14.67-56.82,51.67-73.58,141.18-114.69,165.85-139.78,65.78-139.78,65.78l78.11,45.76,78.11-74.54S355.48,1100,404.86,1092.1c25.45-4.1,30.9-49.33,30.9-49.33l93-69.77s-4.11,102.78-28.78,131.55S388.46,1320.13,463,1417c75.91,98.63,8.22,172.66,8.22,172.66s-16.93,23-12.82,47.7,8.71,125-28.29,162-61.67,123.33-61.67,123.33,86.33,37,123.33,20.56,53.44-12.33,53.44-12.33l-49.33-111c-16.44-37-6.25-144.82,10.56-159.23,23.3-20,22.33-46.33,22.33-66.88s15.68-103,79-118c39-9.25,171.36-30.69,176.22,87.49,1.18,28.69-2.68,49.58-8.53,59.25-8.36,13.81-8,29.92.58,50.31,4.26,10.06,41.9,85.36,10.38,142.91s-11,90.44-11,90.44,127.44,37,152.11,0S861.78,1824,841.23,1787s-23.17-94.56-10.83-127.45,5-56.2.92-76.75-6.67-108.08,27.89-142c81-79.62,76.58-196.42,35.47-270.41S828.9,952.44,828.9,952.44s76.43,60.49,95.84,104.48c10.07,22.83-6,37.26,22.83,53.71s86.89,92.59,86.89,133.7,16.44,82.76,16.44,82.76,90.44,15.91,90.44-41.65-53.44-28.78-69.89-49.33-77.57-132.44-77.57-153-16.55-41.29-33.57-57.74c-9.36-9-138.21-187.12-155.61-216.12s-20.3-52.19-20.3-52.19"/><path class="cls-2" d="M707,702s50,39.63,77.42,55"/><path id="hair_bangs" class="cls-2" d="M981.24,102.9S944.17,236.37,844.06,236.37c-66.53,85.27-155.12,51.59-191.3,2.14,27.24-54.47,87.89-102.24,145.9-101-39.1,42.88-34.05,59.27-34.05,59.27s73.15-79.45,128.64-73.15C845.32,151.4,824.9,191.1,824.9,191.1S911.6,201.95,981.24,102.9Z"/><ellipse id="eye_L" class="cls-2" cx="756.48" cy="379.55" rx="19.55" ry="29.01"/><ellipse id="eye_R" class="cls-2" cx="893.27" cy="357.96" rx="19.55" ry="29.01"/><path id="brow_R" class="cls-2" d="M721.17,350.54s10.71-74.29,63.37-45.29"/><path id="cheek" class="cls-2" d="M652.76,441.46s16.09,20.57,38,23.94a38.23,38.23,0,0,0,23.43-3.76c32.79-16.4,6.31-53.08,6.31-53.08"/><path id="mouth" class="cls-2" d="M817,607.93s-63.74-59.27-102.84-146.29C690.74,465.4,699,465.8,699,465.8S719.8,756.74,840.28,756.74c13.69,0-19.16-57.23-25.82-79.45C802.83,638.47,817,607.93,817,607.93Z"/><circle id="nostril_R" class="cls-2" cx="1011.16" cy="567.08" r="29.91"/><circle id="nostril_L" class="cls-2" cx="1164.18" cy="544.8" r="22.28"/><path class="cls-2" d="M1034.45,1244.33s-9,62.73,0,86.08c79.67,15.14,110.9-12.8,145.41-55.53-60.8-49.3-108.41-38.78-108.41-38.78S1063.24,1254.85,1034.45,1244.33Z"/><path class="cls-2" d="M226.67,1222s-89.89-6-127.69,49.7c60.8,96.84,127.69,73.83,127.69,73.83s28.17-49.57,25-79C223.88,1255.15,227.83,1234.87,226.67,1222Z"/><path class="cls-2" d="M430.12,1799.32s-65.38,57.32-75.24,116.48c39.44,75.6,207.07,19.72,207.07,19.72s-45.45-102.64-68.74-122.81C450.19,1835.27,430.12,1799.32,430.12,1799.32Z"/><path class="cls-2" d="M793.68,1799.32s-49.32,47.46-39.46,119.77c115,74,195.56,0,195.56,0s-12.81-85.68-98.43-118.44C798.59,1838.56,793.68,1799.32,793.68,1799.32Z"/><path id="shirt_green" class="cls-2" d="M551.16,814.76S384.32,937.11,347.24,937.11,449.2,1078,449.2,1078l57.47-48.2s-59.32,166.84-100.11,189.09c166.84,122.35,396.72,155.72,537.6,40.78-37.08-118.64-94-204.13-110.05-280,69.27,105.77,65.56,92.94,65.56,92.94S992.37,1037,1022,979.64c-92.69-42.53-217.32-170.39-217.32-170.39S699.47,1000.14,551.16,814.76Z"/><path id="body-2" data-name="body" class="cls-3" d="M668.56,253.56l-15.8-15L495.9,89.11S475,214.21,623.34,288.64c-119.22,156.22-72.18,526.12-72.18,526.12L416.63,998s-48.6,14.67-56.82,51.67-73.58,141.18-114.69,165.85-139.78,65.78-139.78,65.78l78.11,45.76,78.11-74.54S355.48,1100,404.86,1092.1c25.45-4.1,30.9-49.33,30.9-49.33l93-69.77s-4.11,102.78-28.78,131.55S388.46,1320.13,463,1417c75.91,98.63,8.22,172.66,8.22,172.66s-16.93,23-12.82,47.7,8.71,125-28.29,162-61.67,123.33-61.67,123.33,86.33,37,123.33,20.56,53.44-12.33,53.44-12.33l-49.33-111c-16.44-37-6.25-144.82,10.56-159.23,23.3-20,22.33-46.33,22.33-66.88s15.68-103,79-118c39-9.25,171.36-30.69,176.22,87.49,1.18,28.69-2.68,49.58-8.53,59.25-8.36,13.81-8,29.92.58,50.31,4.26,10.06,41.9,85.36,10.38,142.91s-11,90.44-11,90.44,127.44,37,152.11,0S861.78,1824,841.23,1787s-23.17-94.56-10.83-127.45,5-56.2.92-76.75-6.67-108.08,27.89-142c81-79.62,76.58-196.42,35.47-270.41S828.9,952.44,828.9,952.44s76.43,60.49,95.84,104.48c10.07,22.83-6,37.26,22.83,53.71s86.89,92.59,86.89,133.7,16.44,82.76,16.44,82.76,90.44,15.91,90.44-41.65-53.44-28.78-69.89-49.33-77.57-132.44-77.57-153-16.55-41.29-33.57-57.74c-9.36-9-138.21-187.12-155.61-216.12s-20.3-52.19-20.3-52.19,35.57,11.29,55.87-.31S796.71,671.51,817,607.93c162.77,149.12,296.16,133.31,362.85,37.62s-44.09-216.61-134.49-193C867.16,499.23,903.29,339.51,903.29,339.51s2.9-121.78-95.69-139.18c58-60.89,11.6-176.87-23.2-188.47-31.89,113.08-31.89,185.57-31.89,185.57S671.6,240.09,668.56,253.56Z"/><path class="cls-2" d="M707,702s50,39.63,77.42,55"/><ellipse id="eye_L-2" data-name="eye_L" class="cls-4" cx="756.48" cy="379.55" rx="19.55" ry="29.01"/><ellipse id="eye_R-2" data-name="eye_R" class="cls-4" cx="897.27" cy="357.96" rx="19.55" ry="29.01"/><path id="brow_L" class="cls-5" d="M865.83,286.54s26.52-42.46,54.88,14.29"/><path id="cheek-2" data-name="cheek" class="cls-5" d="M652.76,441.46s16.09,20.57,38,23.94a38.23,38.23,0,0,0,23.43-3.76c32.79-16.4,6.31-53.08,6.31-53.08"/><path id="mouth-2" data-name="mouth" class="cls-6" d="M817,607.93s-63.74-59.27-102.84-146.29C690.74,465.4,699,465.8,699,465.8S721.17,678,805,729.54c11.66,7.17,16.1-30,9.44-52.24C802.83,638.47,817,607.93,817,607.93Z"/><circle id="nostril_R-2" data-name="nostril_R" class="cls-7" cx="1011.16" cy="567.08" r="29.91"/><circle id="nostril_L-2" data-name="nostril_L" class="cls-7" cx="1164.18" cy="544.8" r="22.28"/><path id="shirt_green-2" data-name="shirt_green" class="cls-8" d="M551.16,814.76S384.32,937.11,347.24,937.11,449.2,1078,449.2,1078l57.47-48.2s-59.32,166.84-100.11,189.09c166.84,122.35,396.72,155.72,537.6,40.78-37.08-118.64-94-204.13-110.05-280,69.27,105.77,65.56,92.94,65.56,92.94S992.37,1037,1022,979.64c-92.69-42.53-217.32-170.39-217.32-170.39S699.47,1000.14,551.16,814.76Z"/><path class="cls-9" d="M458,1624.35a67.41,67.41,0,0,0,.4,13c4.11,24.67,8.71,125-28.29,162-11.27,11.27-21.39,27.12-30,43.71,3.89,0,7.78,0,11.68.33,32,2.53,64,3.28,96,3.3l-11.91-26.79c-16.44-37-6.25-144.82,10.56-159.23,13.28-11.38,18.67-24.84,20.86-38.12"/><path class="cls-10" d="M779.2,1613.93a41.27,41.27,0,0,1-3.75,8.62c-8.36,13.81-8,29.92.58,50.31,4.26,10.06,41.9,85.36,10.38,142.91a161.9,161.9,0,0,0-11,24.6c17.38-.26,34.77,0,52.4,2,27.12,3.22,53.83,7.07,80.59,11-22.84-22.78-55.73-45.83-67.13-66.35-20.56-37-23.17-94.56-10.83-127.45a100.87,100.87,0,0,0,6.46-45.3"/><path id="hair_bangs-2" data-name="hair_bangs" class="cls-1" d="M981.24,102.9S944.17,236.37,844.06,236.37c-66.53,85.27-155.12,51.59-191.3,2.14,27.24-54.47,87.89-102.24,145.9-101-39.1,42.88-34.05,59.27-34.05,59.27s73.15-79.45,128.64-73.15C845.32,151.4,824.9,191.1,824.9,191.1S911.6,201.95,981.24,102.9Z"/><path id="hair_flow" class="cls-1" d="M582.63,264.18S502.29,320.39,525,349.4C500,483,381.23,508.3,436.72,635.68c63.33-152.67,66.84-7.57,31.53,53S472,771.88,490.94,782c-8.83-26.48,11.26-59.27,11.94-58s41,46.66,15.81,78.19S525.2,858,525.2,858l26-43.28s-43.87-375.57,72.18-526.12C589.13,282.55,582.63,264.18,582.63,264.18Z"/><path id="brow_R-2" data-name="brow_R" class="cls-5" d="M689.48,350.64s10.71-74.58,63.37-45.46"/><path class="cls-11" d="M336.83,1101.41c-24.8,44.11-63.82,97.41-91.7,114.13-11.57,6.94-27.71,15.19-44.92,23.46,4.08,16.24,15.88,31.65,28.68,44.73l32.68-31.18s58.31-94.69,107.2-138.73"/><path class="cls-12" d="M929.92,1090.92c1.66,6.7,6,13,17.63,19.71,28.78,16.44,86.89,92.58,86.89,133.7a189.63,189.63,0,0,0,2,26.82c12.74,0.42,25.1-.41,36.27-4.79,10.45-3.87,18.65-11.5,24.83-21.06-10.63-.92-20.55-2.19-26.16-9.2-16.44-20.56-77.57-132.44-77.57-153,0-8.6-2.9-17.22-7.52-25.56"/><path class="cls-4" d="M1034.45,1244.33s-9,62.73,0,86.08c79.67,15.14,110.9-12.8,145.41-55.53-60.8-49.3-108.41-38.78-108.41-38.78S1063.24,1254.85,1034.45,1244.33Z"/><path class="cls-4" d="M226.67,1222s-89.89-6-127.69,49.7c60.8,96.84,127.69,73.83,127.69,73.83s28.17-49.57,25-79C223.88,1255.15,227.83,1234.87,226.67,1222Z"/><path class="cls-4" d="M430.12,1799.32s-65.38,57.32-75.24,116.48c39.44,75.6,207.07,19.72,207.07,19.72s-45.45-102.64-68.74-122.81C450.19,1835.27,430.12,1799.32,430.12,1799.32Z"/><path class="cls-4" d="M793.68,1799.32s-49.32,47.46-39.46,119.77c115,74,195.56,0,195.56,0s-12.81-85.68-98.43-118.44C798.59,1838.56,793.68,1799.32,793.68,1799.32Z"/><path class="cls-13" d="M763.77,383.32c7.66,0,7.67-11.91,0-11.91s-7.67,11.91,0,11.91h0Z"/><path class="cls-13" d="M903.77,363.32c7.66,0,7.67-11.91,0-11.91s-7.67,11.91,0,11.91h0Z"/><path class="cls-14" d="M757.59,288.64c21.79-3.08,68.67-17.45,86.48-52.26,19.31,182.67,49.2,229.49,49.2,229.49S812.37,387,757.59,288.64Z"/><text class="cls-15" transform="translate(513 1209.9)">1605</text></svg>