<svg xmlns="http://www.w3.org/2000/svg" xmlns:xlink="http://www.w3.org/1999/xlink" viewBox="0 0 1175.3 1957.66"><defs><style>.cls-1,.cls-16{fill:#fff;}.cls-1,.cls-11,.cls-12,.cls-13,.cls-14,.cls-15,.cls-2,.cls-3,.cls-4,.cls-5,.cls-6,.cls-7,.cls-8,.cls-9{stroke:#000;stroke-miterlimit:10;}.cls-1,.cls-11,.cls-12,.cls-13,.cls-14,.cls-15,.cls-2,.cls-4,.cls-5,.cls-7,.cls-8,.cls-9{stroke-width:10px;}.cls-2{fill:#e8a246;}.cls-3{stroke-width:4px;}.cls-4{fill:#933a22;}.cls-5{fill:#db8742;}.cls-6{fill:#a50e19;stroke-width:12px;}.cls-7{fill:#541818;}.cls-8{fill:none;}.cls-9{fill:#995e36;}.cls-10{fill:url(#linear-gradient);}.cls-11{fill:url(#linear-gradient-2);}.cls-13{fill:url(#linear-gradient-3);}.cls-14{fill:url(#linear-gradient-4);}.cls-15{fill:url(#linear-gradient-5);}</style><linearGradient id="linear-gradient" x1="636.39" y1="330.12" x2="661.33" y2="207.3" gradientUnits="userSpaceOnUse"><stop offset="0" stop-color="#fff" stop-opacity="0"/><stop offset="0.24" stop-color="#fff" stop-opacity="0"/><stop offset="0.93" stop-color="#fff"/></linearGradient><linearGradient id="linear-gradient-2" x1="266.92" y1="1831.22" x2="335.9" y2="1491.49" gradientUnits="userSpaceOnUse"><stop offset="0"/><stop offset="0.91" stop-opacity="0.2"/><stop offset="1" stop-opacity="0"/></linearGradient><linearGradient id="linear-gradient-3" x1="658.23" y1="1847" x2="723.21" y2="1526.96" gradientUnits="userSpaceOnUse"><stop offset="0"/><stop offset="0.89" stop-opacity="0.27"/><stop offset="1" stop-opacity="0"/></linearGradient><linearGradient id="linear-gradient-4" x1="140.14" y1="410.16" x2="188.02" y2="174.34" gradientUnits="userSpaceOnUse"><stop offset="0.18" stop-color="#fff" stop-opacity="0"/><stop offset="0.25" stop-color="#b7b7b7" stop-opacity="0.28"/><stop offset="0.75"/></linearGradient><linearGradient id="linear-gradient-5" x1="1025.75" y1="344.73" x2="1046.66" y2="241.79" xlink:href="#linear-gradient-4"/></defs><title>1605 Tilia-1-negative</title><g id="Layer_2" data-name="Layer 2"><g id="_2nd_Place" data-name="2nd Place"><polyline class="cls-1" points="610.78 178.92 661.36 184.77 610.78 178.92 610.78 190.41 675.53 291.43 661.36 184.77 610.78 178.92"/><path class="cls-2" d="M1017.56,507c57.56-55.64,40.69-203.62-97-201.88-76.81,1-88.8,26.13-133.38,5.1a94.21,94.21,0,0,1-23.91-15.69q-4.74,4.79-9.22,10c-8,10-18,11-30,13-4,1-7,7-12,11-2,1-5-1-6,0s1,5,0,6-4-1-6,0c-5,4-8,8-12,12-11,13-17,29-35,37-4,2,1,9-6,18-4,6,1,15-2,23-1,3-6,5-5,12h-6c1,17-6,36,12,48,1,1,0,4,0,6,16-1,29,8,42,17,3,2,9,0,12,2,3,1,5,4,12,6,2.69.77,4.49,3,6,5.54-1-6.74-2.26-13.37-3.66-19.83C877.81,605.56,960,562.67,1017.56,507Z"/></g><g id="_1st_Place" data-name="1st Place"><path class="cls-3" d="M499.41,190.63s-37.07-4.87-84.78,31.48-59.07,40.64-75,37.36c54.52,28.52,100-19.18,100-19.18s-61.34,168.12-159,77.24c25,131.77,86.33,56.8,86.33,56.8s-86.33,70.43-50,113.59c22.72-56.8,45.44-31.81,45.44-31.81s-56.8,56.8-38.62,90.87c25,63.61-4,99.15-2.27,103.52s36.23,172.4,36.23,172.4l98.82-112.45s63-320.31,64.74-325.43,4.83-162,4.83-162Z"/><path class="cls-3" d="M336.27,1288.19s-1.86-2.19-5.2-5.81c-29.22-31.6-155-204-198.15.68-52.25,247.63-90.78,202.19-90.78,202.19s25.19,50,67.33-9.09c9,68.15-49.25,136.31-49.25,136.31s168.12-34.08,140.85-272.62C187.62,1222.09,214,1203.72,334.41,1286"/><path class="cls-2" d="M918.92,466.56c-.1-3.56-.08-7.09,0-10.61-24.44,45-44.25,80.79-48.58,86.56-13,17.27-56.13,47.49-69.08,86.35C795.72,645.5,787.13,661,763.6,689l39.73,25.84c34.43-52.34,57.76-80.64,71.33-90.33,30.22-21.59,25.91-69.08,38.86-95,3.21-6.42,14.91-25.31,30.69-50.09C934.32,478.5,925.4,474.74,918.92,466.56Z"/><path class="cls-4" d="M1034.41,240.29S967.52,366.43,918.93,455.95c-.09,3.52-.11,7,0,10.61,6.48,8.18,15.4,11.94,25.29,12.91,47.89-75.19,133.37-204.65,133.37-204.65Z"/><path class="cls-5" d="M790.31,732.85c-42.23,64.2-83.09,137.53-80.72,163.7,4.32,47.49,90.67,341.08,30.22,427.43S701,1535.53,701,1561.44s13,51.81,8.64,86.35,30.22,168.38,30.22,168.38L709.6,1855s-34.54,13-25.9-60.44-13-138.16-25.9-164.06,9.23-21.68,0-77.72C646.29,1483,646.29,1433,514,1428.46c-157-5.39-167,98.44-171.35,137.3s0,56.13-17.27,69.08-13,155.43-13,155.43l-34.54,43.17s-25.91-34.54-4.32-86.35,13-120.89,8.64-142.48-4.32-25.91,17.27-64.76,8.64-99.3-17.27-220.19S334,969.94,342.61,931.09,226,611.59,213.09,590s-25.9-34.54-25.9-99.3-77.71-289.27-77.71-289.27,25.9-103.62,51.81,30.22,77.71,215.87,95,246.1,30.22,43.17,25.9,73.4,4.32,246.1,99.3,198.6c-4.32-47.49-13-345.4,144.64-526.73C437.6,136.67,476.45,15.78,476.45,15.78l99.3,168.38,35-5.24s7.68-32.62-17.5-163.14c82.27,86.3,58.49,126.78,68.08,169,103.07,16.25,48.53,89,125.85,125.48,44.59,21,56.57-4.13,133.38-5.1,137.65-1.74,154.52,146.23,97,201.88s-139.74,98.53-303.16-5.76c19.19,88.26,3.84,209.14-15.35,207.22s-67.16-92.58-67.16-92.58-4.32,159.75,30.22,159.75c19.75,0,57.86-35.3,89.29-72.8Z"/><path class="cls-6" d="M306.16,606.67s33.95,113.92,75.31,143.08C405.79,816.41,549.8,898,652.79,771.1c42.41,4.2,113.85-117.69,113.85-117.69s77.36,56,84.18,113.94c-97.69,67-129.5,126.09-129.5,126.09s90,321.72,62.76,393.29c-87.75-33.2-167.27-51.37-296.76-30.93-31,4.9-161.3,46.24-248.53,46.24,39.52-164.38,73.6-347.69,69.77-387.74-3.51-36.68-131.46-191.92-131.46-191.92S218,625.82,306.16,606.67Z"/><path class="cls-7" d="M714.39,501.27s-86.21-61.06-111.2-126.95l-22.72,29.53S727.91,928.1,714.39,501.27Z"/><path class="cls-8" d="M593,333.43s32.88,86.33-51.18,59.07"/><path class="cls-8" d="M580.47,276.63s13.63-77.24,34.08,0"/><path class="cls-8" d="M689.52,276.63s11.36-81.79,34.08,0"/><path class="cls-3" d="M570.61,157.05S641.81,83.81,689.52,128c-56.8,1-72.3,25.35-75,29.08s38.62-23.55,75-7.64,31.81,31.19,97.69,7.64c-40.89,60.51-188.09,66.73-211.45,27.11S570.61,157.05,570.61,157.05Z"/><circle id="nostril_R" class="cls-9" cx="847.9" cy="405.14" r="29.91"/><circle id="nostril_L" class="cls-9" cx="1000.92" cy="382.86" r="22.28"/><path class="cls-10" d="M597.51,202.68s50.08,110.06,101.07,140.06c-40.5-88.5-23.22-132.59-23.22-132.59S632.29,215.56,597.51,202.68Z"/><path class="cls-11" d="M360.87,1496.56c-13.71,26-16.47,53.13-18.26,69.19-4.32,38.86,0,56.13-17.27,69.08s-13,155.43-13,155.43l-34.54,43.17s-25.91-34.54-4.32-86.35,13-120.89,8.64-142.48-4.32-25.91,17.27-64.76c7.73-13.91,11-30.58,10.9-51.79"/><path class="cls-12" d="M268,1763.86s-83.69,85.2-83.69,126.1c47.71,78.39,150,44.31,150,44.31s12-114-22.11-156.69C265.15,1794.1,268,1763.86,268,1763.86Z"/><path class="cls-13" d="M650.86,1512.27c2.67,12.51,4.55,26.1,6.93,40.54,9.23,56-13,51.81,0,77.72s34.54,90.67,25.9,164.06S709.6,1855,709.6,1855l30.22-38.86s-34.54-133.84-30.22-168.38-8.64-60.44-8.64-86.35"/><path class="cls-12" d="M683.69,1794.58s-46.15,74.93-35.93,122.64c54.53,61.35,170.41,24.41,170.41,24.41-6.82-44.86-39.22-141.34-85.94-156.35C698.47,1807.7,683.69,1794.58,683.69,1794.58Z"/><path class="cls-14" d="M215.16,400.5c-19.25-41.8-40.19-98.08-53.88-168.85-25.9-133.84-51.81-30.22-51.81-30.22s43.4,125.37,65.33,215.77"/><path class="cls-15" d="M1030.93,345.79c47.89-75.19,46.65-71,46.65-71l-43.17-34.54s8.29-14.58-40.3,74.94"/><path class="cls-12" d="M120.92,235.44s24.19,18.11,40.36-3.78,33.21-141.17,23-158.21C116.1,59.81,54.76,128,54.76,128S72.61,202.79,120.92,235.44Z"/><path class="cls-12" d="M1024.58,256.91s16.56,26.54,41.4,34,93-67.52,103.23-81.15C1124.9,141.6,1056.74,128,1056.74,128S1018.44,169.25,1024.58,256.91Z"/><text></text></g><g id="Text-_outline" data-name="Text- outline"><path class="cls-16" d="M385.82,999.41v118.11H367.13v-95.23a59.56,59.56,0,0,1-10.92,6.16,90,90,0,0,1-13.33,4.47v-16q4.67-1.53,9-3.22t8.58-3.79q4.23-2.09,8.54-4.67t8.9-5.88Z"/><path class="cls-16" d="M488.46,1080.37a42.51,42.51,0,0,1-2.86,15.87,37.21,37.21,0,0,1-7.94,12.37,35.46,35.46,0,0,1-12,8.06,39.43,39.43,0,0,1-15.11,2.86,37.52,37.52,0,0,1-16-3.38A34.24,34.24,0,0,1,422,1106.08a48.4,48.4,0,0,1-8.18-16.64,82.75,82.75,0,0,1-2.9-23.08,96.54,96.54,0,0,1,3.83-28.44,62.45,62.45,0,0,1,10.51-20.79,45,45,0,0,1,15.71-12.73,44.3,44.3,0,0,1,19.5-4.35,73.11,73.11,0,0,1,11.88.89,33,33,0,0,1,8.58,2.42v16.84a55.71,55.71,0,0,0-8.78-3.54,36.17,36.17,0,0,0-10.72-1.45,28.55,28.55,0,0,0-12.49,2.74,27.67,27.67,0,0,0-9.87,8,39.61,39.61,0,0,0-6.53,13.05,63.09,63.09,0,0,0-2.46,17.93h.48a26.09,26.09,0,0,1,10-9,31.68,31.68,0,0,1,14.87-3.3,36.18,36.18,0,0,1,13.66,2.46,28.66,28.66,0,0,1,10.39,7.09,31.82,31.82,0,0,1,6.65,11.28A44.87,44.87,0,0,1,488.46,1080.37Zm-18.85,1.53a33.25,33.25,0,0,0-1.17-9.1,19.6,19.6,0,0,0-3.54-7,16,16,0,0,0-6-4.55,20.39,20.39,0,0,0-8.42-1.61,19.7,19.7,0,0,0-8.5,1.73,18.65,18.65,0,0,0-9.91,11,22.58,22.58,0,0,0-1.25,7.41,32.09,32.09,0,0,0,1.17,8.42,25.82,25.82,0,0,0,3.58,7.86,20,20,0,0,0,6.16,5.84,16.71,16.71,0,0,0,8.9,2.3,18.69,18.69,0,0,0,8.14-1.69,16.62,16.62,0,0,0,5.92-4.67,21.13,21.13,0,0,0,3.63-7A29.94,29.94,0,0,0,469.61,1081.91Z"/><path class="cls-16" d="M539.3,1119.45q-18,0-28.16-14.74T501,1062.09q0-30.61,10.55-46.33T542,1000q38.11,0,38.11,59.22,0,29.33-10.76,44.75T539.3,1119.45Zm1.85-104.5q-21,0-21,46.33,0,43.34,20.63,43.34,20.3,0,20.3-44.07Q561.05,1015,541.15,1015Z"/><path class="cls-16" d="M598.84,1114.86v-18q11.36,7.66,23,7.65t18.93-6q7.17-6,7.17-16,0-9.83-7.29-15.31t-20.91-5.48q-4.67,0-18.93,1L605,1002h56.88v16H620.51l-1.93,28.92q5.56-.32,10.07-.32,18.37,0,28.4,9.43t10,25.78q0,17.16-11.48,27.51t-31.54,10.35Q607.14,1119.61,598.84,1114.86Z"/></g></g></svg>