<svg xmlns="http://www.w3.org/2000/svg" xmlns:xlink="http://www.w3.org/1999/xlink" viewBox="0 0 901.55 1917.45"><defs><style>.cls-1,.cls-10,.cls-11,.cls-12,.cls-15,.cls-16,.cls-2,.cls-3,.cls-4,.cls-5,.cls-6,.cls-7,.cls-8,.cls-9{stroke:#000;stroke-miterlimit:10;}.cls-1{stroke-width:4px;}.cls-2{fill:#db8742;}.cls-10,.cls-11,.cls-12,.cls-15,.cls-16,.cls-2,.cls-4,.cls-5,.cls-6,.cls-7,.cls-8,.cls-9{stroke-width:10px;}.cls-3{fill:#a50e19;stroke-width:12px;}.cls-4{fill:#541818;}.cls-5{fill:#e8a246;}.cls-6{fill:none;}.cls-13,.cls-8{fill:#fff;}.cls-9{fill:url(#linear-gradient);}.cls-10{fill:#933a22;}.cls-11{fill:url(#linear-gradient-2);}.cls-12{fill:#995e36;}.cls-14{fill:url(#linear-gradient-3);}.cls-15{fill:url(#linear-gradient-4);}.cls-16{fill:url(#linear-gradient-5);}</style><linearGradient id="linear-gradient" x1="376.98" y1="1032.77" x2="420.42" y2="818.83" gradientUnits="userSpaceOnUse"><stop offset="0.18" stop-opacity="0"/><stop offset="0.25" stop-opacity="0.28"/><stop offset="0.75"/></linearGradient><linearGradient id="linear-gradient-2" x1="725.57" y1="968.5" x2="757.42" y2="811.66" gradientUnits="userSpaceOnUse"><stop offset="0.24" stop-opacity="0"/><stop offset="0.76"/></linearGradient><linearGradient id="linear-gradient-3" x1="592.69" y1="386.38" x2="592.69" y2="138.7" gradientUnits="userSpaceOnUse"><stop offset="0" stop-color="#fff" stop-opacity="0"/><stop offset="0.24" stop-color="#fff" stop-opacity="0"/><stop offset="0.27" stop-color="#fff" stop-opacity="0.05"/><stop offset="0.41" stop-color="#fff" stop-opacity="0.34"/><stop offset="0.55" stop-color="#fff" stop-opacity="0.57"/><stop offset="0.67" stop-color="#fff" stop-opacity="0.76"/><stop offset="0.78" stop-color="#fff" stop-opacity="0.89"/><stop offset="0.87" stop-color="#fff" stop-opacity="0.97"/><stop offset="0.93" stop-color="#fff"/></linearGradient><linearGradient id="linear-gradient-4" x1="274.04" y1="1795.67" x2="324.66" y2="1546.32" gradientUnits="userSpaceOnUse"><stop offset="0.06"/><stop offset="0.73" stop-opacity="0.51"/><stop offset="0.85" stop-opacity="0"/></linearGradient><linearGradient id="linear-gradient-5" x1="543.57" y1="1777.8" x2="589.74" y2="1550.39" gradientUnits="userSpaceOnUse"><stop offset="0.06"/><stop offset="0.73" stop-opacity="0.5"/><stop offset="0.85" stop-opacity="0"/></linearGradient></defs><title>1605 Tilia-3-negative</title><g id="Layer_2" data-name="Layer 2"><g id="_3rd_Place" data-name="3rd Place"><path class="cls-1" d="M259.68,1221.09s-1.7-2-4.77-5.33c-26.79-29-157.55-157.62-164.56,83.42-7.81,268.63-89,204.59-89,204.59s94.36,84.34,129.17-54.66c8.26,62.47,0,56.22,0,56.22s86.35-90.58,52-193.66-34.9-168,75.48-92.59"/><path class="cls-1" d="M397.51,173.63S258.17,234,234.24,309.21c53.36-18.81,49.06-27.59,66.17-10.27-97.59,59.64-79.64,120.77-66.17,132.53,6-44.67,28.43-45,35.91-49.55s-2,77.77-35.91,101.28S148,551.38,170.4,591.35c27.43-37.62,63.83-37.62,63.83-37.62s-79.4,58.33-1.5,148.83,142.13-75.94,142.13-75.94l42.57-244.7,33.76-208.29Z"/><path class="cls-2" d="M210.84,791.91c23.68-87.88,85.49-62.41,85.49-62.41s-43.44-393,124.94-551.57c-48.63,0-138.4-70.54-134.66-119.92s164.59,77.6,164.59,77.6,18.7-52.91,128.91-42.33C649.17,40.38,698.07-9,713,8.64s0,77.6-93.52,112.87c3.74-10.58,37.41,0,41.15,49.38s0,211,145.88,257.48c149.63,67,78.55,204.57,29.12,225.74S701.81,703.48,600.82,561c41.15,97.37-56.11,68.41-56.11,68.41L612,749.33S690.59,901,705.56,901s24.86-116.39,24.86-116.39l27.5,17.64s15,105.81,0,172.83-48.63-3.53-75-21.16S541,763.44,541,763.44L294.09,795.19s-3.92,6.93-8.56,21.28Z"/><path class="cls-2" d="M182.87,1129.77s-20.07,124.95,51.37,208.6c60.86,71.27,63.59,105.81,44.89,162.25s4.32,53.15,7.2,69.68c2.29,13.13,15.55,95-7.2,156.05-17.46,46.87-8.38,68.66-8.38,68.66l56.61-36s-3.44-165.42,13.78-206.52c11.29-26.94-8.66-33.21-5.87-51.31,7.7-50,2.65-74.86,27.62-87.77,58-30,76-32.11,162.69-22.92,42.59,4.51,56.53,103.07,45.31,124.23S541,1550,559.67,1578.21s-16,109.34-11.73,148.14,31.25,71,32.71,53.15,23-182.72,32.35-203c16.21-35.27,4.57-53.88,2.35-66.1-4.82-26.48-13.09-112.85,9.35-139.3,20.1-23.69,65.43-82.11,58.18-198.5S182.87,1129.77,182.87,1129.77Z"/><path class="cls-3" d="M564.28,664.28,683.66,812.36l-66,61.53S711.49,1082.74,704,1200.3c-324.67,122-573.5,16.46-573.5,23.51s83.36-291.55,80.33-333.87c-75.34-21.16-80.33-63.48-80.33-63.48s49.77-66.21,136.32-149.21C451.19,896.68,564.28,664.28,564.28,664.28Z"/><path class="cls-4" d="M600.82,561s-91.45-121.26-113-109.44C497.95,485.79,595.23,697.42,600.82,561Z"/><path class="cls-1" d="M451.19,135.62S482.09,27.07,579.34,31.77c-29.92,18.81-39.52,37.62-39.52,37.62s79.55-42.32,143.07,47c30.35,42,58.46-2.35,58.46-2.35s-4.91,101.1-162,21.16c4.59,37.21,21.48,45.4,21.48,45.4S537.82,196.49,451.19,135.62Z"/><path class="cls-5" d="M258.46,900.46c-8.19,25.32,0,0,4.77,74.28,59.51,13.07,183.29-116.39,183.29-116.39s52.37-56.43,48.63-3.53c-48.63,109.34-185.9,172.83-185.9,172.83s-29.31,50.48-68.46,0c-18-48.35-18-48.35-49.87-144.36Z"/><path class="cls-6" d="M544.71,629.41s-91.73-59.22-93.52-93"/><ellipse id="eye_L" class="cls-7" cx="529.6" cy="293.87" rx="20.35" ry="30.2"/><ellipse id="eye_R" class="cls-7" cx="672.03" cy="271.39" rx="20.35" ry="30.2"/><line class="cls-8" x1="472.6" y1="237.37" x2="523.9" y2="208.78"/><line class="cls-8" x1="640.73" y1="192.41" x2="690.66" y2="218.17"/><path class="cls-9" d="M321.42,1021.49c33.47-17.73,127.27-73.22,169.49-157.72-.08-.69-.14-1.38-.22-2.07h1.24q1-2,1.88-4c-.27-1.84-.71-3.45-.12-4,.56-.35,1.08-.7,1.59-1.06,2.15-49.15-48.75,5.7-48.75,5.7s-76,79.44-137.48,107.58c-.11.25-.23.51-.36.78"/><path class="cls-10" d="M681.55,917"/><path class="cls-11" d="M757.92,975.07c11.8-52.83,5-129.76,1.59-160-7.61-3.88-15.27-8.26-23.83-5.41a45.4,45.4,0,0,0-8.23,3.7c-4,34.47-11.79,87.6-21.9,87.6"/><path class="cls-7" d="M447.85,855.28s15.22-140.21,96.49-144.91,84,10.54,98.94,34.05S593.37,874.29,487.86,873.89C470.08,834,447.85,855.28,447.85,855.28Z"/><path class="cls-7" d="M725.5,829.27s37.94,31.25,37.4,23.76,83.83-85.35-18.7-141.77c-64.29,0-70.45,7.78-81.5,19.17S687.3,792,725.5,829.27Z"/></g><g id="_1st_Place" data-name="1st Place"><circle id="nostril_R" class="cls-12" cx="691.8" cy="559.57" r="31.15"/><circle id="nostril_L" class="cls-12" cx="851.14" cy="536.37" r="23.2"/><path class="cls-13" d="M539.68,300.65c7.66,0,7.67-11.91,0-11.91s-7.67,11.91,0,11.91Z"/><path class="cls-13" d="M683.68,276.65c7.66,0,7.67-11.91,0-11.91s-7.67,11.91,0,11.91Z"/><path class="cls-14" d="M526.68,176s55.48,150.35,132,210.35c-30-93-33.3-229.69-33.3-229.69s-12.71-2-43.37-18c4.33,34.93,23.9,42.49,23.9,42.49S577.68,190.7,526.68,176Z"/><path class="cls-15" d="M277.07,1554.75c3.65,5.43,8.09,8.88,9.25,15.55,2.29,13.13,15.55,95-7.2,156.05-17.46,46.87-8.38,68.66-8.38,68.66l56.61-36s-3.44-165.42,13.78-206.52c.37-.89.71-1.76,1-2.61"/><path class="cls-7" d="M279.12,1726.35s-108.93,61.75-98.85,129.93c94.86,98.75,172.16,18.81,172.16,18.81s11.19-97-25.35-148.74C272.06,1749.3,279.12,1726.35,279.12,1726.35Z"/><path class="cls-16" d="M552.12,1550.85c-1.28,7.85.39,16.57,7.55,27.36,18.7,28.22-16,109.34-11.73,148.14s31.25,71,32.71,53.15,23-182.72,32.35-203a96.7,96.7,0,0,0,6.84-20"/><path class="cls-7" d="M543.35,1726.35s-66.25,66.45-53.78,146.39c82.29,89.34,194.09,0,194.09,0s-46.16-128.2-96.43-146.39C558.68,1753,543.35,1726.35,543.35,1726.35Z"/></g><g id="Text-_outline" data-name="Text- outline"><path class="cls-13" d="M322.46,1064v118.11H303.77v-95.23a59.56,59.56,0,0,1-10.92,6.16,90,90,0,0,1-13.33,4.47v-16q4.67-1.53,9-3.22t8.58-3.79q4.23-2.09,8.54-4.67t8.9-5.88Z"/><path class="cls-13" d="M425.1,1144.93a42.51,42.51,0,0,1-2.86,15.87,37.21,37.21,0,0,1-7.94,12.37,35.46,35.46,0,0,1-12,8.06,39.41,39.41,0,0,1-15.11,2.86,37.52,37.52,0,0,1-16-3.38,34.24,34.24,0,0,1-12.57-10.07,48.41,48.41,0,0,1-8.18-16.64,82.76,82.76,0,0,1-2.9-23.08,96.53,96.53,0,0,1,3.83-28.44,62.45,62.45,0,0,1,10.51-20.79A45,45,0,0,1,377.57,1069a44.3,44.3,0,0,1,19.5-4.35,73.23,73.23,0,0,1,11.88.89,33,33,0,0,1,8.58,2.42v16.84a55.61,55.61,0,0,0-8.78-3.54,36.17,36.17,0,0,0-10.72-1.45,28.55,28.55,0,0,0-12.49,2.74,27.66,27.66,0,0,0-9.87,8,39.61,39.61,0,0,0-6.53,13.05,63.09,63.09,0,0,0-2.46,17.93h.48a26.1,26.1,0,0,1,10-9,31.69,31.69,0,0,1,14.87-3.3,36.17,36.17,0,0,1,13.66,2.46,28.68,28.68,0,0,1,10.39,7.09,31.82,31.82,0,0,1,6.65,11.28A44.88,44.88,0,0,1,425.1,1144.93Zm-18.85,1.53a33.27,33.27,0,0,0-1.17-9.1,19.61,19.61,0,0,0-3.54-7,16,16,0,0,0-6-4.55,20.4,20.4,0,0,0-8.42-1.61,19.7,19.7,0,0,0-8.5,1.73,18.65,18.65,0,0,0-9.91,11,22.57,22.57,0,0,0-1.25,7.41,32.09,32.09,0,0,0,1.17,8.42,25.79,25.79,0,0,0,3.58,7.85,20,20,0,0,0,6.16,5.84,16.71,16.71,0,0,0,8.9,2.3,18.66,18.66,0,0,0,8.14-1.69,16.6,16.6,0,0,0,5.92-4.67,21.14,21.14,0,0,0,3.63-7A29.94,29.94,0,0,0,406.25,1146.46Z"/><path class="cls-13" d="M475.94,1184q-18,0-28.16-14.74t-10.11-42.62q0-30.62,10.55-46.33t30.46-15.71q38.11,0,38.11,59.22,0,29.33-10.76,44.75T475.94,1184Zm1.85-104.49q-21,0-21,46.33,0,43.35,20.63,43.34,20.3,0,20.3-44.07Q497.69,1079.51,477.79,1079.51Z"/><path class="cls-13" d="M535.48,1179.41v-18q11.36,7.66,23,7.65t18.93-6q7.17-6,7.17-16,0-9.83-7.29-15.31t-20.91-5.48q-4.67,0-18.93,1l4.11-60.75h56.88v16H557.15l-1.93,28.92q5.56-.32,10.07-.32,18.37,0,28.4,9.43t10,25.78q0,17.16-11.48,27.51t-31.54,10.35Q543.77,1184.17,535.48,1179.41Z"/></g></g></svg>