<svg id="_4th_Place" data-name="4th Place" xmlns="http://www.w3.org/2000/svg" xmlns:xlink="http://www.w3.org/1999/xlink" viewBox="0 0 1092.44 2173.25"><defs><style>.cls-1,.cls-11,.cls-12,.cls-2,.cls-3,.cls-4,.cls-5,.cls-6,.cls-7,.cls-8{stroke:#000;stroke-miterlimit:10;}.cls-1{stroke-width:4px;}.cls-2{fill:#db8742;}.cls-11,.cls-12,.cls-2,.cls-3,.cls-4,.cls-5,.cls-6,.cls-7{stroke-width:10px;}.cls-3{fill:none;}.cls-4{fill:#995e36;}.cls-6{fill:url(#linear-gradient);}.cls-7{fill:url(#linear-gradient-2);}.cls-8{fill:#73c04a;stroke-width:12px;}.cls-13,.cls-9{fill:#fff;}.cls-10{fill:url(#linear-gradient-3);}.cls-11{fill:url(#linear-gradient-4);}.cls-12{fill:url(#linear-gradient-5);}.cls-13{font-size:165px;font-family:Montserrat;font-weight:700;}</style><linearGradient id="linear-gradient" x1="232.13" y1="1182.97" x2="264.08" y2="1025.62" gradientUnits="userSpaceOnUse"><stop offset="0"/><stop offset="0.91" stop-opacity="0.2"/><stop offset="1" stop-opacity="0"/></linearGradient><linearGradient id="linear-gradient-2" x1="775.77" y1="1191.44" x2="810.65" y2="1019.65" xlink:href="#linear-gradient"/><linearGradient id="linear-gradient-3" x1="672.23" y1="414.67" x2="672.23" y2="168.87" gradientUnits="userSpaceOnUse"><stop offset="0" stop-color="#fff" stop-opacity="0"/><stop offset="0.24" stop-color="#fff" stop-opacity="0"/><stop offset="0.27" stop-color="#fff" stop-opacity="0.05"/><stop offset="0.41" stop-color="#fff" stop-opacity="0.34"/><stop offset="0.55" stop-color="#fff" stop-opacity="0.57"/><stop offset="0.67" stop-color="#fff" stop-opacity="0.76"/><stop offset="0.78" stop-color="#fff" stop-opacity="0.89"/><stop offset="0.87" stop-color="#fff" stop-opacity="0.97"/><stop offset="0.93" stop-color="#fff"/></linearGradient><linearGradient id="linear-gradient-4" x1="340.57" y1="1833.17" x2="395.17" y2="1564.23" gradientUnits="userSpaceOnUse"><stop offset="0.06"/><stop offset="0.73" stop-opacity="0.43"/><stop offset="0.85" stop-opacity="0"/></linearGradient><linearGradient id="linear-gradient-5" x1="579.34" y1="1804.37" x2="627.51" y2="1567.11" gradientUnits="userSpaceOnUse"><stop offset="0.06"/><stop offset="0.73" stop-opacity="0.48"/><stop offset="0.85" stop-opacity="0"/></linearGradient></defs><title>horse_main_</title><path class="cls-1" d="M474,1200.84s-198.22,14.72-216.09,220.84c63.15-72.68,63.37-64.85,55.66-48.14-29.73,64.45,26.16,184.17,122.28,256.22,94.84,71.1,39.32,83.4,39.32,83.4s94.16-25.3,25-139.4C384.85,1383.44,426.33,1264,474,1200.84Z"/><path class="cls-1" d="M435.87,185.37S306.75,247,317.57,366.06c39.68-83,49.12-54.11,58.83-54.11-66,205.61-9.62,209.21-59.47,245.28S272.22,736.6,331,784,461.85,750.1,461.85,750.1l51.87-214.5-15.8-350.23H435.87Z"/><path class="cls-2" d="M548.42,160.45S371.67,70.28,357.24,99.13c-10.82,21.64,33.14,65.6,78.62,86.23,15.16,6.88,30.49,11.16,44,11.16-75.75,97.39-97.39,367.93-93.79,465.32s-49.7,158.49-49.7,158.49S259.85,950.41,252.64,993.7s-32.46,32.46-14.43,64.93c-7.21,50.5-1.92,129.86-6.37,162.32S256.25,1257,256.25,1257s3.61-148.93,21.64-175.46,0-35.44,10.82-58,36.07-156.06,57.71-148.85,0,148.85,0,148.85-126.25,165-3.61,320.08c32.46,126.25,32.46,180.36,32.46,194.78s-28.86,14.43-14.43,54.11-3.61,154.86-10.82,192.86-18,59.64,10.82,66.85,36.07-194.78,57.71-234.46-7.93-61.51-7.21-79.36c0.84-21-21.64-147.89,28.86-165.93s144.29,3.61,151.5,14.43,18,140.68,0,162.32-32.46,50.5-18,64.93,37.78,184,27.91,223.64S635,1852.38,635,1852.38s-10.82-180.54,0-205.79-7.21-72.14,0-93.78S649.42,1390.48,689.1,1358s125.43-166.15,67.72-310.43-34.46-185.51-31.65-204.25c1.72-11.47,25.09,52.68,45.68,189.08,3.05,20.22-5.9,31.11,7.09,49.14s9,88.37,9,128S809.4,1236,809.4,1236s10.33-95.83,17-145.67c4.3-32-8.11-51.4-18.93-66.78S793.71,845.64,736,770,660.24,616.9,660.24,616.9,757.64,746.28,873.06,677s72.14-173.87,54.11-211.75-90.18-12.63-144.28-110-43.29-155.11-111.82-202c90.18,7.21,122.64-119,108.21-119s-86.57,34.46-144.28,93C552,128,548.42,160.45,548.42,160.45Z"/><path class="cls-1" d="M513.72,143.57s94.23-40.83,77.09-109.36C678.16,89.27,635,50.59,635,88.89c144.28,31.89,140.68,53.53,147.89,93.21s-10.82-7.21-61.32-18c86.57,86.57,119,68.54,119,68.54s-178.09-1.3-216.43-50.5-14.43,36.07-14.43,36.07Z"/><path class="cls-3" d="M660.24,616.9S611,564.4,581.38,471.16c0,0-42.77,49.8-42.77-21.19"/><path class="cls-3" d="M563.36,455.27c0-18.2,46.62-82.64,72.78,2.13,9.4,30.44-7.44,120.15,94.21,219.62"/><circle id="nostril_R" class="cls-4" cx="746.34" cy="531.02" r="31.15"/><circle id="nostril_L" class="cls-4" cx="905.68" cy="507.82" r="23.2"/><ellipse id="eye_L" class="cls-5" cx="605.94" cy="339.57" rx="20.35" ry="30.2"/><ellipse id="eye_R" class="cls-5" cx="748.37" cy="317.09" rx="20.35" ry="30.2"/><path class="cls-2" d="M572.82,370.58s31.16-26.87,56.26,8.21"/><path class="cls-2" d="M741,358.18s9.32-29.93,33.52-13.61"/><path class="cls-2" d="M536.49,328.2s116.83-9.11,95.63-48.79"/><path class="cls-3" d="M720.19,264.68s-6.2,27.62,67.33,31.1"/><path class="cls-6" d="M241.21,1023.24c-8.08,11.44-14.79,14.16-3,35.39-5.15,36-3.93,86.78-4.42,124.68a254,254,0,0,0,26.08,1.65c3.09-42.06,8.57-89.51,18-103.41,16.17-23.79,3.36-33.42,8.33-51.44"/><path class="cls-7" d="M770.32,1028.89c0.18,1.17.36,2.34,0.54,3.52,3.05,20.22-5.9,31.11,7.09,49.14,11.4,15.82,9.74,71.87,9.16,112.19,4.38,0.11,8.76.18,13.15,0.18a32.13,32.13,0,0,0,14.18-3.56c3.56-31.6,8.32-72.74,12-100.07,4.3-32-8.11-51.4-18.93-66.78a18.05,18.05,0,0,1-2.06-4.92"/><path class="cls-5" d="M793.37,1170s-31.86,54.54-31.86,94.21,75.75,32.46,90.18,21.64,14.93-56.24-34.43-122C799.76,1185.26,793.37,1170,793.37,1170Z"/><path class="cls-8" d="M374.29,726.83S262.7,893,231.37,947.2c57.34,76.31,84.2,49.26,84.2,49.26l-47.34,225.08s281.73,120.93,529.09,0c-24.3-162.62-22-198-59.43-344.39,30,137.07,26.27,116.2,26.27,116.2s43.83,8.79,81.69-31C828.78,894.19,721.73,750.1,721.73,750.1S552.31,1017.75,374.29,726.83Z"/><path class="cls-5" d="M231.37,1170.45s-58.09,64.93-43.66,104.61,89.38,24.25,95.19,19.34,7.77-123.95-21.88-123.95H231.37Z"/><path class="cls-9" d="M616.26,346.88c7.66,0,7.67-11.91,0-11.91s-7.67,11.91,0,11.91h0Z"/><path class="cls-9" d="M760.26,322.88c7.66,0,7.67-11.91,0-11.91s-7.67,11.91,0,11.91h0Z"/><path class="cls-10" d="M609.51,209.42S667,355.83,741,414.67c-45.76-127.74-21.38-150.78-43.54-195.74-41.91-12.13-57.72-14.25-78.47-40.5C590.81,145.17,609.51,209.42,609.51,209.42Z"/><path class="cls-11" d="M361.57,1557.4c-4.77,6.73-7.43,16.6-.72,35.08,14.43,39.68-3.61,154.86-10.82,192.86-4,20.87-9,36.81-8,48.13l34.21-.27c17-50.24,25.12-184,42.3-215.47"/><path class="cls-12" d="M575.07,1573.86c-8,15.55-10.73,30.92-1.4,40.26,12.08,12.09,30.43,133,30.27,195.25,9.63-1.13,19.2-1.61,28.77-1.88-2.44-55.22-5.06-143.78,2.28-160.91,8.68-20.25-1.19-54.41-1.73-78.31"/><path class="cls-5" d="M354,1762.67s-69.7,22.55-71.1,97.52S400.53,1906.3,422.17,1881s-25.07-104.84-30.46-118.38C358.33,1782.26,354,1762.67,354,1762.67Z"/><path class="cls-5" d="M603.27,1785.34s-54.85,54.82-44,113.14,109.58,27.75,117.92,7-13.67-101.82-45.44-122.52C620.93,1806.26,603.27,1785.34,603.27,1785.34Z"/><text class="cls-13" transform="translate(355.37 1105.39)">1605</text></svg>