<svg id="_2nd_Place" data-name="2nd Place" xmlns="http://www.w3.org/2000/svg" xmlns:xlink="http://www.w3.org/1999/xlink" viewBox="0 0 1380.55 2232.89"><defs><style>.cls-1,.cls-16{fill:#fff;}.cls-1,.cls-11,.cls-12,.cls-13,.cls-14,.cls-15,.cls-2,.cls-3,.cls-4,.cls-5,.cls-6,.cls-7,.cls-8,.cls-9{stroke:#000;stroke-miterlimit:10;}.cls-1,.cls-11,.cls-12,.cls-13,.cls-14,.cls-15,.cls-2,.cls-4,.cls-5,.cls-7,.cls-8,.cls-9{stroke-width:10px;}.cls-2{fill:#e8a246;}.cls-3{stroke-width:4px;}.cls-4{fill:#933a22;}.cls-5{fill:#db8742;}.cls-6{fill:#73c04a;stroke-width:12px;}.cls-7{fill:#541818;}.cls-8{fill:none;}.cls-9{fill:#995e36;}.cls-10{fill:url(#linear-gradient);}.cls-11{fill:url(#linear-gradient-2);}.cls-13{fill:url(#linear-gradient-3);}.cls-14{fill:url(#linear-gradient-4);}.cls-15{fill:url(#linear-gradient-5);}.cls-16{font-size:165px;font-family:Montserrat;font-weight:700;}</style><linearGradient id="linear-gradient" x1="766.79" y1="390.18" x2="791.73" y2="267.37" gradientUnits="userSpaceOnUse"><stop offset="0" stop-color="#fff" stop-opacity="0"/><stop offset="0.24" stop-color="#fff" stop-opacity="0"/><stop offset="0.93" stop-color="#fff"/></linearGradient><linearGradient id="linear-gradient-2" x1="397.32" y1="1891.29" x2="466.3" y2="1551.56" gradientUnits="userSpaceOnUse"><stop offset="0"/><stop offset="0.91" stop-opacity="0.2"/><stop offset="1" stop-opacity="0"/></linearGradient><linearGradient id="linear-gradient-3" x1="788.63" y1="1907.07" x2="853.61" y2="1587.03" gradientUnits="userSpaceOnUse"><stop offset="0"/><stop offset="0.89" stop-opacity="0.27"/><stop offset="1" stop-opacity="0"/></linearGradient><linearGradient id="linear-gradient-4" x1="270.54" y1="470.23" x2="318.43" y2="234.41" gradientUnits="userSpaceOnUse"><stop offset="0.18" stop-color="#fff" stop-opacity="0"/><stop offset="0.25" stop-color="#b7b7b7" stop-opacity="0.28"/><stop offset="0.75"/></linearGradient><linearGradient id="linear-gradient-5" x1="1156.15" y1="404.8" x2="1177.06" y2="301.85" xlink:href="#linear-gradient-4"/></defs><title>horse_main_</title><polyline class="cls-1" points="741.18 238.99 791.76 244.84 741.18 238.99 741.18 250.48 805.93 351.5 791.76 244.84 741.18 238.99"/><path class="cls-2" d="M1148,567.09c57.56-55.64,40.69-203.62-97-201.88-76.81,1-88.8,26.13-133.38,5.1a94.21,94.21,0,0,1-23.91-15.69q-4.74,4.79-9.22,10c-8,10-18,11-30,13-4,1-7,7-12,11-2,1-5-1-6,0s1,5,0,6-4-1-6,0c-5,4-8,8-12,12-11,13-17,29-35,37-4,2,1,9-6,18-4,6,1,15-2,23-1,3-6,5-5,12h-6c1,17-6,36,12,48,1,1,0,4,0,6,16-1,29,8,42,17,3,2,9,0,12,2,3,1,5,4,12,6,2.69,0.77,4.49,3,6,5.54-1-6.74-2.26-13.37-3.66-19.83C1008.21,665.63,1090.39,622.74,1148,567.09Z"/><path class="cls-3" d="M629.81,250.69s-37.07-4.87-84.78,31.48-59.07,40.64-75,37.36c54.52,28.52,100-19.18,100-19.18s-61.34,168.12-159,77.24c25,131.77,86.33,56.8,86.33,56.8S411,504.82,447.34,548c22.72-56.8,45.44-31.81,45.44-31.81S436,573,454.16,607c25,63.61-4,99.15-2.27,103.52S488.11,883,488.11,883l98.82-112.45s63-320.31,64.74-325.43,4.83-162,4.83-162Z"/><path class="cls-3" d="M466.67,1348.25s-1.86-2.19-5.2-5.81c-29.22-31.6-155-204-198.15.68-52.25,247.63-90.78,202.19-90.78,202.19s25.19,50,67.33-9.09c9,68.15-49.25,136.31-49.25,136.31s168.12-34.08,140.85-272.62c-13.46-117.77,12.93-136.13,133.34-53.86"/><path class="cls-2" d="M1049.32,526.63c-0.1-3.56-.08-7.09,0-10.61-24.44,45-44.25,80.79-48.58,86.56-13,17.27-56.13,47.49-69.08,86.35C926.12,705.56,917.54,721,894,749.11l39.73,25.84c34.43-52.34,57.76-80.64,71.33-90.33,30.22-21.59,25.91-69.08,38.86-95,3.21-6.42,14.91-25.31,30.69-50.09C1064.72,538.57,1055.8,534.81,1049.32,526.63Z"/><path class="cls-4" d="M1164.81,300.36S1097.92,426.5,1049.33,516c-0.09,3.52-.11,7,0,10.61,6.48,8.18,15.4,11.94,25.29,12.91C1122.5,464.35,1208,334.9,1208,334.9Z"/><path class="cls-5" d="M920.72,792.92c-42.23,64.2-83.09,137.53-80.72,163.7,4.32,47.49,90.67,341.08,30.22,427.43s-38.86,211.56-38.86,237.46,13,51.81,8.64,86.35,30.22,168.38,30.22,168.38L840,1915.09s-34.54,13-25.9-60.44-13-138.16-25.9-164.06,9.23-21.68,0-77.72c-11.5-69.82-11.5-119.8-143.82-124.35-157-5.39-167,98.44-171.35,137.3s0,56.13-17.27,69.08-13,155.43-13,155.43l-34.54,43.17s-25.91-34.54-4.32-86.35,13-120.89,8.64-142.48-4.32-25.91,17.27-64.76,8.64-99.3-17.27-220.19S464.38,1030,473,991.15,356.44,671.66,343.49,650.07s-25.9-34.54-25.9-99.3S239.87,261.5,239.87,261.5s25.9-103.62,51.81,30.22,77.71,215.87,95,246.1,30.22,43.17,25.9,73.4,4.32,246.1,99.3,198.6c-4.32-47.49-13-345.4,144.64-526.73C568,196.74,606.85,75.85,606.85,75.85l99.3,168.38,35-5.24s7.68-32.62-17.5-163.14c82.27,86.3,58.49,126.78,68.08,169,103.07,16.25,48.53,89,125.85,125.48,44.59,21,56.57-4.13,133.38-5.1,137.65-1.74,154.52,146.23,97,201.88s-139.74,98.53-303.16-5.76c19.19,88.26,3.84,209.14-15.35,207.22S762.28,676,762.28,676,758,835.72,792.51,835.72c19.75,0,57.86-35.3,89.29-72.8Z"/><path class="cls-6" d="M436.56,666.73s33.95,113.92,75.31,143.08C536.19,876.47,680.2,958,783.19,831.17,825.6,835.37,897,713.48,897,713.48s77.36,56,84.18,113.94c-97.69,67-129.5,126.09-129.5,126.09s90,321.72,62.76,393.29c-87.75-33.2-167.27-51.37-296.76-30.93-31,4.9-161.3,46.24-248.53,46.24,39.52-164.38,73.6-347.69,69.77-387.74-3.51-36.68-131.46-191.92-131.46-191.92S348.4,685.89,436.56,666.73Z"/><path class="cls-7" d="M844.8,561.34s-86.21-61.06-111.2-126.95l-22.72,29.53S858.31,988.17,844.8,561.34Z"/><path class="cls-8" d="M723.43,393.5s32.88,86.33-51.18,59.07"/><path class="cls-8" d="M710.87,336.7s13.63-77.24,34.08,0"/><path class="cls-8" d="M819.92,336.7s11.36-81.79,34.08,0"/><path class="cls-3" d="M701,217.12S772.21,143.88,819.92,188c-56.8,1-72.3,25.35-75,29.08s38.62-23.55,75-7.64,31.81,31.19,97.69,7.64c-40.89,60.51-188.09,66.73-211.45,27.11S701,217.12,701,217.12Z"/><circle id="nostril_R" class="cls-9" cx="978.3" cy="465.21" r="29.91"/><circle id="nostril_L" class="cls-9" cx="1131.32" cy="442.93" r="22.28"/><path class="cls-10" d="M727.91,262.75S778,372.81,829,402.81c-40.5-88.5-23.22-132.59-23.22-132.59S762.7,275.63,727.91,262.75Z"/><path class="cls-11" d="M491.27,1556.63c-13.71,26-16.47,53.13-18.26,69.19-4.32,38.86,0,56.13-17.27,69.08s-13,155.43-13,155.43l-34.54,43.17s-25.91-34.54-4.32-86.35,13-120.89,8.64-142.48-4.32-25.91,17.27-64.76c7.73-13.91,11-30.58,10.9-51.79"/><path class="cls-12" d="M398.36,1823.93s-83.69,85.2-83.69,126.1c47.71,78.39,150,44.31,150,44.31s12-114-22.11-156.69C395.56,1854.17,398.36,1823.93,398.36,1823.93Z"/><path class="cls-13" d="M781.26,1572.33c2.67,12.51,4.55,26.1,6.93,40.54,9.23,56-13,51.81,0,77.72s34.54,90.67,25.9,164.06,25.9,60.44,25.9,60.44l30.22-38.86S835.68,1742.4,840,1707.86s-8.64-60.44-8.64-86.35"/><path class="cls-12" d="M814.09,1854.65s-46.15,74.93-35.93,122.64c54.53,61.35,170.41,24.41,170.41,24.41-6.82-44.86-39.22-141.34-85.94-156.35C828.87,1867.77,814.09,1854.65,814.09,1854.65Z"/><path class="cls-14" d="M345.56,460.57c-19.25-41.8-40.19-98.08-53.88-168.85-25.9-133.84-51.81-30.22-51.81-30.22s43.4,125.37,65.33,215.77"/><path class="cls-15" d="M1161.33,405.85c47.89-75.19,46.65-71,46.65-71l-43.17-34.54s8.29-14.58-40.3,74.94"/><path class="cls-12" d="M251.32,295.5s24.19,18.11,40.36-3.78,33.21-141.17,23-158.21C246.5,119.88,185.16,188,185.16,188S203,262.85,251.32,295.5Z"/><path class="cls-12" d="M1155,317s16.56,26.54,41.4,34,93-67.52,103.23-81.15C1255.3,201.67,1187.14,188,1187.14,188S1148.84,229.32,1155,317Z"/><text class="cls-16" transform="translate(468.2 1190.53)">1605</text></svg>