<svg id="_2nd_Place" data-name="2nd Place" xmlns="http://www.w3.org/2000/svg" xmlns:xlink="http://www.w3.org/1999/xlink" viewBox="0 0 1279.06 2184.87"><defs><style>.cls-1{fill:#1f0d0c;stroke-width:4px;}.cls-1,.cls-10,.cls-11,.cls-12,.cls-13,.cls-2,.cls-3,.cls-4,.cls-5,.cls-6,.cls-7,.cls-8,.cls-9{stroke:#000;stroke-miterlimit:10;}.cls-14,.cls-16,.cls-2{fill:#fff;}.cls-10,.cls-11,.cls-12,.cls-13,.cls-2,.cls-3,.cls-4,.cls-5,.cls-6,.cls-7,.cls-9{stroke-width:10px;}.cls-3{fill:#933a22;}.cls-5{fill:none;}.cls-6{fill:#541818;}.cls-7{fill:#511e14;}.cls-8{fill:#73c04a;stroke-width:12px;}.cls-9{fill:url(#linear-gradient);}.cls-10{fill:url(#linear-gradient-2);}.cls-11{fill:url(#linear-gradient-3);}.cls-12{fill:url(#linear-gradient-4);}.cls-13{fill:#3d220e;}.cls-15{fill:url(#linear-gradient-5);}.cls-16{font-size:150px;font-family:Montserrat;font-weight:700;}</style><linearGradient id="linear-gradient" x1="398.58" y1="1984.31" x2="446.62" y2="1747.74" gradientUnits="userSpaceOnUse"><stop offset="0.06" stop-color="#fff"/><stop offset="0.16" stop-color="#fff" stop-opacity="0.99"/><stop offset="0.23" stop-color="#fff" stop-opacity="0.95"/><stop offset="0.3" stop-color="#fff" stop-opacity="0.88"/><stop offset="0.36" stop-color="#fff" stop-opacity="0.79"/><stop offset="0.43" stop-color="#fff" stop-opacity="0.67"/><stop offset="0.49" stop-color="#fff" stop-opacity="0.52"/><stop offset="0.54" stop-color="#fff" stop-opacity="0.35"/><stop offset="0.6" stop-color="#fff" stop-opacity="0.15"/><stop offset="0.64" stop-color="#fff" stop-opacity="0"/><stop offset="0.85" stop-color="#fff" stop-opacity="0"/></linearGradient><linearGradient id="linear-gradient-2" x1="764.49" y1="1979.75" x2="811.03" y2="1750.58" xlink:href="#linear-gradient"/><linearGradient id="linear-gradient-3" x1="207.77" y1="1421.04" x2="247.6" y2="1224.89" gradientUnits="userSpaceOnUse"><stop offset="0" stop-color="#fff" stop-opacity="0"/><stop offset="0.01" stop-color="#fff" stop-opacity="0.11"/><stop offset="0.03" stop-color="#fff" stop-opacity="0.29"/><stop offset="0.05" stop-color="#fff" stop-opacity="0.46"/><stop offset="0.07" stop-color="#fff" stop-opacity="0.61"/><stop offset="0.1" stop-color="#fff" stop-opacity="0.73"/><stop offset="0.12" stop-color="#fff" stop-opacity="0.83"/><stop offset="0.15" stop-color="#fff" stop-opacity="0.91"/><stop offset="0.18" stop-color="#fff" stop-opacity="0.96"/><stop offset="0.22" stop-color="#fff" stop-opacity="0.99"/><stop offset="0.3" stop-color="#fff"/><stop offset="0.34" stop-color="#fff" stop-opacity="0.97"/><stop offset="0.4" stop-color="#fff" stop-opacity="0.88"/><stop offset="0.48" stop-color="#fff" stop-opacity="0.74"/><stop offset="0.57" stop-color="#fff" stop-opacity="0.54"/><stop offset="0.68" stop-color="#fff" stop-opacity="0.28"/><stop offset="0.78" stop-color="#fff" stop-opacity="0"/></linearGradient><linearGradient id="linear-gradient-4" x1="940.98" y1="1393.35" x2="980.65" y2="1197.98" gradientUnits="userSpaceOnUse"><stop offset="0" stop-color="#fff" stop-opacity="0"/><stop offset="0.01" stop-color="#fff" stop-opacity="0.11"/><stop offset="0.02" stop-color="#fff" stop-opacity="0.29"/><stop offset="0.03" stop-color="#fff" stop-opacity="0.46"/><stop offset="0.04" stop-color="#fff" stop-opacity="0.61"/><stop offset="0.06" stop-color="#fff" stop-opacity="0.73"/><stop offset="0.07" stop-color="#fff" stop-opacity="0.83"/><stop offset="0.09" stop-color="#fff" stop-opacity="0.91"/><stop offset="0.11" stop-color="#fff" stop-opacity="0.96"/><stop offset="0.13" stop-color="#fff" stop-opacity="0.99"/><stop offset="0.18" stop-color="#fff"/><stop offset="0.46" stop-color="#fff" stop-opacity="0.46"/><stop offset="0.7" stop-color="#fff" stop-opacity="0"/></linearGradient><linearGradient id="linear-gradient-5" x1="771.84" y1="596.58" x2="771.84" y2="367.08" gradientUnits="userSpaceOnUse"><stop offset="0" stop-color="#fff" stop-opacity="0"/><stop offset="0.24" stop-color="#fff" stop-opacity="0"/><stop offset="0.27" stop-color="#fff" stop-opacity="0.05"/><stop offset="0.41" stop-color="#fff" stop-opacity="0.34"/><stop offset="0.55" stop-color="#fff" stop-opacity="0.57"/><stop offset="0.67" stop-color="#fff" stop-opacity="0.76"/><stop offset="0.78" stop-color="#fff" stop-opacity="0.89"/><stop offset="0.87" stop-color="#fff" stop-opacity="0.97"/><stop offset="0.93" stop-color="#fff"/></linearGradient></defs><title>horse_main_</title><path class="cls-1" d="M446.46,1478.53s-1.64-1.93-4.58-5.11c-25.73-27.82-151.31-151.38-158,80.11-7.5,258-85.5,196.49-85.5,196.49s90.62,81,124.06-52.5c7.94,60,0,54,0,54s82.93-87,49.93-186-33.52-161.35,72.49-88.93"/><path id="body" class="cls-2" d="M569.75,437.71c-119.22,156.22-46.51,505.66-46.51,505.66L363,1128.75s-48.6,14.67-56.82,51.67-73.58,141.18-114.69,165.85S51.76,1412,51.76,1412l78.11,45.76L208,1383.26s93.91-152.51,143.29-160.45c25.45-4.1,30.9-49.33,30.9-49.33l93-69.77s-4.11,102.78-28.78,131.55-111.55,215.58-37,312.44c75.91,98.63,8.22,172.66,8.22,172.66s-16.93,23-12.82,47.7,8.71,125-28.29,162-61.67,123.33-61.67,123.33,86.33,37,123.33,20.56,53.44-12.33,53.44-12.33l-49.33-111c-16.44-37-6.25-144.82,10.56-159.23,23.3-20,22.33-46.33,22.33-66.88s15.68-103,79-118c39-9.25,171.36-30.69,176.22,87.49,1.18,28.69-2.68,49.58-8.53,59.25-8.36,13.81-8,29.92.58,50.31,4.26,10.06,41.9,85.36,10.38,142.91s-11,90.44-11,90.44,127.44,37,152.11,0-65.78-82.22-86.33-119.22-23.17-94.56-10.83-127.45,5-56.2.92-76.75-6.67-108.08,27.89-142c81-79.62,76.58-196.42,35.47-270.41s-65.78-217.89-65.78-217.89,76.43,60.49,95.84,104.48c10.07,22.83-6,37.26,22.83,53.71s86.89,92.58,86.89,133.7,16.44,82.76,16.44,82.76,90.44,15.91,90.44-41.65-53.44-28.78-69.89-49.33-77.57-132.44-77.57-153-16.55-41.29-33.57-57.74C897.37,1147,768.51,969,751.12,940s-20.3-52.19-20.3-52.19"/><path class="cls-2" d="M653.4,832.73s50,39.63,77.42,55"/><path id="hair_bangs" class="cls-2" d="M927.66,233.61S890.58,367.08,790.47,367.08c-66.53,85.27-155.12,51.59-191.3,2.14,27.24-54.47,87.89-102.24,145.9-101C706,311.12,711,327.51,711,327.51s73.15-79.45,128.64-73.15c-47.92,27.74-68.34,67.45-68.34,67.45S858,332.66,927.66,233.61Z"/><ellipse id="eye_L" class="cls-2" cx="702.89" cy="510.26" rx="19.55" ry="29.01"/><ellipse id="eye_R" class="cls-2" cx="839.68" cy="488.67" rx="19.55" ry="29.01"/><path id="brow_R" class="cls-2" d="M667.58,481.25S678.28,407,730.94,436"/><path id="cheek" class="cls-2" d="M599.18,572.17s16.09,20.57,38,23.94a38.23,38.23,0,0,0,23.43-3.76c32.79-16.4,6.31-53.08,6.31-53.08"/><path id="mouth" class="cls-2" d="M763.42,738.64s-63.74-59.27-102.84-146.29c-23.43,3.76-15.14,4.16-15.14,4.16s20.77,290.95,141.25,290.95c13.69,0-19.16-57.23-25.82-79.45C749.24,769.18,763.42,738.64,763.42,738.64Z"/><circle id="nostril_R" class="cls-2" cx="957.57" cy="697.79" r="29.91"/><circle id="nostril_L" class="cls-2" cx="1110.6" cy="675.51" r="22.28"/><path class="cls-2" d="M980.86,1375s-9,62.73,0,86.08c79.67,15.14,110.9-12.8,145.41-55.53-60.8-49.3-108.41-38.78-108.41-38.78S1009.65,1385.56,980.86,1375Z"/><path class="cls-2" d="M173.09,1352.71s-89.89-6-127.69,49.7c60.8,96.84,127.69,73.83,127.69,73.83s28.17-49.57,25-79C170.29,1385.86,174.24,1365.58,173.09,1352.71Z"/><path class="cls-2" d="M376.53,1930s-65.38,57.32-75.24,116.48c39.44,75.6,207.07,19.72,207.07,19.72s-45.45-102.64-68.74-122.81C396.61,1966,376.53,1930,376.53,1930Z"/><path class="cls-2" d="M740.09,1930s-49.32,47.46-39.46,119.77c115,74,195.56,0,195.56,0s-12.81-85.68-98.43-118.44C745,1969.27,740.09,1930,740.09,1930Z"/><path id="shirt_green" class="cls-2" d="M497.57,945.47s-166.84,122.35-203.92,122.35,102,140.89,102,140.89l57.47-48.2S393.76,1327.36,353,1349.6c166.84,122.35,396.72,155.72,537.6,40.78-37.08-118.64-94-204.13-110.05-280,69.27,105.77,65.56,92.94,65.56,92.94s92.69-35.58,122.35-92.94C875.75,1067.82,751.12,940,751.12,940S645.88,1130.85,497.57,945.47Z"/><path id="body-2" data-name="body" class="cls-3" d="M615,384.27l-15.8-15L442.31,219.82s-20.92,125.1,127.44,199.52c-119.22,156.22-72.18,526.12-72.18,526.12L363,1128.75s-48.6,14.67-56.82,51.67-73.58,141.18-114.69,165.85S51.76,1412,51.76,1412l78.11,45.76L208,1383.26s93.91-152.51,143.29-160.45c25.45-4.1,30.9-49.33,30.9-49.33l93-69.77s-4.11,102.78-28.78,131.55-111.55,215.58-37,312.44c75.91,98.63,8.22,172.66,8.22,172.66s-16.93,23-12.82,47.7,8.71,125-28.29,162-61.67,123.33-61.67,123.33,86.33,37,123.33,20.56,53.44-12.33,53.44-12.33l-49.33-111c-16.44-37-6.25-144.82,10.56-159.23,23.3-20,22.33-46.33,22.33-66.88s15.68-103,79-118c39-9.25,171.36-30.69,176.22,87.49,1.18,28.69-2.68,49.58-8.53,59.25-8.36,13.81-8,29.92.58,50.31,4.26,10.06,41.9,85.36,10.38,142.91s-11,90.44-11,90.44,127.44,37,152.11,0-65.78-82.22-86.33-119.22-23.17-94.56-10.83-127.45,5-56.2.92-76.75-6.67-108.08,27.89-142c81-79.62,76.58-196.42,35.47-270.41s-65.78-217.89-65.78-217.89,76.43,60.49,95.84,104.48c10.07,22.83-6,37.26,22.83,53.71s86.89,92.58,86.89,133.7,16.44,82.76,16.44,82.76,90.44,15.91,90.44-41.65-53.44-28.78-69.89-49.33-77.57-132.44-77.57-153-16.55-41.29-33.57-57.74C897.37,1147,768.51,969,751.12,940s-20.3-52.19-20.3-52.19,35.57,11.29,55.87-.31-43.57-85.23-23.28-148.81C926.18,887.76,1059.58,872,1126.27,776.27s-44.09-216.61-134.49-193C813.57,629.94,849.7,470.23,849.7,470.23S852.6,348.44,754,331c58-60.89,11.6-176.87-23.2-188.47-31.89,113.08-31.89,185.57-31.89,185.57S618,370.8,615,384.27Z"/><path class="cls-2" d="M653.4,832.73s50,39.63,77.42,55"/><ellipse id="eye_L-2" data-name="eye_L" class="cls-4" cx="702.89" cy="510.26" rx="19.55" ry="29.01"/><ellipse id="eye_R-2" data-name="eye_R" class="cls-4" cx="843.68" cy="488.67" rx="19.55" ry="29.01"/><path id="brow_L" class="cls-5" d="M812.24,417.25s26.52-42.46,54.88,14.29"/><path id="cheek-2" data-name="cheek" class="cls-5" d="M599.18,572.17s16.09,20.57,38,23.94a38.23,38.23,0,0,0,23.43-3.76c32.79-16.4,6.31-53.08,6.31-53.08"/><path id="mouth-2" data-name="mouth" class="cls-6" d="M763.42,738.64s-63.74-59.27-102.84-146.29c-23.43,3.76-15.14,4.16-15.14,4.16s22.14,212.23,106,263.74c11.66,7.17,16.1-30,9.44-52.24C749.24,769.18,763.42,738.64,763.42,738.64Z"/><circle id="nostril_R-2" data-name="nostril_R" class="cls-7" cx="957.57" cy="697.79" r="29.91"/><circle id="nostril_L-2" data-name="nostril_L" class="cls-7" cx="1110.6" cy="675.51" r="22.28"/><path id="shirt_green-2" data-name="shirt_green" class="cls-8" d="M497.57,945.47s-166.84,122.35-203.92,122.35,102,140.89,102,140.89l57.47-48.2S393.76,1327.36,353,1349.6c166.84,122.35,396.72,155.72,537.6,40.78-37.08-118.64-94-204.13-110.05-280,69.27,105.77,65.56,92.94,65.56,92.94s92.69-35.58,122.35-92.94C875.75,1067.82,751.12,940,751.12,940S645.88,1130.85,497.57,945.47Z"/><path class="cls-9" d="M404.43,1755.07a67.41,67.41,0,0,0,.4,13c4.11,24.67,8.71,125-28.29,162-11.27,11.27-21.39,27.12-30,43.71,3.89,0,7.78,0,11.68.33,32,2.53,64,3.28,96,3.3l-11.91-26.79c-16.44-37-6.25-144.82,10.56-159.23,13.28-11.38,18.67-24.84,20.86-38.12"/><path class="cls-10" d="M725.61,1744.64a41.27,41.27,0,0,1-3.75,8.62c-8.36,13.81-8,29.92.58,50.31,4.26,10.06,41.9,85.36,10.38,142.91a161.9,161.9,0,0,0-11,24.6c17.38-.26,34.77,0,52.4,2,27.12,3.22,53.83,7.07,80.59,11-22.84-22.78-55.73-45.83-67.13-66.35-20.56-37-23.17-94.56-10.83-127.45a100.87,100.87,0,0,0,6.46-45.3"/><path id="hair_bangs-2" data-name="hair_bangs" class="cls-1" d="M927.66,233.61S890.58,367.08,790.47,367.08c-66.53,85.27-155.12,51.59-191.3,2.14,27.24-54.47,87.89-102.24,145.9-101C706,311.12,711,327.51,711,327.51s73.15-79.45,128.64-73.15c-47.92,27.74-68.34,67.45-68.34,67.45S858,332.66,927.66,233.61Z"/><path id="hair_flow" class="cls-1" d="M529,394.89s-80.33,56.21-57.63,85.22C446.46,613.72,327.64,639,383.13,766.39c63.33-152.67,66.84-7.57,31.53,53s3.78,83.24,22.7,93.32c-8.83-26.48,11.26-59.27,11.94-58s41,46.66,15.81,78.19,6.51,55.9,6.51,55.9l26-43.28S453.71,569.9,569.75,419.35C535.54,413.26,529,394.89,529,394.89Z"/><path id="brow_R-2" data-name="brow_R" class="cls-5" d="M635.89,481.35s10.71-74.58,63.37-45.46"/><path class="cls-11" d="M283.24,1232.12c-24.8,44.11-63.82,97.41-91.7,114.13-11.57,6.94-27.71,15.19-44.92,23.46,4.08,16.24,15.88,31.65,28.68,44.73L208,1383.26s58.31-94.69,107.2-138.73"/><path class="cls-12" d="M876.34,1221.64c1.66,6.7,6,13,17.63,19.71,28.78,16.44,86.89,92.58,86.89,133.7a189.63,189.63,0,0,0,2,26.82c12.74,0.42,25.1-.41,36.27-4.79,10.45-3.87,18.65-11.5,24.83-21.06-10.63-.92-20.55-2.19-26.16-9.2-16.44-20.56-77.57-132.44-77.57-153,0-8.6-2.9-17.22-7.52-25.56"/><path class="cls-13" d="M980.86,1375s-9,62.73,0,86.08c79.67,15.14,110.9-12.8,145.41-55.53-60.8-49.3-108.41-38.78-108.41-38.78S1009.65,1385.56,980.86,1375Z"/><path class="cls-13" d="M173.09,1352.71s-89.89-6-127.69,49.7c60.8,96.84,127.69,73.83,127.69,73.83s28.17-49.57,25-79C170.29,1385.86,174.24,1365.58,173.09,1352.71Z"/><path class="cls-13" d="M376.53,1930s-65.38,57.32-75.24,116.48c39.44,75.6,207.07,19.72,207.07,19.72s-45.45-102.64-68.74-122.81C396.61,1966,376.53,1930,376.53,1930Z"/><path class="cls-13" d="M740.09,1930s-49.32,47.46-39.46,119.77c115,74,195.56,0,195.56,0s-12.81-85.68-98.43-118.44C745,1969.27,740.09,1930,740.09,1930Z"/><path class="cls-14" d="M710.18,514c7.66,0,7.67-11.91,0-11.91s-7.67,11.91,0,11.91h0Z"/><path class="cls-14" d="M850.18,494c7.66,0,7.67-11.91,0-11.91s-7.67,11.91,0,11.91h0Z"/><path class="cls-15" d="M704,419.35c21.79-3.08,68.67-17.45,86.48-52.26,19.31,182.67,49.2,229.49,49.2,229.49S758.79,517.68,704,419.35Z"/><text class="cls-16" transform="translate(473.33 1292.28)">1715</text></svg>