<svg xmlns="http://www.w3.org/2000/svg" xmlns:xlink="http://www.w3.org/1999/xlink" viewBox="0 0 1142.53 1957.66"><defs><style>.cls-1,.cls-14{fill:#fff;}.cls-1,.cls-10,.cls-11,.cls-12,.cls-13,.cls-2,.cls-3,.cls-4,.cls-5,.cls-6,.cls-7,.cls-9{stroke:#000;stroke-miterlimit:10;}.cls-1,.cls-10,.cls-11,.cls-12,.cls-13,.cls-3,.cls-5,.cls-6,.cls-7,.cls-9{stroke-width:10px;}.cls-2{fill:#1f0d0c;stroke-width:4px;}.cls-3{fill:#933a22;}.cls-4{fill:#a50e19;stroke-width:12px;}.cls-5{fill:#541818;}.cls-6{fill:none;}.cls-7{fill:#511e14;}.cls-8{fill:url(#linear-gradient);}.cls-9{fill:url(#linear-gradient-2);}.cls-10{fill:#3d220e;}.cls-11{fill:url(#linear-gradient-3);}.cls-12{fill:url(#linear-gradient-4);}.cls-13{fill:url(#linear-gradient-5);}</style><linearGradient id="linear-gradient" x1="603.62" y1="330.12" x2="628.56" y2="207.3" gradientUnits="userSpaceOnUse"><stop offset="0" stop-color="#fff" stop-opacity="0"/><stop offset="0.24" stop-color="#fff" stop-opacity="0"/><stop offset="0.93" stop-color="#fff"/></linearGradient><linearGradient id="linear-gradient-2" x1="234.15" y1="1831.22" x2="303.13" y2="1491.49" gradientUnits="userSpaceOnUse"><stop offset="0" stop-color="#fff"/><stop offset="0.09" stop-color="#fff" stop-opacity="0.99"/><stop offset="0.17" stop-color="#fff" stop-opacity="0.95"/><stop offset="0.23" stop-color="#fff" stop-opacity="0.88"/><stop offset="0.3" stop-color="#fff" stop-opacity="0.79"/><stop offset="0.36" stop-color="#fff" stop-opacity="0.67"/><stop offset="0.42" stop-color="#fff" stop-opacity="0.52"/><stop offset="0.48" stop-color="#fff" stop-opacity="0.34"/><stop offset="0.53" stop-color="#fff" stop-opacity="0.15"/><stop offset="0.57" stop-color="#fff" stop-opacity="0"/><stop offset="1" stop-color="#fff" stop-opacity="0"/></linearGradient><linearGradient id="linear-gradient-3" x1="625.45" y1="1847" x2="690.44" y2="1526.96" gradientUnits="userSpaceOnUse"><stop offset="0" stop-color="#fff"/><stop offset="0.1" stop-color="#fff" stop-opacity="0.99"/><stop offset="0.18" stop-color="#fff" stop-opacity="0.95"/><stop offset="0.25" stop-color="#fff" stop-opacity="0.89"/><stop offset="0.31" stop-color="#fff" stop-opacity="0.8"/><stop offset="0.37" stop-color="#fff" stop-opacity="0.69"/><stop offset="0.42" stop-color="#fff" stop-opacity="0.55"/><stop offset="0.47" stop-color="#fff" stop-opacity="0.38"/><stop offset="0.52" stop-color="#fff" stop-opacity="0.2"/><stop offset="0.57" stop-color="#fff" stop-opacity="0"/><stop offset="1" stop-color="#fff" stop-opacity="0"/></linearGradient><linearGradient id="linear-gradient-4" x1="107.37" y1="410.16" x2="155.25" y2="174.34" gradientUnits="userSpaceOnUse"><stop offset="0.27" stop-color="#fff" stop-opacity="0"/><stop offset="0.3" stop-color="#fff" stop-opacity="0.13"/><stop offset="0.34" stop-color="#fff" stop-opacity="0.31"/><stop offset="0.39" stop-color="#fff" stop-opacity="0.48"/><stop offset="0.44" stop-color="#fff" stop-opacity="0.62"/><stop offset="0.5" stop-color="#fff" stop-opacity="0.74"/><stop offset="0.56" stop-color="#fff" stop-opacity="0.83"/><stop offset="0.62" stop-color="#fff" stop-opacity="0.91"/><stop offset="0.7" stop-color="#fff" stop-opacity="0.96"/><stop offset="0.8" stop-color="#fff" stop-opacity="0.99"/><stop offset="1" stop-color="#fff"/><stop offset="1" stop-color="#fff" stop-opacity="0.99"/><stop offset="1" stop-color="#fff" stop-opacity="0.96"/><stop offset="1" stop-color="#fff" stop-opacity="0.91"/><stop offset="1" stop-color="#fff" stop-opacity="0.83"/><stop offset="1" stop-color="#fff" stop-opacity="0.73"/><stop offset="1" stop-color="#fff" stop-opacity="0.61"/><stop offset="1" stop-color="#fff" stop-opacity="0.47"/><stop offset="1" stop-color="#fff" stop-opacity="0.3"/><stop offset="1" stop-color="#fff" stop-opacity="0.12"/><stop offset="1" stop-color="#fff" stop-opacity="0"/></linearGradient><linearGradient id="linear-gradient-5" x1="992.98" y1="344.73" x2="1013.88" y2="241.79" gradientUnits="userSpaceOnUse"><stop offset="0" stop-color="#fff" stop-opacity="0"/><stop offset="0.03" stop-color="#fff" stop-opacity="0.11"/><stop offset="0.1" stop-color="#fff" stop-opacity="0.29"/><stop offset="0.17" stop-color="#fff" stop-opacity="0.46"/><stop offset="0.24" stop-color="#fff" stop-opacity="0.61"/><stop offset="0.32" stop-color="#fff" stop-opacity="0.73"/><stop offset="0.41" stop-color="#fff" stop-opacity="0.83"/><stop offset="0.5" stop-color="#fff" stop-opacity="0.91"/><stop offset="0.61" stop-color="#fff" stop-opacity="0.96"/><stop offset="0.75" stop-color="#fff" stop-opacity="0.99"/><stop offset="1" stop-color="#fff"/><stop offset="1" stop-color="#fff" stop-opacity="0.99"/><stop offset="1" stop-color="#fff" stop-opacity="0.96"/><stop offset="1" stop-color="#fff" stop-opacity="0.91"/><stop offset="1" stop-color="#fff" stop-opacity="0.83"/><stop offset="1" stop-color="#fff" stop-opacity="0.73"/><stop offset="1" stop-color="#fff" stop-opacity="0.61"/><stop offset="1" stop-color="#fff" stop-opacity="0.47"/><stop offset="1" stop-color="#fff" stop-opacity="0.3"/><stop offset="1" stop-color="#fff" stop-opacity="0.12"/><stop offset="1" stop-color="#fff" stop-opacity="0"/></linearGradient></defs><title>1715 Tilia-1-negative</title><g id="Layer_2" data-name="Layer 2"><g id="_2nd_Place" data-name="2nd Place"><polyline class="cls-1" points="578.01 178.92 628.59 184.77 578.01 178.92 578.01 190.41 642.75 291.43 628.59 184.77 578.01 178.92"/></g><g id="_1st_Place" data-name="1st Place"><path class="cls-2" d="M466.64,190.63s-37.07-4.87-84.78,31.48-59.07,40.64-75,37.36c54.52,28.52,100-19.18,100-19.18s-61.34,168.12-159,77.24c25,131.77,86.33,56.8,86.33,56.8s-86.33,70.43-50,113.59c22.72-56.8,45.44-31.81,45.44-31.81S272.81,512.91,291,547c25,63.61-4,99.15-2.27,103.52s36.23,172.4,36.23,172.4l98.82-112.45S486.8,390.14,488.5,385s4.83-162,4.83-162Z"/><path class="cls-2" d="M303.5,1288.19s-1.86-2.19-5.2-5.81c-29.22-31.6-155-204-198.15.68C47.89,1530.69,9.37,1485.25,9.37,1485.25s25.19,50,67.33-9.09c9,68.15-49.25,136.31-49.25,136.31s168.12-34.08,140.85-272.62c-13.46-117.77,12.93-136.13,133.34-53.86"/><path class="cls-3" d="M886.15,466.56c-.1-3.56-.08-7.09,0-10.61-24.44,45-44.25,80.79-48.58,86.56-13,17.27-56.13,47.49-69.08,86.35C762.95,645.5,754.36,661,730.83,689l39.73,25.84c34.43-52.34,57.76-80.64,71.33-90.33,30.22-21.59,25.91-69.08,38.86-95,3.21-6.42,14.91-25.31,30.69-50.09C901.54,478.5,892.62,474.74,886.15,466.56Z"/><path class="cls-3" d="M1001.64,240.29S934.74,366.43,886.15,455.95c-.09,3.52-.11,7,0,10.61,6.48,8.18,15.4,11.94,25.29,12.91,47.89-75.19,133.37-204.65,133.37-204.65Z"/><path class="cls-3" d="M757.54,732.85c-42.23,64.2-83.09,137.53-80.72,163.7C681.14,944,767.49,1237.63,707,1324s-38.86,211.56-38.86,237.46,13,51.81,8.64,86.35S707,1816.17,707,1816.17L676.82,1855s-34.54,13-25.9-60.44-13-138.16-25.9-164.06,9.23-21.68,0-77.72c-11.5-69.82-11.5-119.8-143.82-124.35-157-5.39-167,98.44-171.35,137.3s0,56.13-17.27,69.08-13,155.43-13,155.43l-34.54,43.17s-25.91-34.54-4.32-86.35,13-120.89,8.64-142.48-4.32-25.91,17.27-64.76,8.64-99.3-17.27-220.19,51.81-349.72,60.44-388.57S193.27,611.59,180.31,590s-25.9-34.54-25.9-99.3S76.7,201.43,76.7,201.43s25.9-103.62,51.81,30.22,77.71,215.87,95,246.1,30.22,43.17,25.9,73.4,4.32,246.1,99.3,198.6c-4.32-47.49-13-345.4,144.64-526.73-88.51-86.35-49.65-207.24-49.65-207.24L543,184.16l35-5.24s7.68-32.62-17.5-163.14c82.27,86.3,58.49,126.78,68.08,169,103.07,16.25,48.53,89,125.85,125.48,44.59,21,56.57-4.13,133.38-5.1,137.65-1.74,154.52,146.23,97,201.88S845,605.56,681.62,501.27c19.19,88.26,3.84,209.14-15.35,207.22s-67.16-92.58-67.16-92.58-4.32,159.75,30.22,159.75c19.75,0,57.86-35.3,89.29-72.8Z"/><path class="cls-4" d="M273.39,606.67s33.95,113.92,75.31,143.08C373,816.41,517,898,620,771.1c42.41,4.2,113.85-117.69,113.85-117.69s77.36,56,84.18,113.94c-97.69,67-129.5,126.09-129.5,126.09s90,321.72,62.76,393.29c-87.75-33.2-167.27-51.37-296.76-30.93-31,4.9-161.3,46.24-248.53,46.24,39.52-164.38,73.6-347.69,69.77-387.74-3.51-36.68-131.46-191.92-131.46-191.92S185.23,625.82,273.39,606.67Z"/><path class="cls-5" d="M681.62,501.27s-86.21-61.06-111.2-126.95L547.7,403.86S695.14,928.1,681.62,501.27Z"/><path class="cls-6" d="M560.25,333.43s32.88,86.33-51.18,59.07"/><path class="cls-6" d="M547.7,276.63s13.63-77.24,34.08,0"/><path class="cls-6" d="M656.75,276.63s11.36-81.79,34.08,0"/><path class="cls-2" d="M537.83,157.05S609,83.81,656.75,128c-56.8,1-72.3,25.35-75,29.08s38.62-23.55,75-7.64,31.81,31.19,97.69,7.64C713.54,217.57,566.35,223.79,543,184.16S537.83,157.05,537.83,157.05Z"/><circle id="nostril_R" class="cls-7" cx="815.13" cy="405.14" r="29.91"/><circle id="nostril_L" class="cls-7" cx="968.15" cy="382.86" r="22.28"/><path class="cls-8" d="M564.74,202.68s50.08,110.06,101.07,140.06c-40.5-88.5-23.22-132.59-23.22-132.59S599.52,215.56,564.74,202.68Z"/><path class="cls-9" d="M328.1,1496.56c-13.71,26-16.47,53.13-18.26,69.19-4.32,38.86,0,56.13-17.27,69.08s-13,155.43-13,155.43l-34.54,43.17s-25.91-34.54-4.32-86.35,13-120.89,8.64-142.48-4.32-25.91,17.27-64.76c7.73-13.91,11-30.58,10.9-51.79"/><path class="cls-10" d="M235.19,1763.86s-83.69,85.2-83.69,126.1c47.71,78.39,150,44.31,150,44.31s12-114-22.11-156.69C232.38,1794.1,235.19,1763.86,235.19,1763.86Z"/><path class="cls-11" d="M618.08,1512.27c2.67,12.51,4.55,26.1,6.93,40.54,9.23,56-13,51.81,0,77.72s34.54,90.67,25.9,164.06,25.9,60.44,25.9,60.44L707,1816.17s-34.54-133.84-30.22-168.38-8.64-60.44-8.64-86.35"/><path class="cls-10" d="M650.92,1794.58s-46.15,74.93-35.93,122.64c54.53,61.35,170.41,24.41,170.41,24.41-6.82-44.86-39.22-141.34-85.94-156.35C665.7,1807.7,650.92,1794.58,650.92,1794.58Z"/><path class="cls-12" d="M182.39,400.5c-19.25-41.8-40.19-98.08-53.88-168.85C102.6,97.81,76.7,201.43,76.7,201.43S120.09,326.81,142,417.2"/><path class="cls-13" d="M998.16,345.79c47.89-75.19,46.65-71,46.65-71l-43.17-34.54s8.29-14.58-40.3,74.94"/><path class="cls-10" d="M88.15,235.44s24.19,18.11,40.36-3.78,33.21-141.17,23-158.21C83.33,59.81,22,128,22,128S39.83,202.79,88.15,235.44Z"/><path class="cls-10" d="M991.81,256.91s16.56,26.54,41.4,34,93-67.52,103.23-81.15C1092.13,141.6,1024,128,1024,128S985.66,169.25,991.81,256.91Z"/></g><g id="Text-_outline" data-name="Text- outline"><path class="cls-14" d="M379.92,971.27v118.11H361.23V994.15a59.56,59.56,0,0,1-10.92,6.16,90,90,0,0,1-13.33,4.47v-16q4.67-1.53,9-3.22t8.58-3.79q4.23-2.09,8.54-4.67t8.9-5.88Z"/><path class="cls-14" d="M479.58,983.19q-7.25,13.29-13.7,26.3t-11.68,26.14q-5.24,13.13-9.1,26.47a209.68,209.68,0,0,0-6,27.27H419.56a198.91,198.91,0,0,1,5.52-24.77q3.58-12.37,8.42-24.73T444.34,1015q6-12.49,12.77-25.22H402.4v-16h77.18Z"/><path class="cls-14" d="M534.77,971.27v118.11H516.08V994.15a59.56,59.56,0,0,1-10.92,6.16,90,90,0,0,1-13.33,4.47v-16q4.67-1.53,9-3.22t8.58-3.79q4.23-2.09,8.54-4.67t8.9-5.88Z"/><path class="cls-14" d="M564.1,1086.72v-18q11.36,7.66,23,7.65t18.93-6q7.17-6,7.17-16,0-9.83-7.29-15.31T585,1033.63q-4.67,0-18.93,1l4.11-60.75H627.1v16H585.77l-1.93,28.92q5.56-.32,10.07-.32,18.37,0,28.4,9.43t10,25.78q0,17.16-11.48,27.51t-31.54,10.35Q572.4,1091.48,564.1,1086.72Z"/></g></g></svg>