<svg id="_2nd_Place" data-name="2nd Place" xmlns="http://www.w3.org/2000/svg" xmlns:xlink="http://www.w3.org/1999/xlink" viewBox="0 0 1302.96 2136.85"><defs><style>.cls-1{fill:#1f0d0c;stroke-width:4px;}.cls-1,.cls-10,.cls-11,.cls-12,.cls-13,.cls-2,.cls-3,.cls-4,.cls-5,.cls-6,.cls-7,.cls-8,.cls-9{stroke:#000;stroke-miterlimit:10;}.cls-14,.cls-16,.cls-2{fill:#fff;}.cls-10,.cls-11,.cls-12,.cls-13,.cls-2,.cls-3,.cls-4,.cls-5,.cls-6,.cls-7,.cls-9{stroke-width:10px;}.cls-3{fill:#933a22;}.cls-5{fill:none;}.cls-6{fill:#541818;}.cls-7{fill:#511e14;}.cls-8{fill:#a50e19;stroke-width:12px;}.cls-9{fill:url(#linear-gradient);}.cls-10{fill:url(#linear-gradient-2);}.cls-11{fill:url(#linear-gradient-3);}.cls-12{fill:url(#linear-gradient-4);}.cls-13{fill:#3d220e;}.cls-15{fill:url(#linear-gradient-5);}.cls-16{font-size:150px;font-family:Montserrat;font-weight:700;}</style><linearGradient id="linear-gradient" x1="422.49" y1="1921.4" x2="470.52" y2="1684.83" gradientUnits="userSpaceOnUse"><stop offset="0.06" stop-color="#fff"/><stop offset="0.16" stop-color="#fff" stop-opacity="0.99"/><stop offset="0.23" stop-color="#fff" stop-opacity="0.95"/><stop offset="0.3" stop-color="#fff" stop-opacity="0.88"/><stop offset="0.36" stop-color="#fff" stop-opacity="0.79"/><stop offset="0.43" stop-color="#fff" stop-opacity="0.67"/><stop offset="0.49" stop-color="#fff" stop-opacity="0.52"/><stop offset="0.54" stop-color="#fff" stop-opacity="0.35"/><stop offset="0.6" stop-color="#fff" stop-opacity="0.15"/><stop offset="0.64" stop-color="#fff" stop-opacity="0"/><stop offset="0.85" stop-color="#fff" stop-opacity="0"/></linearGradient><linearGradient id="linear-gradient-2" x1="788.4" y1="1916.84" x2="834.93" y2="1687.67" xlink:href="#linear-gradient"/><linearGradient id="linear-gradient-3" x1="231.67" y1="1358.12" x2="271.5" y2="1161.98" gradientUnits="userSpaceOnUse"><stop offset="0" stop-color="#fff" stop-opacity="0"/><stop offset="0.01" stop-color="#fff" stop-opacity="0.11"/><stop offset="0.03" stop-color="#fff" stop-opacity="0.29"/><stop offset="0.05" stop-color="#fff" stop-opacity="0.46"/><stop offset="0.07" stop-color="#fff" stop-opacity="0.61"/><stop offset="0.1" stop-color="#fff" stop-opacity="0.73"/><stop offset="0.12" stop-color="#fff" stop-opacity="0.83"/><stop offset="0.15" stop-color="#fff" stop-opacity="0.91"/><stop offset="0.18" stop-color="#fff" stop-opacity="0.96"/><stop offset="0.22" stop-color="#fff" stop-opacity="0.99"/><stop offset="0.3" stop-color="#fff"/><stop offset="0.34" stop-color="#fff" stop-opacity="0.97"/><stop offset="0.4" stop-color="#fff" stop-opacity="0.88"/><stop offset="0.48" stop-color="#fff" stop-opacity="0.74"/><stop offset="0.57" stop-color="#fff" stop-opacity="0.54"/><stop offset="0.68" stop-color="#fff" stop-opacity="0.28"/><stop offset="0.78" stop-color="#fff" stop-opacity="0"/></linearGradient><linearGradient id="linear-gradient-4" x1="964.89" y1="1330.44" x2="1004.56" y2="1135.07" gradientUnits="userSpaceOnUse"><stop offset="0" stop-color="#fff" stop-opacity="0"/><stop offset="0.01" stop-color="#fff" stop-opacity="0.11"/><stop offset="0.02" stop-color="#fff" stop-opacity="0.29"/><stop offset="0.03" stop-color="#fff" stop-opacity="0.46"/><stop offset="0.04" stop-color="#fff" stop-opacity="0.61"/><stop offset="0.06" stop-color="#fff" stop-opacity="0.73"/><stop offset="0.07" stop-color="#fff" stop-opacity="0.83"/><stop offset="0.09" stop-color="#fff" stop-opacity="0.91"/><stop offset="0.11" stop-color="#fff" stop-opacity="0.96"/><stop offset="0.13" stop-color="#fff" stop-opacity="0.99"/><stop offset="0.18" stop-color="#fff"/><stop offset="0.46" stop-color="#fff" stop-opacity="0.46"/><stop offset="0.7" stop-color="#fff" stop-opacity="0"/></linearGradient><linearGradient id="linear-gradient-5" x1="795.74" y1="533.67" x2="795.74" y2="304.17" gradientUnits="userSpaceOnUse"><stop offset="0" stop-color="#fff" stop-opacity="0"/><stop offset="0.24" stop-color="#fff" stop-opacity="0"/><stop offset="0.27" stop-color="#fff" stop-opacity="0.05"/><stop offset="0.41" stop-color="#fff" stop-opacity="0.34"/><stop offset="0.55" stop-color="#fff" stop-opacity="0.57"/><stop offset="0.67" stop-color="#fff" stop-opacity="0.76"/><stop offset="0.78" stop-color="#fff" stop-opacity="0.89"/><stop offset="0.87" stop-color="#fff" stop-opacity="0.97"/><stop offset="0.93" stop-color="#fff"/></linearGradient></defs><title>horse_main_</title><path class="cls-1" d="M470.36,1415.62s-1.64-1.93-4.58-5.11c-25.73-27.82-151.31-151.38-158,80.11-7.5,258-85.5,196.49-85.5,196.49s90.62,81,124.06-52.5c7.94,60,0,54,0,54s82.93-87,49.93-186-33.52-161.35,72.49-88.93"/><path id="body" class="cls-2" d="M593.66,374.8C474.44,531,547.15,880.46,547.15,880.46L387,1065.84s-48.6,14.67-56.82,51.67-73.58,141.18-114.69,165.85-139.78,65.78-139.78,65.78l78.11,45.76,78.11-74.54s93.91-152.51,143.29-160.45c25.45-4.1,30.9-49.33,30.9-49.33l93-69.77s-4.11,102.78-28.78,131.55-111.55,215.58-37,312.44c75.91,98.63,8.22,172.66,8.22,172.66s-16.93,23-12.82,47.7,8.71,125-28.29,162-61.67,123.33-61.67,123.33,86.33,37,123.33,20.56,53.44-12.33,53.44-12.33l-49.33-111c-16.44-37-6.25-144.82,10.56-159.23,23.3-20,22.33-46.33,22.33-66.88s15.68-103,79-118c39-9.25,171.36-30.69,176.22,87.49,1.18,28.69-2.68,49.58-8.53,59.25-8.36,13.81-8,29.92.58,50.31,4.26,10.06,41.9,85.36,10.38,142.91s-11,90.44-11,90.44,127.44,37,152.11,0-65.78-82.22-86.33-119.22-23.17-94.56-10.83-127.45,5-56.2.92-76.75-6.67-108.08,27.89-142c81-79.62,76.58-196.42,35.47-270.41s-65.78-217.89-65.78-217.89,76.43,60.49,95.84,104.48c10.07,22.83-6,37.26,22.83,53.71s86.89,92.59,86.89,133.7,16.44,82.76,16.44,82.76,90.44,15.91,90.44-41.65-53.44-28.78-69.89-49.33-77.57-132.44-77.57-153-16.55-41.29-33.57-57.74C921.27,1084.12,792.42,906,775,877s-20.3-52.19-20.3-52.19"/><path class="cls-2" d="M677.31,769.82s50,39.63,77.42,55"/><path id="hair_bangs" class="cls-2" d="M951.56,170.7S914.49,304.17,814.38,304.17c-66.53,85.27-155.12,51.59-191.3,2.14,27.24-54.47,87.89-102.24,145.9-101-39.1,42.88-34.05,59.27-34.05,59.27s73.15-79.45,128.64-73.15c-47.92,27.74-68.34,67.45-68.34,67.45S881.92,269.75,951.56,170.7Z"/><ellipse id="eye_L" class="cls-2" cx="726.79" cy="447.35" rx="19.55" ry="29.01"/><ellipse id="eye_R" class="cls-2" cx="863.58" cy="425.76" rx="19.55" ry="29.01"/><path id="brow_R" class="cls-2" d="M691.48,418.34s10.71-74.29,63.37-45.29"/><path id="cheek" class="cls-2" d="M623.08,509.26s16.09,20.57,38,23.94a38.23,38.23,0,0,0,23.43-3.76c32.79-16.4,6.31-53.08,6.31-53.08"/><path id="mouth" class="cls-2" d="M787.32,675.73s-63.74-59.27-102.84-146.29c-23.43,3.76-15.14,4.16-15.14,4.16S690.12,824.55,810.6,824.55c13.69,0-19.16-57.23-25.82-79.45C773.14,706.27,787.32,675.73,787.32,675.73Z"/><circle id="nostril_R" class="cls-2" cx="981.48" cy="634.88" r="29.91"/><circle id="nostril_L" class="cls-2" cx="1134.5" cy="612.6" r="22.28"/><path class="cls-2" d="M1004.77,1312.13s-9,62.73,0,86.08c79.67,15.14,110.9-12.8,145.41-55.53-60.8-49.3-108.41-38.78-108.41-38.78S1033.56,1322.65,1004.77,1312.13Z"/><path class="cls-2" d="M197,1289.8s-89.89-6-127.69,49.7c60.8,96.84,127.69,73.83,127.69,73.83s28.17-49.57,25-79C194.2,1322.95,198.14,1302.67,197,1289.8Z"/><path class="cls-2" d="M400.44,1867.12s-65.38,57.32-75.24,116.48c39.44,75.6,207.07,19.72,207.07,19.72s-45.45-102.64-68.74-122.81C420.51,1903.08,400.44,1867.12,400.44,1867.12Z"/><path class="cls-2" d="M764,1867.12s-49.32,47.46-39.46,119.77c115,74,195.56,0,195.56,0s-12.81-85.68-98.43-118.44C768.91,1906.36,764,1867.12,764,1867.12Z"/><path id="shirt_green" class="cls-2" d="M521.48,882.56s-166.84,122.35-203.92,122.35,102,140.89,102,140.89L477,1097.6s-59.32,166.84-100.11,189.09c166.84,122.35,396.72,155.72,537.6,40.78-37.08-118.64-94-204.13-110.05-280,69.27,105.77,65.56,92.94,65.56,92.94s92.69-35.58,122.35-92.94C899.65,1004.91,775,877,775,877S669.78,1067.94,521.48,882.56Z"/><path id="body-2" data-name="body" class="cls-3" d="M638.88,321.36l-15.8-15L466.21,156.91S445.3,282,593.66,356.44c-119.22,156.22-72.18,526.12-72.18,526.12L387,1065.84s-48.6,14.67-56.82,51.67-73.58,141.18-114.69,165.85-139.78,65.78-139.78,65.78l78.11,45.76,78.11-74.54s93.91-152.51,143.29-160.45c25.45-4.1,30.9-49.33,30.9-49.33l93-69.77s-4.11,102.78-28.78,131.55-111.55,215.58-37,312.44c75.91,98.63,8.22,172.66,8.22,172.66s-16.93,23-12.82,47.7,8.71,125-28.29,162-61.67,123.33-61.67,123.33,86.33,37,123.33,20.56,53.44-12.33,53.44-12.33l-49.33-111c-16.44-37-6.25-144.82,10.56-159.23,23.3-20,22.33-46.33,22.33-66.88s15.68-103,79-118c39-9.25,171.36-30.69,176.22,87.49,1.18,28.69-2.68,49.58-8.53,59.25-8.36,13.81-8,29.92.58,50.31,4.26,10.06,41.9,85.36,10.38,142.91s-11,90.44-11,90.44,127.44,37,152.11,0-65.78-82.22-86.33-119.22-23.17-94.56-10.83-127.45,5-56.2.92-76.75-6.67-108.08,27.89-142c81-79.62,76.58-196.42,35.47-270.41s-65.78-217.89-65.78-217.89,76.43,60.49,95.84,104.48c10.07,22.83-6,37.26,22.83,53.71s86.89,92.59,86.89,133.7,16.44,82.76,16.44,82.76,90.44,15.91,90.44-41.65-53.44-28.78-69.89-49.33-77.57-132.44-77.57-153-16.55-41.29-33.57-57.74C921.27,1084.12,792.42,906,775,877s-20.3-52.19-20.3-52.19,35.57,11.29,55.87-.31S767,739.31,787.32,675.73C950.09,824.85,1083.48,809,1150.17,713.36s-44.09-216.61-134.49-193C837.48,567,873.61,407.32,873.61,407.32s2.9-121.78-95.69-139.18c58-60.89,11.6-176.87-23.2-188.47-31.89,113.08-31.89,185.57-31.89,185.57S641.92,307.89,638.88,321.36Z"/><path class="cls-2" d="M677.31,769.82s50,39.63,77.42,55"/><ellipse id="eye_L-2" data-name="eye_L" class="cls-4" cx="726.79" cy="447.35" rx="19.55" ry="29.01"/><ellipse id="eye_R-2" data-name="eye_R" class="cls-4" cx="867.58" cy="425.76" rx="19.55" ry="29.01"/><path id="brow_L" class="cls-5" d="M836.14,354.34s26.52-42.46,54.88,14.29"/><path id="cheek-2" data-name="cheek" class="cls-5" d="M623.08,509.26s16.09,20.57,38,23.94a38.23,38.23,0,0,0,23.43-3.76c32.79-16.4,6.31-53.08,6.31-53.08"/><path id="mouth-2" data-name="mouth" class="cls-6" d="M787.32,675.73s-63.74-59.27-102.84-146.29c-23.43,3.76-15.14,4.16-15.14,4.16s22.14,212.23,106,263.74c11.66,7.17,16.1-30,9.44-52.24C773.14,706.27,787.32,675.73,787.32,675.73Z"/><circle id="nostril_R-2" data-name="nostril_R" class="cls-7" cx="981.48" cy="634.88" r="29.91"/><circle id="nostril_L-2" data-name="nostril_L" class="cls-7" cx="1134.5" cy="612.6" r="22.28"/><path id="shirt_green-2" data-name="shirt_green" class="cls-8" d="M521.48,882.56s-166.84,122.35-203.92,122.35,102,140.89,102,140.89L477,1097.6s-59.32,166.84-100.11,189.09c166.84,122.35,396.72,155.72,537.6,40.78-37.08-118.64-94-204.13-110.05-280,69.27,105.77,65.56,92.94,65.56,92.94s92.69-35.58,122.35-92.94C899.65,1004.91,775,877,775,877S669.78,1067.94,521.48,882.56Z"/><path class="cls-9" d="M428.33,1692.16a67.41,67.41,0,0,0,.4,13c4.11,24.67,8.71,125-28.29,162-11.27,11.27-21.39,27.12-30,43.71,3.89,0,7.78,0,11.68.33,32,2.53,64,3.28,96,3.3l-11.91-26.79c-16.44-37-6.25-144.82,10.56-159.23,13.28-11.38,18.67-24.84,20.86-38.12"/><path class="cls-10" d="M749.52,1681.73a41.27,41.27,0,0,1-3.75,8.62c-8.36,13.81-8,29.92.58,50.31,4.26,10.06,41.9,85.36,10.38,142.91a161.9,161.9,0,0,0-11,24.6c17.38-.26,34.77,0,52.4,2,27.12,3.22,53.83,7.07,80.59,11-22.84-22.78-55.73-45.83-67.13-66.35-20.56-37-23.17-94.56-10.83-127.45a100.87,100.87,0,0,0,6.46-45.3"/><path id="hair_bangs-2" data-name="hair_bangs" class="cls-1" d="M951.56,170.7S914.49,304.17,814.38,304.17c-66.53,85.27-155.12,51.59-191.3,2.14,27.24-54.47,87.89-102.24,145.9-101-39.1,42.88-34.05,59.27-34.05,59.27s73.15-79.45,128.64-73.15c-47.92,27.74-68.34,67.45-68.34,67.45S881.92,269.75,951.56,170.7Z"/><path id="hair_flow" class="cls-1" d="M552.95,332s-80.33,56.21-57.63,85.22C470.36,550.81,351.54,576.1,407,703.48c63.33-152.67,66.84-7.57,31.53,53s3.78,83.24,22.7,93.32c-8.83-26.48,11.26-59.27,11.94-58s41,46.66,15.81,78.19,6.51,55.9,6.51,55.9l26-43.28S477.61,507,593.66,356.44C559.44,350.35,552.95,332,552.95,332Z"/><path id="brow_R-2" data-name="brow_R" class="cls-5" d="M659.8,418.44s10.71-74.58,63.37-45.46"/><path class="cls-11" d="M307.14,1169.21c-24.8,44.11-63.82,97.41-91.7,114.13-11.57,6.94-27.71,15.19-44.92,23.46,4.08,16.24,15.88,31.65,28.68,44.73l32.68-31.18s58.31-94.69,107.2-138.73"/><path class="cls-12" d="M900.24,1158.72c1.66,6.7,6,13,17.63,19.71,28.78,16.44,86.89,92.58,86.89,133.7a189.63,189.63,0,0,0,2,26.82c12.74,0.42,25.1-.41,36.27-4.79,10.45-3.87,18.65-11.5,24.83-21.06-10.63-.92-20.55-2.19-26.16-9.2-16.44-20.56-77.57-132.44-77.57-153,0-8.6-2.9-17.22-7.52-25.56"/><path class="cls-13" d="M1004.77,1312.13s-9,62.73,0,86.08c79.67,15.14,110.9-12.8,145.41-55.53-60.8-49.3-108.41-38.78-108.41-38.78S1033.56,1322.65,1004.77,1312.13Z"/><path class="cls-13" d="M197,1289.8s-89.89-6-127.69,49.7c60.8,96.84,127.69,73.83,127.69,73.83s28.17-49.57,25-79C194.2,1322.95,198.14,1302.67,197,1289.8Z"/><path class="cls-13" d="M400.44,1867.12s-65.38,57.32-75.24,116.48c39.44,75.6,207.07,19.72,207.07,19.72s-45.45-102.64-68.74-122.81C420.51,1903.08,400.44,1867.12,400.44,1867.12Z"/><path class="cls-13" d="M764,1867.12s-49.32,47.46-39.46,119.77c115,74,195.56,0,195.56,0s-12.81-85.68-98.43-118.44C768.91,1906.36,764,1867.12,764,1867.12Z"/><path class="cls-14" d="M734.09,451.12c7.66,0,7.67-11.91,0-11.91s-7.67,11.91,0,11.91h0Z"/><path class="cls-14" d="M874.09,431.12c7.66,0,7.67-11.91,0-11.91s-7.67,11.91,0,11.91h0Z"/><path class="cls-15" d="M727.9,356.44c21.79-3.08,68.67-17.45,86.48-52.26,19.31,182.67,49.2,229.49,49.2,229.49S782.69,454.77,727.9,356.44Z"/><text class="cls-16" transform="translate(497.24 1229.37)">1715</text></svg>