<svg id="_3rd_Place" data-name="3rd Place" xmlns="http://www.w3.org/2000/svg" xmlns:xlink="http://www.w3.org/1999/xlink" viewBox="0 0 1188.48 2136.85"><defs><style>.cls-1{fill:#1f0d0c;stroke-width:4px;}.cls-1,.cls-10,.cls-11,.cls-14,.cls-15,.cls-2,.cls-3,.cls-4,.cls-5,.cls-6,.cls-7,.cls-8,.cls-9{stroke:#000;stroke-miterlimit:10;}.cls-2{fill:#933a22;}.cls-10,.cls-11,.cls-14,.cls-15,.cls-2,.cls-4,.cls-5,.cls-6,.cls-7,.cls-8,.cls-9{stroke-width:10px;}.cls-3{fill:#a50e19;stroke-width:12px;}.cls-4{fill:#541818;}.cls-5{fill:none;}.cls-12,.cls-16,.cls-7{fill:#fff;}.cls-8{fill:url(#linear-gradient);}.cls-9{fill:url(#linear-gradient-2);}.cls-10{fill:#3d220e;}.cls-11{fill:#511e14;}.cls-13{fill:url(#linear-gradient-3);}.cls-14{fill:url(#linear-gradient-4);}.cls-15{fill:url(#linear-gradient-5);}.cls-16{font-size:150px;font-family:Montserrat;font-weight:700;}</style><linearGradient id="linear-gradient" x1="458.13" y1="1181.85" x2="501.57" y2="967.91" gradientUnits="userSpaceOnUse"><stop offset="0.18" stop-color="#fff" stop-opacity="0"/><stop offset="0.28" stop-color="#fff" stop-opacity="0.15"/><stop offset="0.5" stop-color="#fff" stop-opacity="0.52"/><stop offset="0.76" stop-color="#fff"/></linearGradient><linearGradient id="linear-gradient-2" x1="806.72" y1="1117.58" x2="838.57" y2="960.73" gradientUnits="userSpaceOnUse"><stop offset="0.15" stop-color="#fff" stop-opacity="0"/><stop offset="0.33" stop-color="#fff" stop-opacity="0.01"/><stop offset="0.33" stop-color="#fff" stop-opacity="0.01"/><stop offset="0.37" stop-color="#fff" stop-opacity="0.07"/><stop offset="0.46" stop-color="#fff" stop-opacity="0.23"/><stop offset="0.57" stop-color="#fff" stop-opacity="0.49"/><stop offset="0.7" stop-color="#fff" stop-opacity="0.84"/><stop offset="0.76" stop-color="#fff"/></linearGradient><linearGradient id="linear-gradient-3" x1="673.84" y1="535.46" x2="673.84" y2="287.77" gradientUnits="userSpaceOnUse"><stop offset="0" stop-color="#fff" stop-opacity="0"/><stop offset="0.24" stop-color="#fff" stop-opacity="0"/><stop offset="0.27" stop-color="#fff" stop-opacity="0.05"/><stop offset="0.41" stop-color="#fff" stop-opacity="0.34"/><stop offset="0.55" stop-color="#fff" stop-opacity="0.57"/><stop offset="0.67" stop-color="#fff" stop-opacity="0.76"/><stop offset="0.78" stop-color="#fff" stop-opacity="0.89"/><stop offset="0.87" stop-color="#fff" stop-opacity="0.97"/><stop offset="0.93" stop-color="#fff"/></linearGradient><linearGradient id="linear-gradient-4" x1="355.19" y1="1944.75" x2="405.82" y2="1695.4" gradientUnits="userSpaceOnUse"><stop offset="0.06" stop-color="#fff"/><stop offset="0.16" stop-color="#fff" stop-opacity="0.99"/><stop offset="0.23" stop-color="#fff" stop-opacity="0.95"/><stop offset="0.3" stop-color="#fff" stop-opacity="0.88"/><stop offset="0.36" stop-color="#fff" stop-opacity="0.79"/><stop offset="0.43" stop-color="#fff" stop-opacity="0.67"/><stop offset="0.49" stop-color="#fff" stop-opacity="0.52"/><stop offset="0.54" stop-color="#fff" stop-opacity="0.35"/><stop offset="0.6" stop-color="#fff" stop-opacity="0.15"/><stop offset="0.64" stop-color="#fff" stop-opacity="0"/><stop offset="0.85" stop-color="#fff" stop-opacity="0"/></linearGradient><linearGradient id="linear-gradient-5" x1="624.72" y1="1926.87" x2="670.9" y2="1699.46" xlink:href="#linear-gradient-4"/></defs><title>horse_main_</title><path class="cls-1" d="M340.83,1370.17s-1.7-2-4.77-5.33c-26.79-29-157.55-157.62-164.56,83.42-7.81,268.63-89,204.59-89,204.59s94.36,84.34,129.17-54.66c8.26,62.47,0,56.22,0,56.22s86.35-90.58,52-193.66-34.9-168,75.48-92.59"/><path class="cls-1" d="M478.66,322.7S339.33,383,315.39,458.28c53.36-18.81,49.06-27.59,66.17-10.27C284,507.66,301.92,568.79,315.39,580.54c6-44.67,28.43-45,35.91-49.55s-2,77.77-35.91,101.28-86.28,68.18-63.83,108.15C279,702.8,315.39,702.8,315.39,702.8s-79.4,58.33-1.5,148.83S456,775.69,456,775.69L498.59,531,532.34,322.7H478.66Z"/><path class="cls-2" d="M292,941c23.68-87.88,85.49-62.41,85.49-62.41S334,485.54,502.42,327c-48.63,0-138.4-70.54-134.66-119.92s164.59,77.6,164.59,77.6,18.7-52.91,128.91-42.33c69.07-52.91,118-102.29,132.93-84.65s0,77.6-93.52,112.87c3.74-10.58,37.41,0,41.15,49.38s0,211,145.88,257.48c149.63,67,78.55,204.57,29.12,225.74S783,852.56,682,710.08c41.15,97.37-56.11,68.41-56.11,68.41l67.33,119.92s78.55,151.67,93.52,151.67,24.86-116.39,24.86-116.39l27.5,17.64s15,105.81,0,172.83-48.63-3.53-75-21.16S622.12,912.52,622.12,912.52L375.24,944.26s-3.92,6.93-8.56,21.28Z"/><path class="cls-2" d="M264,1278.84s-20.07,124.95,51.37,208.6c60.86,71.27,63.59,105.81,44.89,162.25s4.32,53.15,7.2,69.68c2.29,13.13,15.55,95-7.2,156.05-17.46,46.87-8.38,68.66-8.38,68.66l56.61-36s-3.44-165.42,13.78-206.52c11.29-26.94-8.66-33.21-5.87-51.31,7.7-50,2.65-74.86,27.62-87.77,58-30,76-32.11,162.69-22.92,42.59,4.51,56.53,103.07,45.31,124.23s-29.93,35.27-11.22,63.49-16,109.34-11.73,148.14,31.25,71,32.71,53.15,23-182.72,32.35-203c16.21-35.27,4.57-53.88,2.35-66.1-4.82-26.48-13.09-112.85,9.35-139.3,20.1-23.69,65.43-82.11,58.18-198.5S264,1278.84,264,1278.84Z"/><path class="cls-3" d="M645.44,813.35L764.81,961.43l-66,61.53s93.86,208.85,86.38,326.41c-324.67,122-573.5,16.46-573.5,23.51S295,1081.34,292,1039c-75.34-21.16-80.33-63.48-80.33-63.48S261.43,909.33,348,826.33C532.34,1045.76,645.44,813.35,645.44,813.35Z"/><path class="cls-4" d="M682,710.08S590.52,588.82,569,600.64C579.1,634.87,676.38,846.49,682,710.08Z"/><path class="cls-1" d="M532.34,284.69s30.9-108.55,128.14-103.85C630.57,199.65,621,218.46,621,218.46s79.55-42.32,143.07,47c30.35,42,58.46-2.35,58.46-2.35s-4.91,101.1-162,21.16c4.59,37.21,21.48,45.4,21.48,45.4S619,345.56,532.34,284.69Z"/><path class="cls-2" d="M339.61,1049.53c-8.19,25.32,0,0,4.77,74.28,59.51,13.07,183.29-116.39,183.29-116.39S580,951,576.3,1003.89c-48.63,109.34-185.9,172.83-185.9,172.83s-29.31,50.48-68.46,0c-18-48.35-18-48.35-49.87-144.36Z"/><path class="cls-5" d="M625.86,778.49s-91.73-59.22-93.52-93"/><ellipse id="eye_L" class="cls-6" cx="610.76" cy="442.94" rx="20.35" ry="30.2"/><ellipse id="eye_R" class="cls-6" cx="753.19" cy="420.46" rx="20.35" ry="30.2"/><line class="cls-7" x1="553.76" y1="386.45" x2="605.05" y2="357.85"/><line class="cls-7" x1="721.88" y1="341.48" x2="771.81" y2="367.24"/><path class="cls-8" d="M402.57,1170.57c33.47-17.73,127.27-73.22,169.49-157.72-0.08-.69-0.14-1.38-0.22-2.07h1.24q1-2,1.88-4c-0.27-1.84-.71-3.45-0.12-4,0.56-.35,1.08-0.7,1.59-1.06,2.15-49.15-48.75,5.7-48.75,5.7s-76,79.44-137.48,107.58c-0.11.25-.23,0.51-0.36,0.78"/><path class="cls-9" d="M839.08,1124.14c11.8-52.83,5-129.76,1.59-160-7.61-3.88-15.27-8.26-23.83-5.41a45.4,45.4,0,0,0-8.23,3.7c-4,34.47-11.79,87.6-21.9,87.6"/><path class="cls-10" d="M529,1004.35s15.22-140.21,96.49-144.91,84,10.54,98.94,34.05S674.52,1023.36,569,1023C551.23,983.09,529,1004.35,529,1004.35Z"/><path class="cls-10" d="M806.65,978.35s37.94,31.25,37.4,23.76,83.83-85.35-18.7-141.77c-64.29,0-70.45,7.78-81.5,19.17S768.45,941.07,806.65,978.35Z"/><circle id="nostril_R" class="cls-11" cx="772.96" cy="708.64" r="31.15"/><circle id="nostril_L" class="cls-11" cx="932.29" cy="685.45" r="23.2"/><path class="cls-12" d="M620.84,449.73c7.66,0,7.67-11.91,0-11.91s-7.67,11.91,0,11.91h0Z"/><path class="cls-12" d="M764.84,425.73c7.66,0,7.67-11.91,0-11.91s-7.67,11.91,0,11.91h0Z"/><path class="cls-13" d="M607.84,325.11s55.48,150.35,132,210.35c-30-93-33.3-229.69-33.3-229.69s-12.71-2-43.37-18c4.33,34.93,23.9,42.49,23.9,42.49S658.84,339.77,607.84,325.11Z"/><path class="cls-14" d="M358.22,1703.82c3.65,5.43,8.09,8.88,9.25,15.55,2.29,13.13,15.55,95-7.2,156.05-17.46,46.87-8.38,68.66-8.38,68.66l56.61-36s-3.44-165.42,13.78-206.52c0.37-.89.71-1.76,1-2.61"/><path class="cls-10" d="M360.28,1875.42s-108.93,61.75-98.85,129.93c94.86,98.75,172.16,18.81,172.16,18.81s11.19-97-25.35-148.74C353.21,1898.37,360.28,1875.42,360.28,1875.42Z"/><path class="cls-15" d="M633.28,1699.92c-1.28,7.85.39,16.57,7.55,27.36,18.7,28.22-16,109.34-11.73,148.14s31.25,71,32.71,53.15,23-182.72,32.35-203a96.7,96.7,0,0,0,6.84-20"/><path class="cls-10" d="M624.5,1875.42s-66.25,66.45-53.78,146.39c82.29,89.34,194.09,0,194.09,0s-46.16-128.2-96.43-146.39C639.84,1902.11,624.5,1875.42,624.5,1875.42Z"/><text class="cls-16" transform="translate(423.31 1291.01)">1715</text></svg>