<svg id="_4th_Place" data-name="4th Place" xmlns="http://www.w3.org/2000/svg" xmlns:xlink="http://www.w3.org/1999/xlink" viewBox="0 0 1152.46 2232.89"><defs><style>.cls-1{fill:#1f0d0c;stroke-width:4px;}.cls-1,.cls-12,.cls-13,.cls-2,.cls-3,.cls-4,.cls-5,.cls-6,.cls-7,.cls-8,.cls-9{stroke:#000;stroke-miterlimit:10;}.cls-2{fill:#933a22;}.cls-12,.cls-13,.cls-2,.cls-3,.cls-4,.cls-5,.cls-6,.cls-7,.cls-8{stroke-width:10px;}.cls-3{fill:none;}.cls-4{fill:#511e14;}.cls-6{fill:url(#linear-gradient);}.cls-7{fill:url(#linear-gradient-2);}.cls-8{fill:#3d220e;}.cls-9{fill:#a50e19;stroke-width:12px;}.cls-10,.cls-14{fill:#fff;}.cls-11{fill:url(#linear-gradient-3);}.cls-12{fill:url(#linear-gradient-4);}.cls-13{fill:url(#linear-gradient-5);}.cls-14{font-size:165px;font-family:Montserrat;font-weight:700;}</style><linearGradient id="linear-gradient" x1="244.02" y1="1321.83" x2="275.97" y2="1164.48" gradientUnits="userSpaceOnUse"><stop offset="0" stop-color="#fff" stop-opacity="0.01"/><stop offset="0" stop-color="#fff" stop-opacity="0.07"/><stop offset="0" stop-color="#fff" stop-opacity="0.23"/><stop offset="0" stop-color="#fff" stop-opacity="0.49"/><stop offset="0" stop-color="#fff" stop-opacity="0.84"/><stop offset="0" stop-color="#fff"/><stop offset="0.1" stop-color="#fff" stop-opacity="0.98"/><stop offset="0.21" stop-color="#fff" stop-opacity="0.93"/><stop offset="0.33" stop-color="#fff" stop-opacity="0.85"/><stop offset="0.44" stop-color="#fff" stop-opacity="0.73"/><stop offset="0.56" stop-color="#fff" stop-opacity="0.58"/><stop offset="0.68" stop-color="#fff" stop-opacity="0.4"/><stop offset="0.79" stop-color="#fff" stop-opacity="0.18"/><stop offset="0.88" stop-color="#fff" stop-opacity="0"/></linearGradient><linearGradient id="linear-gradient-2" x1="787.66" y1="1330.29" x2="822.54" y2="1158.5" gradientUnits="userSpaceOnUse"><stop offset="0" stop-color="#fff" stop-opacity="0.01"/><stop offset="0" stop-color="#fff" stop-opacity="0.07"/><stop offset="0" stop-color="#fff" stop-opacity="0.23"/><stop offset="0" stop-color="#fff" stop-opacity="0.49"/><stop offset="0" stop-color="#fff" stop-opacity="0.84"/><stop offset="0" stop-color="#fff"/><stop offset="0.11" stop-color="#fff" stop-opacity="0.98"/><stop offset="0.22" stop-color="#fff" stop-opacity="0.94"/><stop offset="0.33" stop-color="#fff" stop-opacity="0.86"/><stop offset="0.44" stop-color="#fff" stop-opacity="0.75"/><stop offset="0.55" stop-color="#fff" stop-opacity="0.61"/><stop offset="0.66" stop-color="#fff" stop-opacity="0.43"/><stop offset="0.77" stop-color="#fff" stop-opacity="0.23"/><stop offset="0.88" stop-color="#fff" stop-opacity="0"/></linearGradient><linearGradient id="linear-gradient-3" x1="684.12" y1="553.52" x2="684.12" y2="307.73" gradientUnits="userSpaceOnUse"><stop offset="0" stop-color="#fff" stop-opacity="0"/><stop offset="0.24" stop-color="#fff" stop-opacity="0"/><stop offset="0.27" stop-color="#fff" stop-opacity="0.05"/><stop offset="0.41" stop-color="#fff" stop-opacity="0.34"/><stop offset="0.55" stop-color="#fff" stop-opacity="0.57"/><stop offset="0.67" stop-color="#fff" stop-opacity="0.76"/><stop offset="0.78" stop-color="#fff" stop-opacity="0.89"/><stop offset="0.87" stop-color="#fff" stop-opacity="0.97"/><stop offset="0.93" stop-color="#fff"/></linearGradient><linearGradient id="linear-gradient-4" x1="352.46" y1="1972.02" x2="407.06" y2="1703.08" gradientUnits="userSpaceOnUse"><stop offset="0.06" stop-color="#fff"/><stop offset="0.16" stop-color="#fff" stop-opacity="0.99"/><stop offset="0.23" stop-color="#fff" stop-opacity="0.95"/><stop offset="0.3" stop-color="#fff" stop-opacity="0.88"/><stop offset="0.36" stop-color="#fff" stop-opacity="0.79"/><stop offset="0.43" stop-color="#fff" stop-opacity="0.67"/><stop offset="0.49" stop-color="#fff" stop-opacity="0.52"/><stop offset="0.54" stop-color="#fff" stop-opacity="0.35"/><stop offset="0.6" stop-color="#fff" stop-opacity="0.15"/><stop offset="0.64" stop-color="#fff" stop-opacity="0"/><stop offset="0.85" stop-color="#fff" stop-opacity="0"/></linearGradient><linearGradient id="linear-gradient-5" x1="591.23" y1="1943.23" x2="639.4" y2="1705.96" xlink:href="#linear-gradient-4"/></defs><title>horse_main_</title><path class="cls-1" d="M485.88,1339.69s-198.22,14.72-216.09,220.84c63.15-72.68,63.37-64.85,55.66-48.14-29.73,64.45,26.16,184.17,122.28,256.22C542.57,1839.7,487,1852,487,1852s94.16-25.3,25-139.4C396.74,1522.29,438.22,1402.84,485.88,1339.69Z"/><path class="cls-1" d="M447.76,324.22s-129.12,61.66-118.3,180.69c39.68-83,49.12-54.11,58.83-54.11-66,205.61-9.62,209.21-59.47,245.28s-44.7,179.37,14,226.75,130.89-33.89,130.89-33.89l51.87-214.5-15.8-350.23H447.76Z"/><path class="cls-2" d="M560.31,299.31S383.56,209.13,369.14,238c-10.82,21.64,33.14,65.6,78.62,86.23,15.16,6.88,30.49,11.16,44,11.16C416,432.77,394.38,703.3,398,800.7s-49.7,158.49-49.7,158.49-76.55,130.08-83.76,173.37-32.46,32.46-14.43,64.93c-7.21,50.5-1.92,129.86-6.37,162.32s24.41,36.07,24.41,36.07,3.61-148.93,21.64-175.46,0-35.44,10.82-58,36.07-156.06,57.71-148.85,0,148.85,0,148.85-126.25,165-3.61,320.08c32.46,126.25,32.46,180.36,32.46,194.78s-28.86,14.43-14.43,54.11-3.61,154.86-10.82,192.86-18,59.64,10.82,66.85,36.07-194.78,57.71-234.46-7.93-61.51-7.21-79.36c0.84-21-21.64-147.89,28.86-165.93s144.29,3.61,151.5,14.43,18,140.68,0,162.32-32.46,50.5-18,64.93,37.78,184,27.91,223.64,33.41,14.62,33.41,14.62-10.82-180.54,0-205.79-7.21-72.14,0-93.79,14.43-162.32,54.11-194.78,125.43-166.15,67.72-310.43-34.46-185.51-31.65-204.25c1.72-11.47,25.09,52.68,45.68,189.08,3.05,20.22-5.9,31.11,7.09,49.14s9,88.37,9,128,22.43,26.36,22.43,26.36,10.33-95.83,17-145.67c4.3-32-8.11-51.4-18.93-66.78s-13.8-177.87-71.51-253.54-75.75-153.08-75.75-153.08S769.53,885.13,885,815.86,957.1,642,939.06,604.11s-90.18-12.63-144.28-110S751.49,339,683,292.09c90.18,7.21,122.64-119,108.21-119s-86.57,34.46-144.28,93C563.92,266.84,560.31,299.31,560.31,299.31Z"/><path class="cls-1" d="M525.61,282.42s94.23-40.83,77.09-109.36c87.35,55.06,44.18,16.38,44.18,54.68,144.28,31.89,140.68,53.53,147.89,93.21s-10.82-7.21-61.32-18c86.57,86.57,119,68.54,119,68.54s-178.09-1.3-216.43-50.5S621.63,357,621.63,357Z"/><path class="cls-3" d="M672.13,755.75s-49.2-52.5-78.87-145.74c0,0-42.77,49.8-42.77-21.19"/><path class="cls-3" d="M575.26,594.12c0-18.2,46.62-82.64,72.78,2.13,9.4,30.44-7.44,120.15,94.21,219.62"/><circle id="nostril_R" class="cls-4" cx="758.23" cy="669.87" r="31.15"/><circle id="nostril_L" class="cls-4" cx="917.57" cy="646.67" r="23.2"/><ellipse id="eye_L" class="cls-5" cx="617.83" cy="478.42" rx="20.35" ry="30.2"/><ellipse id="eye_R" class="cls-5" cx="760.27" cy="455.94" rx="20.35" ry="30.2"/><path class="cls-2" d="M584.71,509.44s31.16-26.87,56.26,8.21"/><path class="cls-2" d="M752.92,497s9.32-29.93,33.52-13.61"/><path class="cls-2" d="M548.38,467.05s116.83-9.11,95.63-48.79"/><path class="cls-3" d="M732.08,403.53s-6.2,27.62,67.33,31.1"/><path class="cls-6" d="M253.1,1162.09c-8.08,11.44-14.79,14.16-3,35.39-5.15,36-3.93,86.78-4.42,124.68a254,254,0,0,0,26.08,1.65c3.09-42.06,8.57-89.51,18-103.41,16.17-23.79,3.36-33.42,8.33-51.44"/><path class="cls-7" d="M782.21,1167.75c0.18,1.17.36,2.34,0.54,3.52,3.05,20.22-5.9,31.11,7.09,49.14,11.4,15.82,9.74,71.87,9.16,112.19,4.38,0.11,8.76.18,13.15,0.18a32.13,32.13,0,0,0,14.18-3.56c3.56-31.6,8.32-72.74,12-100.07,4.3-32-8.11-51.4-18.93-66.78a18.05,18.05,0,0,1-2.06-4.92"/><path class="cls-8" d="M805.26,1308.87s-31.86,54.54-31.86,94.21,75.75,32.46,90.18,21.64,14.93-56.24-34.43-122C811.65,1324.12,805.26,1308.87,805.26,1308.87Z"/><path class="cls-9" d="M386.18,865.68S274.59,1031.83,243.26,1086c57.34,76.31,84.2,49.26,84.2,49.26l-47.34,225.08s281.73,120.93,529.09,0c-24.3-162.62-22-198-59.43-344.39,30,137.07,26.27,116.2,26.27,116.2s43.83,8.79,81.69-31C840.67,1033,733.62,888.95,733.62,888.95S564.2,1156.6,386.18,865.68Z"/><path class="cls-8" d="M243.26,1309.3s-58.09,64.93-43.66,104.61,89.38,24.25,95.19,19.34,7.77-123.95-21.88-123.95H243.26Z"/><path class="cls-10" d="M628.15,485.73c7.66,0,7.67-11.91,0-11.91s-7.67,11.91,0,11.91h0Z"/><path class="cls-10" d="M772.15,461.73c7.66,0,7.67-11.91,0-11.91s-7.67,11.91,0,11.91h0Z"/><path class="cls-11" d="M621.4,348.28s57.52,146.4,131.52,205.24c-45.76-127.74-21.38-150.78-43.54-195.74-41.91-12.13-57.72-14.25-78.47-40.5C602.7,284,621.4,348.28,621.4,348.28Z"/><path class="cls-12" d="M373.46,1696.26c-4.77,6.73-7.43,16.6-.72,35.08,14.43,39.68-3.61,154.86-10.82,192.86-4,20.87-9,36.81-8,48.13l34.21-.27c17-50.24,25.12-184,42.3-215.47"/><path class="cls-13" d="M587,1712.72c-8,15.55-10.73,30.92-1.4,40.26,12.08,12.09,30.43,133,30.27,195.25,9.63-1.13,19.2-1.61,28.77-1.88-2.44-55.22-5.06-143.78,2.28-160.91,8.68-20.25-1.19-54.41-1.73-78.31"/><path class="cls-8" d="M365.89,1901.52s-69.7,22.55-71.1,97.52,117.63,46.11,139.27,20.86S409,1915.06,403.61,1901.52C370.22,1921.11,365.89,1901.52,365.89,1901.52Z"/><path class="cls-8" d="M615.16,1924.19s-54.85,54.82-44,113.14,109.58,27.75,117.92,7-13.67-101.82-45.44-122.52C632.82,1945.11,615.16,1924.19,615.16,1924.19Z"/><text class="cls-14" transform="translate(396.84 1245.11)">1715</text></svg>