<svg id="_2nd_Place" data-name="2nd Place" xmlns="http://www.w3.org/2000/svg" xmlns:xlink="http://www.w3.org/1999/xlink" viewBox="0 0 1368.55 2136.85"><defs><style>.cls-1,.cls-14{fill:#fff;}.cls-1,.cls-10,.cls-11,.cls-12,.cls-13,.cls-2,.cls-3,.cls-4,.cls-5,.cls-6,.cls-7,.cls-9{stroke:#000;stroke-miterlimit:10;}.cls-1,.cls-10,.cls-11,.cls-12,.cls-13,.cls-3,.cls-5,.cls-6,.cls-7,.cls-9{stroke-width:10px;}.cls-2{fill:#1f0d0c;stroke-width:4px;}.cls-3{fill:#933a22;}.cls-4{fill:#a50e19;stroke-width:12px;}.cls-5{fill:#541818;}.cls-6{fill:none;}.cls-7{fill:#511e14;}.cls-8{fill:url(#linear-gradient);}.cls-9{fill:url(#linear-gradient-2);}.cls-10{fill:#3d220e;}.cls-11{fill:url(#linear-gradient-3);}.cls-12{fill:url(#linear-gradient-4);}.cls-13{fill:url(#linear-gradient-5);}.cls-14{font-size:165px;font-family:Montserrat;font-weight:700;}</style><linearGradient id="linear-gradient" x1="785.7" y1="397.36" x2="810.64" y2="274.55" gradientUnits="userSpaceOnUse"><stop offset="0" stop-color="#fff" stop-opacity="0"/><stop offset="0.24" stop-color="#fff" stop-opacity="0"/><stop offset="0.93" stop-color="#fff"/></linearGradient><linearGradient id="linear-gradient-2" x1="416.23" y1="1898.47" x2="485.21" y2="1558.74" gradientUnits="userSpaceOnUse"><stop offset="0" stop-color="#fff"/><stop offset="0.09" stop-color="#fff" stop-opacity="0.99"/><stop offset="0.17" stop-color="#fff" stop-opacity="0.95"/><stop offset="0.23" stop-color="#fff" stop-opacity="0.88"/><stop offset="0.3" stop-color="#fff" stop-opacity="0.79"/><stop offset="0.36" stop-color="#fff" stop-opacity="0.67"/><stop offset="0.42" stop-color="#fff" stop-opacity="0.52"/><stop offset="0.48" stop-color="#fff" stop-opacity="0.34"/><stop offset="0.53" stop-color="#fff" stop-opacity="0.15"/><stop offset="0.57" stop-color="#fff" stop-opacity="0"/><stop offset="1" stop-color="#fff" stop-opacity="0"/></linearGradient><linearGradient id="linear-gradient-3" x1="807.53" y1="1914.24" x2="872.51" y2="1594.2" gradientUnits="userSpaceOnUse"><stop offset="0" stop-color="#fff"/><stop offset="0.1" stop-color="#fff" stop-opacity="0.99"/><stop offset="0.18" stop-color="#fff" stop-opacity="0.95"/><stop offset="0.25" stop-color="#fff" stop-opacity="0.89"/><stop offset="0.31" stop-color="#fff" stop-opacity="0.8"/><stop offset="0.37" stop-color="#fff" stop-opacity="0.69"/><stop offset="0.42" stop-color="#fff" stop-opacity="0.55"/><stop offset="0.47" stop-color="#fff" stop-opacity="0.38"/><stop offset="0.52" stop-color="#fff" stop-opacity="0.2"/><stop offset="0.57" stop-color="#fff" stop-opacity="0"/><stop offset="1" stop-color="#fff" stop-opacity="0"/></linearGradient><linearGradient id="linear-gradient-4" x1="289.45" y1="477.41" x2="337.33" y2="241.58" gradientUnits="userSpaceOnUse"><stop offset="0.27" stop-color="#fff" stop-opacity="0"/><stop offset="0.3" stop-color="#fff" stop-opacity="0.13"/><stop offset="0.34" stop-color="#fff" stop-opacity="0.31"/><stop offset="0.39" stop-color="#fff" stop-opacity="0.48"/><stop offset="0.44" stop-color="#fff" stop-opacity="0.62"/><stop offset="0.5" stop-color="#fff" stop-opacity="0.74"/><stop offset="0.56" stop-color="#fff" stop-opacity="0.83"/><stop offset="0.62" stop-color="#fff" stop-opacity="0.91"/><stop offset="0.7" stop-color="#fff" stop-opacity="0.96"/><stop offset="0.8" stop-color="#fff" stop-opacity="0.99"/><stop offset="1" stop-color="#fff"/><stop offset="1" stop-color="#fff" stop-opacity="0.99"/><stop offset="1" stop-color="#fff" stop-opacity="0.96"/><stop offset="1" stop-color="#fff" stop-opacity="0.91"/><stop offset="1" stop-color="#fff" stop-opacity="0.83"/><stop offset="1" stop-color="#fff" stop-opacity="0.73"/><stop offset="1" stop-color="#fff" stop-opacity="0.61"/><stop offset="1" stop-color="#fff" stop-opacity="0.47"/><stop offset="1" stop-color="#fff" stop-opacity="0.3"/><stop offset="1" stop-color="#fff" stop-opacity="0.12"/><stop offset="1" stop-color="#fff" stop-opacity="0"/></linearGradient><linearGradient id="linear-gradient-5" x1="1175.06" y1="411.98" x2="1195.96" y2="309.03" gradientUnits="userSpaceOnUse"><stop offset="0" stop-color="#fff" stop-opacity="0"/><stop offset="0.03" stop-color="#fff" stop-opacity="0.11"/><stop offset="0.1" stop-color="#fff" stop-opacity="0.29"/><stop offset="0.17" stop-color="#fff" stop-opacity="0.46"/><stop offset="0.24" stop-color="#fff" stop-opacity="0.61"/><stop offset="0.32" stop-color="#fff" stop-opacity="0.73"/><stop offset="0.41" stop-color="#fff" stop-opacity="0.83"/><stop offset="0.5" stop-color="#fff" stop-opacity="0.91"/><stop offset="0.61" stop-color="#fff" stop-opacity="0.96"/><stop offset="0.75" stop-color="#fff" stop-opacity="0.99"/><stop offset="1" stop-color="#fff"/><stop offset="1" stop-color="#fff" stop-opacity="0.99"/><stop offset="1" stop-color="#fff" stop-opacity="0.96"/><stop offset="1" stop-color="#fff" stop-opacity="0.91"/><stop offset="1" stop-color="#fff" stop-opacity="0.83"/><stop offset="1" stop-color="#fff" stop-opacity="0.73"/><stop offset="1" stop-color="#fff" stop-opacity="0.61"/><stop offset="1" stop-color="#fff" stop-opacity="0.47"/><stop offset="1" stop-color="#fff" stop-opacity="0.3"/><stop offset="1" stop-color="#fff" stop-opacity="0.12"/><stop offset="1" stop-color="#fff" stop-opacity="0"/></linearGradient></defs><title>horse_main_</title><polyline class="cls-1" points="760.09 246.17 810.67 252.01 760.09 246.17 760.09 257.65 824.83 358.68 810.67 252.01 760.09 246.17"/><path class="cls-2" d="M648.71,257.87s-37.07-4.87-84.78,31.48S504.87,330,489,326.71c54.52,28.52,100-19.18,100-19.18s-61.34,168.12-159,77.24c25,131.77,86.33,56.8,86.33,56.8s-86.33,70.43-50,113.59c22.72-56.8,45.44-31.81,45.44-31.81s-56.8,56.8-38.62,90.87c25,63.61-4,99.15-2.27,103.52S507,890.15,507,890.15L605.84,777.7s63-320.31,64.74-325.43,4.83-162,4.83-162Z"/><path class="cls-2" d="M485.58,1355.43s-1.86-2.19-5.2-5.81c-29.22-31.6-155-204-198.15.68C230,1597.93,191.45,1552.5,191.45,1552.5s25.19,50,67.33-9.09c9,68.15-49.25,136.31-49.25,136.31s168.12-34.08,140.85-272.62c-13.46-117.77,12.93-136.13,133.34-53.86"/><path class="cls-3" d="M1068.23,533.8c-0.1-3.56-.08-7.09,0-10.61-24.44,45-44.25,80.79-48.58,86.56-13,17.27-56.13,47.49-69.08,86.35-5.54,16.64-14.13,32.11-37.66,60.18l39.73,25.84c34.43-52.34,57.76-80.64,71.33-90.33,30.22-21.59,25.91-69.08,38.86-95,3.21-6.42,14.91-25.31,30.69-50.09C1083.62,545.74,1074.7,542,1068.23,533.8Z"/><path class="cls-3" d="M1183.72,307.53s-66.89,126.14-115.48,215.66c-0.09,3.52-.11,7,0,10.61,6.48,8.18,15.4,11.94,25.29,12.91,47.89-75.19,133.37-204.65,133.37-204.65Z"/><path class="cls-3" d="M939.62,800.09c-42.23,64.2-83.09,137.53-80.72,163.7,4.32,47.49,90.67,341.08,30.22,427.43s-38.86,211.56-38.86,237.46,13,51.81,8.64,86.35,30.22,168.38,30.22,168.38l-30.22,38.86s-34.54,13-25.9-60.44-13-138.16-25.9-164.06,9.23-21.68,0-77.72c-11.5-69.82-11.5-119.8-143.82-124.35-157-5.39-167,98.44-171.35,137.3s0,56.13-17.27,69.08-13,155.43-13,155.43l-34.54,43.17s-25.91-34.54-4.32-86.35,13-120.89,8.64-142.48-4.32-25.91,17.27-64.76,8.64-99.3-17.27-220.19,51.81-349.72,60.44-388.57S375.35,678.84,362.39,657.25s-25.9-34.54-25.9-99.3-77.71-289.27-77.71-289.27,25.9-103.62,51.81,30.22,77.71,215.87,95,246.1,30.22,43.17,25.9,73.4,4.32,246.1,99.3,198.6c-4.32-47.49-13-345.4,144.64-526.73C586.9,203.91,625.76,83,625.76,83l99.3,168.38,35-5.24s7.68-32.62-17.5-163.14c82.27,86.3,58.49,126.78,68.08,169,103.07,16.25,48.53,89,125.85,125.48,44.59,21,56.57-4.13,133.38-5.1,137.65-1.74,154.52,146.23,97,201.88s-139.74,98.53-303.16-5.76c19.19,88.26,3.84,209.14-15.35,207.22s-67.16-92.58-67.16-92.58S776.87,842.9,811.41,842.9c19.75,0,57.86-35.3,89.29-72.8Z"/><path class="cls-4" d="M455.47,673.91S489.41,787.83,530.78,817c24.32,66.66,168.33,148.23,271.32,21.35,42.41,4.2,113.85-117.69,113.85-117.69s77.36,56,84.18,113.94c-97.69,67-129.5,126.09-129.5,126.09s90,321.72,62.76,393.29c-87.75-33.2-167.27-51.37-296.76-30.93-31,4.9-161.3,46.24-248.53,46.24,39.52-164.38,73.6-347.69,69.77-387.74-3.51-36.68-131.46-191.92-131.46-191.92S367.31,693.07,455.47,673.91Z"/><path class="cls-5" d="M863.7,568.51s-86.21-61.06-111.2-126.95L729.78,471.1S877.22,995.34,863.7,568.51Z"/><path class="cls-6" d="M742.33,400.67s32.88,86.33-51.18,59.07"/><path class="cls-6" d="M729.78,343.88s13.63-77.24,34.08,0"/><path class="cls-6" d="M838.83,343.88s11.36-81.79,34.08,0"/><path class="cls-2" d="M719.91,224.3s71.21-73.24,118.91-29.08c-56.8,1-72.3,25.35-75,29.08s38.62-23.55,75-7.64,31.81,31.19,97.69,7.64C895.62,284.81,748.43,291,725.06,251.41S719.91,224.3,719.91,224.3Z"/><circle id="nostril_R" class="cls-7" cx="997.2" cy="472.39" r="29.91"/><circle id="nostril_L" class="cls-7" cx="1150.23" cy="450.11" r="22.28"/><path class="cls-8" d="M746.82,269.93S796.89,380,847.89,410c-40.5-88.5-23.22-132.59-23.22-132.59S781.6,282.8,746.82,269.93Z"/><path class="cls-9" d="M510.17,1563.81c-13.71,26-16.47,53.13-18.26,69.19-4.32,38.86,0,56.13-17.27,69.08s-13,155.43-13,155.43l-34.54,43.17s-25.91-34.54-4.32-86.35,13-120.89,8.64-142.48-4.32-25.91,17.27-64.76c7.73-13.91,11-30.58,10.9-51.79"/><path class="cls-10" d="M417.26,1831.1s-83.69,85.2-83.69,126.1c47.71,78.39,150,44.31,150,44.31s12-114-22.11-156.69C414.46,1861.34,417.26,1831.1,417.26,1831.1Z"/><path class="cls-11" d="M800.16,1579.51c2.67,12.51,4.55,26.1,6.93,40.54,9.23,56-13,51.81,0,77.72s34.54,90.67,25.9,164.06,25.9,60.44,25.9,60.44l30.22-38.86S854.59,1749.57,858.9,1715s-8.64-60.44-8.64-86.35"/><path class="cls-10" d="M833,1861.83s-46.15,74.93-35.93,122.64c54.53,61.35,170.41,24.41,170.41,24.41-6.82-44.86-39.22-141.34-85.94-156.35C847.77,1874.94,833,1861.83,833,1861.83Z"/><path class="cls-12" d="M364.47,467.74c-19.25-41.8-40.19-98.08-53.88-168.85-25.9-133.84-51.81-30.22-51.81-30.22S302.17,394,324.11,484.44"/><path class="cls-13" d="M1180.24,413c47.89-75.19,46.65-71,46.65-71l-43.17-34.54s8.29-14.58-40.3,74.94"/><path class="cls-10" d="M270.23,302.68s24.19,18.11,40.36-3.78,33.21-141.17,23-158.21c-68.16-13.63-129.51,54.53-129.51,54.53S221.91,270,270.23,302.68Z"/><path class="cls-10" d="M1173.89,324.15s16.56,26.54,41.4,34,93-67.52,103.23-81.15C1274.21,208.85,1206,195.22,1206,195.22S1167.74,236.5,1173.89,324.15Z"/><text class="cls-14" transform="translate(512.45 1156.62)">1715</text></svg>