<svg xmlns="http://www.w3.org/2000/svg" xmlns:xlink="http://www.w3.org/1999/xlink" viewBox="0 0 1112.22 1954.94"><defs><style>.cls-1{fill:#6d4a50;}.cls-1,.cls-10,.cls-11,.cls-12,.cls-14,.cls-2,.cls-3,.cls-4,.cls-5,.cls-6,.cls-7,.cls-8,.cls-9{stroke:#000;stroke-miterlimit:10;}.cls-1,.cls-10,.cls-11,.cls-12,.cls-14,.cls-2,.cls-3,.cls-4,.cls-5,.cls-6,.cls-8,.cls-9{stroke-width:10px;}.cls-13,.cls-2{fill:#fff;}.cls-4{fill:none;}.cls-5{fill:#934c4c;}.cls-6{fill:#5b5a5a;}.cls-7{fill:#73c04a;stroke-width:12px;}.cls-10,.cls-11,.cls-8,.cls-9{opacity:0.24;}.cls-8{fill:url(#linear-gradient);}.cls-9{fill:url(#linear-gradient-2);}.cls-10{fill:url(#linear-gradient-3);}.cls-11{fill:url(#linear-gradient-4);}.cls-12{fill:#cecece;}.cls-14{fill:url(#linear-gradient-5);}</style><linearGradient id="linear-gradient" x1="359.16" y1="1848.14" x2="407.2" y2="1611.56" gradientUnits="userSpaceOnUse"><stop offset="0.06"/><stop offset="0.74" stop-opacity="0.4"/><stop offset="0.85" stop-opacity="0"/></linearGradient><linearGradient id="linear-gradient-2" x1="725.07" y1="1843.58" x2="771.6" y2="1614.41" gradientUnits="userSpaceOnUse"><stop offset="0.06"/><stop offset="0.73" stop-opacity="0.42"/><stop offset="0.85" stop-opacity="0"/></linearGradient><linearGradient id="linear-gradient-3" x1="168.35" y1="1284.86" x2="208.17" y2="1088.71" gradientUnits="userSpaceOnUse"><stop offset="0.3"/><stop offset="0.76" stop-color="#eaeaea" stop-opacity="0.08"/><stop offset="0.78" stop-color="#fff" stop-opacity="0"/></linearGradient><linearGradient id="linear-gradient-4" x1="901.56" y1="1257.17" x2="941.23" y2="1061.81" gradientUnits="userSpaceOnUse"><stop offset="0.18"/><stop offset="0.64" stop-color="#b0b0b0" stop-opacity="0.31"/><stop offset="0.7" stop-color="#fff" stop-opacity="0"/></linearGradient><linearGradient id="linear-gradient-5" x1="392.76" y1="1617.07" x2="392.76" y2="1617.07" gradientUnits="userSpaceOnUse"><stop offset="0" stop-color="#fff" stop-opacity="0"/><stop offset="0.07" stop-color="#fff" stop-opacity="0.16"/><stop offset="0.16" stop-color="#fff" stop-opacity="0.36"/><stop offset="0.26" stop-color="#fff" stop-opacity="0.53"/><stop offset="0.36" stop-color="#fff" stop-opacity="0.67"/><stop offset="0.47" stop-color="#fff" stop-opacity="0.79"/><stop offset="0.58" stop-color="#fff" stop-opacity="0.88"/><stop offset="0.7" stop-color="#fff" stop-opacity="0.95"/><stop offset="0.83" stop-color="#fff" stop-opacity="0.99"/><stop offset="1" stop-color="#fff"/><stop offset="1" stop-color="#fff" stop-opacity="0.99"/><stop offset="1" stop-color="#fff" stop-opacity="0.96"/><stop offset="1" stop-color="#fff" stop-opacity="0.91"/><stop offset="1" stop-color="#fff" stop-opacity="0.83"/><stop offset="1" stop-color="#fff" stop-opacity="0.73"/><stop offset="1" stop-color="#fff" stop-opacity="0.61"/><stop offset="1" stop-color="#fff" stop-opacity="0.47"/><stop offset="1" stop-color="#fff" stop-opacity="0.3"/><stop offset="1" stop-color="#fff" stop-opacity="0.12"/><stop offset="1" stop-color="#fff" stop-opacity="0"/></linearGradient></defs><title>215 Sage-2-positive</title><g id="Layer_2" data-name="Layer 2"><g id="_2nd_Place" data-name="2nd Place"><path class="cls-1" d="M407,1342.36s-1.64-1.93-4.58-5.11c-25.73-27.82-151.31-151.38-158,80.11-7.5,258-85.5,196.49-85.5,196.49s90.62,81,124.06-52.5c7.94,60,0,54,0,54s82.93-87,49.93-186S299.39,1268,405.4,1340.43"/><path id="body" class="cls-2" d="M530.33,301.54C411.11,457.76,483.82,807.2,483.82,807.2L323.62,992.57s-48.6,14.67-56.82,51.67-73.58,141.18-114.69,165.85-139.78,65.78-139.78,65.78l78.11,45.76,78.11-74.54s93.91-152.51,143.29-160.45c25.45-4.1,30.9-49.33,30.9-49.33l93-69.77s-4.11,102.78-28.78,131.55-111.55,215.58-37,312.44c75.91,98.63,8.22,172.66,8.22,172.66s-16.93,23-12.82,47.7,8.71,125-28.29,162-61.67,123.33-61.67,123.33,86.33,37,123.33,20.56,53.44-12.33,53.44-12.33l-49.33-111c-16.44-37-6.25-144.82,10.56-159.23,23.3-20,22.33-46.33,22.33-66.88s15.68-103,79-118c39-9.25,171.36-30.69,176.22,87.49,1.18,28.69-2.68,49.58-8.53,59.25-8.36,13.81-8,29.92.58,50.31,4.26,10.06,41.9,85.36,10.38,142.91s-11,90.44-11,90.44,127.44,37,152.11,0-65.78-82.22-86.33-119.22S725,1687,737.38,1654.08s5-56.2.92-76.75-6.67-108.08,27.89-142c81-79.62,76.58-196.42,35.47-270.41S735.88,947,735.88,947s76.43,60.49,95.84,104.48c10.07,22.83-6,37.26,22.83,53.71s86.89,92.59,86.89,133.7,16.44,82.76,16.44,82.76,90.44,15.91,90.44-41.65-53.44-28.78-69.89-49.33-77.57-132.44-77.57-153-16.55-41.29-33.57-57.74c-9.36-9-138.21-187.12-155.61-216.12s-20.3-52.19-20.3-52.19"/><path class="cls-2" d="M614,696.56s50,39.63,77.42,55"/><path id="hair_bangs" class="cls-2" d="M888.23,97.44S851.16,230.91,751.05,230.91c-66.53,85.27-155.12,51.59-191.3,2.14,27.24-54.47,87.89-102.24,145.9-101-39.1,42.88-34.05,59.27-34.05,59.27s73.15-79.45,128.64-73.15c-47.92,27.74-68.34,67.45-68.34,67.45S818.59,196.49,888.23,97.44Z"/><ellipse id="eye_L" class="cls-2" cx="663.46" cy="374.09" rx="19.55" ry="29.01"/><ellipse id="eye_R" class="cls-2" cx="800.25" cy="352.5" rx="19.55" ry="29.01"/><path id="brow_R" class="cls-2" d="M628.15,345.08s10.71-74.29,63.37-45.29"/><path id="cheek" class="cls-2" d="M559.75,436s16.09,20.57,38,23.94a38.23,38.23,0,0,0,23.43-3.76c32.79-16.4,6.31-53.08,6.31-53.08"/><path id="mouth" class="cls-2" d="M724,602.47s-63.74-59.27-102.84-146.29c-23.43,3.76-15.14,4.16-15.14,4.16s20.77,290.95,141.25,290.95c13.69,0-19.16-57.23-25.82-79.45C709.81,633,724,602.47,724,602.47Z"/><circle id="nostril_R" class="cls-2" cx="918.15" cy="561.62" r="29.91"/><circle id="nostril_L" class="cls-2" cx="1071.17" cy="539.34" r="22.28"/><path class="cls-2" d="M941.44,1238.86s-9,62.73,0,86.08c79.67,15.14,110.9-12.8,145.41-55.53-60.8-49.3-108.41-38.78-108.41-38.78S970.23,1249.39,941.44,1238.86Z"/><path class="cls-2" d="M133.66,1216.54s-89.89-6-127.69,49.7c60.8,96.84,127.69,73.83,127.69,73.83s28.17-49.57,25-79C130.87,1249.69,134.81,1229.41,133.66,1216.54Z"/><path class="cls-2" d="M337.11,1793.86s-65.38,57.32-75.24,116.48c39.44,75.6,207.07,19.72,207.07,19.72s-45.45-102.64-68.74-122.81C357.18,1829.81,337.11,1793.86,337.11,1793.86Z"/><path class="cls-2" d="M700.67,1793.86s-49.32,47.46-39.46,119.77c115,74,195.56,0,195.56,0s-12.81-85.68-98.43-118.44C705.58,1833.1,700.67,1793.86,700.67,1793.86Z"/><path id="shirt_green" class="cls-2" d="M458.15,809.3S291.31,931.65,254.23,931.65s102,140.89,102,140.89l57.47-48.2s-59.32,166.84-100.11,189.09c166.84,122.35,396.72,155.72,537.6,40.78-37.08-118.64-94-204.13-110.05-280,69.27,105.77,65.56,92.94,65.56,92.94s92.69-35.58,122.35-92.94c-92.69-42.53-217.32-170.39-217.32-170.39S606.45,994.68,458.15,809.3Z"/><path id="body-2" data-name="body" class="cls-2" d="M575.55,248.09l-15.8-15L402.89,83.65S382,208.75,530.33,283.17C411.11,439.4,458.15,809.3,458.15,809.3L323.62,992.57s-48.6,14.67-56.82,51.67-73.58,141.18-114.69,165.85-139.78,65.78-139.78,65.78l78.11,45.76,78.11-74.54s93.91-152.51,143.29-160.45c25.45-4.1,30.9-49.33,30.9-49.33l93-69.77s-4.11,102.78-28.78,131.55-111.55,215.58-37,312.44c75.91,98.63,8.22,172.66,8.22,172.66s-16.93,23-12.82,47.7,8.71,125-28.29,162-61.67,123.33-61.67,123.33,86.33,37,123.33,20.56,53.44-12.33,53.44-12.33l-49.33-111c-16.44-37-6.25-144.82,10.56-159.23,23.3-20,22.33-46.33,22.33-66.88s15.68-103,79-118c39-9.25,171.36-30.69,176.22,87.49,1.18,28.69-2.68,49.58-8.53,59.25-8.36,13.81-8,29.92.58,50.31,4.26,10.06,41.9,85.36,10.38,142.91s-11,90.44-11,90.44,127.44,37,152.11,0-65.78-82.22-86.33-119.22S725,1687,737.38,1654.08s5-56.2.92-76.75-6.67-108.08,27.89-142c81-79.62,76.58-196.42,35.47-270.41S735.88,947,735.88,947s76.43,60.49,95.84,104.48c10.07,22.83-6,37.26,22.83,53.71s86.89,92.59,86.89,133.7,16.44,82.76,16.44,82.76,90.44,15.91,90.44-41.65-53.44-28.78-69.89-49.33-77.57-132.44-77.57-153-16.55-41.29-33.57-57.74c-9.36-9-138.21-187.12-155.61-216.12s-20.3-52.19-20.3-52.19,35.57,11.29,55.87-.31S703.69,666.05,724,602.47c162.77,149.12,296.16,133.31,362.85,37.62s-44.09-216.61-134.49-193C774.15,493.76,810.28,334.05,810.28,334.05s2.9-121.78-95.69-139.18C772.58,134,726.19,18,691.4,6.4,659.5,119.48,659.5,192,659.5,192S578.59,234.63,575.55,248.09Z"/><path class="cls-2" d="M614,696.56s50,39.63,77.42,55"/><ellipse id="eye_L-2" data-name="eye_L" class="cls-3" cx="663.46" cy="374.09" rx="19.55" ry="29.01"/><ellipse id="eye_R-2" data-name="eye_R" class="cls-3" cx="804.25" cy="352.5" rx="19.55" ry="29.01"/><path id="brow_L" class="cls-4" d="M772.81,281.08s26.52-42.46,54.88,14.29"/><path id="cheek-2" data-name="cheek" class="cls-4" d="M559.75,436s16.09,20.57,38,23.94a38.23,38.23,0,0,0,23.43-3.76c32.79-16.4,6.31-53.08,6.31-53.08"/><path id="mouth-2" data-name="mouth" class="cls-5" d="M724,602.47s-63.74-59.27-102.84-146.29c-23.43,3.76-15.14,4.16-15.14,4.16s22.14,212.23,106,263.74c11.66,7.17,16.1-30,9.44-52.24C709.81,633,724,602.47,724,602.47Z"/><circle id="nostril_R-2" data-name="nostril_R" class="cls-6" cx="918.15" cy="561.62" r="29.91"/><circle id="nostril_L-2" data-name="nostril_L" class="cls-6" cx="1071.17" cy="539.34" r="22.28"/><path id="shirt_green-2" data-name="shirt_green" class="cls-7" d="M458.15,809.3S291.31,931.65,254.23,931.65s102,140.89,102,140.89l57.47-48.2s-59.32,166.84-100.11,189.09c166.84,122.35,396.72,155.72,537.6,40.78-37.08-118.64-94-204.13-110.05-280,69.27,105.77,65.56,92.94,65.56,92.94s92.69-35.58,122.35-92.94c-92.69-42.53-217.32-170.39-217.32-170.39S606.45,994.68,458.15,809.3Z"/><path class="cls-8" d="M365,1618.89a67.41,67.41,0,0,0,.4,13c4.11,24.67,8.71,125-28.29,162-11.27,11.27-21.39,27.12-30,43.71,3.89,0,7.78,0,11.68.33,32,2.53,64,3.28,96,3.3l-11.91-26.79c-16.44-37-6.25-144.82,10.56-159.23,13.28-11.38,18.67-24.84,20.86-38.12"/><path class="cls-9" d="M686.19,1608.46a41.27,41.27,0,0,1-3.75,8.62c-8.36,13.81-8,29.92.58,50.31,4.26,10.06,41.9,85.36,10.38,142.91a161.9,161.9,0,0,0-11,24.6c17.38-.26,34.77,0,52.4,2,27.12,3.22,53.83,7.07,80.59,11-22.84-22.78-55.73-45.83-67.13-66.35-20.56-37-23.17-94.56-10.83-127.45a100.87,100.87,0,0,0,6.46-45.3"/><path id="hair_bangs-2" data-name="hair_bangs" class="cls-1" d="M888.23,97.44S851.16,230.91,751.05,230.91c-66.53,85.27-155.12,51.59-191.3,2.14,27.24-54.47,87.89-102.24,145.9-101-39.1,42.88-34.05,59.27-34.05,59.27s73.15-79.45,128.64-73.15c-47.92,27.74-68.34,67.45-68.34,67.45S818.59,196.49,888.23,97.44Z"/><path id="hair_flow" class="cls-1" d="M489.62,258.72S409.28,314.93,432,343.94C407,477.54,288.21,502.84,343.7,630.21c63.33-152.67,66.84-7.57,31.53,53s3.78,83.24,22.7,93.32c-8.83-26.48,11.26-59.27,11.94-58s41,46.66,15.81,78.19,6.51,55.9,6.51,55.9l26-43.28s-43.87-375.57,72.18-526.12C496.12,277.09,489.62,258.72,489.62,258.72Z"/><path id="brow_R-2" data-name="brow_R" class="cls-4" d="M596.47,345.18s10.71-74.58,63.37-45.46"/><path class="cls-10" d="M243.82,1096c-24.8,44.11-63.82,97.41-91.7,114.13-11.57,6.94-27.71,15.19-44.92,23.46,4.08,16.24,15.88,31.65,28.68,44.73l32.68-31.18s58.31-94.69,107.2-138.73"/><path class="cls-11" d="M836.91,1085.46c1.66,6.7,6,13,17.63,19.71,28.78,16.44,86.89,92.58,86.89,133.7a189.63,189.63,0,0,0,2,26.82c12.74.42,25.1-.41,36.27-4.79,10.45-3.87,18.65-11.5,24.83-21.06-10.63-.92-20.55-2.19-26.16-9.2-16.44-20.56-77.57-132.44-77.57-153,0-8.6-2.9-17.22-7.52-25.56"/><path class="cls-12" d="M941.44,1238.86s-9,62.73,0,86.08c79.67,15.14,110.9-12.8,145.41-55.53-60.8-49.3-108.41-38.78-108.41-38.78S970.23,1249.39,941.44,1238.86Z"/><path class="cls-12" d="M133.66,1216.54s-89.89-6-127.69,49.7c60.8,96.84,127.69,73.83,127.69,73.83s28.17-49.57,25-79C130.87,1249.69,134.81,1229.41,133.66,1216.54Z"/><path class="cls-12" d="M337.11,1793.86s-65.38,57.32-75.24,116.48c39.44,75.6,207.07,19.72,207.07,19.72s-45.45-102.64-68.74-122.81C357.18,1829.81,337.11,1793.86,337.11,1793.86Z"/><path class="cls-12" d="M700.67,1793.86s-49.32,47.46-39.46,119.77c115,74,195.56,0,195.56,0s-12.81-85.68-98.43-118.44C705.58,1833.1,700.67,1793.86,700.67,1793.86Z"/></g><g id="_1st_Place" data-name="1st Place"><path class="cls-13" d="M670.76,377.85c7.66,0,7.67-11.91,0-11.91s-7.67,11.91,0,11.91Z"/><path class="cls-13" d="M810.76,357.85c7.66,0,7.67-11.91,0-11.91s-7.67,11.91,0,11.91Z"/><path class="cls-14" d="M392.76,1617.07"/></g><g id="Text-_outline" data-name="Text- outline"><path class="cls-13" d="M524,1158.93H449.29v-9.21a34.59,34.59,0,0,1,1.58-10.58,42.73,42.73,0,0,1,4.23-9.3,51.76,51.76,0,0,1,6.23-8.22q3.57-3.86,7.64-7.47t8.3-7q4.23-3.36,8.3-6.76,3.82-3.24,7-6.35a42.35,42.35,0,0,0,5.4-6.43,29.1,29.1,0,0,0,3.49-7,24.92,24.92,0,0,0,1.25-8,21.61,21.61,0,0,0-1.45-8.26,16.05,16.05,0,0,0-4.07-5.89,17.36,17.36,0,0,0-6.18-3.57,24.33,24.33,0,0,0-7.8-1.2,36,36,0,0,0-14.86,3.4,50.87,50.87,0,0,0-14.53,10.21v-18.51a60.65,60.65,0,0,1,7.39-4.77,50.48,50.48,0,0,1,7.72-3.4,47.71,47.71,0,0,1,8.38-2,62.93,62.93,0,0,1,9.38-.66,47.38,47.38,0,0,1,14.61,2.12,31.11,31.11,0,0,1,11.21,6.22,27.38,27.38,0,0,1,7.18,10.25,36.8,36.8,0,0,1,2.53,14.11,43.9,43.9,0,0,1-1.79,13,42,42,0,0,1-5.06,10.75,55.82,55.82,0,0,1-7.93,9.46q-4.65,4.48-10.38,9.21-4.81,3.9-9.59,7.59t-8.59,7.22a40.31,40.31,0,0,0-6.18,7.05,12.66,12.66,0,0,0-2.37,7.1v.42H524Z"/><path class="cls-13" d="M586.58,1037.24v121.69H567.32v-98.12a61.3,61.3,0,0,1-11.25,6.35,92.62,92.62,0,0,1-13.74,4.61v-16.44q4.81-1.58,9.3-3.32t8.84-3.9q4.36-2.16,8.8-4.81t9.17-6.06Z"/><path class="cls-13" d="M616.8,1156.19v-18.51q11.7,7.89,23.74,7.89t19.51-6.18q7.39-6.18,7.39-16.48,0-10.13-7.51-15.77t-21.54-5.64q-4.81,0-19.51,1l4.23-62.59h58.6v16.44H639.13l-2,29.8q5.73-.33,10.38-.33,18.93,0,29.26,9.71t10.33,26.56q0,17.68-11.83,28.35t-32.5,10.67Q625.35,1161.09,616.8,1156.19Z"/></g></g></svg>