<svg xmlns="http://www.w3.org/2000/svg" xmlns:xlink="http://www.w3.org/1999/xlink" viewBox="0 0 903.55 1917.45"><defs><style>.cls-1{fill:#6d4a50;}.cls-1,.cls-10,.cls-11,.cls-13,.cls-14,.cls-2,.cls-3,.cls-4,.cls-5,.cls-6,.cls-7,.cls-8,.cls-9{stroke:#000;stroke-miterlimit:10;}.cls-1,.cls-10,.cls-11,.cls-13,.cls-14,.cls-2,.cls-4,.cls-5,.cls-6,.cls-7,.cls-8,.cls-9{stroke-width:10px;}.cls-12,.cls-2{fill:#fff;}.cls-3{fill:#a50e19;stroke-width:12px;}.cls-4{fill:#934c4c;}.cls-5{fill:none;}.cls-13,.cls-14,.cls-7,.cls-9{opacity:0.24;}.cls-7{fill:url(#linear-gradient);}.cls-8{fill:#933a22;}.cls-9{fill:url(#linear-gradient-2);}.cls-10{fill:#cecece;}.cls-11{fill:#5b5a5a;}.cls-13{fill:url(#linear-gradient-3);}.cls-14{fill:url(#linear-gradient-4);}</style><linearGradient id="linear-gradient" x1="378.98" y1="1032.77" x2="422.42" y2="818.83" gradientUnits="userSpaceOnUse"><stop offset="0.18" stop-opacity="0"/><stop offset="0.25" stop-opacity="0.28"/><stop offset="0.75"/></linearGradient><linearGradient id="linear-gradient-2" x1="727.57" y1="968.5" x2="759.42" y2="811.66" gradientUnits="userSpaceOnUse"><stop offset="0.24" stop-opacity="0"/><stop offset="0.76"/></linearGradient><linearGradient id="linear-gradient-3" x1="276.04" y1="1795.67" x2="326.66" y2="1546.32" gradientUnits="userSpaceOnUse"><stop offset="0.06"/><stop offset="0.73" stop-opacity="0.51"/><stop offset="0.85" stop-opacity="0"/></linearGradient><linearGradient id="linear-gradient-4" x1="545.57" y1="1777.8" x2="591.74" y2="1550.39" gradientUnits="userSpaceOnUse"><stop offset="0.06"/><stop offset="0.73" stop-opacity="0.5"/><stop offset="0.85" stop-opacity="0"/></linearGradient></defs><title>215 Sage-3-negative</title><g id="Layer_2" data-name="Layer 2"><g id="_3rd_Place" data-name="3rd Place"><path class="cls-1" d="M261.68,1221.09s-1.7-2-4.77-5.33c-26.79-29-157.55-157.62-164.56,83.42-7.81,268.63-89,204.59-89,204.59s94.36,84.34,129.17-54.66c8.26,62.47,0,56.22,0,56.22s86.35-90.58,52-193.66-34.9-168,75.48-92.59"/><path class="cls-1" d="M399.51,173.63S260.17,234,236.24,309.21c53.36-18.81,49.06-27.59,66.17-10.27-97.59,59.64-79.64,120.77-66.17,132.53,6-44.67,28.43-45,35.91-49.55s-2,77.77-35.91,101.28S150,551.38,172.4,591.35c27.43-37.62,63.83-37.62,63.83-37.62s-79.4,58.33-1.5,148.83,142.13-75.94,142.13-75.94l42.57-244.7,33.76-208.29Z"/><path class="cls-2" d="M212.84,791.91c23.68-87.88,85.49-62.41,85.49-62.41s-43.44-393,124.94-551.57c-48.63,0-138.4-70.54-134.66-119.92s164.59,77.6,164.59,77.6,18.7-52.91,128.91-42.33C651.17,40.38,700.07-9,715,8.64s0,77.6-93.52,112.87c3.74-10.58,37.41,0,41.15,49.38s0,211,145.88,257.48c149.63,67,78.55,204.57,29.12,225.74S703.81,703.48,602.82,561c41.15,97.37-56.11,68.41-56.11,68.41L614,749.33S692.59,901,707.55,901s24.86-116.39,24.86-116.39l27.5,17.64s15,105.81,0,172.83-48.63-3.53-75-21.16S543,763.44,543,763.44L296.09,795.19s-3.92,6.93-8.56,21.28Z"/><path class="cls-2" d="M184.87,1129.77s-20.07,124.95,51.37,208.6c60.86,71.27,63.59,105.81,44.89,162.25s4.32,53.15,7.2,69.68c2.29,13.13,15.55,95-7.2,156.05-17.46,46.87-8.38,68.66-8.38,68.66l56.61-36s-3.44-165.42,13.78-206.52c11.29-26.94-8.66-33.21-5.87-51.31,7.7-50,2.65-74.86,27.62-87.77,58-30,76-32.11,162.69-22.92,42.59,4.51,56.53,103.07,45.31,124.23S543,1550,561.67,1578.21s-16,109.34-11.73,148.14,31.25,71,32.71,53.15,23-182.72,32.35-203c16.21-35.27,4.57-53.88,2.35-66.1-4.82-26.48-13.09-112.85,9.35-139.3,20.1-23.69,65.43-82.11,58.18-198.5S184.87,1129.77,184.87,1129.77Z"/><path class="cls-3" d="M566.28,664.28,685.66,812.36l-66,61.53S713.49,1082.74,706,1200.3c-324.67,122-573.5,16.46-573.5,23.51s83.36-291.55,80.33-333.87c-75.34-21.16-80.33-63.48-80.33-63.48s49.77-66.21,136.32-149.21C453.19,896.68,566.28,664.28,566.28,664.28Z"/><path class="cls-4" d="M602.82,561s-91.45-121.26-113-109.44C499.95,485.79,597.23,697.42,602.82,561Z"/><path class="cls-1" d="M453.19,135.62S484.09,27.07,581.33,31.77c-29.92,18.81-39.52,37.62-39.52,37.62s79.55-42.32,143.07,47c30.35,42,58.46-2.35,58.46-2.35s-4.91,101.1-162,21.16c4.59,37.21,21.48,45.4,21.48,45.4S539.82,196.49,453.19,135.62Z"/><path class="cls-2" d="M260.46,900.46c-8.19,25.32,0,0,4.77,74.28,59.51,13.07,183.29-116.39,183.29-116.39s52.37-56.43,48.63-3.53c-48.63,109.34-185.9,172.83-185.9,172.83s-29.31,50.48-68.46,0c-18-48.35-18-48.35-49.87-144.36Z"/><path class="cls-5" d="M546.71,629.41s-91.73-59.22-93.52-93"/><ellipse id="eye_L" class="cls-6" cx="531.6" cy="293.87" rx="20.35" ry="30.2"/><ellipse id="eye_R" class="cls-6" cx="674.03" cy="271.39" rx="20.35" ry="30.2"/><line class="cls-2" x1="474.6" y1="237.37" x2="525.89" y2="208.78"/><line class="cls-2" x1="642.73" y1="192.41" x2="692.66" y2="218.17"/><path class="cls-7" d="M323.42,1021.49c33.47-17.73,127.27-73.22,169.49-157.72-.08-.69-.14-1.38-.22-2.07h1.24q1-2,1.88-4c-.27-1.84-.71-3.45-.12-4,.56-.35,1.08-.7,1.59-1.06,2.15-49.15-48.75,5.7-48.75,5.7s-76,79.44-137.48,107.58c-.11.25-.23.51-.36.78"/><path class="cls-8" d="M683.55,917"/><path class="cls-9" d="M759.92,975.07c11.8-52.83,5-129.76,1.59-160-7.61-3.88-15.27-8.26-23.83-5.41a45.4,45.4,0,0,0-8.23,3.7c-4,34.47-11.79,87.6-21.9,87.6"/><path class="cls-10" d="M449.85,855.28s15.22-140.21,96.49-144.91,84,10.54,98.94,34.05S595.37,874.29,489.86,873.89C472.08,834,449.85,855.28,449.85,855.28Z"/><path class="cls-10" d="M727.49,829.27s37.94,31.25,37.4,23.76,83.83-85.35-18.7-141.77c-64.29,0-70.45,7.78-81.5,19.17S689.3,792,727.49,829.27Z"/></g><g id="_1st_Place" data-name="1st Place"><circle id="nostril_R" class="cls-11" cx="693.8" cy="559.57" r="31.15"/><circle id="nostril_L" class="cls-11" cx="853.14" cy="536.37" r="23.2"/><path class="cls-12" d="M541.68,300.65c7.66,0,7.67-11.91,0-11.91s-7.67,11.91,0,11.91Z"/><path class="cls-12" d="M685.68,276.65c7.66,0,7.67-11.91,0-11.91s-7.67,11.91,0,11.91Z"/><path class="cls-13" d="M279.07,1554.75c3.65,5.43,8.09,8.88,9.25,15.55,2.29,13.13,15.55,95-7.2,156.05-17.46,46.87-8.38,68.66-8.38,68.66l56.61-36s-3.44-165.42,13.78-206.52c.37-.89.71-1.76,1-2.61"/><path class="cls-10" d="M281.12,1726.35s-108.93,61.75-98.85,129.93c94.86,98.75,172.16,18.81,172.16,18.81s11.19-97-25.35-148.74C274.06,1749.3,281.12,1726.35,281.12,1726.35Z"/><path class="cls-14" d="M554.12,1550.85c-1.28,7.85.39,16.57,7.55,27.36,18.7,28.22-16,109.34-11.73,148.14s31.25,71,32.71,53.15,23-182.72,32.35-203a96.7,96.7,0,0,0,6.84-20"/><path class="cls-10" d="M545.35,1726.35s-66.25,66.45-53.78,146.39c82.29,89.34,194.09,0,194.09,0s-46.16-128.2-96.43-146.39C560.68,1753,545.35,1726.35,545.35,1726.35Z"/></g><g id="Text-_outline" data-name="Text- outline"><path class="cls-12" d="M438.88,1148.24H364.18V1139a34.59,34.59,0,0,1,1.58-10.58,42.77,42.77,0,0,1,4.23-9.3,51.76,51.76,0,0,1,6.23-8.22q3.57-3.86,7.64-7.47t8.3-7q4.23-3.36,8.3-6.77,3.82-3.24,7-6.35a42.35,42.35,0,0,0,5.4-6.43,29.1,29.1,0,0,0,3.49-7,24.93,24.93,0,0,0,1.25-8,21.61,21.61,0,0,0-1.45-8.26,16.06,16.06,0,0,0-4.07-5.89,17.37,17.37,0,0,0-6.18-3.57,24.3,24.3,0,0,0-7.8-1.2,36,36,0,0,0-14.86,3.4,50.88,50.88,0,0,0-14.53,10.21v-18.51a60.76,60.76,0,0,1,7.39-4.77,50.38,50.38,0,0,1,7.72-3.4,47.63,47.63,0,0,1,8.38-2,62.8,62.8,0,0,1,9.38-.66,47.41,47.41,0,0,1,14.61,2.12,31.11,31.11,0,0,1,11.21,6.23,27.37,27.37,0,0,1,7.18,10.25,36.8,36.8,0,0,1,2.53,14.11,43.9,43.9,0,0,1-1.78,13,42.06,42.06,0,0,1-5.06,10.75,55.82,55.82,0,0,1-7.93,9.46q-4.65,4.48-10.38,9.21-4.81,3.9-9.59,7.6t-8.59,7.22a40.34,40.34,0,0,0-6.18,7.06,12.66,12.66,0,0,0-2.37,7.1v.41h53.71Z"/><path class="cls-12" d="M501.47,1026.55v121.69H482.21v-98.12a61.35,61.35,0,0,1-11.25,6.35,92.74,92.74,0,0,1-13.74,4.61v-16.44q4.81-1.58,9.3-3.32t8.84-3.9q4.36-2.16,8.8-4.81t9.17-6.06Z"/><path class="cls-12" d="M531.69,1145.5V1127q11.7,7.89,23.74,7.88t19.51-6.18q7.39-6.18,7.39-16.48,0-10.13-7.51-15.77t-21.54-5.64q-4.81,0-19.51,1L538,1029.2h58.6v16.44H554l-2,29.8q5.73-.33,10.38-.33,18.93,0,29.26,9.71T602,1111.38q0,17.68-11.83,28.35t-32.5,10.67Q540.24,1150.39,531.69,1145.5Z"/></g></g></svg>