<svg xmlns="http://www.w3.org/2000/svg" xmlns:xlink="http://www.w3.org/1999/xlink" viewBox="0 0 774.84 1913.92"><defs><style>.cls-1{fill:#6d4a50;}.cls-1,.cls-10,.cls-12,.cls-13,.cls-2,.cls-3,.cls-4,.cls-5,.cls-6,.cls-7,.cls-8,.cls-9{stroke:#000;stroke-miterlimit:10;}.cls-1,.cls-12,.cls-13,.cls-2,.cls-3,.cls-4,.cls-5,.cls-6,.cls-7,.cls-8,.cls-9{stroke-width:10px;}.cls-11,.cls-2{fill:#fff;}.cls-3{fill:none;}.cls-4{fill:#5b5a5a;}.cls-6{fill:#efefef;}.cls-12,.cls-13,.cls-7,.cls-8{opacity:0.24;}.cls-7{fill:url(#linear-gradient);}.cls-8{fill:url(#linear-gradient-2);}.cls-9{fill:#cecece;}.cls-10{fill:#73c04a;stroke-width:12px;}.cls-12{fill:url(#linear-gradient-3);}.cls-13{fill:url(#linear-gradient-4);}</style><linearGradient id="linear-gradient" x1="51.72" y1="1159.64" x2="83.67" y2="1002.29" gradientUnits="userSpaceOnUse"><stop offset="0"/><stop offset="0.91" stop-opacity="0.2"/><stop offset="1" stop-opacity="0"/></linearGradient><linearGradient id="linear-gradient-2" x1="595.36" y1="1168.1" x2="630.24" y2="996.32" xlink:href="#linear-gradient"/><linearGradient id="linear-gradient-3" x1="160.16" y1="1809.84" x2="214.77" y2="1540.9" gradientUnits="userSpaceOnUse"><stop offset="0.06"/><stop offset="0.73" stop-opacity="0.43"/><stop offset="0.85" stop-opacity="0"/></linearGradient><linearGradient id="linear-gradient-4" x1="398.93" y1="1781.04" x2="447.1" y2="1543.78" gradientUnits="userSpaceOnUse"><stop offset="0.06"/><stop offset="0.73" stop-opacity="0.48"/><stop offset="0.85" stop-opacity="0"/></linearGradient></defs><title>215 Sage-4-positive</title><g id="Layer_2" data-name="Layer 2"><g id="_4th_Place" data-name="4th Place"><path class="cls-1" d="M293.58,1177.51S95.36,1192.23,77.49,1398.34c63.15-72.68,63.37-64.85,55.66-48.14-29.73,64.45,26.16,184.17,122.28,256.22,94.84,71.1,39.32,83.4,39.32,83.4s94.16-25.3,25-139.4C204.44,1360.11,245.92,1240.65,293.58,1177.51Z"/><path class="cls-1" d="M255.46,162s-129.12,61.66-118.3,180.69c39.68-83,49.12-54.11,58.83-54.11-66,205.61-9.62,209.21-59.47,245.28s-44.7,179.37,14,226.75,130.89-33.89,130.89-33.89l51.87-214.5L317.52,162Z"/><path class="cls-2" d="M368,137.12S191.27,46.94,176.84,75.8C166,97.44,210,141.41,255.46,162c15.16,6.88,30.49,11.16,44,11.16-75.75,97.39-97.39,367.93-93.79,465.32S156,797,156,797,79.45,927.08,72.23,970.37s-32.46,32.46-14.43,64.93c-7.21,50.5-1.92,129.86-6.37,162.32s24.41,36.07,24.41,36.07,3.61-148.93,21.64-175.46,0-35.44,10.82-58S144.37,844.12,166,851.33s0,148.85,0,148.85-126.25,165-3.61,320.08c32.46,126.25,32.46,180.36,32.46,194.78s-28.86,14.43-14.43,54.11S176.84,1724,169.62,1762s-18,59.64,10.82,66.85,36.07-194.78,57.71-234.46-7.93-61.51-7.21-79.36c.84-21-21.64-147.89,28.86-165.93s144.28,3.61,151.5,14.43,18,140.68,0,162.32-32.46,50.5-18,64.93,37.78,184,27.91,223.64S454.59,1829,454.59,1829s-10.82-180.54,0-205.79-7.21-72.14,0-93.78,14.43-162.32,54.11-194.78,125.43-166.15,67.72-310.43S542,838.74,544.76,820c1.72-11.47,25.09,52.68,45.68,189.08,3.05,20.22-5.9,31.11,7.09,49.14s9,88.37,9,128S629,1212.63,629,1212.63s10.33-95.83,17-145.67c4.3-32-8.11-51.4-18.93-66.78S613.3,822.3,555.59,746.64s-75.75-153.08-75.75-153.08,97.39,129.38,212.82,60.11,72.14-173.87,54.11-211.75-90.18-12.63-144.28-110-43.29-155.11-111.82-202c90.18,7.21,122.64-119,108.21-119s-86.57,34.46-144.28,93C371.62,104.66,368,137.12,368,137.12Z"/><path class="cls-1" d="M333.31,120.24S427.54,79.41,410.4,10.87c87.35,55.06,44.18,16.38,44.18,54.68,144.28,31.89,140.68,53.53,147.89,93.21s-10.82-7.21-61.32-18c86.57,86.57,119,68.54,119,68.54S482.1,208,443.76,158.77s-14.43,36.07-14.43,36.07Z"/><path class="cls-3" d="M479.84,593.56s-49.2-52.5-78.87-145.74c0,0-42.77,49.8-42.77-21.19"/><path class="cls-3" d="M383,431.93c0-18.2,46.62-82.64,72.78,2.13,9.4,30.44-7.44,120.15,94.21,219.62"/><circle id="nostril_R" class="cls-4" cx="565.94" cy="507.69" r="31.15"/><circle id="nostril_L" class="cls-4" cx="725.27" cy="484.49" r="23.2"/><ellipse id="eye_L" class="cls-5" cx="425.54" cy="316.23" rx="20.35" ry="30.2"/><ellipse id="eye_R" class="cls-5" cx="567.97" cy="293.75" rx="20.35" ry="30.2"/><path class="cls-6" d="M392.41,347.25s31.16-26.87,56.26,8.21"/><path class="cls-6" d="M560.62,334.85s9.32-29.93,33.52-13.61"/><path class="cls-6" d="M356.08,304.87s116.83-9.11,95.63-48.79"/><path class="cls-3" d="M539.79,241.35s-6.2,27.62,67.33,31.1"/><path class="cls-7" d="M60.8,999.91c-8.08,11.44-14.79,14.16-3,35.39-5.15,36-3.93,86.78-4.42,124.68a254,254,0,0,0,26.08,1.65c3.09-42.06,8.57-89.51,18-103.41,16.17-23.79,3.36-33.42,8.33-51.44"/><path class="cls-8" d="M589.91,1005.56c.18,1.17.36,2.34.54,3.52,3.05,20.22-5.9,31.11,7.09,49.14,11.4,15.82,9.74,71.87,9.16,112.19,4.38.11,8.76.18,13.15.18A32.13,32.13,0,0,0,634,1167c3.56-31.6,8.32-72.74,12-100.07,4.3-32-8.11-51.4-18.93-66.78a18.05,18.05,0,0,1-2.06-4.92"/><path class="cls-9" d="M613,1146.69s-31.86,54.54-31.86,94.21,75.75,32.46,90.18,21.64,14.93-56.24-34.43-122C619.35,1161.93,613,1146.69,613,1146.69Z"/><path class="cls-10" d="M193.88,703.49S82.29,869.65,51,923.86c57.34,76.31,84.2,49.26,84.2,49.26L87.82,1198.2s281.73,120.93,529.09,0c-24.3-162.62-22-198-59.43-344.39,30,137.07,26.27,116.2,26.27,116.2s43.83,8.79,81.69-31c-17.06-68.18-124.11-212.27-124.11-212.27S371.91,994.42,193.88,703.49Z"/><path class="cls-9" d="M51,1147.11S-7.13,1212,7.3,1251.72s89.38,24.25,95.19,19.34,7.77-123.95-21.88-123.95Z"/></g><g id="_1st_Place" data-name="1st Place"><path class="cls-11" d="M435.85,323.54c7.66,0,7.67-11.91,0-11.91s-7.67,11.91,0,11.91Z"/><path class="cls-11" d="M579.85,299.54c7.66,0,7.67-11.91,0-11.91s-7.67,11.91,0,11.91Z"/><path class="cls-12" d="M181.16,1534.07c-4.77,6.73-7.43,16.6-.72,35.08,14.43,39.68-3.61,154.86-10.82,192.86-4,20.87-9,36.81-8,48.13l34.21-.27c17-50.24,25.12-184,42.3-215.47"/><path class="cls-13" d="M394.66,1550.53c-8,15.55-10.73,30.92-1.4,40.26,12.08,12.09,30.43,133,30.27,195.25,9.63-1.13,19.2-1.61,28.77-1.88-2.44-55.22-5.06-143.78,2.28-160.91,8.68-20.25-1.19-54.41-1.73-78.31"/><path class="cls-9" d="M173.6,1739.34s-69.7,22.55-71.1,97.52,117.63,46.11,139.27,20.86-25.07-104.84-30.46-118.38C177.92,1758.92,173.6,1739.34,173.6,1739.34Z"/><path class="cls-9" d="M422.86,1762s-54.85,54.82-44,113.14,109.58,27.75,117.92,7-13.67-101.82-45.44-122.52C440.52,1782.92,422.86,1762,422.86,1762Z"/></g><g id="Text-_outline" data-name="Text- outline"><path class="cls-11" d="M297.29,1097.28H209.4v-10.84a40.7,40.7,0,0,1,1.86-12.45,50.28,50.28,0,0,1,5-10.94,60.9,60.9,0,0,1,7.32-9.67q4.2-4.54,9-8.79t9.77-8.2q5-4,9.77-8,4.49-3.81,8.2-7.47a49.88,49.88,0,0,0,6.35-7.57,34.24,34.24,0,0,0,4.1-8.25,29.32,29.32,0,0,0,1.46-9.42,25.43,25.43,0,0,0-1.71-9.72,18.9,18.9,0,0,0-4.79-6.93,20.44,20.44,0,0,0-7.28-4.2,28.59,28.59,0,0,0-9.18-1.42,42.34,42.34,0,0,0-17.48,4,59.84,59.84,0,0,0-17.09,12V967.69a71.48,71.48,0,0,1,8.69-5.62,59.26,59.26,0,0,1,9.08-4,56,56,0,0,1,9.86-2.39,74,74,0,0,1,11-.78,55.77,55.77,0,0,1,17.19,2.49,36.62,36.62,0,0,1,13.18,7.32,32.21,32.21,0,0,1,8.45,12.06,43.29,43.29,0,0,1,3,16.6,51.64,51.64,0,0,1-2.1,15.28,49.51,49.51,0,0,1-6,12.65,65.71,65.71,0,0,1-9.33,11.13q-5.47,5.27-12.21,10.84-5.66,4.59-11.28,8.94t-10.11,8.5a47.46,47.46,0,0,0-7.28,8.3,14.89,14.89,0,0,0-2.78,8.35v.49h63.18Z"/><path class="cls-11" d="M370.93,954.12v143.16H348.27V981.85A72.18,72.18,0,0,1,335,989.32a109.14,109.14,0,0,1-16.16,5.42V975.4q5.66-1.85,10.94-3.91t10.4-4.59q5.13-2.54,10.35-5.66t10.79-7.13Z"/><path class="cls-11" d="M406.47,1094.06v-21.78q13.77,9.28,27.93,9.28t22.95-7.28Q466,1067,466,1054.9q0-11.91-8.84-18.55t-25.34-6.64q-5.66,0-22.95,1.17l5-73.63h68.95v19.34h-50.1l-2.34,35.06q6.74-.39,12.21-.39,22.27,0,34.42,11.43t12.16,31.25q0,20.8-13.92,33.35T437,1099.82Q416.53,1099.82,406.47,1094.06Z"/></g></g></svg>