<svg xmlns="http://www.w3.org/2000/svg" xmlns:xlink="http://www.w3.org/1999/xlink" viewBox="0 0 1156.58 1957.66"><defs><style>.cls-1,.cls-14{fill:#fff;}.cls-1,.cls-10,.cls-11,.cls-12,.cls-13,.cls-2,.cls-3,.cls-4,.cls-5,.cls-6,.cls-7,.cls-8,.cls-9{stroke:#000;stroke-miterlimit:10;}.cls-1,.cls-10,.cls-11,.cls-12,.cls-13,.cls-2,.cls-3,.cls-4,.cls-5,.cls-7,.cls-8,.cls-9{stroke-width:10px;}.cls-2{fill:#e8a246;}.cls-3{fill:#6d4a50;}.cls-4{fill:#efefef;}.cls-5{fill:#933a22;}.cls-6{fill:#a50e19;stroke-width:12px;}.cls-7{fill:#934c4c;}.cls-8{fill:none;}.cls-9{fill:#5b5a5a;}.cls-10,.cls-12,.cls-13{opacity:0.24;}.cls-10{fill:url(#linear-gradient);}.cls-11{fill:#cecece;}.cls-12{fill:url(#linear-gradient-2);}.cls-13{fill:url(#linear-gradient-3);}</style><linearGradient id="linear-gradient" x1="248.2" y1="1831.22" x2="317.18" y2="1491.49" gradientUnits="userSpaceOnUse"><stop offset="0"/><stop offset="0.91" stop-opacity="0.2"/><stop offset="1" stop-opacity="0"/></linearGradient><linearGradient id="linear-gradient-2" x1="639.5" y1="1847" x2="704.49" y2="1526.96" gradientUnits="userSpaceOnUse"><stop offset="0"/><stop offset="0.89" stop-opacity="0.27"/><stop offset="1" stop-opacity="0"/></linearGradient><linearGradient id="linear-gradient-3" x1="121.42" y1="410.16" x2="169.3" y2="174.34" gradientUnits="userSpaceOnUse"><stop offset="0.18" stop-color="#fff" stop-opacity="0"/><stop offset="0.25" stop-color="#b7b7b7" stop-opacity="0.28"/><stop offset="0.75"/></linearGradient></defs><title>215 Sage-1-negative</title><g id="Layer_2" data-name="Layer 2"><g id="_2nd_Place" data-name="2nd Place"><polyline class="cls-1" points="592.06 178.92 642.64 184.77 592.06 178.92 592.06 190.41 656.81 291.43 642.64 184.77 592.06 178.92"/><path class="cls-2" d="M998.83,507c57.56-55.64,40.69-203.62-97-201.88-76.81,1-88.8,26.13-133.38,5.1a94.21,94.21,0,0,1-23.91-15.69q-4.74,4.79-9.22,10c-8,10-18,11-30,13-4,1-7,7-12,11-2,1-5-1-6,0s1,5,0,6-4-1-6,0c-5,4-8,8-12,12-11,13-17,29-35,37-4,2,1,9-6,18-4,6,1,15-2,23-1,3-6,5-5,12h-6c1,17-6,36,12,48,1,1,0,4,0,6,16-1,29,8,42,17,3,2,9,0,12,2,3,1,5,4,12,6,2.69.77,4.49,3,6,5.54-1-6.74-2.26-13.37-3.66-19.83C859.09,605.56,941.27,562.67,998.83,507Z"/></g><g id="_1st_Place" data-name="1st Place"><path class="cls-3" d="M480.69,190.63s-37.07-4.87-84.78,31.48-59.07,40.64-75,37.36c54.52,28.52,100-19.18,100-19.18s-61.34,168.12-159,77.24c25,131.77,86.33,56.8,86.33,56.8s-86.33,70.43-50,113.59c22.72-56.8,45.44-31.81,45.44-31.81S286.86,512.91,305,547c25,63.61-4,99.15-2.27,103.52S339,822.91,339,822.91l98.82-112.45s63-320.31,64.74-325.43,4.83-162,4.83-162Z"/><path class="cls-3" d="M317.55,1288.19s-1.86-2.19-5.2-5.81c-29.22-31.6-155-204-198.15.68-52.25,247.63-90.78,202.19-90.78,202.19s25.19,50,67.33-9.09c9,68.15-49.25,136.31-49.25,136.31s168.12-34.08,140.85-272.62c-13.46-117.77,12.93-136.13,133.34-53.86"/><path class="cls-4" d="M900.2,466.56c-.1-3.56-.08-7.09,0-10.61-24.44,45-44.25,80.79-48.58,86.56-13,17.27-56.13,47.49-69.08,86.35C777,645.5,768.41,661,744.88,689l39.73,25.84c34.43-52.34,57.76-80.64,71.33-90.33,30.22-21.59,25.91-69.08,38.86-95,3.21-6.42,14.91-25.31,30.69-50.09C915.6,478.5,906.68,474.74,900.2,466.56Z"/><path class="cls-5" d="M1015.69,240.29S948.79,366.43,900.21,455.95c-.09,3.52-.11,7,0,10.61,6.48,8.18,15.4,11.94,25.29,12.91,47.89-75.19,133.37-204.65,133.37-204.65Z"/><path class="cls-1" d="M771.59,732.85c-42.23,64.2-83.09,137.53-80.72,163.7C695.19,944,781.54,1237.63,721.1,1324s-38.86,211.56-38.86,237.46,13,51.81,8.64,86.35,30.22,168.38,30.22,168.38L690.88,1855s-34.54,13-25.9-60.44-13-138.16-25.9-164.06,9.23-21.68,0-77.72c-11.5-69.82-11.5-119.8-143.82-124.35-157-5.39-167,98.44-171.35,137.3s0,56.13-17.27,69.08-13,155.43-13,155.43l-34.54,43.17s-25.91-34.54-4.32-86.35,13-120.89,8.64-142.48-4.32-25.91,17.27-64.76,8.64-99.3-17.27-220.19,51.81-349.72,60.44-388.57S207.32,611.59,194.37,590s-25.9-34.54-25.9-99.3S90.75,201.43,90.75,201.43s25.9-103.62,51.81,30.22,77.71,215.87,95,246.1,30.22,43.17,25.9,73.4,4.32,246.1,99.3,198.6c-4.32-47.49-13-345.4,144.64-526.73-88.51-86.35-49.65-207.24-49.65-207.24L557,184.16l35-5.24s7.68-32.62-17.5-163.14c82.27,86.3,58.49,126.78,68.08,169,103.07,16.25,48.53,89,125.85,125.48,44.59,21,56.57-4.13,133.38-5.1,137.65-1.74,154.52,146.23,97,201.88s-139.74,98.53-303.16-5.76c19.19,88.26,3.84,209.14-15.35,207.22s-67.16-92.58-67.16-92.58-4.32,159.75,30.22,159.75c19.75,0,57.86-35.3,89.3-72.8Z"/><path class="cls-6" d="M287.44,606.67s33.95,113.92,75.31,143.08C387.07,816.41,531.08,898,634.07,771.1c42.41,4.2,113.85-117.69,113.85-117.69s77.36,56,84.18,113.94c-97.69,67-129.5,126.09-129.5,126.09s90,321.72,62.76,393.29c-87.75-33.2-167.27-51.37-296.76-30.93-31,4.9-161.3,46.24-248.53,46.24,39.52-164.38,73.6-347.69,69.77-387.74-3.51-36.68-131.46-191.92-131.46-191.92S199.28,625.82,287.44,606.67Z"/><path class="cls-7" d="M695.67,501.27s-86.21-61.06-111.2-126.95l-22.72,29.53S709.19,928.1,695.67,501.27Z"/><path class="cls-8" d="M574.31,333.43s32.88,86.33-51.18,59.07"/><path class="cls-8" d="M561.75,276.63s13.63-77.24,34.08,0"/><path class="cls-8" d="M670.8,276.63s11.36-81.79,34.08,0"/><path class="cls-3" d="M551.88,157.05S623.09,83.81,670.8,128c-56.8,1-72.3,25.35-75,29.08s38.62-23.55,75-7.64,31.81,31.19,97.69,7.64C727.6,217.57,580.4,223.79,557,184.16S551.88,157.05,551.88,157.05Z"/><circle id="nostril_R" class="cls-9" cx="829.18" cy="405.14" r="29.91"/><circle id="nostril_L" class="cls-9" cx="982.2" cy="382.86" r="22.28"/><path class="cls-10" d="M342.15,1496.56c-13.71,26-16.47,53.13-18.26,69.19-4.32,38.86,0,56.13-17.27,69.08s-13,155.43-13,155.43l-34.54,43.17s-25.91-34.54-4.32-86.35,13-120.89,8.64-142.48-4.32-25.91,17.27-64.76c7.73-13.91,11-30.58,10.9-51.79"/><path class="cls-11" d="M249.24,1763.86s-83.69,85.2-83.69,126.1c47.71,78.39,150,44.31,150,44.31s12-114-22.11-156.69C246.43,1794.1,249.24,1763.86,249.24,1763.86Z"/><path class="cls-12" d="M632.13,1512.27c2.67,12.51,4.55,26.1,6.93,40.54,9.23,56-13,51.81,0,77.72s34.54,90.67,25.9,164.06,25.9,60.44,25.9,60.44l30.22-38.86s-34.54-133.84-30.22-168.38-8.64-60.44-8.64-86.35"/><path class="cls-11" d="M665,1794.58s-46.15,74.93-35.93,122.64c54.53,61.35,170.41,24.41,170.41,24.41-6.82-44.86-39.22-141.34-85.94-156.35C679.75,1807.7,665,1794.58,665,1794.58Z"/><path class="cls-13" d="M196.44,400.5c-19.25-41.8-40.19-98.08-53.88-168.85-25.9-133.84-51.81-30.22-51.81-30.22s43.4,125.37,65.33,215.77"/><path class="cls-4" d="M1012.21,345.79c47.89-75.19,46.65-71,46.65-71l-43.17-34.54s8.29-14.58-40.3,74.94"/><path class="cls-11" d="M102.2,235.44s24.19,18.11,40.36-3.78,33.21-141.17,23-158.21C97.38,59.81,36,128,36,128S53.89,202.79,102.2,235.44Z"/><path class="cls-11" d="M1005.86,256.91s16.56,26.54,41.4,34,93-67.52,103.23-81.15C1106.18,141.6,1038,128,1038,128S999.72,169.25,1005.86,256.91Z"/></g><g id="Text-_outline" data-name="Text- outline"><path class="cls-14" d="M451,1149.25H363.15v-10.84A40.71,40.71,0,0,1,365,1126a50.3,50.3,0,0,1,5-10.94,60.9,60.9,0,0,1,7.32-9.67q4.2-4.54,9-8.79t9.77-8.2q5-4,9.77-8,4.49-3.81,8.2-7.47a49.83,49.83,0,0,0,6.35-7.57,34.2,34.2,0,0,0,4.1-8.25,29.32,29.32,0,0,0,1.46-9.42,25.43,25.43,0,0,0-1.71-9.72,18.9,18.9,0,0,0-4.79-6.93,20.45,20.45,0,0,0-7.28-4.2,28.62,28.62,0,0,0-9.18-1.42,42.35,42.35,0,0,0-17.48,4,59.88,59.88,0,0,0-17.09,12v-21.78a71.6,71.6,0,0,1,8.69-5.62,59.36,59.36,0,0,1,9.08-4,56.1,56.1,0,0,1,9.86-2.39,74.16,74.16,0,0,1,11-.78,55.77,55.77,0,0,1,17.19,2.49,36.61,36.61,0,0,1,13.18,7.32,32.21,32.21,0,0,1,8.45,12.06,43.29,43.29,0,0,1,3,16.6,51.64,51.64,0,0,1-2.1,15.28,49.48,49.48,0,0,1-6,12.65,65.69,65.69,0,0,1-9.33,11.13q-5.47,5.27-12.21,10.84-5.66,4.59-11.28,8.94t-10.11,8.5a47.53,47.53,0,0,0-7.28,8.3,14.89,14.89,0,0,0-2.78,8.35v.49H451Z"/><path class="cls-14" d="M524.68,1006.08v143.16H502V1033.82a72.18,72.18,0,0,1-13.23,7.47,109.12,109.12,0,0,1-16.16,5.42v-19.34q5.66-1.85,10.94-3.91t10.4-4.59q5.13-2.54,10.35-5.66t10.79-7.13Z"/><path class="cls-14" d="M560.22,1146v-21.78q13.77,9.28,27.93,9.28t22.95-7.28q8.69-7.27,8.69-19.38,0-11.91-8.84-18.55t-25.34-6.64q-5.66,0-22.95,1.17l5-73.63h68.95v19.34h-50.1l-2.34,35.06q6.74-.39,12.21-.39,22.27,0,34.42,11.43t12.16,31.25q0,20.8-13.92,33.35t-38.23,12.55Q570.28,1151.79,560.22,1146Z"/></g></g></svg>