<svg id="_2nd_Place" data-name="2nd Place" xmlns="http://www.w3.org/2000/svg" xmlns:xlink="http://www.w3.org/1999/xlink" viewBox="0 0 1488.6 2124.85"><defs><style>.cls-1,.cls-14{fill:#fff;}.cls-1,.cls-10,.cls-11,.cls-12,.cls-13,.cls-2,.cls-3,.cls-4,.cls-5,.cls-6,.cls-7,.cls-8,.cls-9{stroke:#000;stroke-miterlimit:10;}.cls-1,.cls-10,.cls-11,.cls-12,.cls-13,.cls-2,.cls-3,.cls-4,.cls-5,.cls-7,.cls-8,.cls-9{stroke-width:10px;}.cls-2{fill:#e8a246;}.cls-3{fill:#6d4a50;}.cls-4{fill:#efefef;}.cls-5{fill:#933a22;}.cls-6{fill:#73c04a;stroke-width:12px;}.cls-7{fill:#934c4c;}.cls-8{fill:none;}.cls-9{fill:#5b5a5a;}.cls-10,.cls-12,.cls-13{opacity:0.24;}.cls-10{fill:url(#linear-gradient);}.cls-11{fill:#cecece;}.cls-12{fill:url(#linear-gradient-2);}.cls-13{fill:url(#linear-gradient-3);}.cls-14{font-size:200px;font-family:Montserrat;font-weight:700;}</style><linearGradient id="linear-gradient" x1="460.61" y1="1876.07" x2="529.59" y2="1536.34" gradientUnits="userSpaceOnUse"><stop offset="0"/><stop offset="0.91" stop-opacity="0.2"/><stop offset="1" stop-opacity="0"/></linearGradient><linearGradient id="linear-gradient-2" x1="851.92" y1="1891.84" x2="916.9" y2="1571.8" gradientUnits="userSpaceOnUse"><stop offset="0"/><stop offset="0.89" stop-opacity="0.27"/><stop offset="1" stop-opacity="0"/></linearGradient><linearGradient id="linear-gradient-3" x1="333.83" y1="455.01" x2="381.72" y2="219.18" gradientUnits="userSpaceOnUse"><stop offset="0.18" stop-color="#fff" stop-opacity="0"/><stop offset="0.25" stop-color="#b7b7b7" stop-opacity="0.28"/><stop offset="0.75"/></linearGradient></defs><title>horse_main_</title><polyline class="cls-1" points="804.47 223.77 855.05 229.62 804.47 223.77 804.47 235.25 869.22 336.28 855.05 229.62 804.47 223.77"/><path class="cls-2" d="M1211.25,551.87c57.56-55.64,40.69-203.62-97-201.88-76.81,1-88.8,26.13-133.38,5.1A94.21,94.21,0,0,1,957,339.41q-4.74,4.79-9.22,10c-8,10-18,11-30,13-4,1-7,7-12,11-2,1-5-1-6,0s1,5,0,6-4-1-6,0c-5,4-8,8-12,12-11,13-17,29-35,37-4,2,1,9-6,18-4,6,1,15-2,23-1,3-6,5-5,12h-6c1,17-6,36,12,48,1,1,0,4,0,6,16-1,29,8,42,17,3,2,9,0,12,2,3,1,5,4,12,6,2.69,0.77,4.49,3,6,5.54-1-6.74-2.26-13.37-3.66-19.83C1071.51,650.4,1153.69,607.51,1211.25,551.87Z"/><path class="cls-3" d="M693.1,235.47S656,230.6,608.32,267s-59.07,40.64-75,37.36c54.52,28.52,100-19.18,100-19.18s-61.34,168.12-159,77.24c25,131.77,86.33,56.8,86.33,56.8s-86.33,70.43-50,113.59C533.35,476,556.07,501,556.07,501s-56.8,56.8-38.62,90.87c25,63.61-4,99.15-2.27,103.52s36.23,172.4,36.23,172.4L650.22,755.3S713.26,435,715,429.87s4.83-162,4.83-162Z"/><path class="cls-3" d="M530,1333s-1.86-2.19-5.2-5.81c-29.22-31.6-155-204-198.15.68-52.25,247.63-90.78,202.19-90.78,202.19s25.19,50,67.33-9.09c9,68.15-49.25,136.31-49.25,136.31S422,1623.24,394.77,1384.7c-13.46-117.77,12.93-136.13,133.34-53.86"/><path class="cls-4" d="M1112.61,511.4c-0.1-3.56-.08-7.09,0-10.61-24.44,45-44.25,80.79-48.58,86.56-13,17.27-56.13,47.49-69.08,86.35-5.54,16.64-14.13,32.11-37.66,60.18L997,759.72c34.43-52.34,57.76-80.64,71.33-90.33,30.22-21.59,25.91-69.08,38.86-95,3.21-6.42,14.91-25.31,30.69-50.09C1128,523.34,1119.09,519.59,1112.61,511.4Z"/><path class="cls-5" d="M1228.1,285.13s-66.89,126.14-115.48,215.66c-0.09,3.52-.11,7,0,10.61,6.48,8.18,15.4,11.94,25.29,12.91,47.89-75.19,133.37-204.65,133.37-204.65Z"/><path class="cls-1" d="M984,777.69c-42.23,64.2-83.09,137.53-80.72,163.7,4.32,47.49,90.67,341.08,30.22,427.43s-38.86,211.56-38.86,237.46,13,51.81,8.64,86.35S933.51,1861,933.51,1861l-30.22,38.86s-34.54,13-25.9-60.44-13-138.16-25.9-164.06,9.23-21.68,0-77.72c-11.5-69.82-11.5-119.8-143.82-124.35-157-5.39-167,98.44-171.35,137.3s0,56.13-17.27,69.08-13,155.43-13,155.43l-34.54,43.17s-25.91-34.54-4.32-86.35,13-120.89,8.64-142.48-4.32-25.91,17.27-64.76,8.64-99.3-17.27-220.19,51.81-349.72,60.44-388.57S419.73,656.44,406.78,634.85s-25.9-34.54-25.9-99.3-77.71-289.27-77.71-289.27S329.06,142.66,355,276.5s77.71,215.87,95,246.1,30.22,43.17,25.9,73.4,4.32,246.1,99.3,198.6c-4.32-47.49-13-345.4,144.64-526.73-88.51-86.35-49.65-207.24-49.65-207.24L769.45,229l35-5.24s7.68-32.62-17.5-163.14c82.27,86.3,58.49,126.78,68.08,169,103.07,16.25,48.53,89,125.85,125.48,44.59,21,56.57-4.13,133.38-5.1,137.65-1.74,154.52,146.23,97,201.88s-139.74,98.53-303.16-5.76c19.19,88.26,3.84,209.14-15.35,207.22s-67.16-92.58-67.16-92.58S821.26,820.5,855.8,820.5c19.75,0,57.86-35.3,89.29-72.8Z"/><path class="cls-6" d="M499.85,651.51S533.8,765.43,575.16,794.6c24.32,66.66,168.33,148.23,271.32,21.35,42.41,4.2,113.85-117.69,113.85-117.69s77.36,56,84.18,113.94C946.82,879.21,915,938.28,915,938.28s90,321.72,62.76,393.29c-87.75-33.2-167.27-51.37-296.76-30.93-31,4.9-161.3,46.24-248.53,46.24,39.52-164.38,73.6-347.69,69.77-387.74C498.74,922.47,370.8,767.23,370.8,767.23S411.69,670.67,499.85,651.51Z"/><path class="cls-7" d="M908.09,546.11s-86.21-61.06-111.2-126.95L774.16,448.7S921.6,972.94,908.09,546.11Z"/><path class="cls-8" d="M786.72,378.27s32.88,86.33-51.18,59.07"/><path class="cls-8" d="M774.16,321.48s13.63-77.24,34.08,0"/><path class="cls-8" d="M883.21,321.48s11.36-81.79,34.08,0"/><path class="cls-3" d="M764.3,201.9s71.21-73.24,118.91-29.08c-56.8,1-72.3,25.35-75,29.08s38.62-23.55,75-7.64S915,225.44,980.9,201.9C940,262.41,792.82,268.63,769.45,229S764.3,201.9,764.3,201.9Z"/><circle id="nostril_R" class="cls-9" cx="1041.59" cy="449.99" r="29.91"/><circle id="nostril_L" class="cls-9" cx="1194.62" cy="427.71" r="22.28"/><path class="cls-10" d="M554.56,1541.41c-13.71,26-16.47,53.13-18.26,69.19-4.32,38.86,0,56.13-17.27,69.08s-13,155.43-13,155.43l-34.54,43.17s-25.91-34.54-4.32-86.35,13-120.89,8.64-142.48-4.32-25.91,17.27-64.76c7.73-13.91,11-30.58,10.9-51.79"/><path class="cls-11" d="M461.65,1808.7S378,1893.91,378,1934.8c47.71,78.39,150,44.31,150,44.31s12-114-22.11-156.69C458.85,1838.94,461.65,1808.7,461.65,1808.7Z"/><path class="cls-12" d="M844.55,1557.11c2.67,12.51,4.55,26.1,6.93,40.54,9.23,56-13,51.81,0,77.72S886,1766,877.38,1839.43s25.9,60.44,25.9,60.44L933.51,1861S899,1727.17,903.29,1692.63s-8.64-60.44-8.64-86.35"/><path class="cls-11" d="M877.38,1839.43s-46.15,74.93-35.93,122.64c54.53,61.35,170.41,24.41,170.41,24.41-6.82-44.86-39.22-141.34-85.94-156.35C892.16,1852.54,877.38,1839.43,877.38,1839.43Z"/><path class="cls-13" d="M408.85,445.35c-19.25-41.8-40.19-98.08-53.88-168.85-25.9-133.84-51.81-30.22-51.81-30.22S346.56,371.65,368.49,462"/><path class="cls-4" d="M1224.62,390.63c47.89-75.19,46.65-71,46.65-71l-43.17-34.54s8.29-14.58-40.3,74.94"/><path class="cls-11" d="M314.61,280.28S338.8,298.39,355,276.5s33.21-141.17,23-158.21c-68.16-13.63-129.51,54.53-129.51,54.53S266.3,247.63,314.61,280.28Z"/><path class="cls-11" d="M1218.28,301.75s16.56,26.54,41.4,34,93-67.52,103.23-81.15c-44.31-68.16-112.47-81.79-112.47-81.79S1212.13,214.1,1218.28,301.75Z"/><text class="cls-14" transform="translate(566 1194.09)">215</text></svg>