<svg id="_4th_Place" data-name="4th Place" xmlns="http://www.w3.org/2000/svg" xmlns:xlink="http://www.w3.org/1999/xlink" viewBox="0 0 1056.42 2052.36"><defs><style>.cls-1{fill:#6d4a50;}.cls-1,.cls-10,.cls-12,.cls-13,.cls-2,.cls-3,.cls-4,.cls-5,.cls-6,.cls-7,.cls-8,.cls-9{stroke:#000;stroke-miterlimit:10;}.cls-1,.cls-12,.cls-13,.cls-2,.cls-3,.cls-4,.cls-5,.cls-6,.cls-7,.cls-8,.cls-9{stroke-width:10px;}.cls-11,.cls-14,.cls-2{fill:#fff;}.cls-3{fill:none;}.cls-4{fill:#5b5a5a;}.cls-6{fill:#efefef;}.cls-12,.cls-13,.cls-7,.cls-8{opacity:0.24;}.cls-7{fill:url(#linear-gradient);}.cls-8{fill:url(#linear-gradient-2);}.cls-9{fill:#cecece;}.cls-10{fill:#73c04a;stroke-width:12px;}.cls-12{fill:url(#linear-gradient-3);}.cls-13{fill:url(#linear-gradient-4);}.cls-14{font-size:200px;font-family:Montserrat;font-weight:700;}</style><linearGradient id="linear-gradient" x1="168.36" y1="1226.94" x2="200.31" y2="1069.59" gradientUnits="userSpaceOnUse"><stop offset="0"/><stop offset="0.91" stop-opacity="0.2"/><stop offset="1" stop-opacity="0"/></linearGradient><linearGradient id="linear-gradient-2" x1="711.99" y1="1235.4" x2="746.87" y2="1063.62" xlink:href="#linear-gradient"/><linearGradient id="linear-gradient-3" x1="276.8" y1="1877.14" x2="331.4" y2="1608.19" gradientUnits="userSpaceOnUse"><stop offset="0.06"/><stop offset="0.73" stop-opacity="0.43"/><stop offset="0.85" stop-opacity="0"/></linearGradient><linearGradient id="linear-gradient-4" x1="515.57" y1="1848.34" x2="563.74" y2="1611.08" gradientUnits="userSpaceOnUse"><stop offset="0.06"/><stop offset="0.73" stop-opacity="0.48"/><stop offset="0.85" stop-opacity="0"/></linearGradient></defs><title>horse_main_</title><path class="cls-1" d="M410.21,1244.81S212,1259.53,194.13,1465.64c63.15-72.68,63.37-64.85,55.66-48.14-29.73,64.45,26.16,184.17,122.28,256.22,94.84,71.1,39.32,83.4,39.32,83.4s94.16-25.3,25-139.4C321.07,1427.41,362.56,1308,410.21,1244.81Z"/><path class="cls-1" d="M372.1,229.33S243,291,253.79,410c39.68-83,49.12-54.11,58.83-54.11-66,205.61-9.62,209.21-59.47,245.28s-44.7,179.37,14,226.75,130.89-33.89,130.89-33.89l51.87-214.5-15.8-350.23H372.1Z"/><path class="cls-2" d="M484.65,204.42S307.9,114.24,293.47,143.1c-10.82,21.64,33.14,65.6,78.62,86.23,15.16,6.88,30.49,11.16,44,11.16-75.75,97.39-97.39,367.93-93.79,465.32s-49.7,158.49-49.7,158.49-76.55,130.08-83.76,173.37-32.46,32.46-14.43,64.93c-7.21,50.5-1.92,129.86-6.37,162.32S192.47,1301,192.47,1301s3.61-148.93,21.64-175.46,0-35.44,10.82-58S261,911.42,282.65,918.63s0,148.85,0,148.85-126.25,165-3.61,320.08c32.46,126.25,32.46,180.36,32.46,194.78s-28.86,14.43-14.43,54.11-3.61,154.86-10.82,192.86-18,59.64,10.82,66.85,36.07-194.78,57.71-234.46-7.93-61.51-7.21-79.36c0.84-21-21.64-147.89,28.86-165.93s144.29,3.61,151.5,14.43,18,140.68,0,162.32-32.46,50.5-18,64.93,37.78,184,27.91,223.64,33.41,14.62,33.41,14.62-10.82-180.54,0-205.79-7.21-72.14,0-93.79,14.43-162.32,54.11-194.78S750.76,1235.84,693,1091.55,658.59,906,661.4,887.3c1.72-11.47,25.09,52.68,45.68,189.08,3.05,20.22-5.9,31.11,7.09,49.14s9,88.37,9,128,22.43,26.36,22.43,26.36,10.33-95.83,17-145.67c4.3-32-8.11-51.4-18.93-66.78s-13.8-177.87-71.51-253.54-75.75-153.08-75.75-153.08S693.86,790.25,809.29,721s72.14-173.87,54.11-211.75-90.18-12.63-144.28-110-43.29-155.11-111.82-202c90.18,7.21,122.64-119,108.21-119s-86.57,34.46-144.28,93C488.26,172,484.65,204.42,484.65,204.42Z"/><path class="cls-1" d="M449.95,187.54S544.18,146.71,527,78.17c87.35,55.06,44.18,16.38,44.18,54.68,144.28,31.89,140.68,53.53,147.89,93.21s-10.82-7.21-61.32-18c86.57,86.57,119,68.54,119,68.54s-178.09-1.3-216.43-50.5S546,262.14,546,262.14Z"/><path class="cls-3" d="M596.47,660.86s-49.2-52.5-78.87-145.74c0,0-42.77,49.8-42.77-21.19"/><path class="cls-3" d="M499.59,499.23c0-18.2,46.62-82.64,72.78,2.13,9.4,30.44-7.44,120.15,94.21,219.62"/><circle id="nostril_R" class="cls-4" cx="682.57" cy="574.99" r="31.15"/><circle id="nostril_L" class="cls-4" cx="841.91" cy="551.79" r="23.2"/><ellipse id="eye_L" class="cls-5" cx="542.17" cy="383.53" rx="20.35" ry="30.2"/><ellipse id="eye_R" class="cls-5" cx="684.6" cy="361.05" rx="20.35" ry="30.2"/><path class="cls-6" d="M509,414.55s31.16-26.87,56.26,8.21"/><path class="cls-6" d="M677.25,402.15s9.32-29.93,33.52-13.61"/><path class="cls-6" d="M472.72,372.17s116.83-9.11,95.63-48.79"/><path class="cls-3" d="M656.42,308.65s-6.2,27.62,67.33,31.1"/><path class="cls-7" d="M177.43,1067.21c-8.08,11.44-14.79,14.16-3,35.39-5.15,36-3.93,86.78-4.42,124.68a254,254,0,0,0,26.08,1.65c3.09-42.06,8.57-89.51,18-103.41,16.17-23.79,3.36-33.42,8.33-51.44"/><path class="cls-8" d="M706.55,1072.86c0.18,1.17.36,2.34,0.54,3.52,3.05,20.22-5.9,31.11,7.09,49.14,11.4,15.82,9.74,71.87,9.16,112.19,4.38,0.11,8.76.18,13.15,0.18a32.13,32.13,0,0,0,14.18-3.56c3.56-31.6,8.32-72.74,12-100.07,4.3-32-8.11-51.4-18.93-66.78a18.05,18.05,0,0,1-2.06-4.92"/><path class="cls-9" d="M729.6,1214s-31.86,54.54-31.86,94.21,75.75,32.46,90.18,21.64,14.93-56.24-34.43-122C736,1229.23,729.6,1214,729.6,1214Z"/><path class="cls-10" d="M310.52,770.79S198.93,936.94,167.6,991.16c57.34,76.31,84.2,49.26,84.2,49.26L204.46,1265.5s281.73,120.93,529.09,0c-24.3-162.62-22-198-59.43-344.39,30,137.07,26.27,116.2,26.27,116.2s43.83,8.79,81.69-31C765,938.16,658,794.06,658,794.06S488.54,1061.72,310.52,770.79Z"/><path class="cls-9" d="M167.6,1214.41s-58.09,64.93-43.66,104.61,89.38,24.25,95.19,19.34,7.77-123.95-21.88-123.95H167.6Z"/><path class="cls-11" d="M552.49,390.84c7.66,0,7.67-11.91,0-11.91s-7.67,11.91,0,11.91h0Z"/><path class="cls-11" d="M696.49,366.84c7.66,0,7.67-11.91,0-11.91s-7.67,11.91,0,11.91h0Z"/><path class="cls-12" d="M297.8,1601.37c-4.77,6.73-7.43,16.6-.72,35.08,14.43,39.68-3.61,154.86-10.82,192.86-4,20.87-9,36.81-8,48.13l34.21-.27c17-50.24,25.12-184,42.3-215.47"/><path class="cls-13" d="M511.3,1617.83c-8,15.55-10.73,30.92-1.4,40.26,12.08,12.09,30.43,133,30.27,195.25,9.63-1.13,19.2-1.61,28.77-1.88-2.44-55.22-5.06-143.78,2.28-160.91,8.68-20.25-1.19-54.41-1.73-78.31"/><path class="cls-9" d="M290.23,1806.64s-69.7,22.55-71.1,97.52S336.76,1950.27,358.4,1925s-25.07-104.84-30.46-118.38C294.56,1826.22,290.23,1806.64,290.23,1806.64Z"/><path class="cls-9" d="M539.5,1829.31s-54.85,54.82-44,113.14,109.58,27.75,117.92,7-13.67-101.82-45.44-122.52C557.15,1850.22,539.5,1829.31,539.5,1829.31Z"/><text class="cls-14" transform="translate(316.47 1164.58)">215</text></svg>