<svg id="_2nd_Place" data-name="2nd Place" xmlns="http://www.w3.org/2000/svg" xmlns:xlink="http://www.w3.org/1999/xlink" viewBox="0 0 1368.55 2172.87"><defs><style>.cls-1,.cls-14{fill:#fff;}.cls-1,.cls-10,.cls-11,.cls-12,.cls-13,.cls-2,.cls-3,.cls-4,.cls-5,.cls-6,.cls-7,.cls-8,.cls-9{stroke:#000;stroke-miterlimit:10;}.cls-1,.cls-10,.cls-11,.cls-12,.cls-13,.cls-2,.cls-3,.cls-4,.cls-5,.cls-7,.cls-8,.cls-9{stroke-width:10px;}.cls-2{fill:#e8a246;}.cls-3{fill:#6d4a50;}.cls-4{fill:#efefef;}.cls-5{fill:#933a22;}.cls-6{fill:#a50e19;stroke-width:12px;}.cls-7{fill:#934c4c;}.cls-8{fill:none;}.cls-9{fill:#5b5a5a;}.cls-10,.cls-12,.cls-13{opacity:0.24;}.cls-10{fill:url(#linear-gradient);}.cls-11{fill:#cecece;}.cls-12{fill:url(#linear-gradient-2);}.cls-13{fill:url(#linear-gradient-3);}.cls-14{font-size:200px;font-family:Montserrat;font-weight:700;}</style><linearGradient id="linear-gradient" x1="340.57" y1="1902.96" x2="409.55" y2="1563.23" gradientUnits="userSpaceOnUse"><stop offset="0"/><stop offset="0.91" stop-opacity="0.2"/><stop offset="1" stop-opacity="0"/></linearGradient><linearGradient id="linear-gradient-2" x1="731.87" y1="1918.74" x2="796.85" y2="1598.7" gradientUnits="userSpaceOnUse"><stop offset="0"/><stop offset="0.89" stop-opacity="0.27"/><stop offset="1" stop-opacity="0"/></linearGradient><linearGradient id="linear-gradient-3" x1="213.79" y1="481.9" x2="261.67" y2="246.08" gradientUnits="userSpaceOnUse"><stop offset="0.18" stop-color="#fff" stop-opacity="0"/><stop offset="0.25" stop-color="#b7b7b7" stop-opacity="0.28"/><stop offset="0.75"/></linearGradient></defs><title>horse_main_</title><polyline class="cls-1" points="684.43 250.66 735 256.51 684.43 250.66 684.43 262.15 749.17 363.17 735 256.51 684.43 250.66"/><path class="cls-2" d="M1091.2,578.77c57.56-55.64,40.69-203.62-97-201.88-76.81,1-88.8,26.13-133.38,5.1a94.21,94.21,0,0,1-23.91-15.69q-4.74,4.79-9.22,10c-8,10-18,11-30,13-4,1-7,7-12,11-2,1-5-1-6,0s1,5,0,6-4-1-6,0c-5,4-8,8-12,12-11,13-17,29-35,37-4,2,1,9-6,18-4,6,1,15-2,23-1,3-6,5-5,12h-6c1,17-6,36,12,48,1,1,0,4,0,6,16-1,29,8,42,17,3,2,9,0,12,2,3,1,5,4,12,6,2.69,0.77,4.49,3,6,5.54-1-6.74-2.26-13.37-3.66-19.83C951.46,677.3,1033.64,634.41,1091.2,578.77Z"/><path class="cls-3" d="M573.05,262.37S536,257.5,488.27,293.85s-59.07,40.64-75,37.36c54.52,28.52,100-19.18,100-19.18s-61.34,168.12-159,77.24c25,131.77,86.33,56.8,86.33,56.8s-86.33,70.43-50,113.59C413.3,502.86,436,527.85,436,527.85s-56.8,56.8-38.62,90.87c25,63.61-4,99.15-2.27,103.52s36.23,172.4,36.23,172.4L530.17,782.2s63-320.31,64.74-325.43,4.83-162,4.83-162Z"/><path class="cls-3" d="M409.92,1359.93s-1.86-2.19-5.2-5.81c-29.22-31.6-155-204-198.15.68C154.31,1602.43,115.78,1557,115.78,1557s25.19,50,67.33-9.09c9,68.15-49.25,136.31-49.25,136.31S302,1650.14,274.72,1411.59c-13.46-117.77,12.93-136.13,133.34-53.86"/><path class="cls-4" d="M992.56,538.3c-0.1-3.56-.08-7.09,0-10.61-24.44,45-44.25,80.79-48.58,86.56-13,17.27-56.13,47.49-69.08,86.35-5.54,16.64-14.13,32.11-37.66,60.18L877,786.62c34.43-52.34,57.76-80.64,71.33-90.33,30.22-21.59,25.91-69.08,38.86-95,3.21-6.42,14.91-25.31,30.69-50.09C1008,550.24,999,546.48,992.56,538.3Z"/><path class="cls-5" d="M1108.05,312s-66.89,126.14-115.48,215.66c-0.09,3.52-.11,7,0,10.61,6.48,8.18,15.4,11.94,25.29,12.91,47.89-75.19,133.37-204.65,133.37-204.65Z"/><path class="cls-1" d="M864,804.59c-42.23,64.2-83.09,137.53-80.72,163.7,4.32,47.49,90.67,341.08,30.22,427.43s-38.86,211.56-38.86,237.46,13,51.81,8.64,86.35,30.22,168.38,30.22,168.38l-30.22,38.86s-34.54,13-25.9-60.44-13-138.16-25.9-164.06,9.23-21.68,0-77.72c-11.5-69.82-11.5-119.8-143.82-124.35-157-5.39-167,98.44-171.35,137.3s0,56.13-17.27,69.08S386,1862,386,1862l-34.54,43.17s-25.91-34.54-4.32-86.35,13-120.89,8.64-142.48-4.32-25.91,17.27-64.76,8.64-99.3-17.27-220.19,51.81-349.72,60.44-388.57S299.68,683.33,286.73,661.75s-25.9-34.54-25.9-99.3-77.71-289.27-77.71-289.27,25.9-103.62,51.81,30.22,77.71,215.87,95,246.1,30.22,43.17,25.9,73.4,4.32,246.1,99.3,198.6c-4.32-47.49-13-345.4,144.64-526.73C511.24,208.41,550.1,87.52,550.1,87.52L649.4,255.9l35-5.24S692.1,218,666.92,87.52c82.27,86.3,58.49,126.78,68.08,169,103.07,16.25,48.53,89,125.85,125.48,44.59,21,56.57-4.13,133.38-5.1,137.65-1.74,154.52,146.23,97,201.88S951.46,677.3,788,573c19.19,88.26,3.84,209.14-15.35,207.22s-67.16-92.58-67.16-92.58S701.21,847.4,735.75,847.4c19.75,0,57.86-35.3,89.29-72.8Z"/><path class="cls-6" d="M379.81,678.41s33.95,113.92,75.31,143.08c24.32,66.66,168.33,148.23,271.32,21.35,42.41,4.2,113.85-117.69,113.85-117.69s77.36,56,84.18,113.94C826.78,906.11,795,965.18,795,965.18s90,321.72,62.76,393.29c-87.75-33.2-167.27-51.37-296.76-30.93-31,4.9-161.3,46.24-248.53,46.24C352,1209.4,386,1026.09,382.21,986c-3.51-36.68-131.46-191.92-131.46-191.92S291.64,697.56,379.81,678.41Z"/><path class="cls-7" d="M788,573s-86.21-61.06-111.2-126.95L654.12,475.6S801.55,999.84,788,573Z"/><path class="cls-8" d="M666.67,405.17s32.88,86.33-51.18,59.07"/><path class="cls-8" d="M654.12,348.37s13.63-77.24,34.08,0"/><path class="cls-8" d="M763.16,348.37s11.36-81.79,34.08,0"/><path class="cls-3" d="M644.25,228.79s71.21-73.24,118.91-29.08c-56.8,1-72.3,25.35-75,29.08s38.62-23.55,75-7.64,31.81,31.19,97.69,7.64C820,289.31,672.77,295.53,649.4,255.9S644.25,228.79,644.25,228.79Z"/><circle id="nostril_R" class="cls-9" cx="921.54" cy="476.88" r="29.91"/><circle id="nostril_L" class="cls-9" cx="1074.57" cy="454.6" r="22.28"/><path class="cls-10" d="M434.51,1568.3c-13.71,26-16.47,53.13-18.26,69.19-4.32,38.86,0,56.13-17.27,69.08S386,1862,386,1862l-34.54,43.17s-25.91-34.54-4.32-86.35,13-120.89,8.64-142.48-4.32-25.91,17.27-64.76c7.73-13.91,11-30.58,10.9-51.79"/><path class="cls-11" d="M341.6,1835.6s-83.69,85.2-83.69,126.1c47.71,78.39,150,44.31,150,44.31s12-114-22.11-156.69C338.8,1865.84,341.6,1835.6,341.6,1835.6Z"/><path class="cls-12" d="M724.5,1584c2.67,12.51,4.55,26.1,6.93,40.54,9.23,56-13,51.81,0,77.72s34.54,90.67,25.9,164.06,25.9,60.44,25.9,60.44l30.22-38.86s-34.54-133.84-30.22-168.38-8.64-60.44-8.64-86.35"/><path class="cls-11" d="M757.34,1866.32s-46.15,74.93-35.93,122.64c54.53,61.35,170.41,24.41,170.41,24.41C885,1968.51,852.59,1872,805.87,1857,772.11,1879.44,757.34,1866.32,757.34,1866.32Z"/><path class="cls-13" d="M288.8,472.24c-19.25-41.8-40.19-98.08-53.88-168.85-25.9-133.84-51.81-30.22-51.81-30.22s43.4,125.37,65.33,215.77"/><path class="cls-4" d="M1104.57,417.53c47.89-75.19,46.65-71,46.65-71L1108.05,312s8.29-14.58-40.3,74.94"/><path class="cls-11" d="M194.56,307.17s24.19,18.11,40.36-3.78,33.21-141.17,23-158.21c-68.16-13.63-129.51,54.53-129.51,54.53S146.25,274.53,194.56,307.17Z"/><path class="cls-11" d="M1098.23,328.65s16.56,26.54,41.4,34,93-67.52,103.23-81.15c-44.31-68.16-112.47-81.79-112.47-81.79S1092.08,241,1098.23,328.65Z"/><text class="cls-14" transform="translate(445.95 1220.99)">215</text></svg>