<svg id="_3rd_Place" data-name="3rd Place" xmlns="http://www.w3.org/2000/svg" xmlns:xlink="http://www.w3.org/1999/xlink" viewBox="0 0 1188.48 2064.23"><defs><style>.cls-1{fill:#6d4a50;}.cls-1,.cls-10,.cls-12,.cls-13,.cls-2,.cls-3,.cls-4,.cls-5,.cls-6,.cls-7,.cls-8,.cls-9{stroke:#000;stroke-miterlimit:10;}.cls-1,.cls-10,.cls-12,.cls-13,.cls-2,.cls-4,.cls-5,.cls-6,.cls-7,.cls-8,.cls-9{stroke-width:10px;}.cls-11,.cls-14,.cls-2{fill:#fff;}.cls-3{fill:#73c04a;stroke-width:12px;}.cls-4{fill:#934c4c;}.cls-5{fill:none;}.cls-12,.cls-13,.cls-7,.cls-8{opacity:0.24;}.cls-7{fill:url(#linear-gradient);}.cls-8{fill:url(#linear-gradient-2);}.cls-9{fill:#cecece;}.cls-10{fill:#5b5a5a;}.cls-12{fill:url(#linear-gradient-3);}.cls-13{fill:url(#linear-gradient-4);}.cls-14{font-size:170px;font-family:Montserrat;font-weight:700;}</style><linearGradient id="linear-gradient" x1="478.51" y1="1098.82" x2="521.95" y2="884.88" gradientUnits="userSpaceOnUse"><stop offset="0.18" stop-opacity="0"/><stop offset="0.25" stop-opacity="0.28"/><stop offset="0.75"/></linearGradient><linearGradient id="linear-gradient-2" x1="827.1" y1="1034.55" x2="858.95" y2="877.71" gradientUnits="userSpaceOnUse"><stop offset="0.24" stop-opacity="0"/><stop offset="0.76"/></linearGradient><linearGradient id="linear-gradient-3" x1="375.57" y1="1861.72" x2="426.19" y2="1612.38" gradientUnits="userSpaceOnUse"><stop offset="0.06"/><stop offset="0.73" stop-opacity="0.51"/><stop offset="0.85" stop-opacity="0"/></linearGradient><linearGradient id="linear-gradient-4" x1="645.1" y1="1843.85" x2="691.27" y2="1616.44" gradientUnits="userSpaceOnUse"><stop offset="0.06"/><stop offset="0.73" stop-opacity="0.5"/><stop offset="0.85" stop-opacity="0"/></linearGradient></defs><title>horse_main_</title><path class="cls-1" d="M361.21,1287.14s-1.7-2-4.77-5.33c-26.79-29-157.55-157.62-164.56,83.42-7.81,268.63-89,204.59-89,204.59s94.36,84.34,129.17-54.66c8.26,62.47,0,56.22,0,56.22s86.35-90.58,52-193.66-34.9-168,75.48-92.59"/><path class="cls-1" d="M499,239.68S359.7,300,335.76,375.26c53.36-18.81,49.06-27.59,66.17-10.27-97.59,59.64-79.64,120.77-66.17,132.53,6-44.67,28.43-45,35.91-49.55s-2,77.77-35.91,101.28-86.28,68.18-63.83,108.15c27.43-37.62,63.83-37.62,63.83-37.62s-79.4,58.33-1.5,148.83S476.4,692.67,476.4,692.67L519,448l33.76-208.29H499Z"/><path class="cls-2" d="M312.37,858c23.68-87.88,85.49-62.41,85.49-62.41S354.42,402.52,522.8,244c-48.63,0-138.4-70.54-134.66-119.92s164.59,77.6,164.59,77.6,18.7-52.91,128.91-42.33c69.07-52.91,118-102.29,132.93-84.65s0,77.6-93.52,112.87c3.74-10.58,37.41,0,41.15,49.38s0,211,145.88,257.48c149.63,67,78.55,204.57,29.12,225.74s-133.85,49.38-234.85-93.1c41.15,97.37-56.11,68.41-56.11,68.41l67.33,119.92s78.55,151.67,93.52,151.67,24.86-116.39,24.86-116.39l27.5,17.64s15,105.81,0,172.83-48.63-3.53-75-21.16S642.49,829.49,642.49,829.49L395.61,861.24s-3.92,6.93-8.56,21.28Z"/><path class="cls-2" d="M284.4,1195.82s-20.07,124.95,51.37,208.6c60.86,71.27,63.59,105.81,44.89,162.25s4.32,53.15,7.2,69.68c2.29,13.13,15.55,95-7.2,156.05-17.46,46.87-8.38,68.66-8.38,68.66l56.61-36s-3.44-165.42,13.78-206.52c11.29-26.94-8.66-33.21-5.87-51.31,7.7-50,2.65-74.86,27.62-87.77,58-30,76-32.11,162.69-22.92,42.59,4.51,56.53,103.07,45.31,124.23s-29.93,35.27-11.22,63.49-16,109.34-11.73,148.14,31.25,71,32.71,53.15,23-182.72,32.35-203c16.21-35.27,4.57-53.88,2.35-66.1-4.82-26.48-13.09-112.85,9.35-139.3,20.1-23.69,65.43-82.11,58.18-198.5S284.4,1195.82,284.4,1195.82Z"/><path class="cls-3" d="M665.81,730.33L785.19,878.41l-66,61.53s93.86,208.85,86.38,326.41c-324.67,122-573.5,16.46-573.5,23.51S315.4,998.32,312.37,956C237,934.84,232,892.52,232,892.52S281.8,826.3,368.36,743.3C552.72,962.73,665.81,730.33,665.81,730.33Z"/><path class="cls-4" d="M702.35,627.06s-91.45-121.26-113-109.44C599.48,551.84,696.76,763.47,702.35,627.06Z"/><path class="cls-1" d="M552.72,201.67S583.62,93.12,680.86,97.82c-29.92,18.81-39.52,37.62-39.52,37.62s79.55-42.32,143.07,47c30.35,42,58.46-2.35,58.46-2.35s-4.91,101.1-162,21.16c4.59,37.21,21.48,45.4,21.48,45.4S639.35,262.54,552.72,201.67Z"/><path class="cls-2" d="M360,966.51c-8.19,25.32,0,0,4.77,74.28,59.51,13.07,183.29-116.4,183.29-116.4s52.37-56.43,48.63-3.53c-48.63,109.34-185.9,172.83-185.9,172.83s-29.31,50.48-68.46,0c-18-48.35-18-48.35-49.87-144.36Z"/><path class="cls-5" d="M646.24,695.46s-91.73-59.22-93.52-93"/><ellipse id="eye_L" class="cls-6" cx="631.13" cy="359.92" rx="20.35" ry="30.2"/><ellipse id="eye_R" class="cls-6" cx="773.56" cy="337.44" rx="20.35" ry="30.2"/><line class="cls-2" x1="574.13" y1="303.42" x2="625.42" y2="274.83"/><line class="cls-2" x1="742.25" y1="258.46" x2="792.19" y2="284.22"/><path class="cls-7" d="M422.95,1087.54c33.47-17.73,127.27-73.22,169.49-157.72-0.08-.69-0.14-1.38-0.22-2.07h1.24q1-2,1.88-4c-0.27-1.84-.71-3.45-0.12-4,0.56-.35,1.08-0.7,1.59-1.06,2.15-49.15-48.75,5.7-48.75,5.7s-76,79.44-137.48,107.58c-0.11.25-.23,0.51-0.36,0.78"/><path class="cls-8" d="M859.45,1041.12c11.8-52.83,5-129.76,1.59-160-7.61-3.88-15.27-8.26-23.83-5.41a45.4,45.4,0,0,0-8.23,3.7c-4,34.47-11.79,87.6-21.9,87.6"/><path class="cls-9" d="M549.38,921.33s15.22-140.21,96.49-144.91,84,10.54,98.94,34.05S694.9,940.34,589.39,939.94C571.61,900.07,549.38,921.33,549.38,921.33Z"/><path class="cls-9" d="M827,895.33s37.94,31.25,37.4,23.76,83.83-85.35-18.7-141.77c-64.29,0-70.45,7.78-81.5,19.17S788.83,858,827,895.33Z"/><circle id="nostril_R" class="cls-10" cx="793.33" cy="625.62" r="31.15"/><circle id="nostril_L" class="cls-10" cx="952.67" cy="602.42" r="23.2"/><path class="cls-11" d="M641.21,366.7c7.66,0,7.67-11.91,0-11.91s-7.67,11.91,0,11.91h0Z"/><path class="cls-11" d="M785.21,342.7c7.66,0,7.67-11.91,0-11.91s-7.67,11.91,0,11.91h0Z"/><path class="cls-12" d="M378.6,1620.8c3.65,5.43,8.09,8.88,9.25,15.55,2.29,13.13,15.55,95-7.2,156.05-17.46,46.87-8.38,68.66-8.38,68.66l56.61-36s-3.44-165.42,13.78-206.52c0.37-.89.71-1.76,1-2.61"/><path class="cls-9" d="M380.65,1792.4s-108.93,61.75-98.85,129.93c94.86,98.75,172.16,18.81,172.16,18.81s11.19-97-25.35-148.74C373.59,1815.35,380.65,1792.4,380.65,1792.4Z"/><path class="cls-13" d="M653.65,1616.9c-1.28,7.85.39,16.57,7.55,27.36,18.7,28.22-16,109.34-11.73,148.14s31.25,71,32.71,53.15,23-182.72,32.35-203a96.7,96.7,0,0,0,6.84-20"/><path class="cls-9" d="M644.88,1792.4s-66.25,66.45-53.78,146.39c82.29,89.34,194.09,0,194.09,0S739,1810.59,688.75,1792.4C660.21,1819.08,644.88,1792.4,644.88,1792.4Z"/><text class="cls-14" transform="translate(455.57 1214.29)">215</text></svg>