<svg id="_3rd_Place" data-name="3rd Place" xmlns="http://www.w3.org/2000/svg" xmlns:xlink="http://www.w3.org/1999/xlink" viewBox="0 0 1188.48 2232.89"><defs><style>.cls-1{fill:#6d4a50;}.cls-1,.cls-10,.cls-12,.cls-13,.cls-2,.cls-3,.cls-4,.cls-5,.cls-6,.cls-7,.cls-8,.cls-9{stroke:#000;stroke-miterlimit:10;}.cls-1,.cls-10,.cls-12,.cls-13,.cls-2,.cls-4,.cls-5,.cls-6,.cls-7,.cls-8,.cls-9{stroke-width:10px;}.cls-11,.cls-14,.cls-2{fill:#fff;}.cls-3{fill:#a50e19;stroke-width:12px;}.cls-4{fill:#934c4c;}.cls-5{fill:none;}.cls-12,.cls-13,.cls-7,.cls-8{opacity:0.24;}.cls-7{fill:url(#linear-gradient);}.cls-8{fill:url(#linear-gradient-2);}.cls-9{fill:#cecece;}.cls-10{fill:#5b5a5a;}.cls-12{fill:url(#linear-gradient-3);}.cls-13{fill:url(#linear-gradient-4);}.cls-14{font-size:170px;font-family:Montserrat;font-weight:700;}</style><linearGradient id="linear-gradient" x1="478.51" y1="1186.34" x2="521.95" y2="972.4" gradientUnits="userSpaceOnUse"><stop offset="0.18" stop-opacity="0"/><stop offset="0.25" stop-opacity="0.28"/><stop offset="0.75"/></linearGradient><linearGradient id="linear-gradient-2" x1="827.1" y1="1122.07" x2="858.95" y2="965.23" gradientUnits="userSpaceOnUse"><stop offset="0.24" stop-opacity="0"/><stop offset="0.76"/></linearGradient><linearGradient id="linear-gradient-3" x1="375.57" y1="1949.24" x2="426.19" y2="1699.9" gradientUnits="userSpaceOnUse"><stop offset="0.06"/><stop offset="0.73" stop-opacity="0.51"/><stop offset="0.85" stop-opacity="0"/></linearGradient><linearGradient id="linear-gradient-4" x1="645.1" y1="1931.37" x2="691.27" y2="1703.96" gradientUnits="userSpaceOnUse"><stop offset="0.06"/><stop offset="0.73" stop-opacity="0.5"/><stop offset="0.85" stop-opacity="0"/></linearGradient></defs><title>horse_main_</title><path class="cls-1" d="M361.21,1374.66s-1.7-2-4.77-5.33c-26.79-29-157.55-157.62-164.56,83.42-7.81,268.63-89,204.59-89,204.59s94.36,84.34,129.17-54.66c8.26,62.47,0,56.22,0,56.22s86.35-90.58,52-193.66-34.9-168,75.48-92.59"/><path class="cls-1" d="M499,327.2S359.7,387.54,335.76,462.78c53.36-18.81,49.06-27.59,66.17-10.27C304.35,512.15,322.3,573.28,335.76,585c6-44.67,28.43-45,35.91-49.55s-2,77.77-35.91,101.28-86.28,68.18-63.83,108.15c27.43-37.62,63.83-37.62,63.83-37.62s-79.4,58.33-1.5,148.83S476.4,780.19,476.4,780.19L519,535.49,552.72,327.2H499Z"/><path class="cls-2" d="M312.37,945.48c23.68-87.88,85.49-62.41,85.49-62.41S354.42,490,522.8,331.51c-48.63,0-138.4-70.54-134.66-119.92s164.59,77.6,164.59,77.6,18.7-52.91,128.91-42.33c69.07-52.91,118-102.29,132.93-84.65s0,77.6-93.52,112.87c3.74-10.58,37.41,0,41.15,49.38s0,211,145.88,257.48c149.63,67,78.55,204.57,29.12,225.74s-133.85,49.38-234.85-93.1C743.49,811.95,646.24,783,646.24,783l67.33,119.92s78.55,151.67,93.52,151.67,24.86-116.39,24.86-116.39l27.5,17.64s15,105.81,0,172.83-48.63-3.53-75-21.16S642.49,917,642.49,917L395.61,948.76S391.7,955.68,387,970Z"/><path class="cls-2" d="M284.4,1283.34s-20.07,124.95,51.37,208.6c60.86,71.27,63.59,105.81,44.89,162.25s4.32,53.15,7.2,69.68c2.29,13.13,15.55,95-7.2,156.05-17.46,46.87-8.38,68.66-8.38,68.66l56.61-36s-3.44-165.42,13.78-206.52c11.29-26.94-8.66-33.21-5.87-51.31,7.7-50,2.65-74.86,27.62-87.77,58-30,76-32.11,162.69-22.92,42.59,4.51,56.53,103.07,45.31,124.23s-29.93,35.27-11.22,63.49-16,109.34-11.73,148.14,31.25,71,32.71,53.15,23-182.72,32.35-203c16.21-35.27,4.57-53.88,2.35-66.1-4.82-26.48-13.09-112.85,9.35-139.3,20.1-23.69,65.43-82.11,58.18-198.5S284.4,1283.34,284.4,1283.34Z"/><path class="cls-3" d="M665.81,817.85L785.19,965.93l-66,61.53s93.86,208.85,86.38,326.41c-324.67,122-573.5,16.46-573.5,23.51s83.36-291.55,80.33-333.87C237,1022.36,232,980,232,980s49.77-66.21,136.32-149.21C552.72,1050.25,665.81,817.85,665.81,817.85Z"/><path class="cls-4" d="M702.35,714.58s-91.45-121.26-113-109.44C599.48,639.36,696.76,851,702.35,714.58Z"/><path class="cls-1" d="M552.72,289.19s30.9-108.55,128.14-103.85C650.94,204.15,641.34,223,641.34,223s79.55-42.32,143.07,47c30.35,42,58.46-2.35,58.46-2.35s-4.91,101.1-162,21.16c4.59,37.21,21.48,45.4,21.48,45.4S639.35,350.06,552.72,289.19Z"/><path class="cls-2" d="M360,1054c-8.19,25.32,0,0,4.77,74.28,59.51,13.07,183.29-116.39,183.29-116.39s52.37-56.43,48.63-3.53c-48.63,109.34-185.9,172.83-185.9,172.83s-29.31,50.48-68.46,0c-18-48.35-18-48.35-49.87-144.36Z"/><path class="cls-5" d="M646.24,783s-91.73-59.22-93.52-93"/><ellipse id="eye_L" class="cls-6" cx="631.13" cy="447.44" rx="20.35" ry="30.2"/><ellipse id="eye_R" class="cls-6" cx="773.56" cy="424.96" rx="20.35" ry="30.2"/><line class="cls-2" x1="574.13" y1="390.94" x2="625.42" y2="362.35"/><line class="cls-2" x1="742.25" y1="345.98" x2="792.19" y2="371.74"/><path class="cls-7" d="M422.95,1175.06c33.47-17.73,127.27-73.22,169.49-157.72-0.08-.69-0.14-1.38-0.22-2.07h1.24q1-2,1.88-4c-0.27-1.84-.71-3.45-0.12-4,0.56-.35,1.08-0.7,1.59-1.06,2.15-49.15-48.75,5.7-48.75,5.7s-76,79.44-137.48,107.58c-0.11.25-.23,0.51-0.36,0.78"/><path class="cls-8" d="M859.45,1128.64c11.8-52.83,5-129.76,1.59-160-7.61-3.88-15.27-8.26-23.83-5.41A45.4,45.4,0,0,0,829,967c-4,34.47-11.79,87.6-21.9,87.6"/><path class="cls-9" d="M549.38,1008.85s15.22-140.21,96.49-144.91,84,10.54,98.94,34.05-49.91,129.87-155.42,129.47C571.61,987.58,549.38,1008.85,549.38,1008.85Z"/><path class="cls-9" d="M827,982.85s37.94,31.25,37.4,23.76,83.83-85.35-18.7-141.77c-64.29,0-70.45,7.78-81.5,19.17S788.83,945.56,827,982.85Z"/><circle id="nostril_R" class="cls-10" cx="793.33" cy="713.14" r="31.15"/><circle id="nostril_L" class="cls-10" cx="952.67" cy="689.94" r="23.2"/><path class="cls-11" d="M641.21,454.22c7.66,0,7.67-11.91,0-11.91s-7.67,11.91,0,11.91h0Z"/><path class="cls-11" d="M785.21,430.22c7.66,0,7.67-11.91,0-11.91s-7.67,11.91,0,11.91h0Z"/><path class="cls-12" d="M378.6,1708.32c3.65,5.43,8.09,8.88,9.25,15.55,2.29,13.13,15.55,95-7.2,156.05-17.46,46.87-8.38,68.66-8.38,68.66l56.61-36s-3.44-165.42,13.78-206.52c0.37-.89.71-1.76,1-2.61"/><path class="cls-9" d="M380.65,1879.92s-108.93,61.75-98.85,129.93C376.66,2108.6,454,2028.66,454,2028.66s11.19-97-25.35-148.74C373.59,1902.87,380.65,1879.92,380.65,1879.92Z"/><path class="cls-13" d="M653.65,1704.42c-1.28,7.85.39,16.57,7.55,27.36,18.7,28.22-16,109.34-11.73,148.14s31.25,71,32.71,53.15,23-182.72,32.35-203a96.7,96.7,0,0,0,6.84-20"/><path class="cls-9" d="M644.88,1879.92s-66.25,66.45-53.78,146.39c82.29,89.34,194.09,0,194.09,0s-46.16-128.2-96.43-146.39C660.21,1906.6,644.88,1879.92,644.88,1879.92Z"/><text class="cls-14" transform="translate(455.57 1301.81)">215</text></svg>