<svg xmlns="http://www.w3.org/2000/svg" viewBox="0 0 103.02 112.62"><defs><style>.cls-1,.cls-3{fill:#fff;}.cls-2{fill:none;stroke:#fff;stroke-width:7px;stroke-dasharray:16 10;}.cls-2,.cls-3{stroke-miterlimit:10;}.cls-3{stroke:#231f20;stroke-width:4px;}</style></defs><title>chance_rain</title><g id="Layer_2" data-name="Layer 2"><g id="weather_icons" data-name="weather icons"><path class="cls-1" d="M64.13,7c4,0,8.5,1.41,13.5,4.85,11.56,7.95,6.65,22.68,3.37,27a12.54,12.54,0,0,1,6.59-2.08A7.83,7.83,0,0,1,94,39.88c5.66,7.24-2.31,15.34-2.31,15.34H14.35c-8.67,0-8.67-9-5.2-12.45a7.48,7.48,0,0,1,5.47-2.43,15.7,15.7,0,0,1,7,2.22c-6-3.55-8.88-16.84,4.12-20.31a19.56,19.56,0,0,1,5-.74c5.3,0,9.54,3.21,10.76,13.87v0C40.73,28.45,48.57,7,64.13,7m0-7h0C57,0,50.32,3.2,44.9,9.27a40.58,40.58,0,0,0-5.34,7.68,16.24,16.24,0,0,0-8.82-2.44,26.22,26.22,0,0,0-6.78,1c-8,2.14-13.21,7.55-14.22,14.84a18.07,18.07,0,0,0-.1,3.91A15.37,15.37,0,0,0,4.2,37.82,15.37,15.37,0,0,0,1.06,54c2.14,5.16,7.1,8.24,13.29,8.24H91.67a7,7,0,0,0,5-2.09c4.25-4.32,10.31-15,2.84-24.56a14.81,14.81,0,0,0-7.92-5.29,28.34,28.34,0,0,0,0-8.57,23,23,0,0,0-10-15.62C75.73,2,69.85,0,64.13,0Z"/><line class="cls-2" x1="78.01" y1="72.95" x2="56.37" y2="110.43"/><line class="cls-2" x1="54.37" y1="72.95" x2="32.73" y2="110.43"/><line class="cls-2" x1="30.73" y1="72.95" x2="9.09" y2="110.43"/><path class="cls-3" d="M71.32,91.57V81.22c0-5.86,1.76-8.1,8.69-13.27,3.51-2.73,5.27-5.08,5.27-9.76,0-6.44-3.81-11-10.44-11S64.68,51.75,64.68,57.9H57.36C57.85,47.55,64.49,41,74.93,41,85.67,41,92.6,47.65,92.6,58.48c0,6.34-2.25,9.66-6.25,13.18-5.76,5.17-7.71,4.88-7.71,9.57V91.57Zm3.69,9.2a5,5,0,0,1,5.08,4.89A5.12,5.12,0,1,1,75,100.77Z"/></g></g></svg>