<svg xmlns="http://www.w3.org/2000/svg" viewBox="0 0 103.02 119.67"><defs><style>.cls-1{fill:#f9ed23;}.cls-2{fill:#262625;}.cls-3{fill:#656666;}.cls-4{fill:#fff;stroke:#231f20;stroke-miterlimit:10;stroke-width:4px;}</style></defs><title>chance_storms</title><g id="Layer_2" data-name="Layer 2"><g id="weather_icons" data-name="weather icons"><polygon class="cls-1" points="67.82 54.18 43.28 84.44 38.31 75.13 59.94 77.09 67.09 77.74 63.44 83.07 38.31 119.67 56.44 79.14 59.94 85.12 38.31 87.08 27.73 88.04 33.35 77.77 52.05 43.59 67.82 54.18"/><path class="cls-2" d="M14.35,58.72c-4.79,0-8.46-2.21-10.06-6.08A11.74,11.74,0,0,1,6.68,40.29a11.08,11.08,0,0,1,6.94-3.4,15.39,15.39,0,0,1-.41-6.08C14,25,18.26,20.63,24.87,18.87A22.8,22.8,0,0,1,30.75,18a12,12,0,0,1,10,4.62,39.89,39.89,0,0,1,6.79-11C52.25,6.3,58,3.5,64.13,3.5c5,0,10.21,1.84,15.48,5.47a19.6,19.6,0,0,1,8.49,13.3,25.89,25.89,0,0,1-.75,11h.22a11.39,11.39,0,0,1,9.15,4.45c6,7.64.93,16.39-2.57,19.95a3.5,3.5,0,0,1-2.5,1Z"/><path class="cls-3" d="M64.13,7c4,0,8.5,1.41,13.5,4.85,11.56,7.95,6.65,22.68,3.37,27a12.54,12.54,0,0,1,6.59-2.08A7.82,7.82,0,0,1,94,39.88c5.66,7.24-2.31,15.34-2.31,15.34H14.35c-8.67,0-8.67-9-5.2-12.45a7.48,7.48,0,0,1,5.47-2.43,15.7,15.7,0,0,1,7,2.22c-6-3.55-8.88-16.84,4.12-20.31a19.56,19.56,0,0,1,5-.74c5.3,0,9.54,3.21,10.76,13.87v0C40.73,28.45,48.57,7,64.13,7m0-7h0C57,0,50.32,3.2,44.9,9.27a40.58,40.58,0,0,0-5.34,7.68,16.24,16.24,0,0,0-8.82-2.44,26.22,26.22,0,0,0-6.78,1c-8,2.14-13.21,7.55-14.22,14.84a18.08,18.08,0,0,0-.1,3.91A15.37,15.37,0,0,0,4.2,37.82,15.37,15.37,0,0,0,1.06,54c2.14,5.16,7.1,8.24,13.29,8.24H91.67a7,7,0,0,0,5-2.09c4.25-4.32,10.31-15,2.84-24.56a14.81,14.81,0,0,0-7.92-5.29,28.34,28.34,0,0,0,0-8.57,23,23,0,0,0-10-15.62C75.73,2,69.85,0,64.13,0Z"/><path class="cls-4" d="M65.09,86.63V76.29c0-5.86,1.76-8.1,8.69-13.27C77.29,60.28,79,57.94,79,53.25c0-6.44-3.81-11-10.44-11S58.45,46.81,58.45,53H51.13c.49-10.35,7.13-16.89,17.57-16.89,10.74,0,17.67,6.64,17.67,17.47,0,6.34-2.25,9.66-6.25,13.18-5.76,5.17-7.71,4.88-7.71,9.57V86.63Zm3.69,9.2a5,5,0,0,1,5.08,4.89,5.12,5.12,0,1,1-5.08-4.89Z"/></g></g></svg>