<svg xmlns="http://www.w3.org/2000/svg" viewBox="0 0 72.68 89.53"><defs><style>.cls-1{fill:none;stroke:#fff;stroke-width:6px;}.cls-1,.cls-2{stroke-miterlimit:10;}.cls-2{fill:#fff;stroke:#231f20;stroke-width:4px;}</style></defs><title>chance_snow</title><g id="Layer_2" data-name="Layer 2"><g id="weather_icons" data-name="weather icons"><line class="cls-1" x1="33.34" x2="33.34" y2="73.45"/><polyline class="cls-1" points="24.12 7.86 33.34 13.92 42.49 7.86"/><polyline class="cls-1" points="42.49 65.82 33.27 59.75 24.12 65.82"/><line class="cls-1" x1="65.15" y1="55.83" x2="1.54" y2="19.1"/><polyline class="cls-1" points="62.96 43.91 53.09 48.87 53.77 59.82"/><polyline class="cls-1" points="3.58 30.84 13.44 25.88 12.76 14.93"/><line class="cls-1" x1="1.5" y1="55.76" x2="65.11" y2="19.03"/><polyline class="cls-1" points="12.92 59.82 13.56 48.8 3.73 43.91"/><polyline class="cls-1" points="53.92 14.93 53.28 25.95 63.11 30.84"/><path class="cls-2" d="M49.4,68.49V58.14c0-5.86,1.76-8.1,8.69-13.27,3.51-2.73,5.27-5.08,5.27-9.76,0-6.44-3.81-11-10.44-11S42.77,28.66,42.77,34.81H35.45C35.93,24.46,42.57,17.92,53,17.92c10.74,0,17.67,6.64,17.67,17.47,0,6.34-2.25,9.66-6.25,13.18-5.76,5.17-7.71,4.88-7.71,9.57V68.49Zm3.69,9.2a5,5,0,0,1,5.08,4.89,5.12,5.12,0,1,1-5.08-4.89Z"/></g></g></svg>