<svg xmlns="http://www.w3.org/2000/svg" viewBox="0 0 106.13 62.22"><defs><style>.cls-1{fill:none;stroke:#f9ed23;stroke-miterlimit:10;stroke-width:7px;}.cls-2{fill:#262625;}.cls-3{fill:#fff;}</style></defs><title>mostly_cloudy</title><g id="Layer_2" data-name="Layer 2"><g id="weather_icons" data-name="weather icons"><circle class="cls-1" cx="28.39" cy="26.22" r="14.38"/><line class="cls-1" x1="28.39" y1="45.42" x2="28.39" y2="51.97"/><line class="cls-1" x1="28.39" y1="0.08" x2="28.39" y2="6.62"/><line class="cls-1" x1="57.16" y1="26.22" x2="50.61" y2="26.22"/><line class="cls-1" x1="6.55" y1="26.22" y2="26.22"/><line class="cls-1" x1="12.11" y1="12.36" x2="7.48" y2="7.73"/><line class="cls-1" x1="46.97" y1="45" x2="42.34" y2="40.37"/><line class="cls-1" x1="7.78" y1="45.7" x2="12.41" y2="41.07"/><line class="cls-1" x1="43.96" y1="12.06" x2="48.59" y2="7.43"/><path class="cls-2" d="M17.46,58.72c-4.79,0-8.46-2.21-10.06-6.08A11.74,11.74,0,0,1,9.79,40.29a11.08,11.08,0,0,1,6.94-3.41,15.41,15.41,0,0,1-.41-6.08C17.12,25,21.37,20.63,28,18.87A22.8,22.8,0,0,1,33.86,18a12,12,0,0,1,10,4.62,39.89,39.89,0,0,1,6.79-11C55.35,6.3,61.1,3.5,67.24,3.5c5,0,10.21,1.84,15.48,5.47a19.61,19.61,0,0,1,8.49,13.3,25.91,25.91,0,0,1-.75,11h.22a11.39,11.39,0,0,1,9.15,4.45c6,7.64.93,16.39-2.57,19.95a3.5,3.5,0,0,1-2.5,1Z"/><path class="cls-3" d="M67.24,7c4,0,8.5,1.41,13.5,4.85,11.56,7.95,6.65,22.68,3.37,27a12.54,12.54,0,0,1,6.59-2.08,7.83,7.83,0,0,1,6.39,3.11c5.66,7.24-2.31,15.34-2.31,15.34H17.46c-8.67,0-8.67-9-5.2-12.45a7.48,7.48,0,0,1,5.47-2.43,15.7,15.7,0,0,1,7,2.22c-6-3.55-8.88-16.84,4.12-20.31a19.57,19.57,0,0,1,5-.74c5.3,0,9.54,3.21,10.76,13.87v0C43.84,28.45,51.68,7,67.24,7m0-7h0C60.07,0,53.43,3.2,48,9.27a40.58,40.58,0,0,0-5.34,7.68,16.24,16.24,0,0,0-8.82-2.44,26.23,26.23,0,0,0-6.78,1C19,17.63,13.86,23,12.85,30.33a18.08,18.08,0,0,0-.1,3.91,15.37,15.37,0,0,0-5.44,3.57A15.37,15.37,0,0,0,4.17,54c2.14,5.16,7.1,8.24,13.29,8.24H94.78a7,7,0,0,0,5-2.09c4.25-4.32,10.31-15,2.84-24.56a14.81,14.81,0,0,0-7.92-5.29,28.34,28.34,0,0,0,0-8.57,23,23,0,0,0-10-15.62C78.84,2,73,0,67.24,0Z"/></g></g></svg>