<svg xmlns="http://www.w3.org/2000/svg" viewBox="0 0 104.25 81.55"><defs><style>.cls-1{fill:none;stroke:#f9ed23;stroke-miterlimit:10;stroke-width:7px;}.cls-2{fill:#262625;}.cls-3{fill:#fff;}</style></defs><title>mostly_sunny</title><g id="Layer_2" data-name="Layer 2"><g id="weather_icons" data-name="weather icons"><circle class="cls-1" cx="43.64" cy="40.19" r="22.09"/><line class="cls-1" x1="43.64" y1="69.69" x2="43.64" y2="79.75"/><line class="cls-1" x1="43.64" x2="43.64" y2="10.07"/><line class="cls-1" x1="87.85" y1="40.19" x2="77.79" y2="40.19"/><line class="cls-1" x1="10.07" y1="40.19" y2="40.19"/><line class="cls-1" x1="18.62" y1="18.88" x2="11.5" y2="11.77"/><line class="cls-1" x1="72.2" y1="69.05" x2="65.08" y2="61.93"/><line class="cls-1" x1="11.96" y1="70.13" x2="19.08" y2="63.01"/><line class="cls-1" x1="67.56" y1="18.42" x2="74.68" y2="11.3"/><path class="cls-2" d="M61.66,78.05a6.41,6.41,0,0,1-6.21-3.87,7,7,0,0,1,3.69-9.07,8.15,8.15,0,0,1,.07-1.47c.46-3.37,2.84-5.86,6.53-6.84a11.86,11.86,0,0,1,3.07-.44,7.74,7.74,0,0,1,3.68.89,17.76,17.76,0,0,1,2.15-3A11.57,11.57,0,0,1,83.35,50a13.91,13.91,0,0,1,7.87,2.73,10.47,10.47,0,0,1,4.53,7.11,12.6,12.6,0,0,1,.05,3.48,6.91,6.91,0,0,1,3.31,2.35c3,3.83,1.44,8.54-1.27,11.29a3.5,3.5,0,0,1-2.49,1Z"/><path class="cls-3" d="M83.35,53.54a10.44,10.44,0,0,1,5.88,2.11c5,3.46,2.9,9.88,1.47,11.77a5.47,5.47,0,0,1,2.87-.91,3.41,3.41,0,0,1,2.79,1.36c2.47,3.15-1,6.68-1,6.68H61.66c-3.78,0-3.78-3.91-2.27-5.43a3.26,3.26,0,0,1,2.38-1.06,6.84,6.84,0,0,1,3.06,1,4.85,4.85,0,0,1,1.8-8.85,8.52,8.52,0,0,1,2.17-.32c2.31,0,4.16,1.4,4.69,6h0c-.34-3,3.07-12.37,9.86-12.37m0-7A15,15,0,0,0,72,51.9q-.51.57-1,1.19a11.62,11.62,0,0,0-2.24-.23,15.3,15.3,0,0,0-4,.56c-5,1.33-8.38,4.92-9.07,9.63a11.36,11.36,0,0,0-1.31,1.13,10.65,10.65,0,0,0-2.22,11.35,9.93,9.93,0,0,0,9.44,6H95.35a7,7,0,0,0,5-2.09,14.91,14.91,0,0,0,2.85-4.26,11.13,11.13,0,0,0-1.32-11.65,10.57,10.57,0,0,0-2.48-2.3,15.34,15.34,0,0,0-.18-1.93,13.9,13.9,0,0,0-6-9.44,17.32,17.32,0,0,0-9.85-3.35Z"/></g></g></svg>