<svg xmlns="http://www.w3.org/2000/svg" viewBox="0 0 107.3 92.17"><defs><style>.cls-1{fill:none;stroke:#f9ed23;stroke-miterlimit:10;stroke-width:7px;}.cls-2{fill:#262625;}.cls-3{fill:#fff;}</style></defs><title>partly_sunny</title><g id="Layer_2" data-name="Layer 2"><g id="weather_icons" data-name="weather icons"><circle class="cls-1" cx="43.64" cy="40.19" r="22.09"/><line class="cls-1" x1="43.64" y1="69.69" x2="43.64" y2="79.75"/><line class="cls-1" x1="43.64" x2="43.64" y2="10.07"/><line class="cls-1" x1="87.85" y1="40.19" x2="77.79" y2="40.19"/><line class="cls-1" x1="10.07" y1="40.19" y2="40.19"/><line class="cls-1" x1="18.62" y1="18.88" x2="11.5" y2="11.77"/><line class="cls-1" x1="72.2" y1="69.05" x2="65.08" y2="61.93"/><line class="cls-1" x1="11.96" y1="70.13" x2="19.08" y2="63.01"/><line class="cls-1" x1="67.56" y1="18.42" x2="74.68" y2="11.3"/><path class="cls-2" d="M18.63,88.67c-4.79,0-8.46-2.21-10.06-6.08A11.74,11.74,0,0,1,11,70.25a11.08,11.08,0,0,1,6.94-3.41,15.39,15.39,0,0,1-.41-6.08c.8-5.83,5.05-10.18,11.65-11.94A22.8,22.8,0,0,1,35,48a12,12,0,0,1,10,4.62,39.9,39.9,0,0,1,6.79-11c4.73-5.3,10.48-8.1,16.62-8.1,5,0,10.21,1.84,15.48,5.47a19.6,19.6,0,0,1,8.49,13.3,25.89,25.89,0,0,1-.75,11h.22A11.39,11.39,0,0,1,101,67.68c6,7.64.93,16.39-2.57,19.95a3.5,3.5,0,0,1-2.5,1Z"/><path class="cls-3" d="M68.4,37c4,0,8.5,1.41,13.5,4.85,11.56,7.95,6.65,22.68,3.37,27a12.54,12.54,0,0,1,6.59-2.08,7.83,7.83,0,0,1,6.39,3.11c5.66,7.24-2.31,15.34-2.31,15.34H18.63c-8.67,0-8.67-9-5.2-12.45A7.48,7.48,0,0,1,18.9,70.3a15.7,15.7,0,0,1,7,2.22C19.93,69,17,55.67,30,52.21a19.56,19.56,0,0,1,5-.74c5.3,0,9.54,3.21,10.76,13.87v0C45,58.4,52.84,37,68.4,37m0-7h0c-7.16,0-13.81,3.2-19.23,9.27a40.58,40.58,0,0,0-5.34,7.68A16.24,16.24,0,0,0,35,44.46a26.22,26.22,0,0,0-6.78,1C20.2,47.59,15,53,14,60.29a18.08,18.08,0,0,0-.1,3.91,15.37,15.37,0,0,0-5.44,3.57A15.37,15.37,0,0,0,5.34,83.93c2.14,5.16,7.1,8.24,13.29,8.24H95.94a7,7,0,0,0,5-2.09c4.25-4.32,10.31-15,2.84-24.56a14.81,14.81,0,0,0-7.92-5.29,28.34,28.34,0,0,0,0-8.57A23,23,0,0,0,85.87,36C80,32,74.12,30,68.4,30Z"/></g></g></svg>