<svg xmlns="http://www.w3.org/2000/svg" viewBox="0 0 41.17 41.17"><defs><style>.cls-1{fill:#17273a;}.cls-2{fill:#bf2626;}.cls-3{fill:none;stroke:#17273a;stroke-miterlimit:10;}</style></defs><title>enduse_kitchen_red_1</title><g id="Layer_2" data-name="Layer 2"><g id="Layer_4" data-name="Layer 4"><g id="End_Uses_copy" data-name="End Uses copy"><g id="Green"><g id="Current_copy" data-name="Current copy"><g id="Kitchen"><rect class="cls-1" width="41.17" height="41.17"/><path class="cls-2" d="M7.16,12.09c0,1.55-.18,6.5,1.93,6.56S11,16.58,11,12c0-2.11-.61-1.63-.58-.09.06,3.36,0,3.85-.52,3.83S9.3,15.11,9.21,12c-.06-2.29-.57-1.69-.54,0,.06,3.61-.22,3.67-.45,3.65s-.47-.15-.53-3.79C7.66,10.22,7.16,10,7.16,12.09Z"/><path class="cls-2" d="M7.91,17.49c.31.37.57.43.76,3.51.23,3.79-.32,9.39-.24,10.1s1.66,1,1.66,0-.53-6.37-.49-10.13c0-3,.12-2.85.65-3.47"/><path class="cls-2" d="M33.93,10.62c-.68,0-1,.51-1,3.82s.35,5,1,5.54.46,1.78.3,2.53-.25,8.07-.15,8.72a.56.56,0,1,0,1.12-.05c.1-.86,0-8.08,0-8.61C35.29,10.78,35.73,10.62,33.93,10.62Z"/><circle class="cls-2" cx="21.59" cy="21.46" r="8.9"/><circle class="cls-3" cx="21.59" cy="21.46" r="7.21"/></g></g></g></g></g></g></svg>