<svg xmlns="http://www.w3.org/2000/svg" viewBox="0 0 41.17 41.17"><defs><style>.cls-1{fill:#17273a;}.cls-2{fill:#bf2626;}</style></defs><title>enduse_plug_red</title><g id="Layer_2" data-name="Layer 2"><g id="Layer_4" data-name="Layer 4"><g id="End_Uses_copy" data-name="End Uses copy"><g id="Green"><g id="Current_copy" data-name="Current copy"><g id="Plugs"><rect class="cls-1" width="41.17" height="41.17"/><path class="cls-2" d="M16,16c2.17-1,7.45-.45,8.43,0,.67.31.69,5.6,0,8-.89,3.07-2.07,2.41-2.32,3.22a47.71,47.71,0,0,0-.74,6.82L20.44,34h-.86c.1-2.71-.69-6.54-1-6.79-.86-.74-1.46-.15-2.6-2.83C15.53,23.29,14.9,16.55,16,16Z"/><path class="cls-2" d="M16.61,17.23c.1-6.5,0-7.48.78-7.48s.66.51.66,6.55"/><path class="cls-2" d="M23.65,17.29c.05-3.4.25-7.61-.68-7.61s-.73.65-.73,6.48"/></g></g></g></g></g></g></svg>