<svg xmlns="http://www.w3.org/2000/svg" viewBox="0 0 41.17 41.17"><defs><style>.cls-1{fill:#17273a;}.cls-2{fill:none;stroke:#71c241;stroke-miterlimit:10;}.cls-3{fill:#71c241;}</style></defs><title>enduse_hvac_green</title><g id="Layer_2" data-name="Layer 2"><g id="Layer_4" data-name="Layer 4"><g id="End_Uses_copy" data-name="End Uses copy"><g id="Green"><g id="Current_copy" data-name="Current copy"><g id="HVAC"><rect class="cls-1" width="41.17" height="41.17"/><path class="cls-2" d="M21.85,20.5c0-4.16-.66-8.72,0-10.5s7.07-3.76,10.63,1,2.25,8.19.26,9.84C31.59,21.79,21.86,21.43,21.85,20.5Z"/><path class="cls-2" d="M20.85,20.77c-3.58,2.12-7.22,4.93-9.09,5.25S5,21.78,7.3,16.32s6-6,8.39-5.15C17.09,11.69,21.65,20.3,20.85,20.77Z"/><path class="cls-2" d="M21.7,21.63c3.63,2,7.88,3.79,9.09,5.25s-.27,8-6.17,8.71S16.41,33.45,16,30.91C15.71,29.43,20.89,21.18,21.7,21.63Z"/><circle class="cls-3" cx="21.77" cy="21.09" r="2.78"/></g></g></g></g></g></g></svg>