<svg xmlns="http://www.w3.org/2000/svg" viewBox="0 0 41.17 41.17"><defs><style>.cls-1{fill:#17273a;}.cls-2{fill:#a7bcb6;}</style></defs><title>enduse_ev</title><g id="Layer_2" data-name="Layer 2"><g id="Layer_4" data-name="Layer 4"><g id="End_Uses_copy" data-name="End Uses copy"><g id="Green"><g id="Current_copy" data-name="Current copy"><g id="EV"><rect class="cls-1" width="41.17" height="41.17"/><path class="cls-2" d="M32.22,20.14c-2.4-.34-4.56-5.93-6.05-6.5-2.3-.88-11.48-1.46-15.65,0S5.95,26.85,7.27,27.51a17.81,17.81,0,0,0,4.34.44,2.71,2.71,0,1,1,5.07.09c2.75,0,5.78,0,8.59-.08a2.71,2.71,0,1,1,5.14-.14c2.56-.09,4.48-.2,5.15-.31C38,27.11,36.24,20.71,32.22,20.14Z"/><circle class="cls-2" cx="14.13" cy="27.13" r="2.2"/><circle class="cls-2" cx="27.89" cy="27.13" r="2.2"/></g></g></g></g></g></g></svg>