<svg xmlns="http://www.w3.org/2000/svg" viewBox="0 0 41.17 41.17"><defs><style>.cls-1{fill:#282828;}.cls-2,.cls-3{fill:#5f6060;}.cls-3{stroke:#282828;stroke-miterlimit:10;}</style></defs><title>Car_off</title><g id="Layer_2" data-name="Layer 2"><g id="Assets"><g id="Icons"><rect class="cls-1" width="41.17" height="41.17"/><g id="Layer_2-2" data-name="Layer 2"><g id="time_temp" data-name="time temp"><path class="cls-2" d="M31.23,25.83H5.94s-.8-3.14,0-4,4.14-.8,4.14-.8.3-4.69,1.38-5.57c2.69-2.2,10.63-1.73,13.61,0,1.36.79,4.23,4.78,4.23,4.78s5.38-.42,6.53.8c.8.84,0,4.78,0,4.78Z"/><path class="cls-1" d="M21.7,20.68l5-.36S24.27,15.59,21.2,16C21.09,19.53,21.7,20.68,21.7,20.68Z"/><path class="cls-1" d="M19.36,15.84v4.88a28.12,28.12,0,0,1-6.83.5c-.3-3.88,1.46-5.34,1.46-5.34A14,14,0,0,1,19.36,15.84Z"/><circle class="cls-3" cx="11.99" cy="25.83" r="3.05"/><circle class="cls-3" cx="28.6" cy="25.83" r="3.05"/></g></g></g></g></g></svg>