<svg xmlns="http://www.w3.org/2000/svg" viewBox="0 0 42.17 42.17"><defs><style>.cls-1,.cls-3{fill:#282828;}.cls-1{stroke:#fbf2e1;}.cls-1,.cls-4{stroke-miterlimit:10;}.cls-2,.cls-4{fill:#fbf2e1;}.cls-4{stroke:#282828;}</style></defs><title>Car_on</title><g id="Layer_2" data-name="Layer 2"><g id="Assets"><g id="Icons"><rect class="cls-1" x="0.5" y="0.5" width="41.17" height="41.17"/><g id="Layer_2-2" data-name="Layer 2"><g id="time_temp" data-name="time temp"><path class="cls-2" d="M31.73,26.33H6.44s-.8-3.14,0-4,4.14-.8,4.14-.8S10.88,16.84,12,16c2.69-2.2,10.63-1.73,13.61,0,1.36.79,4.23,4.78,4.23,4.78s5.38-.42,6.53.8c.8.84,0,4.78,0,4.78Z"/><path class="cls-3" d="M22.2,21.18l5-.36s-2.43-4.73-5.5-4.32C21.59,20,22.2,21.18,22.2,21.18Z"/><path class="cls-3" d="M19.86,16.34v4.88a28.12,28.12,0,0,1-6.83.5c-.3-3.88,1.46-5.34,1.46-5.34A14,14,0,0,1,19.86,16.34Z"/><circle class="cls-4" cx="12.49" cy="26.33" r="3.05"/><circle class="cls-4" cx="29.1" cy="26.33" r="3.05"/></g></g></g></g></g></svg>