<svg xmlns="http://www.w3.org/2000/svg" viewBox="0 0 42.17 42.17"><defs><style>.cls-1{fill:#282828;stroke:#fbf2e1;stroke-miterlimit:10;}.cls-2{fill:#fbf2e1;}</style></defs><title>ev_on</title><g id="Layer_2" data-name="Layer 2"><g id="Assets"><g id="Icons"><g id="EV"><rect class="cls-1" x="0.5" y="0.5" width="41.17" height="41.17"/><path class="cls-2" d="M32.72,20.64c-2.4-.34-4.56-5.93-6.05-6.5-2.3-.88-11.48-1.46-15.65,0S6.45,27.35,7.77,28a17.81,17.81,0,0,0,4.34.44,2.71,2.71,0,1,1,5.07.09c2.75,0,5.78,0,8.59-.08a2.71,2.71,0,1,1,5.14-.14c2.56-.09,4.48-.2,5.15-.31C38.53,27.61,36.74,21.21,32.72,20.64Z"/><circle class="cls-2" cx="14.63" cy="27.63" r="2.2"/><circle class="cls-2" cx="28.39" cy="27.63" r="2.2"/></g></g></g></g></svg>