<svg xmlns="http://www.w3.org/2000/svg" viewBox="0 0 42.17 42.17"><defs><style>.cls-1{fill:#232323;}.cls-1,.cls-2{stroke:#5f6060;stroke-miterlimit:10;}.cls-2{fill:none;}.cls-3{fill:#5f6060;}</style></defs><title>hvac_off</title><g id="Layer_2" data-name="Layer 2"><g id="Assets"><g id="Icons"><g id="HVAC"><rect class="cls-1" x="0.5" y="0.5" width="41.17" height="41.17"/><path class="cls-2" d="M22.35,21c0-4.16-.66-8.72,0-10.5s7.07-3.76,10.63,1,2.25,8.19.26,9.84C32.09,22.29,22.36,21.93,22.35,21Z"/><path class="cls-2" d="M21.35,21.27c-3.58,2.12-7.22,4.93-9.09,5.25s-6.79-4.24-4.46-9.7,6-6,8.39-5.15C17.59,12.19,22.15,20.8,21.35,21.27Z"/><path class="cls-2" d="M22.2,22.13c3.63,2,7.88,3.79,9.09,5.25s-.27,8-6.17,8.71-8.22-2.15-8.65-4.69C16.21,29.93,21.39,21.68,22.2,22.13Z"/><circle class="cls-3" cx="22.27" cy="21.59" r="2.78"/></g></g></g></g></svg>