<svg xmlns="http://www.w3.org/2000/svg" viewBox="0 0 42.17 42.17"><defs><style>.cls-1{fill:#232323;stroke:#fbf2e1;}.cls-1,.cls-3{stroke-miterlimit:10;}.cls-2{fill:#fbf2e1;}.cls-3{fill:none;stroke:#262626;}</style></defs><title>kitchen_on</title><g id="Layer_2" data-name="Layer 2"><g id="Assets"><g id="Icons"><g id="Kitchen"><rect class="cls-1" x="0.5" y="0.5" width="41.17" height="41.17"/><path class="cls-2" d="M7.66,12.59c0,1.55-.18,6.5,1.93,6.56s1.94-2.07,1.87-6.7c0-2.11-.61-1.63-.58-.09.06,3.36,0,3.85-.52,3.83s-.56-.59-.64-3.65c-.06-2.29-.57-1.69-.54,0,.06,3.61-.22,3.67-.45,3.65s-.47-.15-.53-3.79C8.16,10.72,7.66,10.47,7.66,12.59Z"/><path class="cls-2" d="M8.41,18c.31.37.57.43.76,3.51.23,3.79-.32,9.39-.24,10.1s1.66,1,1.66,0-.53-6.37-.49-10.13c0-3,.12-2.85.65-3.47"/><path class="cls-2" d="M34.43,11.12c-.68,0-1,.51-1,3.82s.35,5,1,5.54.46,1.78.3,2.53-.25,8.07-.15,8.72a.56.56,0,1,0,1.12-.05c.1-.86,0-8.08,0-8.61C35.79,11.28,36.23,11.12,34.43,11.12Z"/><circle class="cls-2" cx="22.09" cy="21.96" r="8.9"/><circle class="cls-3" cx="22.09" cy="21.96" r="7.21"/></g></g></g></g></svg>