<svg xmlns="http://www.w3.org/2000/svg" viewBox="0 0 42.17 42.17"><defs><style>.cls-1{fill:#232323;stroke:#fbf2e1;stroke-miterlimit:10;}.cls-2{fill:#fbf2e1;}</style></defs><title>plugs_on</title><g id="Layer_2" data-name="Layer 2"><g id="Assets"><g id="Icons"><g id="Plugs"><rect class="cls-1" x="0.5" y="0.5" width="41.17" height="41.17"/><path class="cls-2" d="M16.49,16.54c2.17-1,7.45-.45,8.43,0,.67.31.69,5.6,0,8-.89,3.07-2.07,2.41-2.32,3.22a47.71,47.71,0,0,0-.74,6.82l-.93-.06h-.86c.1-2.71-.69-6.54-1-6.79-.86-.74-1.46-.15-2.6-2.83C16,23.79,15.4,17.05,16.49,16.54Z"/><path class="cls-2" d="M17.11,17.73c.1-6.5,0-7.48.78-7.48s.66.51.66,6.55"/><path class="cls-2" d="M24.15,17.79c.05-3.4.25-7.61-.68-7.61s-.73.65-.73,6.48"/></g></g></g></g></svg>