<svg xmlns="http://www.w3.org/2000/svg" xmlns:xlink="http://www.w3.org/1999/xlink" viewBox="0 0 60.42 38.79"><defs><style>.cls-1{fill:none;}.cls-2{clip-path:url(#clip-path);}.cls-3{fill:#e8a223;}.cls-4{fill:#fc3;}</style><clipPath id="clip-path" transform="translate(-3.75 -4.82)"><rect class="cls-1" width="66.73" height="45.75"/></clipPath></defs><title>logo_2</title><g id="Layer_2" data-name="Layer 2"><g id="Assets"><g id="Icons"><g id="WVED"><g class="cls-2"><polygon class="cls-3" points="60.42 23.7 41.83 9.22 37.06 15.27 55.68 29.77 60.42 23.7"/><polygon class="cls-4" points="48.44 0 36.73 15.05 45.67 22.01 48.44 0"/><polygon class="cls-4" points="48.66 38.79 60.42 23.7 51.44 16.71 48.66 38.79"/><path class="cls-4" d="M6.88,11.67h0l.32-5.06H8l-.5,6.54H6.69l-.82-2.81L5,13.16H4.29L3.75,6.61h.73l.34,5.06h0l1-3.25Z" transform="translate(-3.75 -4.82)"/><path class="cls-4" d="M12.76,7.18H10.07v2.3H12v.57H10.07v2.48h2.75v.57H9.39V6.61h3.37Z" transform="translate(-3.75 -4.82)"/><path class="cls-4" d="M17.21,7.78a2.23,2.23,0,0,0-1.4-.73,1,1,0,0,0-1,1c0,.34.06.65.94,1.18l.51.32c1.19.73,1.51,1.07,1.51,1.83a1.76,1.76,0,0,1-1.91,1.85,2.4,2.4,0,0,1-2-1.05l.52-.41a1.74,1.74,0,0,0,1.44.9A1.2,1.2,0,0,0,17,11.46c0-.52,0-.7-1.18-1.39l-.59-.35a1.91,1.91,0,0,1-1.2-1.63,1.6,1.6,0,0,1,1.75-1.6,2.71,2.71,0,0,1,1.78.81Z" transform="translate(-3.75 -4.82)"/><path class="cls-4" d="M22.91,7.18H21.07V13.1h-.67V7.18H18.58V6.61h4.33Z" transform="translate(-3.75 -4.82)"/><path class="cls-4" d="M7,16.61h.75L6.31,23.16H5.38L3.94,16.61h.74l1.17,5.5h0Z" transform="translate(-3.75 -4.82)"/><path class="cls-4" d="M12.06,17.18h-.88v5.35h.88v.57H9.63v-.57h.87V17.18H9.63v-.57h2.43Z" transform="translate(-3.75 -4.82)"/><path class="cls-4" d="M15.16,22.53H18v.57H14.49V16.61h.68Z" transform="translate(-3.75 -4.82)"/><path class="cls-4" d="M20.11,22.53h2.81v.57H19.44V16.61h.67Z" transform="translate(-3.75 -4.82)"/><path class="cls-4" d="M28,23.1h-.73l-.58-1.91h-2l-.58,1.91h-.73l2.29-7Zm-3.11-2.48h1.65L25.7,18Z" transform="translate(-3.75 -4.82)"/><path class="cls-4" d="M30.53,20.42v-.57h2.21v3.37h-.68v-.63a1.74,1.74,0,0,1-1.36.63c-.52,0-2-.09-2-3.22,0-2.57.78-3.51,2-3.51a1.59,1.59,0,0,1,1.63,1.78h-.67c.05-.59-.23-1.22-.92-1.22-1.35,0-1.4,1.88-1.4,2.84s0,2.75,1.31,2.75c.63,0,1.32-.5,1.32-1.8v-.43Z" transform="translate(-3.75 -4.82)"/><path class="cls-4" d="M37.51,17.18H34.82v2.3h1.94v.57H34.82v2.48h2.75v.57H34.14V16.61h3.37Z" transform="translate(-3.75 -4.82)"/><path class="cls-4" d="M7.81,27.18H5.12v2.3H7.06v.57H5.12v2.48H7.87v.57H4.44V26.61H7.81Z" transform="translate(-3.75 -4.82)"/><path class="cls-4" d="M9.18,26.61H10l2,4.84h0V26.61h.67v6.54H12L9.87,27.93l0,0V33.1H9.18Z" transform="translate(-3.75 -4.82)"/><path class="cls-4" d="M17.71,27.18H15v2.3H17v.57H15v2.48h2.75v.57H14.34V26.61h3.37Z" transform="translate(-3.75 -4.82)"/><path class="cls-4" d="M19.22,26.61h1.68a1.71,1.71,0,0,1,1.76,1.84,1.94,1.94,0,0,1-1.15,1.79l1.75,2.85h-.82l-1.58-2.7-1,0V33.1h-.68Zm1.31,3.22A1.29,1.29,0,0,0,22,28.41c0-.86-.36-1.23-1.43-1.23H19.9v2.66Z" transform="translate(-3.75 -4.82)"/><path class="cls-4" d="M25.58,30.42v-.57h2.21v3.37h-.67v-.63a1.74,1.74,0,0,1-1.36.63c-.52,0-2-.09-2-3.22,0-2.57.78-3.51,2-3.51a1.59,1.59,0,0,1,1.63,1.78h-.67c.05-.59-.23-1.22-.92-1.22-1.35,0-1.4,1.88-1.4,2.84s0,2.75,1.31,2.75c.63,0,1.32-.5,1.32-1.8v-.43Z" transform="translate(-3.75 -4.82)"/><path class="cls-4" d="M31.72,26.61h.75l-1.66,3.74V33.1h-.67V30.36l-1.66-3.74h.75l1.25,2.93Z" transform="translate(-3.75 -4.82)"/><path class="cls-4" d="M4.2,36.61H5.85c1.25,0,2.09.71,2.09,3.24S7.16,43.1,5.75,43.1H4.2Zm.68,5.91h.83c.94,0,1.56-.26,1.56-2.67s-.71-2.67-1.58-2.67H4.88Z" transform="translate(-3.75 -4.82)"/><path class="cls-4" d="M13.15,43.1h-.73l-.58-1.91h-2L9.3,43.1H8.57l2.29-7ZM10,40.62h1.65L10.85,38Z" transform="translate(-3.75 -4.82)"/><path class="cls-4" d="M17.21,37.78a2.23,2.23,0,0,0-1.4-.73,1,1,0,0,0-1,1c0,.34.06.65.94,1.18l.51.32c1.19.73,1.51,1.07,1.51,1.83a1.76,1.76,0,0,1-1.91,1.85,2.4,2.4,0,0,1-2-1.05l.52-.41a1.74,1.74,0,0,0,1.44.9A1.2,1.2,0,0,0,17,41.46c0-.52,0-.7-1.18-1.39l-.59-.35a1.91,1.91,0,0,1-1.2-1.63,1.6,1.6,0,0,1,1.75-1.6,2.71,2.71,0,0,1,1.78.81Z" transform="translate(-3.75 -4.82)"/><path class="cls-4" d="M19.62,39.45h2.25V36.61h.67V43.1h-.67V40H19.62V43.1h-.67V36.61h.67Z" transform="translate(-3.75 -4.82)"/><path class="cls-4" d="M24,43.1V36.61h1.36c.75,0,2,.09,2,1.64a1.55,1.55,0,0,1-.86,1.4,1.79,1.79,0,0,1-.68,3.45Zm.68-3.66h.78a1.23,1.23,0,0,0,1.26-1.21c0-1.07-.9-1-1.31-1h-.73Zm1.13,3.09A1.11,1.11,0,0,0,27,41.37,1.32,1.32,0,0,0,25.49,40h-.85v2.52Z" transform="translate(-3.75 -4.82)"/><path class="cls-4" d="M30.64,36.49c1.89,0,2,2.16,2,3.37,0,.86.06,3.37-2,3.37s-2-2.45-2-3.37C28.65,37.14,29.55,36.49,30.64,36.49ZM32,39.85c0-.59.09-2.8-1.31-2.8s-1.31,2.42-1.31,2.8c0,.74,0,2.8,1.31,2.8C31.32,42.65,32,42.2,32,39.85Z" transform="translate(-3.75 -4.82)"/><path class="cls-4" d="M37.9,43.1h-.73l-.58-1.91h-2L34,43.1h-.73l2.29-7Zm-3.11-2.48h1.65L35.6,38Z" transform="translate(-3.75 -4.82)"/><path class="cls-4" d="M39,36.61h1.68a1.71,1.71,0,0,1,1.76,1.84,1.94,1.94,0,0,1-1.15,1.79l1.75,2.85h-.82l-1.58-2.7-1,0V43.1H39Zm1.31,3.22a1.29,1.29,0,0,0,1.46-1.42c0-.86-.36-1.23-1.43-1.23H39.7v2.66Z" transform="translate(-3.75 -4.82)"/><path class="cls-4" d="M43.8,36.61h1.65c1.25,0,2.09.71,2.09,3.24s-.77,3.24-2.19,3.24H43.8Zm.67,5.91h.83c.94,0,1.56-.26,1.56-2.67s-.71-2.67-1.58-2.67h-.81Z" transform="translate(-3.75 -4.82)"/></g></g></g></g></g></svg>