<?xml version="1.0" encoding="utf-8"?>
<!-- Generator: Adobe Illustrator 21.0.1, SVG Export Plug-In . SVG Version: 6.00 Build 0)  -->
<svg version="1.1" id="Layer_1" xmlns="http://www.w3.org/2000/svg" xmlns:xlink="http://www.w3.org/1999/xlink" x="0px" y="0px"
	 viewBox="0 0 74.9 42.9" style="enable-background:new 0 0 74.9 42.9;" xml:space="preserve">
<style type="text/css">
	.st0{fill:#E8A223;}
	.st1{fill:#FFCC33;}
	.st2{enable-background:new    ;}
</style>
<g>
	<polygon class="st0" points="61,24.1 42.4,9.6 37.6,15.7 56.2,30.2 	"/>
	<polygon class="st1" points="49,0.4 37.3,15.4 46.2,22.4 	"/>
	<polygon class="st1" points="49.2,39.2 61,24.1 52,17.1 	"/>
</g>
<g class="st2">
	<path class="st0" d="M3.7,7.3L3.7,7.3L4,2.3h0.7L4.3,8.8H3.5L2.7,6L1.8,8.8H1.1L0.6,2.3h0.7l0.3,5.1h0l1-3.2L3.7,7.3z"/>
	<path class="st0" d="M9.6,2.9H6.9v2.3h1.9v0.6H6.9v2.5h2.8v0.6H6.2V2.3h3.4V2.9z"/>
	<path class="st0" d="M14,3.5c-0.4-0.4-0.8-0.7-1.4-0.7c-0.6,0-1,0.4-1,1c0,0.3,0.1,0.6,0.9,1.2L13,5.2c1.2,0.7,1.5,1.1,1.5,1.8
		c0,1.2-0.8,1.9-1.9,1.9c-0.8,0-1.5-0.4-2-1.1l0.5-0.4c0.3,0.5,0.8,0.9,1.4,0.9c0.7,0,1.2-0.5,1.2-1.2c0-0.5,0-0.7-1.2-1.4l-0.6-0.4
		c-0.6-0.4-1.2-0.8-1.2-1.6c0-1,0.8-1.6,1.7-1.6c0.7,0,1.3,0.4,1.8,0.8L14,3.5z"/>
	<path class="st0" d="M19.7,2.9h-1.8v5.9h-0.7V2.9h-1.8V2.3h4.3V2.9z"/>
</g>
<g class="st2">
	<path class="st0" d="M3.8,12.3h0.7l-1.5,6.5H2.2l-1.4-6.5h0.7l1.2,5.5h0L3.8,12.3z"/>
	<path class="st0" d="M8.9,12.9H8v5.3h0.9v0.6H6.4v-0.6h0.9v-5.3H6.4v-0.6h2.4V12.9z"/>
	<path class="st0" d="M12,18.2h2.8v0.6h-3.5v-6.5H12V18.2z"/>
	<path class="st0" d="M16.9,18.2h2.8v0.6h-3.5v-6.5h0.7V18.2z"/>
	<path class="st0" d="M24.8,18.8h-0.7l-0.6-1.9h-2L21,18.8h-0.7l2.3-7L24.8,18.8z M21.7,16.3h1.6l-0.8-2.6L21.7,16.3z"/>
	<path class="st0" d="M27.3,16.1v-0.6h2.2v3.4h-0.7v-0.6c-0.3,0.4-0.8,0.6-1.4,0.6c-0.5,0-2-0.1-2-3.2c0-2.6,0.8-3.5,2-3.5
		c1.1,0,1.6,0.8,1.6,1.8h-0.7c0.1-0.6-0.2-1.2-0.9-1.2c-1.4,0-1.4,1.9-1.4,2.8c0,0.9,0,2.8,1.3,2.8c0.6,0,1.3-0.5,1.3-1.8v-0.4H27.3
		z"/>
	<path class="st0" d="M34.3,12.9h-2.7v2.3h1.9v0.6h-1.9v2.5h2.8v0.6H31v-6.5h3.4V12.9z"/>
</g>
<g class="st2">
	<path class="st0" d="M4.6,22.9H1.9v2.3h1.9v0.6H1.9v2.5h2.8v0.6H1.3v-6.5h3.4V22.9z"/>
	<path class="st0" d="M6,22.3h0.8l2,4.8h0v-4.8h0.7v6.5H8.8l-2.1-5.2l0,0v5.1H6V22.3z"/>
	<path class="st0" d="M14.5,22.9h-2.7v2.3h1.9v0.6h-1.9v2.5h2.8v0.6h-3.4v-6.5h3.4V22.9z"/>
	<path class="st0" d="M16,22.3h1.7c1.6,0,1.8,1.5,1.8,1.8c0,0.7-0.3,1.3-1.2,1.8l1.7,2.9h-0.8l-1.6-2.7c-0.3,0-0.6,0-1,0v2.7H16
		V22.3z M17.3,25.5c0.9,0,1.5-0.5,1.5-1.4c0-0.9-0.4-1.2-1.4-1.2h-0.7v2.7H17.3z"/>
	<path class="st0" d="M22.4,26.1v-0.6h2.2v3.4h-0.7v-0.6c-0.3,0.4-0.8,0.6-1.4,0.6c-0.5,0-2-0.1-2-3.2c0-2.6,0.8-3.5,2-3.5
		c1.1,0,1.6,0.8,1.6,1.8h-0.7c0.1-0.6-0.2-1.2-0.9-1.2c-1.4,0-1.4,1.9-1.4,2.8c0,0.9,0,2.8,1.3,2.8c0.6,0,1.3-0.5,1.3-1.8v-0.4H22.4
		z"/>
	<path class="st0" d="M28.5,22.3h0.7L27.6,26v2.7h-0.7V26l-1.7-3.7H26l1.3,2.9L28.5,22.3z"/>
</g>
<g class="st2">
	<path class="st0" d="M1,32.3h1.6c1.3,0,2.1,0.7,2.1,3.2c0,2.5-0.8,3.2-2.2,3.2H1V32.3z M1.7,38.2h0.8c0.9,0,1.6-0.3,1.6-2.7
		c0-2.5-0.7-2.7-1.6-2.7H1.7V38.2z"/>
	<path class="st0" d="M10,38.8H9.2l-0.6-1.9h-2l-0.6,1.9H5.4l2.3-7L10,38.8z M6.8,36.3h1.6l-0.8-2.6L6.8,36.3z"/>
	<path class="st0" d="M14,33.5c-0.4-0.4-0.8-0.7-1.4-0.7c-0.6,0-1,0.4-1,1c0,0.3,0.1,0.6,0.9,1.2l0.5,0.3c1.2,0.7,1.5,1.1,1.5,1.8
		c0,1.2-0.8,1.9-1.9,1.9c-0.8,0-1.5-0.4-2-1.1l0.5-0.4c0.3,0.5,0.8,0.9,1.4,0.9c0.7,0,1.2-0.5,1.2-1.2c0-0.5,0-0.7-1.2-1.4l-0.6-0.4
		c-0.6-0.4-1.2-0.8-1.2-1.6c0-1,0.8-1.6,1.7-1.6c0.7,0,1.3,0.4,1.8,0.8L14,33.5z"/>
	<path class="st0" d="M16.4,35.1h2.3v-2.8h0.7v6.5h-0.7v-3.1h-2.3v3.1h-0.7v-6.5h0.7V35.1z"/>
	<path class="st0" d="M20.8,38.8v-6.5h1.4c0.7,0,2,0.1,2,1.6c0,0.6-0.3,1.1-0.9,1.4c0.7,0.4,1.1,0.8,1.1,1.7c0,0.9-0.7,1.8-1.8,1.8
		H20.8z M21.4,35.1h0.8c0.6,0,1.3-0.4,1.3-1.2c0-1.1-0.9-1-1.3-1h-0.7V35.1z M22.6,38.2c0.6,0,1.2-0.4,1.2-1.2
		c0-0.7-0.4-1.4-1.5-1.4h-0.8v2.5H22.6z"/>
	<path class="st0" d="M27.5,32.2c1.9,0,2,2.2,2,3.4c0,0.9,0.1,3.4-2,3.4c-2,0-2-2.4-2-3.4C25.5,32.8,26.4,32.2,27.5,32.2z
		 M28.8,35.5c0-0.6,0.1-2.8-1.3-2.8c-1.4,0-1.3,2.4-1.3,2.8c0,0.7,0,2.8,1.3,2.8C28.1,38.3,28.8,37.9,28.8,35.5z"/>
	<path class="st0" d="M34.7,38.8H34l-0.6-1.9h-2l-0.6,1.9h-0.7l2.3-7L34.7,38.8z M31.6,36.3h1.6l-0.8-2.6L31.6,36.3z"/>
	<path class="st0" d="M35.8,32.3h1.7c1.6,0,1.8,1.5,1.8,1.8c0,0.7-0.3,1.3-1.2,1.8l1.7,2.9h-0.8l-1.6-2.7c-0.3,0-0.6,0-1,0v2.7h-0.7
		V32.3z M37.1,35.5c0.9,0,1.5-0.5,1.5-1.4c0-0.9-0.4-1.2-1.4-1.2h-0.7v2.7H37.1z"/>
	<path class="st0" d="M40.6,32.3h1.6c1.3,0,2.1,0.7,2.1,3.2c0,2.5-0.8,3.2-2.2,3.2h-1.5V32.3z M41.3,38.2h0.8c0.9,0,1.6-0.3,1.6-2.7
		c0-2.5-0.7-2.7-1.6-2.7h-0.8V38.2z"/>
</g>
</svg>
