<svg xmlns="http://www.w3.org/2000/svg" viewBox="0 0 207.81 52.82" preserveAspectRatio="none"><defs><style>.cls-1{fill:#5f6060;}.cls-2{fill:#383838;}.cls-3{fill:#6d4b51;}</style></defs><title>title_board</title><g id="Layer_2" data-name="Layer 2"><g id="Assets"><polygon class="cls-1" points="207.81 52.81 0 52.51 3.25 0 203.71 0.62 207.81 52.81"/><polygon class="cls-2" points="3.25 0 11.21 10.93 9.41 41.31 192.79 46.22 207.81 52.81 0 52.51 3.25 0"/><circle class="cls-3" cx="7.54" cy="5.87" r="3.11" transform="translate(-0.09 11.62) rotate(-74.92)"/><circle class="cls-3" cx="6.24" cy="17.12" r="3.01" transform="translate(-11.92 18.69) rotate(-74.92)"/><circle class="cls-3" cx="15.26" cy="5.47" r="3.01" transform="translate(6.01 18.78) rotate(-74.92)"/><circle class="cls-3" cx="5.41" cy="26.58" r="3.01" transform="translate(-21.65 24.89) rotate(-74.92)"/><circle class="cls-3" cx="5.32" cy="36.81" r="2.95" transform="translate(-31.61 32.37) rotate(-74.92)"/><circle class="cls-3" cx="4.52" cy="47.27" r="2.95" transform="translate(-42.3 39.33) rotate(-74.92)"/><circle class="cls-3" cx="13.13" cy="47.88" r="2.95" transform="translate(-36.52 48.1) rotate(-74.92)"/><circle class="cls-3" cx="21.09" cy="47.66" r="2.95" transform="translate(-28.4 64.03) rotate(-84.43)"/><circle class="cls-3" cx="30.54" cy="47.77" r="2.95" transform="translate(-19.96 73.53) rotate(-84.43)"/><circle class="cls-3" cx="39.23" cy="47.63" r="2.95" transform="translate(-11.99 82.05) rotate(-84.43)"/><circle class="cls-3" cx="48.83" cy="48.25" r="2.95" transform="translate(-3.93 92.17) rotate(-84.43)"/><circle class="cls-3" cx="57.13" cy="48.48" r="2.95" transform="matrix(0.1, -1, 1, 0.1, 3.33, 100.64)"/><circle class="cls-3" cx="72.79" cy="48.02" r="2.95" transform="translate(17.93 115.81) rotate(-84.43)"/><circle class="cls-3" cx="65.11" cy="48.1" r="2.95" transform="translate(10.92 108.23) rotate(-84.43)"/><circle class="cls-3" cx="82.68" cy="48.07" r="3.11" transform="translate(26.82 125.69) rotate(-84.43)"/><circle class="cls-3" cx="91.29" cy="48.41" r="3.11" transform="translate(20.8 123.96) rotate(-74.92)"/><circle class="cls-3" cx="101.53" cy="48.32" r="3.01" transform="translate(28.45 133.78) rotate(-74.92)"/><circle class="cls-3" cx="111.51" cy="47.89" r="3.01" transform="translate(36.25 143.1) rotate(-74.92)"/><circle class="cls-3" cx="121.25" cy="48.9" r="3.01" transform="translate(42.48 153.24) rotate(-74.92)"/><circle class="cls-3" cx="130.58" cy="48.29" r="3.11" transform="matrix(0.1, -1, 1, 0.1, 69.85, 173.57)"/><circle class="cls-3" cx="139.74" cy="48.7" r="3.11" transform="translate(77.71 183.05) rotate(-84.43)"/><circle class="cls-3" cx="149.23" cy="48.88" r="3.11" transform="translate(86.09 192.65) rotate(-84.43)"/><circle class="cls-3" cx="158.19" cy="48.93" r="3.11" transform="translate(-4.92 77.42) rotate(-27.09)"/><circle class="cls-3" cx="166.78" cy="48.78" r="3.11" transform="translate(-3.92 81.31) rotate(-27.09)"/><circle class="cls-3" cx="176.1" cy="48.81" r="3.11" transform="translate(-2.91 85.57) rotate(-27.09)"/><circle class="cls-3" cx="185.26" cy="49.05" r="3.11" transform="translate(-2.01 89.76) rotate(-27.09)"/><circle class="cls-3" cx="193.34" cy="48.58" r="3.11" transform="translate(-0.91 93.39) rotate(-27.09)"/><circle class="cls-3" cx="23.26" cy="4.35" r="3.11" transform="translate(13.01 25.67) rotate(-74.92)"/><circle class="cls-3" cx="31.91" cy="5.07" r="3.11" transform="translate(18.71 34.56) rotate(-74.92)"/><circle class="cls-3" cx="41.43" cy="5.42" r="3.26" transform="translate(25.41 44.01) rotate(-74.92)"/><circle class="cls-3" cx="51.29" cy="5.86" r="3.26" transform="translate(32.29 53.86) rotate(-74.92)"/><circle class="cls-3" cx="61.71" cy="5.61" r="3.34" transform="translate(40.23 63.73) rotate(-74.92)"/><circle class="cls-3" cx="72.42" cy="6.27" r="3.44" transform="translate(47.52 74.57) rotate(-74.92)"/><circle class="cls-3" cx="82.45" cy="6.27" r="3.55" transform="translate(54.94 84.25) rotate(-74.92)"/><circle class="cls-3" cx="93.23" cy="6.47" r="3.55" transform="translate(62.72 94.81) rotate(-74.92)"/><circle class="cls-3" cx="103.85" cy="5.66" r="3.55" transform="translate(-0.1 9.09) rotate(-5.01)"/><circle class="cls-3" cx="114.25" cy="5.69" r="3.55" transform="translate(34.99 88.16) rotate(-48.99)"/><circle class="cls-3" cx="124.75" cy="5.34" r="3.55" transform="translate(38.86 95.96) rotate(-48.99)"/><circle class="cls-3" cx="134.69" cy="5.76" r="3.55" transform="translate(127.25 140.37) rotate(-89.29)"/><circle class="cls-3" cx="144.43" cy="6.32" r="3.55" transform="translate(136.32 150.66) rotate(-89.29)"/><circle class="cls-3" cx="154.58" cy="6.01" r="3.55" transform="translate(146.64 160.5) rotate(-89.29)"/><circle class="cls-3" cx="164.43" cy="6.14" r="3.55" transform="translate(156.25 170.48) rotate(-89.29)"/><circle class="cls-3" cx="173.31" cy="6.25" r="3.55" transform="translate(164.91 179.47) rotate(-89.29)"/><circle class="cls-3" cx="182.06" cy="5.72" r="3.55" transform="translate(174.07 187.7) rotate(-89.29)"/><circle class="cls-3" cx="191.17" cy="6.56" r="3.55" transform="translate(182.23 197.63) rotate(-89.29)"/><circle class="cls-3" cx="199.86" cy="6.84" r="3.55" transform="translate(190.53 206.6) rotate(-89.29)"/><circle class="cls-3" cx="199.81" cy="16.8" r="3.55" transform="translate(180.53 216.39) rotate(-89.29)"/><circle class="cls-3" cx="200.62" cy="26.67" r="3.44" transform="translate(-1.4 38.91) rotate(-11.04)"/><circle class="cls-3" cx="201.02" cy="37.62" r="3.27" transform="translate(-3.48 39.19) rotate(-11.04)"/><circle class="cls-3" cx="202.07" cy="47.71" r="3.11" transform="translate(-5.4 39.58) rotate(-11.04)"/></g></g></svg>