<svg xmlns="http://www.w3.org/2000/svg" xmlns:xlink="http://www.w3.org/1999/xlink" viewBox="0 0 1007.5 569.5"><defs><style>.cls-1{fill:url(#linear-gradient);}.cls-2{fill:#1e1e1e;}.cls-3{fill:#dddabf;}.cls-10,.cls-11,.cls-14,.cls-16,.cls-19,.cls-20,.cls-24,.cls-26,.cls-3{stroke:#231f20;}.cls-10,.cls-3,.cls-4{stroke-linecap:square;}.cls-10,.cls-11,.cls-12,.cls-13,.cls-14,.cls-15,.cls-16,.cls-17,.cls-18,.cls-19,.cls-20,.cls-21,.cls-24,.cls-25,.cls-26,.cls-28,.cls-3,.cls-30,.cls-4,.cls-5,.cls-8,.cls-9{stroke-miterlimit:10;}.cls-10,.cls-11,.cls-12,.cls-14,.cls-15,.cls-20,.cls-3,.cls-4,.cls-8,.cls-9{stroke-width:4px;}.cls-11,.cls-19,.cls-25,.cls-4,.cls-5{fill:none;}.cls-12,.cls-13,.cls-15,.cls-17,.cls-18,.cls-4,.cls-8,.cls-9{stroke:#000;}.cls-5{stroke:#2a2e3c;stroke-width:6px;}.cls-6{clip-path:url(#clip-path);}.cls-7{fill:url(#linear-gradient-3);}.cls-8{fill:#f4dfb5;}.cls-9{fill:#e8c77f;}.cls-10{fill:#ab463e;}.cls-12{fill:#e2b646;}.cls-13{fill:#d7dadd;}.cls-13,.cls-26,.cls-28,.cls-29{stroke-width:3px;}.cls-14{fill:#ca5647;}.cls-15{fill:#c99e41;}.cls-16{fill:#2e3c19;}.cls-16,.cls-17,.cls-18,.cls-19,.cls-24,.cls-35,.cls-36{stroke-width:2px;}.cls-17{fill:#697780;}.cls-18,.cls-30{fill:#8fa6ac;}.cls-20,.cls-21,.cls-23,.cls-26{fill:#fff;}.cls-21,.cls-25,.cls-30{stroke:#fff;}.cls-22,.cls-24{fill:#231f20;}.cls-27{fill:#96c9ed;}.cls-28,.cls-29,.cls-32,.cls-34,.cls-36,.cls-38{fill:#90a165;stroke:#484f33;}.cls-29,.cls-31,.cls-32,.cls-33,.cls-34,.cls-35,.cls-36,.cls-37,.cls-38{stroke-linejoin:round;}.cls-30{stroke-width:7px;}.cls-31,.cls-33,.cls-35,.cls-37{fill:#484f33;stroke:#af8f4d;}.cls-33,.cls-34{stroke-width:1.25px;}.cls-37,.cls-38{stroke-width:1.5px;}</style><linearGradient id="linear-gradient" x1="7.79" y1="442.11" x2="998.27" y2="442.11" gradientUnits="userSpaceOnUse"><stop offset="0" stop-color="#1e1e1e"/><stop offset="0.23" stop-color="#21221f"/><stop offset="0.44" stop-color="#292d22"/><stop offset="0.64" stop-color="#363f26"/><stop offset="0.83" stop-color="#49592d"/><stop offset="1" stop-color="#5e7634"/></linearGradient><clipPath id="clip-path"><polyline class="cls-1" points="998.27 526.2 998.27 466.82 998.27 427.43 641.39 346.71 267.66 346.71 7.98 426.95 7.79 537.51"/></clipPath><linearGradient id="linear-gradient-3" x1="-3.75" y1="-3.22" x2="-2.69" y2="-3.22" gradientTransform="matrix(0, -178.99, -178.99, 0, -73.85, -134.54)" xlink:href="#linear-gradient"/></defs><title>Asset 5</title><g id="Layer_2" data-name="Layer 2"><g id="green_concrete" data-name="green&amp;concrete"><g id="background"><rect class="cls-2" width="1007.5" height="569.5"/></g><polyline class="cls-3" points="9.32 344.87 236.49 344.87 9.32 404.6"/><polyline class="cls-4" points="9.32 424.2 264.6 344.87 632 344.87 982.84 424.68"/><line class="cls-5" x1="9.13" y1="331.11" x2="9.2" y2="355.94"/><polyline class="cls-1" points="998.27 526.2 998.27 466.82 998.27 427.43 641.39 346.71 267.66 346.71 7.98 426.95 7.79 537.51"/><g class="cls-6"><rect class="cls-7" x="7.79" y="346.71" width="990.48" height="190.8"/></g></g><g id="buildings"><rect class="cls-8" x="180.17" y="250.29" width="159.62" height="85.04"/><polygon class="cls-9" points="70.86 369.96 184.8 344.87 184.8 230.25 174.82 189.46 70.86 196.2 70.86 369.96"/><polyline class="cls-10" points="9.32 381.93 70.86 369.96 70.86 196.2 58.3 159.13 9.13 170.2"/><line class="cls-11" x1="184.8" y1="335.33" x2="687.71" y2="335.33"/><path class="cls-12" d="M331.09,335.33s0-87.26,10-175.6c12.76-1.7,34.8-4,34.8-4s9,97,8.71,179.61H331.09"/><path class="cls-13" d="M341.13,159.73s-4.29,44.32-4.58,48.06l43.38-.06s-3.5-49.34-4-52C355.89,157.93,341.13,159.73,341.13,159.73Z"/><rect class="cls-14" x="416.08" y="234.36" width="316.22" height="100.98"/><path class="cls-3" d="M998.27,331.26l-300.71-.92-23.65,15.83L556.47,344.9S851.15,360,998.27,474"/><g id="Layer_4" data-name="Layer 4"><polyline class="cls-9" points="966.29 361.1 776.47 339.35 776.47 208.86 788.06 179.4 845.79 192.43 862.38 156.96 966.29 163.88"/><polyline class="cls-10" points="998.27 144.65 966.29 163.88 966.29 361.1 998.27 364.38"/></g><path class="cls-15" d="M344,328.93a1577.69,1577.69,0,0,1,10-159.88c12.76-1.7,34.8-4,34.8-4s8.95,87.43,8.7,170.08H344Z"/><path class="cls-12" d="M331,335.12s0-87.26,10-175.6c12.76-1.7,34.8-4,34.8-4s9,97,8.71,179.61H331"/><path class="cls-13" d="M364.87,167.91s-3.07,31.72-3.28,34.39l31,0S390.14,167,389.78,165C375.44,166.62,364.87,167.91,364.87,167.91Z"/><path class="cls-13" d="M341.08,159.52s-4.29,44.32-4.58,48.06l43.38-.06s-3.5-49.34-4-52C355.85,157.72,341.08,159.52,341.08,159.52Z"/></g><g id="windows"><rect class="cls-16" x="282.7" y="314.67" width="35.49" height="20.67"/><rect class="cls-16" x="444.28" y="314.67" width="35.49" height="20.67"/><rect class="cls-16" x="501.51" y="314.67" width="35.49" height="20.67"/><rect class="cls-16" x="556.47" y="314.67" width="35.49" height="20.67"/><rect class="cls-16" x="612.56" y="314.67" width="35.49" height="20.67"/><polygon class="cls-16" points="697.17 331.4 705.97 331.43 705.97 314.67 670.49 314.67 670.49 335.33 691.38 335.33 697.17 331.4"/><rect class="cls-16" x="229.54" y="314.67" width="35.49" height="20.67"/><rect class="cls-16" x="185.85" y="314.67" width="31.19" height="20.67"/><polygon class="cls-16" points="172.14 347.66 172.14 324.04 141.02 327.79 141.02 354.51 172.14 347.66"/><polygon class="cls-16" points="127.83 357.42 127.83 328.95 92.83 332.27 92.83 365.13 127.83 357.42"/><polygon class="cls-16" points="790.13 341.64 790.13 316.97 821.05 318.62 821.05 345.96 790.13 341.64"/><polygon class="cls-16" points="833.07 345.53 833.07 319.26 863.99 320.91 863.99 349.38 833.07 345.53"/><polygon class="cls-16" points="877.06 350.98 877.06 321.6 907.98 323.25 907.98 354.42 877.06 350.98"/><polygon class="cls-16" points="919.83 355.77 919.83 323.88 950.75 325.53 950.75 359.32 919.83 355.77"/><polygon class="cls-17" points="790.14 288.27 790.14 304.21 804.17 304.49 804.17 287.97 790.14 288.27"/><polygon class="cls-18" points="804.17 287.97 804.17 304.49 818.19 304.77 818.19 287.67 804.17 287.97"/><polygon class="cls-17" points="790.14 258.12 790.14 273.84 804.17 273.01 804.17 256.55 790.14 258.12"/><polygon class="cls-18" points="804.17 256.55 804.17 273.01 818.19 272.18 818.19 255.14 804.17 256.55"/><polygon class="cls-17" points="92.74 287.06 92.74 309.21 108.41 308.6 108.41 287.52 92.74 287.06"/><polygon class="cls-18" points="108.41 287.52 108.41 308.6 124.07 307.99 124.07 287.98 108.41 287.52"/><polygon class="cls-17" points="92.74 253.5 92.74 272.73 108.41 274.05 108.41 255.29 92.74 253.5"/><polygon class="cls-18" points="108.41 255.29 108.41 274.05 124.07 275.19 124.07 257.38 108.41 255.29"/><polygon class="cls-17" points="93.61 220.23 93.61 239.84 108.41 242.58 108.41 223.73 93.61 220.23"/><polygon class="cls-18" points="108.41 223.73 108.41 242.58 124.07 245.31 124.07 227.42 108.41 223.73"/><polygon class="cls-17" points="140.81 288.46 140.81 307.33 156.47 306.72 156.47 288.92 140.81 288.46"/><polygon class="cls-18" points="156.47 288.92 156.47 306.72 172.14 306.11 172.14 289.37 156.47 288.92"/><polygon class="cls-17" points="140.81 259.61 140.81 276.4 156.47 277.54 156.47 261.7 140.81 259.61"/><polygon class="cls-18" points="156.47 261.7 156.47 277.54 172.14 278.68 172.14 263.79 156.47 261.7"/><polygon class="cls-17" points="140.81 231.4 140.81 248.23 156.47 250.96 156.47 235.05 140.81 231.4"/><polygon class="cls-18" points="156.47 235.05 156.47 250.96 172.14 253.7 172.14 238.74 156.47 235.05"/><polygon class="cls-17" points="790.13 227.41 790.13 243.22 804.15 241.27 804.15 224.88 790.13 227.41"/><polygon class="cls-18" points="804.15 224.88 804.15 241.27 818.18 239.32 818.18 222.35 804.15 224.88"/><polygon class="cls-17" points="834.63 287.31 834.63 305.1 848.66 305.38 848.66 287.01 834.63 287.31"/><polygon class="cls-18" points="848.66 287.01 848.66 305.38 862.68 305.67 862.68 286.71 848.66 287.01"/><polygon class="cls-17" points="834.63 253.49 834.63 271.21 848.66 270.38 848.66 252.08 834.63 253.49"/><polygon class="cls-18" points="848.66 252.08 848.66 270.38 862.68 269.55 862.68 250.67 848.66 252.08"/><polygon class="cls-17" points="834.62 219.39 834.62 237.03 848.65 235.09 848.65 216.86 834.62 219.39"/><polygon class="cls-18" points="848.65 216.86 848.65 235.09 862.67 233.14 862.67 214.34 848.65 216.86"/><polygon class="cls-17" points="878.78 286.36 878.78 305.99 892.81 306.27 892.81 286.06 878.78 286.36"/><polygon class="cls-18" points="892.81 286.06 892.81 306.27 906.84 306.76 906.84 285.76 892.81 286.06"/><polygon class="cls-17" points="878.78 249.05 878.78 268.6 892.81 267.77 892.81 247.64 878.78 249.05"/><polygon class="cls-18" points="892.81 247.64 892.81 267.77 906.84 266.94 906.84 246.23 892.81 247.64"/><polygon class="cls-17" points="878.77 211.44 878.77 230.9 892.8 228.95 892.8 208.91 878.77 211.44"/><polygon class="cls-18" points="892.8 208.91 892.8 228.95 906.83 227 906.83 206.38 892.8 208.91"/><polygon class="cls-17" points="921.97 285.43 921.97 307.17 936 307.17 936 285.13 921.97 285.43"/><polygon class="cls-18" points="936 285.13 936 307.17 950.03 307.17 950.03 284.75 936 285.13"/><polygon class="cls-17" points="921.97 244.71 921.97 266.04 936 265.21 936 243.3 921.97 244.71"/><polygon class="cls-18" points="936 243.3 936 265.21 950.03 264.37 950.03 241.94 936 243.3"/><polygon class="cls-17" points="921.96 203.66 921.96 224.9 935.99 222.95 935.99 201.13 921.96 203.66"/><polygon class="cls-18" points="935.99 201.13 935.99 222.95 950.02 220.89 950.02 198.47 935.99 201.13"/><rect class="cls-17" x="282.7" y="290.2" width="17.74" height="14.05"/><rect class="cls-18" x="300.44" y="290.2" width="17.74" height="14.05"/><rect class="cls-17" x="282.7" y="265.44" width="17.74" height="14.05"/><rect class="cls-18" x="300.44" y="265.44" width="17.74" height="14.05"/><rect class="cls-17" x="229.54" y="290.2" width="17.74" height="14.05"/><rect class="cls-18" x="247.28" y="290.2" width="17.74" height="14.05"/><rect class="cls-17" x="229.54" y="265.44" width="17.74" height="14.05"/><rect class="cls-18" x="247.28" y="265.44" width="17.74" height="14.05"/><rect class="cls-17" x="185.85" y="290.2" width="13.11" height="14.05"/><rect class="cls-18" x="198.96" y="290.2" width="17.74" height="14.05"/><rect class="cls-17" x="185.85" y="265.44" width="13.11" height="14.05"/><rect class="cls-18" x="198.96" y="265.44" width="17.74" height="14.05"/><rect class="cls-17" x="444.28" y="291.34" width="17.74" height="13.29"/><rect class="cls-18" x="462.03" y="291.34" width="17.74" height="13.29"/><rect class="cls-17" x="444.28" y="268.98" width="17.74" height="13.29"/><rect class="cls-18" x="462.03" y="268.98" width="17.74" height="13.29"/><rect class="cls-17" x="444.28" y="246.62" width="17.74" height="13.29"/><rect class="cls-18" x="462.03" y="246.62" width="17.74" height="13.29"/><rect class="cls-17" x="501.51" y="290.29" width="17.74" height="13.29"/><rect class="cls-18" x="519.25" y="290.29" width="17.74" height="13.29"/><rect class="cls-17" x="501.51" y="267.94" width="17.74" height="13.29"/><rect class="cls-18" x="519.25" y="267.94" width="17.74" height="13.29"/><rect class="cls-17" x="501.51" y="245.57" width="17.74" height="13.29"/><rect class="cls-18" x="519.25" y="245.57" width="17.74" height="13.29"/><rect class="cls-17" x="556.45" y="290.29" width="17.74" height="13.29"/><rect class="cls-18" x="574.19" y="290.29" width="17.74" height="13.29"/><rect class="cls-17" x="556.45" y="267.94" width="17.74" height="13.29"/><rect class="cls-18" x="574.19" y="267.94" width="17.74" height="13.29"/><rect class="cls-17" x="556.45" y="245.57" width="17.74" height="13.29"/><rect class="cls-18" x="574.19" y="245.57" width="17.74" height="13.29"/><rect class="cls-17" x="612.56" y="290.29" width="17.74" height="13.29"/><rect class="cls-18" x="630.3" y="290.29" width="17.74" height="13.29"/><rect class="cls-17" x="612.56" y="267.94" width="17.74" height="13.29"/><rect class="cls-18" x="630.3" y="267.94" width="17.74" height="13.29"/><rect class="cls-17" x="612.56" y="245.57" width="17.74" height="13.29"/><rect class="cls-18" x="630.3" y="245.57" width="17.74" height="13.29"/><rect class="cls-17" x="669.97" y="290.29" width="17.74" height="13.29"/><rect class="cls-18" x="687.71" y="290.29" width="17.74" height="13.29"/><rect class="cls-17" x="669.97" y="267.94" width="17.74" height="13.29"/><rect class="cls-18" x="687.71" y="267.94" width="17.74" height="13.29"/><rect class="cls-17" x="669.97" y="245.57" width="17.74" height="13.29"/><rect class="cls-18" x="687.71" y="245.57" width="17.74" height="13.29"/><path class="cls-19" d="M260.19,444.65"/></g><g id="rooftops"><rect class="cls-20" x="416.08" y="232.25" width="316.22" height="4.22"/><line class="cls-21" x1="416.08" y1="234.36" x2="732.3" y2="234.36"/><rect class="cls-20" x="185.23" y="245.57" width="145.86" height="4.22"/><line class="cls-21" x1="186.68" y1="247.68" x2="331.09" y2="247.68"/><polygon class="cls-22" points="171.97 193.34 68.27 200.07 55.91 163.47 7.04 174.5 5.42 167.3 60.77 154.8 73.45 192.34 177.67 185.58 189.13 232.44 181.96 234.2 171.97 193.34"/><polygon class="cls-23" points="184.28 230.37 174.41 190.01 70.49 196.75 57.99 159.75 9.43 170.72 9.2 169.69 58.69 158.52 71.23 195.65 175.22 188.91 185.31 230.12 184.28 230.37"/><polygon class="cls-24" points="779.42 210.01 773.53 207.7 786.11 175.71 844.01 188.79 860.44 153.66 965.07 160.63 998.27 140.74 1001.95 146.73 967.51 167.13 864.33 160.26 847.58 196.08 790.01 183.08 779.42 210.01"/><polyline class="cls-25" points="776.99 207.55 788.06 179.4 845.79 192.43 862.38 156.96 966.29 163.88 998.27 144.65"/></g><g id="shrubbery"><g id="fountain"><polygon class="cls-26" points="635.23 344.22 664.5 354.56 703.4 350.32 690.73 346.99 690.73 344.15 682.88 342.34 682.77 340.27 675.2 338.69 675.2 336.02 668.84 335.17 661.77 336.02 661.27 337.99 655.09 339.41 655.09 341.72 647.17 342.99 646.66 344.15 635.23 344.22"/><polygon class="cls-27" points="668.15 338.14 669.31 338.32 669.31 340.75 672.47 342.38 672.07 344.26 676.15 345.24 675.49 348.02 679.82 348.02 679.82 344.86 675.49 343.69 675.49 342.06 670.84 340.51 671.09 338.14 668.15 338.14"/></g><path class="cls-28" d="M703.87,355.86,734.52,360s5.63-13.11-9.12-15.2S698,348.1,703.87,355.86Z"/><path class="cls-28" d="M728,359.47l37,5.72s6.79-17.92-11-20.77S721,348.86,728,359.47Z"/><path class="cls-29" d="M754,362.59l44.41,10.13s12-15.55.89-7.24c2.77-12.34.91-9.55-3.26-3.66,6.59-17.41,2-20.34-8.18-6.67,3.52-19.58-29.94-25.16-25.52-3.77-3.89-6.88-8.25-9.5-6.56,4C753.65,351.76,746.67,350.33,754,362.59Z"/><path class="cls-29" d="M795,372,845,383s13.31-17.59.93-8.15c3-13.89.93-10.74-3.7-4.07,7.22-19.63,2-22.87-9.26-7.41,3.76-22-33.89-28-28.7-4-4.44-7.69-9.37-10.59-7.33,4.57C794.5,359.88,786.64,358.34,795,372Z"/><path class="cls-29" d="M999.42,384.77c-2.83,1.86-6.57,5.8-11,11.88,5.07-29.68-45.64-37.66-38.66-5.36-6-10.35-12.62-14.26-9.87,6.16-3.24-5.45-13.82-7.53-2.6,10.93l60.92,19.26,4.29,1.36"/><line class="cls-30" x1="406.56" y1="298.65" x2="406.56" y2="298.65"/><line class="cls-31" x1="297.89" y1="318.21" x2="297.89" y2="335.39"/><path class="cls-32" d="M297,323.34a3.52,3.52,0,0,1-4.36,0c-2.43-1.69,0-4.28,0-4.28s-4.12-2.47-1.08-7.65,9-1.91,9.18-.77c2.32,0,8.14,3.94,2.71,5.94C306.15,318.68,304.26,328,297,323.34Z"/><line class="cls-31" x1="367.48" y1="318.21" x2="367.48" y2="335.39"/><path class="cls-32" d="M366.57,323.34a3.52,3.52,0,0,1-4.36,0c-2.43-1.69,0-4.28,0-4.28s-4.12-2.47-1.08-7.65,9-1.91,9.18-.77c2.32,0,8.14,3.94,2.71,5.94C375.73,318.68,373.85,328,366.57,323.34Z"/><line class="cls-31" x1="427.74" y1="318.42" x2="427.74" y2="335.6"/><path class="cls-32" d="M426.83,323.55a3.52,3.52,0,0,1-4.36,0c-2.43-1.69,0-4.28,0-4.28s-4.12-2.47-1.08-7.65,9-1.91,9.18-.77c2.32,0,8.14,3.94,2.71,5.94C436,318.9,434.11,328.21,426.83,323.55Z"/><line class="cls-31" x1="468.84" y1="318.42" x2="468.84" y2="335.6"/><path class="cls-32" d="M467.94,323.55a3.52,3.52,0,0,1-4.36,0c-2.43-1.69,0-4.28,0-4.28s-4.12-2.47-1.08-7.65,9-1.91,9.18-.77c2.32,0,8.14,3.94,2.71,5.94C477.1,318.9,475.21,328.21,467.94,323.55Z"/><line class="cls-31" x1="518.18" y1="318.42" x2="518.18" y2="335.6"/><path class="cls-32" d="M517.27,323.55a3.52,3.52,0,0,1-4.36,0c-2.43-1.69,0-4.28,0-4.28s-4.12-2.47-1.08-7.65,9-1.91,9.18-.77c2.32,0,8.14,3.94,2.71,5.94C526.43,318.9,524.55,328.21,517.27,323.55Z"/><line class="cls-31" x1="560.29" y1="318.42" x2="560.29" y2="335.6"/><path class="cls-32" d="M559.38,323.55a3.52,3.52,0,0,1-4.36,0c-2.43-1.69,0-4.28,0-4.28s-4.12-2.47-1.08-7.65,9-1.91,9.18-.77c2.32,0,8.14,3.94,2.71,5.94C568.54,318.9,566.66,328.21,559.38,323.55Z"/><line class="cls-31" x1="602.74" y1="318.42" x2="602.74" y2="335.6"/><path class="cls-32" d="M601.83,323.55a3.52,3.52,0,0,1-4.36,0c-2.43-1.69,0-4.28,0-4.28s-4.12-2.47-1.08-7.65,9-1.91,9.18-.77c2.32,0,8.14,3.94,2.71,5.94C611,318.9,609.11,328.21,601.83,323.55Z"/><line class="cls-31" x1="643.34" y1="318.42" x2="643.34" y2="335.6"/><path class="cls-32" d="M642.43,323.55a3.52,3.52,0,0,1-4.36,0c-2.43-1.69,0-4.28,0-4.28s-4.12-2.47-1.08-7.65,9-1.91,9.18-.77c2.32,0,8.14,3.94,2.71,5.94C651.59,318.9,649.71,328.21,642.43,323.55Z"/><line class="cls-31" x1="688.19" y1="318.42" x2="688.19" y2="335.6"/><path class="cls-32" d="M687.28,323.55a3.52,3.52,0,0,1-4.36,0c-2.43-1.69,0-4.28,0-4.28s-4.12-2.47-1.08-7.65,9-1.91,9.18-.77c2.32,0,8.14,3.94,2.71,5.94C696.44,318.9,694.56,328.21,687.28,323.55Z"/><line class="cls-31" x1="211.53" y1="318.21" x2="211.53" y2="335.39"/><path class="cls-32" d="M210.63,323.34a3.52,3.52,0,0,1-4.36,0c-2.43-1.69,0-4.28,0-4.28s-4.12-2.47-1.08-7.65,9-1.91,9.18-.77c2.32,0,8.14,3.94,2.71,5.94C219.79,318.68,217.9,328,210.63,323.34Z"/><line class="cls-33" x1="169.14" y1="334.1" x2="169.14" y2="356.7"/><path class="cls-34" d="M167.94,340.85a4.63,4.63,0,0,1-5.73,0c-3.2-2.23,0-5.64,0-5.64s-5.43-3.25-1.42-10.07,11.81-2.51,12.09-1c3.06,0,10.71,5.19,3.56,7.81C180,334.72,177.52,347,167.94,340.85Z"/><line class="cls-35" x1="46.32" y1="349.93" x2="46.32" y2="387.61"/><path class="cls-36" d="M44.34,361.19a7.72,7.72,0,0,1-9.56,0c-5.33-3.71,0-9.4,0-9.4s-9-5.41-2.37-16.78,19.69-4.19,20.15-1.69c5.09,0,17.86,8.65,5.94,13C64.43,351,60.3,371.4,44.34,361.19Z"/><line class="cls-37" x1="111.02" y1="342.52" x2="111.02" y2="371.64"/><path class="cls-38" d="M109.48,351.22a6,6,0,0,1-7.39,0c-4.12-2.87,0-7.26,0-7.26s-7-4.18-1.83-13,15.22-3.24,15.57-1.3c3.94,0,13.8,6.69,4.59,10.06C125,343.33,121.82,359.11,109.48,351.22Z"/><line class="cls-31" x1="253.75" y1="318.21" x2="253.75" y2="335.39"/><path class="cls-32" d="M252.84,323.34a3.52,3.52,0,0,1-4.36,0c-2.43-1.69,0-4.28,0-4.28s-4.12-2.47-1.08-7.65,9-1.91,9.18-.77c2.32,0,8.14,3.94,2.71,5.94C262,318.68,260.12,328,252.84,323.34Z"/></g><g id="time_temp" data-name="time / temp"><rect class="cls-2" x="998.27" y="381.46" width="9.23" height="59.12"/></g></g></svg>