<svg xmlns="http://www.w3.org/2000/svg" viewBox="0 0 106.12 161.74"><defs><style>.cls-1{fill:#d1d3d4;}.cls-1,.cls-2{stroke:#d2d3d4;stroke-miterlimit:10;}.cls-2{fill:none;}</style></defs><title>powertower</title><g id="Layer_2" data-name="Layer 2"><g id="weather_icons" data-name="weather icons"><rect class="cls-1" x="24.1" y="44.36" width="4.22" height="6.65"/><rect class="cls-1" x="80.61" y="44.36" width="4.22" height="6.65"/><path class="cls-2" d="M94.66,94.09"/><path class="cls-2" d="M95.4,98.59"/><rect class="cls-1" x="8.7" y="157.02" width="91.71" height="4.22"/><polygon class="cls-1" points="27.68 159.55 23.55 158.71 55.36 2.57 85.95 160.75 81.42 159.53 55.25 24.22 27.68 159.55"/><path class="cls-1" d="M92.58,46.47H16.14L33.6,31.18H76.15ZM27.36,42.25h54.5l-7.37-6.86H35.19Z"/><rect class="cls-1" x="37.39" y="30.96" width="4.22" height="15" transform="translate(-15.63 37.96) rotate(-43.71)"/><rect class="cls-1" x="63.13" y="36.71" width="14.71" height="4.22" transform="translate(-5.12 66.37) rotate(-48.87)"/><polygon class="cls-1" points="26.12 160.26 21.15 160.26 66.56 87.36 70.14 89.59 26.12 160.26"/><polygon class="cls-1" points="79.86 160.26 38.63 87.3 42.3 85.22 84.98 160.75 79.86 160.26"/><rect class="cls-1" x="12.95" y="87.12" width="4.22" height="6.65"/><rect class="cls-1" x="91.16" y="87.12" width="4.22" height="6.65"/><path class="cls-2" d="M83.5,45.11"/><path class="cls-2" d="M82.76,50.36"/><path class="cls-1" d="M105.06,88.37H1.17L25.32,63.26H84.5Zm-94-4.22H96.16L82.5,67.47H27.11Z"/><polygon class="cls-1" points="80.61 87.69 65.42 70.93 54.42 87.03 44.17 71.19 30.02 87.61 23.61 65.91 27.66 64.93 31.51 78.6 44.74 63.83 54.68 79.18 65 64.06 78.7 78.52 81.43 64.95 85.57 65.78 80.61 87.69"/></g></g></svg>