<svg xmlns="http://www.w3.org/2000/svg" xmlns:xlink="http://www.w3.org/1999/xlink" viewBox="0 0 1008.27 570"><defs><style>.cls-1{fill:url(#linear-gradient);}.cls-2{fill:#1e1e1e;}.cls-12,.cls-20,.cls-26,.cls-3,.cls-40,.cls-5,.cls-6{fill:none;}.cls-3,.cls-40{stroke:#1e1e1e;}.cls-10,.cls-11,.cls-12,.cls-13,.cls-14,.cls-15,.cls-16,.cls-17,.cls-18,.cls-19,.cls-20,.cls-21,.cls-22,.cls-25,.cls-26,.cls-27,.cls-29,.cls-3,.cls-31,.cls-4,.cls-40,.cls-5,.cls-6,.cls-9{stroke-miterlimit:10;}.cls-4{fill:#dddabf;}.cls-11,.cls-12,.cls-15,.cls-17,.cls-20,.cls-21,.cls-25,.cls-27,.cls-4{stroke:#231f20;}.cls-11,.cls-4,.cls-5{stroke-linecap:square;}.cls-10,.cls-11,.cls-12,.cls-13,.cls-15,.cls-16,.cls-21,.cls-4,.cls-5,.cls-9{stroke-width:4px;}.cls-10,.cls-13,.cls-14,.cls-16,.cls-18,.cls-19,.cls-5,.cls-9{stroke:#000;}.cls-6{stroke:#2a2e3c;stroke-width:6px;}.cls-7{clip-path:url(#clip-path);}.cls-8{fill:url(#linear-gradient-3);}.cls-9{fill:#f4dfb5;}.cls-10{fill:#e8c77f;}.cls-11{fill:#ab463e;}.cls-13{fill:#e2b646;}.cls-14{fill:#d7dadd;}.cls-14,.cls-27,.cls-29,.cls-30{stroke-width:3px;}.cls-15{fill:#ca5647;}.cls-16{fill:#c99e41;}.cls-17{fill:#2e3c19;}.cls-17,.cls-18,.cls-19,.cls-20,.cls-25,.cls-36,.cls-37,.cls-40{stroke-width:2px;}.cls-18{fill:#697780;}.cls-19,.cls-31{fill:#8fa6ac;}.cls-21,.cls-22,.cls-24,.cls-27{fill:#fff;}.cls-22,.cls-26,.cls-31{stroke:#fff;}.cls-23,.cls-25{fill:#231f20;}.cls-28{fill:#96c9ed;}.cls-29,.cls-30,.cls-33,.cls-35,.cls-37,.cls-39{fill:#90a165;stroke:#484f33;}.cls-30,.cls-32,.cls-33,.cls-34,.cls-35,.cls-36,.cls-37,.cls-38,.cls-39{stroke-linejoin:round;}.cls-31{stroke-width:7px;}.cls-32,.cls-34,.cls-36,.cls-38{fill:#484f33;stroke:#af8f4d;}.cls-34,.cls-35{stroke-width:1.25px;}.cls-38,.cls-39{stroke-width:1.5px;}</style><linearGradient id="linear-gradient" x1="8.29" y1="442.35" x2="998.77" y2="442.35" gradientUnits="userSpaceOnUse"><stop offset="0" stop-color="#1e1e1e"/><stop offset="0.23" stop-color="#21221f"/><stop offset="0.44" stop-color="#292d22"/><stop offset="0.64" stop-color="#363f26"/><stop offset="0.83" stop-color="#49592d"/><stop offset="1" stop-color="#5e7634"/></linearGradient><clipPath id="clip-path"><polyline class="cls-1" points="998.77 526.44 998.77 467.07 998.77 427.67 641.89 346.95 268.16 346.95 8.48 427.19 8.29 537.75"/></clipPath><linearGradient id="linear-gradient-3" x1="-3.25" y1="-2.98" x2="-2.19" y2="-2.98" gradientTransform="matrix(0, -178.99, -178.99, 0, -30.28, -44.8)" xlink:href="#linear-gradient"/></defs><title>splash_scene</title><g id="Layer_2" data-name="Layer 2"><g id="green_concrete" data-name="green&amp;concrete"><g id="background"><rect class="cls-2" width="1008" height="570"/><polyline class="cls-3" points="8.29 542.68 998.45 530.44 998.77 477.5"/></g><polyline class="cls-4" points="9.82 345.11 236.99 345.11 9.82 404.84"/><polyline class="cls-5" points="9.82 424.44 265.1 345.11 632.5 345.11 983.34 424.92"/><line class="cls-6" x1="9.63" y1="331.35" x2="9.7" y2="356.18"/><polyline class="cls-1" points="998.77 526.44 998.77 467.07 998.77 427.67 641.89 346.95 268.16 346.95 8.48 427.19 8.29 537.75"/><g class="cls-7"><rect class="cls-8" x="8.29" y="346.95" width="990.48" height="190.8"/></g></g><g id="buildings"><rect class="cls-9" x="180.67" y="250.53" width="159.62" height="85.04"/><polygon class="cls-10" points="71.36 370.2 185.3 345.11 185.3 230.49 175.32 189.7 71.36 196.44 71.36 370.2"/><rect class="cls-2" x="2.32" y="319.27" width="8.39" height="37.67"/><polyline class="cls-11" points="9.82 382.17 71.36 370.2 71.36 196.44 58.8 159.38 9.63 170.44"/><line class="cls-12" x1="185.3" y1="335.57" x2="688.21" y2="335.57"/><path class="cls-13" d="M331.59,335.57s0-87.26,10-175.6c12.76-1.7,34.8-4,34.8-4s9,97,8.71,179.61H331.59"/><path class="cls-14" d="M341.63,160S337.34,204.29,337,208l43.38-.06s-3.5-49.34-4-52C356.39,158.17,341.63,160,341.63,160Z"/><rect class="cls-15" x="416.58" y="234.6" width="316.22" height="100.98"/><path class="cls-4" d="M998.77,331.5l-300.71-.92L674.41,346.4,557,345.14s294.68,15.14,441.8,129.15"/><g id="Layer_4" data-name="Layer 4"><polyline class="cls-10" points="966.79 361.34 776.97 339.59 776.97 209.1 788.56 179.64 846.29 192.67 862.88 157.2 966.79 164.12"/><polyline class="cls-11" points="998.77 144.89 966.79 164.12 966.79 361.34 998.77 364.62"/></g><path class="cls-16" d="M344.51,329.17a1577.69,1577.69,0,0,1,10-159.88c12.76-1.7,34.8-4,34.8-4s8.95,87.43,8.7,170.08H344.51Z"/><path class="cls-13" d="M331.55,335.36s0-87.26,10-175.6c12.76-1.7,34.8-4,34.8-4s9,97,8.71,179.61H331.55"/><path class="cls-14" d="M365.37,168.15s-3.07,31.72-3.28,34.39l31,0s-2.51-35.31-2.87-37.23C375.94,166.86,365.37,168.15,365.37,168.15Z"/><path class="cls-14" d="M341.58,159.76s-4.29,44.32-4.58,48.06l43.38-.06s-3.5-49.34-4-52C356.35,158,341.58,159.76,341.58,159.76Z"/></g><g id="windows"><rect class="cls-17" x="283.2" y="314.91" width="35.49" height="20.67"/><rect class="cls-17" x="444.78" y="314.91" width="35.49" height="20.67"/><rect class="cls-17" x="502.01" y="314.91" width="35.49" height="20.67"/><rect class="cls-17" x="556.97" y="314.91" width="35.49" height="20.67"/><rect class="cls-17" x="613.06" y="314.91" width="35.49" height="20.67"/><polygon class="cls-17" points="697.67 331.64 706.47 331.67 706.47 314.91 670.99 314.91 670.99 335.57 691.88 335.57 697.67 331.64"/><rect class="cls-17" x="230.04" y="314.91" width="35.49" height="20.67"/><rect class="cls-17" x="186.35" y="314.91" width="31.19" height="20.67"/><polygon class="cls-17" points="172.64 347.9 172.64 324.28 141.52 328.03 141.52 354.75 172.64 347.9"/><polygon class="cls-17" points="128.33 357.66 128.33 329.19 93.33 332.51 93.33 365.37 128.33 357.66"/><polygon class="cls-17" points="790.63 341.88 790.63 317.21 821.55 318.86 821.55 346.2 790.63 341.88"/><polygon class="cls-17" points="833.57 345.77 833.57 319.5 864.49 321.15 864.49 349.62 833.57 345.77"/><polygon class="cls-17" points="877.56 351.22 877.56 321.84 908.48 323.49 908.48 354.66 877.56 351.22"/><polygon class="cls-17" points="920.33 356.01 920.33 324.13 951.25 325.77 951.25 359.56 920.33 356.01"/><polygon class="cls-18" points="790.64 288.51 790.64 304.45 804.67 304.73 804.67 288.21 790.64 288.51"/><polygon class="cls-19" points="804.67 288.21 804.67 304.73 818.69 305.01 818.69 287.91 804.67 288.21"/><polygon class="cls-18" points="790.64 258.36 790.64 274.08 804.67 273.25 804.67 256.79 790.64 258.36"/><polygon class="cls-19" points="804.67 256.79 804.67 273.25 818.69 272.42 818.69 255.38 804.67 256.79"/><polygon class="cls-18" points="93.24 287.3 93.24 309.45 108.91 308.84 108.91 287.76 93.24 287.3"/><polygon class="cls-19" points="108.91 287.76 108.91 308.84 124.57 308.23 124.57 288.22 108.91 287.76"/><polygon class="cls-18" points="93.24 253.74 93.24 272.97 108.91 274.29 108.91 255.53 93.24 253.74"/><polygon class="cls-19" points="108.91 255.53 108.91 274.29 124.57 275.43 124.57 257.62 108.91 255.53"/><polygon class="cls-18" points="94.11 220.47 94.11 240.09 108.91 242.82 108.91 223.97 94.11 220.47"/><polygon class="cls-19" points="108.91 223.97 108.91 242.82 124.57 245.55 124.57 227.66 108.91 223.97"/><polygon class="cls-18" points="141.31 288.7 141.31 307.57 156.97 306.96 156.97 289.16 141.31 288.7"/><polygon class="cls-19" points="156.97 289.16 156.97 306.96 172.64 306.35 172.64 289.62 156.97 289.16"/><polygon class="cls-18" points="141.31 259.85 141.31 276.64 156.97 277.78 156.97 261.94 141.31 259.85"/><polygon class="cls-19" points="156.97 261.94 156.97 277.78 172.64 278.92 172.64 264.03 156.97 261.94"/><polygon class="cls-18" points="141.31 231.64 141.31 248.47 156.97 251.21 156.97 235.29 141.31 231.64"/><polygon class="cls-19" points="156.97 235.29 156.97 251.21 172.64 253.94 172.64 238.98 156.97 235.29"/><polygon class="cls-18" points="790.63 227.65 790.63 243.46 804.65 241.51 804.65 225.12 790.63 227.65"/><polygon class="cls-19" points="804.65 225.12 804.65 241.51 818.68 239.56 818.68 222.59 804.65 225.12"/><polygon class="cls-18" points="835.13 287.55 835.13 305.34 849.16 305.63 849.16 287.25 835.13 287.55"/><polygon class="cls-19" points="849.16 287.25 849.16 305.63 863.18 305.91 863.18 286.95 849.16 287.25"/><polygon class="cls-18" points="835.13 253.73 835.13 271.45 849.16 270.62 849.16 252.32 835.13 253.73"/><polygon class="cls-19" points="849.16 252.32 849.16 270.62 863.18 269.79 863.18 250.91 849.16 252.32"/><polygon class="cls-18" points="835.12 219.63 835.12 237.28 849.15 235.32 849.15 217.1 835.12 219.63"/><polygon class="cls-19" points="849.15 217.1 849.15 235.32 863.17 233.38 863.17 214.58 849.15 217.1"/><polygon class="cls-18" points="879.28 286.6 879.28 306.23 893.31 306.51 893.31 286.3 879.28 286.6"/><polygon class="cls-19" points="893.31 286.3 893.31 306.51 907.34 307 907.34 286 893.31 286.3"/><polygon class="cls-18" points="879.28 249.29 879.28 268.84 893.31 268.01 893.31 247.88 879.28 249.29"/><polygon class="cls-19" points="893.31 247.88 893.31 268.01 907.34 267.18 907.34 246.47 893.31 247.88"/><polygon class="cls-18" points="879.27 211.68 879.27 231.14 893.3 229.19 893.3 209.15 879.27 211.68"/><polygon class="cls-19" points="893.3 209.15 893.3 229.19 907.33 227.24 907.33 206.62 893.3 209.15"/><polygon class="cls-18" points="922.47 285.68 922.47 307.41 936.5 307.41 936.5 285.37 922.47 285.68"/><polygon class="cls-19" points="936.5 285.37 936.5 307.41 950.53 307.41 950.53 284.99 936.5 285.37"/><polygon class="cls-18" points="922.47 244.95 922.47 266.28 936.5 265.45 936.5 243.54 922.47 244.95"/><polygon class="cls-19" points="936.5 243.54 936.5 265.45 950.53 264.61 950.53 242.19 936.5 243.54"/><polygon class="cls-18" points="922.46 203.9 922.46 225.14 936.49 223.19 936.49 201.37 922.46 203.9"/><polygon class="cls-19" points="936.49 201.37 936.49 223.19 950.52 221.13 950.52 198.71 936.49 201.37"/><rect class="cls-18" x="283.2" y="290.44" width="17.74" height="14.05"/><rect class="cls-19" x="300.94" y="290.44" width="17.74" height="14.05"/><rect class="cls-18" x="283.2" y="265.68" width="17.74" height="14.05"/><rect class="cls-19" x="300.94" y="265.68" width="17.74" height="14.05"/><rect class="cls-18" x="230.04" y="290.44" width="17.74" height="14.05"/><rect class="cls-19" x="247.78" y="290.44" width="17.74" height="14.05"/><rect class="cls-18" x="230.04" y="265.68" width="17.74" height="14.05"/><rect class="cls-19" x="247.78" y="265.68" width="17.74" height="14.05"/><rect class="cls-18" x="186.35" y="290.44" width="13.11" height="14.05"/><rect class="cls-19" x="199.46" y="290.44" width="17.74" height="14.05"/><rect class="cls-18" x="186.35" y="265.68" width="13.11" height="14.05"/><rect class="cls-19" x="199.46" y="265.68" width="17.74" height="14.05"/><rect class="cls-18" x="444.78" y="291.58" width="17.74" height="13.29"/><rect class="cls-19" x="462.53" y="291.58" width="17.74" height="13.29"/><rect class="cls-18" x="444.78" y="269.22" width="17.74" height="13.29"/><rect class="cls-19" x="462.53" y="269.22" width="17.74" height="13.29"/><rect class="cls-18" x="444.78" y="246.86" width="17.74" height="13.29"/><rect class="cls-19" x="462.53" y="246.86" width="17.74" height="13.29"/><rect class="cls-18" x="502.01" y="290.53" width="17.74" height="13.29"/><rect class="cls-19" x="519.75" y="290.53" width="17.74" height="13.29"/><rect class="cls-18" x="502.01" y="268.18" width="17.74" height="13.29"/><rect class="cls-19" x="519.75" y="268.18" width="17.74" height="13.29"/><rect class="cls-18" x="502.01" y="245.81" width="17.74" height="13.29"/><rect class="cls-19" x="519.75" y="245.81" width="17.74" height="13.29"/><rect class="cls-18" x="556.95" y="290.53" width="17.74" height="13.29"/><rect class="cls-19" x="574.69" y="290.53" width="17.74" height="13.29"/><rect class="cls-18" x="556.95" y="268.18" width="17.74" height="13.29"/><rect class="cls-19" x="574.69" y="268.18" width="17.74" height="13.29"/><rect class="cls-18" x="556.95" y="245.81" width="17.74" height="13.29"/><rect class="cls-19" x="574.69" y="245.81" width="17.74" height="13.29"/><rect class="cls-18" x="613.06" y="290.53" width="17.74" height="13.29"/><rect class="cls-19" x="630.8" y="290.53" width="17.74" height="13.29"/><rect class="cls-18" x="613.06" y="268.18" width="17.74" height="13.29"/><rect class="cls-19" x="630.8" y="268.18" width="17.74" height="13.29"/><rect class="cls-18" x="613.06" y="245.81" width="17.74" height="13.29"/><rect class="cls-19" x="630.8" y="245.81" width="17.74" height="13.29"/><rect class="cls-18" x="670.47" y="290.53" width="17.74" height="13.29"/><rect class="cls-19" x="688.21" y="290.53" width="17.74" height="13.29"/><rect class="cls-18" x="670.47" y="268.18" width="17.74" height="13.29"/><rect class="cls-19" x="688.21" y="268.18" width="17.74" height="13.29"/><rect class="cls-18" x="670.47" y="245.81" width="17.74" height="13.29"/><rect class="cls-19" x="688.21" y="245.81" width="17.74" height="13.29"/><path class="cls-20" d="M260.69,444.89"/></g><g id="rooftops"><rect class="cls-21" x="416.58" y="232.49" width="316.22" height="4.22"/><line class="cls-22" x1="416.58" y1="234.6" x2="732.8" y2="234.6"/><rect class="cls-21" x="185.73" y="245.81" width="145.86" height="4.22"/><line class="cls-22" x1="187.18" y1="247.92" x2="331.59" y2="247.92"/><polygon class="cls-23" points="172.47 193.58 68.77 200.31 56.41 163.71 7.54 174.74 5.92 167.54 61.27 155.04 73.95 192.58 178.17 185.82 189.63 232.69 182.46 234.44 172.47 193.58"/><polygon class="cls-24" points="184.78 230.61 174.91 190.25 70.99 197 58.49 159.99 9.93 170.96 9.7 169.93 59.19 158.76 71.73 195.89 175.72 189.15 185.81 230.36 184.78 230.61"/><polygon class="cls-25" points="779.92 210.26 774.03 207.94 786.61 175.95 844.51 189.03 860.94 153.9 965.57 160.87 998.77 140.98 1002.45 146.97 968.01 167.37 864.83 160.5 848.08 196.32 790.51 183.32 779.92 210.26"/><polyline class="cls-26" points="777.49 207.79 788.56 179.64 846.29 192.67 862.88 157.2 966.79 164.12 998.77 144.89"/></g><g id="shrubbery"><g id="fountain"><polygon class="cls-27" points="635.73 344.46 665 354.8 703.9 350.56 691.23 347.23 691.23 344.39 683.38 342.58 683.27 340.51 675.7 338.93 675.7 336.26 669.34 335.41 662.27 336.26 661.77 338.23 655.59 339.65 655.59 341.96 647.67 343.23 647.16 344.39 635.73 344.46"/><polygon class="cls-28" points="668.65 338.38 669.81 338.57 669.81 340.99 672.97 342.63 672.57 344.5 676.65 345.48 675.99 348.26 680.32 348.26 680.32 345.1 675.99 343.93 675.99 342.3 671.34 340.75 671.59 338.38 668.65 338.38"/></g><path class="cls-29" d="M704.37,356.1,735,360.28s5.63-13.11-9.12-15.2S698.53,348.34,704.37,356.1Z"/><path class="cls-29" d="M728.53,359.71l37,5.72s6.79-17.92-11-20.77S721.49,349.1,728.53,359.71Z"/><path class="cls-30" d="M754.48,362.83,798.89,373s12-15.55.89-7.24c2.77-12.34.91-9.55-3.26-3.66,6.59-17.41,2-20.34-8.18-6.67,3.52-19.58-29.94-25.16-25.52-3.77-3.89-6.88-8.25-9.5-6.56,4C754.15,352,747.17,350.57,754.48,362.83Z"/><path class="cls-30" d="M795.48,372.28l50,10.93s13.31-17.59.93-8.15c3-13.89.93-10.74-3.7-4.07,7.22-19.63,2-22.87-9.26-7.41,3.76-22-33.89-28-28.7-4-4.44-7.69-9.37-10.59-7.33,4.57C795,360.12,787.14,358.58,795.48,372.28Z"/><path class="cls-30" d="M999.92,385c-2.83,1.86-6.57,5.8-11,11.88,5.07-29.68-45.64-37.66-38.66-5.36-6-10.35-12.62-14.26-9.87,6.16-3.24-5.45-13.82-7.53-2.6,10.93l60.92,19.26,4.29,1.36"/><line class="cls-31" x1="407.06" y1="298.89" x2="407.06" y2="298.89"/><line class="cls-32" x1="298.39" y1="318.45" x2="298.39" y2="335.63"/><path class="cls-33" d="M297.48,323.58a3.52,3.52,0,0,1-4.36,0c-2.43-1.69,0-4.28,0-4.28s-4.12-2.47-1.08-7.65,9-1.91,9.18-.77c2.32,0,8.14,3.94,2.71,5.94C306.65,318.92,304.76,328.23,297.48,323.58Z"/><line class="cls-32" x1="367.98" y1="318.45" x2="367.98" y2="335.63"/><path class="cls-33" d="M367.07,323.58a3.52,3.52,0,0,1-4.36,0c-2.43-1.69,0-4.28,0-4.28s-4.12-2.47-1.08-7.65,9-1.91,9.18-.77c2.32,0,8.14,3.94,2.71,5.94C376.23,318.92,374.35,328.23,367.07,323.58Z"/><line class="cls-32" x1="428.24" y1="318.66" x2="428.24" y2="335.84"/><path class="cls-33" d="M427.33,323.79a3.52,3.52,0,0,1-4.36,0c-2.43-1.69,0-4.28,0-4.28s-4.12-2.47-1.08-7.65,9-1.91,9.18-.77c2.32,0,8.14,3.94,2.71,5.94C436.49,319.14,434.61,328.45,427.33,323.79Z"/><line class="cls-32" x1="469.34" y1="318.66" x2="469.34" y2="335.84"/><path class="cls-33" d="M468.44,323.79a3.52,3.52,0,0,1-4.36,0c-2.43-1.69,0-4.28,0-4.28S460,317,463,311.86s9-1.91,9.18-.77c2.32,0,8.14,3.94,2.71,5.94C477.6,319.14,475.71,328.45,468.44,323.79Z"/><line class="cls-32" x1="518.68" y1="318.66" x2="518.68" y2="335.84"/><path class="cls-33" d="M517.77,323.79a3.52,3.52,0,0,1-4.36,0c-2.43-1.69,0-4.28,0-4.28s-4.12-2.47-1.08-7.65,9-1.91,9.18-.77c2.32,0,8.14,3.94,2.71,5.94C526.93,319.14,525,328.45,517.77,323.79Z"/><line class="cls-32" x1="560.79" y1="318.66" x2="560.79" y2="335.84"/><path class="cls-33" d="M559.88,323.79a3.52,3.52,0,0,1-4.36,0c-2.43-1.69,0-4.28,0-4.28s-4.12-2.47-1.08-7.65,9-1.91,9.18-.77c2.32,0,8.14,3.94,2.71,5.94C569,319.14,567.16,328.45,559.88,323.79Z"/><line class="cls-32" x1="603.24" y1="318.66" x2="603.24" y2="335.84"/><path class="cls-33" d="M602.33,323.79a3.52,3.52,0,0,1-4.36,0c-2.43-1.69,0-4.28,0-4.28s-4.12-2.47-1.08-7.65,9-1.91,9.18-.77c2.32,0,8.14,3.94,2.71,5.94C611.49,319.14,609.61,328.45,602.33,323.79Z"/><line class="cls-32" x1="643.84" y1="318.66" x2="643.84" y2="335.84"/><path class="cls-33" d="M642.93,323.79a3.52,3.52,0,0,1-4.36,0c-2.43-1.69,0-4.28,0-4.28s-4.12-2.47-1.08-7.65,9-1.91,9.18-.77c2.32,0,8.14,3.94,2.71,5.94C652.09,319.14,650.21,328.45,642.93,323.79Z"/><line class="cls-32" x1="688.69" y1="318.66" x2="688.69" y2="335.84"/><path class="cls-33" d="M687.78,323.79a3.52,3.52,0,0,1-4.36,0c-2.43-1.69,0-4.28,0-4.28s-4.12-2.47-1.08-7.65,9-1.91,9.18-.77c2.32,0,8.14,3.94,2.71,5.94C696.94,319.14,695.06,328.45,687.78,323.79Z"/><line class="cls-32" x1="212.03" y1="318.45" x2="212.03" y2="335.63"/><path class="cls-33" d="M211.13,323.58a3.52,3.52,0,0,1-4.36,0c-2.43-1.69,0-4.28,0-4.28s-4.12-2.47-1.08-7.65,9-1.91,9.18-.77c2.32,0,8.14,3.94,2.71,5.94C220.29,318.92,218.4,328.23,211.13,323.58Z"/><line class="cls-34" x1="169.64" y1="334.34" x2="169.64" y2="356.94"/><path class="cls-35" d="M168.44,341.09a4.63,4.63,0,0,1-5.73,0c-3.2-2.23,0-5.64,0-5.64s-5.43-3.25-1.42-10.07,11.81-2.51,12.09-1c3.06,0,10.71,5.19,3.56,7.81C180.5,335,178,347.22,168.44,341.09Z"/><line class="cls-36" x1="46.82" y1="350.17" x2="46.82" y2="387.86"/><path class="cls-37" d="M44.84,361.43a7.72,7.72,0,0,1-9.56,0c-5.33-3.71,0-9.4,0-9.4s-9-5.41-2.37-16.78,19.69-4.19,20.15-1.69c5.09,0,17.86,8.65,5.94,13C64.93,351.22,60.8,371.64,44.84,361.43Z"/><line class="cls-38" x1="111.52" y1="342.76" x2="111.52" y2="371.88"/><path class="cls-39" d="M110,351.46a6,6,0,0,1-7.39,0c-4.12-2.87,0-7.26,0-7.26s-7-4.18-1.83-13,15.22-3.24,15.57-1.3c3.94,0,13.8,6.69,4.59,10.06C125.51,343.57,122.32,359.35,110,351.46Z"/><line class="cls-32" x1="254.25" y1="318.45" x2="254.25" y2="335.63"/><path class="cls-33" d="M253.34,323.58a3.52,3.52,0,0,1-4.36,0c-2.43-1.69,0-4.28,0-4.28s-4.12-2.47-1.08-7.65,9-1.91,9.18-.77c2.32,0,8.14,3.94,2.71,5.94C262.5,318.92,260.62,328.23,253.34,323.58Z"/></g><g id="Layer_15" data-name="Layer 15"><polyline class="cls-40" points="172.64 535.98 998.77 526.44 999.69 477.23"/><rect class="cls-2" x="998.83" y="376.58" width="9.44" height="59.12"/><rect class="cls-2" x="999.04" y="302" width="9.23" height="59.12"/></g></g></svg>