<svg xmlns="http://www.w3.org/2000/svg" viewBox="0 0 278.61 161.93"><defs><style>.cls-1{fill:#efd358;}.cls-2{fill:#fffef4;}.cls-3{fill:#364844;stroke:#fff;stroke-miterlimit:10;}.cls-4{fill:#fff;}</style></defs><title>1590 Tilia-1</title><g id="Layer_2" data-name="Layer 2"><g id="Layer_1-2" data-name="Layer 1"><path class="cls-1" d="M146.24,161.93c-3.24-.63-4.07-3.31-5.78-5.66-2.36-3.23-6.64-5-9.89-7.66-4.38-3.58-8.44-7.56-12.89-11.05-3.21-2.52-4.36-5.57-3.08-9.19,4-11.3,1.73-20-8.68-27-6-4-10.63-10-15.87-15.15-4-3.88-5.37-8.59-4.84-14.1.2-2,.25-5.33-.87-6-3.57-2.17-7.65-4.8-12-1.66A24,24,0,0,0,66.6,70C52.4,90.44,27.33,98.74,0,95.5a10,10,0,0,1,2.19-1.45c9.92-2.67,16.3-9.55,22.35-17.41,4.7-6.11,10.09-12.08,16.31-16.54,11.82-8.47,25-9.17,38.43-3.44,3.19,1.36,6.32,2.86,9.66,4.39,6.53-7.61,15.23-10.14,24.67-9.95,12.79.26,25.57,1.22,38.36,1.67a188.59,188.59,0,0,0,20.43-.46l-4.74-.81c.15-7.81,6.55-10.28,11.28-14.8l-16,2.19c1.8-7,8.21-9.24,14.29-13.17L169,25.11l-.12-.59,7.43-2.15-8.8-2.7-.12-1.41c3.93-.69,7.84-1.57,11.8-2s8.12.06,11.92-.9c5.7-1.45,12.5-2.4,16.44-6.11C214.45,2.7,222.42,4.07,230.24,3c7-.94,14-2,20.88-3l-3.2,4.95c6.73-.67,8.6,5.21,12.74,7.95,4.43,2.93,9.35,5.39,13.06,9.07,2.42,2.4,3.07,6.6,4.88,10.86h-9.25l2.93,3.25c-6.33,4.21-9.58,3.31-14.27-1.23-2-1.9-6.29-2.05-9.47-1.83-4.17.29-8.21,2-12.38,2.63-4.64.68-7.68,3.76-7.88,8.39-.25,5.81-.83,11.6-1,17.4a12.19,12.19,0,0,0,1.1,5.25c3.22,7.1,4.29,14.35,1.81,21.84-1.16,3.52.32,5,3.47,5.49,4.26.72,8.54,1.38,12.81,2.05,5.68.89,9.48,3.61,11.81,9.29,3.07,7.47,7.4,14.4,10.73,21.77,1.52,3.35,1.95,7.2,2.93,11.07-8.36-.26-10.52-2.94-10.22-10.38.08-2-1.45-4.19-2.47-6.17-1.89-3.68-3.85-7.33-5.94-10.91-2.52-4.31-6.24-6.16-11.32-5.46-3.1.42-6.26.35-9.8.53a32.17,32.17,0,0,0,1,4c1.34,3.29.5,5.66-2.45,7.7a27,27,0,0,0-6.34,5.6c-7,9.34-16.67,5.86-26,6.54,3.87-10.68,7.64-12.21,13.2-6.2,3.65-2.31,7.4-4.46,10.87-7,1.17-.85,1.62-2.69,2.4-4.08-1.29-.58-2.54-1.51-3.89-1.68-14.61-1.92-29-5.41-44.05-3.21-11.94,1.74-23.88-.68-35.49-4.07-2.21-.64-4.43-1.26-7.28-2.07-.52,4.7-1.21,8.94-1.4,13.21-.18,4.07,2.28,6.5,6.09,7.42a32.55,32.55,0,0,0,7.39,1.1c9.38,0,15.89,5.18,21.34,12,1.58,2,2.17,4.72,3.28,7.25-9.51,1.27-9.86,1-13.86-6.1a8.3,8.3,0,0,0-4.48-3.7c-7.63-2-15.38-3.66-22.74-5.35-4.1,6.8,1.7,14.14,7.73,18.75,3.56,2.73,7.59,5,10.72,8.1,2,2,2.71,5.24,4,7.92ZM243.67,3.48c-5.87,2.24-10.24,5-14.85,5.48-19.85,2.16-32.22,13.9-40.6,30.75a18.39,18.39,0,0,0-1.35,11c2.93,14.93,13.61,23.9,25.83,31.32.78.47,3.75-.74,3.95-1.58.8-3.48,1.58-7.19,1.17-10.68-1.46-12.49-.23-24.07,8.11-34.31,1.47-1.81.89-5.3,1.25-8L225.72,27l-8.5,6.62-.25-.43,14.83-16.34C229.93,27.17,235,33,243.29,30.93c3.05-.77,5.92-2.32,9-3,2.39-.55,5-.34,7.44-.46l.06,1.33-4.78.41c1.94,1.42,4.26,2.24,4.89,3.75,1.8,4.32,4.53,3.21,7.77,2.46-.84-1.83-4.43-1.65-4-7.75,3.32.56,7.68,3.7,10.59,4.18-2.65-10-23.08-24.38-34.16-24.23Z"/><path class="cls-2" d="M243.67,3.48l-3.6,4.12c11.08-.15,31.51,14.24,34.16,24.23a28.24,28.24,0,0,1-10.12-4.09c.84,5.09,2.47,6.28,3.52,7.65-3.24.75-6,1.87-7.77-2.46-.63-1.52-2.95-2.33-4.89-3.75l4.78-.41-.06-1.33c-2.49.13-5.05-.09-7.44.46-3.06.7-5.93,2.25-9,3C235,33,229.93,27.17,231.81,16.84L217,33.19l.25.43,8.5-6.62,1.44.44c-.37,2.71-.07,6-1.25,8-7,11.84-10.94,20.54-7,32.48,1.94,5.85,4.92,13,2.25,19-11.33-2.33-23.67,0-27.14,13.21-17.86,2.52-29.36,2.29-58.36-6.21-2-17.33-11-35-33.33-25,4.83-29.5,54,0,79.33-10.83,2.8-1.2,2.49-.83,3.75-6.17,1.09-4.59,1.22-9.07,2.78-12.22C196.6,22.86,209,11.12,228.82,9,233.43,8.46,237.8,5.72,243.67,3.48Zm11.59,14.16c-1.77-4.86-4.15-5.75-11.42-4.17C247.71,14.89,249.86,20.63,255.26,17.64Z"/><path d="M255.26,17.63c-5.39,3-7.55-2.75-11.42-4.17C251.11,11.89,253.49,12.77,255.26,17.63Z"/></g><g id="Layer_2-2" data-name="Layer 2"><path class="cls-3" d="M169.93,52.51s4.88,42.41,13.27,54.3c-4.23.13-6.7,0-6.7,0s-9.57-19.88-11.63-53.47Z"/><path class="cls-3" d="M124.64,51.47l-5.46,31.1s41.63,7.69,55.81,0c-3.33-23-5.06-30.06-5.06-30.06S155.76,54.6,124.64,51.47Z"/></g><g id="Text_Outline" data-name="Text Outline"><path class="cls-4" d="M136.6,67.25l-1.88,11.3-1.79-.3,1.52-9.11a5.77,5.77,0,0,1-1.14.42,8.72,8.72,0,0,1-1.35.22l.25-1.53.92-.16q.44-.09.88-.23t.89-.31q.45-.18.95-.42Z"/><path class="cls-4" d="M138,78.79l.18-1.73a4,4,0,0,0,2.15,1,2.76,2.76,0,0,0,1.89-.39,1.92,1.92,0,0,0,.85-1.47,1.75,1.75,0,0,0-.55-1.55,3.33,3.33,0,0,0-2-.74q-.45,0-1.84-.1l1-5.82,5.49.57L145,70.08l-4-.42-.48,2.77,1,.07a3.86,3.86,0,0,1,2.64,1.19,3.26,3.26,0,0,1,.71,2.59,3.42,3.42,0,0,1-1.38,2.54,4.4,4.4,0,0,1-3.15.68A5.06,5.06,0,0,1,138,78.79Z"/><path class="cls-4" d="M154.5,73.76a10.11,10.11,0,0,1-.39,2.89,5.71,5.71,0,0,1-1,2,3.94,3.94,0,0,1-1.5,1.14,4.58,4.58,0,0,1-1.84.36,5.42,5.42,0,0,1-.64,0l-.62-.11-.53-.14-.39-.15V78.06a3.26,3.26,0,0,0,.41.21,4.22,4.22,0,0,0,.53.19,5.21,5.21,0,0,0,.59.14,3.7,3.7,0,0,0,.6.06,2.79,2.79,0,0,0,1.21-.25,2.48,2.48,0,0,0,.93-.76,3.7,3.7,0,0,0,.6-1.26,6.62,6.62,0,0,0,.22-1.74h0a2.11,2.11,0,0,1-.37.47,2.62,2.62,0,0,1-.53.39,2.94,2.94,0,0,1-.66.26,2.86,2.86,0,0,1-.78.1A3.45,3.45,0,0,1,149,75.6a3.09,3.09,0,0,1-1-.71,3.22,3.22,0,0,1-.69-1.11,3.92,3.92,0,0,1-.24-1.45,4.12,4.12,0,0,1,.3-1.58,3.47,3.47,0,0,1,2-2,4,4,0,0,1,1.49-.26,3.66,3.66,0,0,1,1.43.3,3.1,3.1,0,0,1,1.18.92,4.63,4.63,0,0,1,.8,1.61A8.21,8.21,0,0,1,154.5,73.76Zm-1.88-1.21a3.38,3.38,0,0,0-.14-1,2.44,2.44,0,0,0-.4-.79,1.82,1.82,0,0,0-.61-.51,1.69,1.69,0,0,0-.78-.19,1.72,1.72,0,0,0-.72.15,1.77,1.77,0,0,0-.6.43,2.1,2.1,0,0,0-.41.68,2.53,2.53,0,0,0-.16.88,2.8,2.8,0,0,0,.14.94,2,2,0,0,0,.4.69,1.68,1.68,0,0,0,.62.43,2.15,2.15,0,0,0,.8.15,1.79,1.79,0,0,0,.72-.14,1.86,1.86,0,0,0,.58-.39,1.79,1.79,0,0,0,.39-.58A1.84,1.84,0,0,0,152.61,72.55Z"/><path class="cls-4" d="M160.41,79.64a3.13,3.13,0,0,1-2.88-1.11,7.29,7.29,0,0,1-1.45-4,8.08,8.08,0,0,1,.5-4.58,3.34,3.34,0,0,1,2.76-1.85q3.67-.43,4.33,5.28a7.56,7.56,0,0,1-.54,4.43A3.36,3.36,0,0,1,160.41,79.64Zm-1-10.09q-2,.24-1.51,4.7.48,4.17,2.47,3.94t1.46-4.47Q161.34,69.33,159.42,69.55Z"/></g></g></svg>