<svg xmlns="http://www.w3.org/2000/svg" viewBox="0 0 200 162.81"><defs><style>.cls-1{fill:#efd358;}.cls-2{fill:#fffef4;}.cls-3{fill:#364844;stroke:#fff;stroke-miterlimit:10;}.cls-4{fill:#fff;}</style></defs><title>1590 Tilia-4</title><g id="Layer_2" data-name="Layer 2"><g id="Layer_1-2" data-name="Layer 1"><path class="cls-1" d="M195.72,34.51c-7.05,5.35-11.32,4.38-15.73.24-2.07-1.94-6.49-2-9.8-1.83a48.6,48.6,0,0,0-11.39,2.46,10.49,10.49,0,0,0-4.79,3c-7.73,9.1-11.17,19.94-11.87,31.66-.39,6.42-2.17,11.82-6.89,16.55A19.55,19.55,0,0,0,130,96.44c-2.25,13.23-5.49,26.48-3.16,40.07,1,5.78,2.53,11.37,7.27,15.5.86.75,1.67,2.45,1.39,3.36s-2.08,1.58-3.2,1.55c-3.06-.07-6.12-.56-10.54-1,4-5.06,2.07-7.9.58-11.59-2-4.89-1.91-10.67-2.36-16.1-.52-6.22-.65-12.47-1.33-18.71a57.58,57.58,0,0,0-6,29.79c.23,3,2.87,5.69,4.16,8.64a44.54,44.54,0,0,1,1.69,5.84c-2.71.24-5.46.86-8.09.51-.93-.12-1.86-2.54-2.24-4-1-3.75-1.65-7.57-2.33-11.39-.25-1.39-.62-3.06-.11-4.24,5.63-13.06,2.25-26.59,2.73-40-8.92-1-17.58-1.39-26-3.14C71,89,59.61,85.73,48.29,82.43c-4-1.15-6.53-.83-8.75,2.94-9.38,15.9-15.33,32.63-11.3,51.29,1.15,5.31,4.48,10.19,7.06,15.14,1.1,2.11,2.83,3.89,5.22,7.08-4.15,0-7,.47-9.59-.2-1.32-.34-2.3-2.62-3.1-4.2-1.22-2.42-2.17-5-3.2-7.5a41.71,41.71,0,0,1-2.45-6.36c-1.46-6.44-2.67-12.94-4.89-19.25-3,14.32-5.34,28.53,7.91,41.42-3.94,0-6,0-8.11,0-5.86,0-5.83-.18-5-5.73.27-1.78,0-4.61-1.12-5.44-3.76-2.78-2.61-6.31-2.72-9.91-.31-9.76-.6-19.55-1.7-29.24-.44-3.84-3.43-7.33-4.47-11.18C.93,97,.66,92.47,0,88V81c.68-5.76.67-11.7,2.19-17.23,2.42-8.84,4-18.53,13.65-23.23,12.37-6,25.24-8.17,38.79-4.92,5.82,1.39,11.66,2.72,17.48,4.11,10.65,2.55,20.86,2.43,29.63-5.28a51.19,51.19,0,0,0,5.49-6.12,67.4,67.4,0,0,1,29.5-21.07l-5-.53-.11-1.31L172.87,0l-2.45,4.11c2.65.93,5.26,1.27,7.11,2.64,3,2.23,5.17,5.71,8.32,7.63,6.66,4.05,13.1,8,14.15,16.66v2h-7.93m-51.25-1.11-.39-.48,11.88-13.31c1.15,3.37,1.52,7.53,3.71,10.18,3,3.65,7.69,3.17,12.05,1.47,3.1-1.2,6.31-2.13,9.48-3.15.17-.05.46.24.69.38L177,29c1.86,1.42,4.11,2.33,5,4,2,3.93,4.46,3.66,7.57,1.91-.75-1.55-9.1-6.42-10-8.19,3.33.43,13.58,4.28,16.69,4.68-2.61-8.11-8.52-11.77-14.69-15.54s-11.33-9.11-19.41-8.29l-.88-1.28,4.21-1.55c-6.15.92-11.39,3.32-16.86,4.08-23.09,3.21-39,24.18-42.22,42.08-1.31,7.38-2.42,15.71,4.8,20.66,6.07,4.16,7.85,1.36,14.77,4.08,4.5,1.77,6.92,1,7.25-3.75.46-6.64,5.87-7.77,6.25-15.75a33,33,0,0,1,7.39-19.37c2.76-3.43,2.27-6.32,1.26-10.31Z"/><path class="cls-2" d="M140.82,31.93l7.33-5.56c1,4,1.5,6.88-1.26,10.31-4.22,5.26-4.41,11.23-6.26,18.61-.65,2.59-5.4,17.5-8,22.75-1.72,3.45-12.33-1.62-22.33,7.34-27,5-60.07-6.88-74.67-10.68-2.69-.7.33-6.33-20.67-15.33-.67-39.93,81.61,1.26,90.53-14C116.19,27,125.65,11.64,148.65,8.72c5.48-.69,10.71-3.16,16.86-4.08l-4.21,1.55.88,1.28c8.08-.81,13.3,4.56,19.41,8.29s12.08,7.44,14.69,15.54c-3.12-.4-6.28-2.34-10.53.65,3,1.31,3,1.31,3.79,2.86-3.11,1.75-5.54,2-7.57-1.91-.84-1.63-3.09-2.53-5-4L178.24,27c-.23-.13-.52-.43-.69-.38-3.17,1-6.38,1.94-9.48,3.15-4.36,1.69-9,2.18-12.05-1.47-2.2-2.65-2.57-6.81-3.71-10.18L140.43,31.45Zm36.86-12.49c-1.93-6.88-4.91-8.09-13.06-6.33ZM132.61,78c-1.72,3.45-7.67-6-22.33,7.34C83.37,90.84-3,66.38,23.61,44"/><path d="M177.68,19.44l-13.06-6.33C172.77,11.35,175.75,12.57,177.68,19.44Z"/></g><g id="Layer_2-2" data-name="Layer 2"><path class="cls-3" d="M89.18,42s4.94,40.54,13.33,52.43A20,20,0,0,1,96,93.83s-9.9-18.2-12-51.79Z"/><path class="cls-3" d="M44.06,34.64l-5.58,34s41.63,7.69,55.81,0C91.88,57.34,89.18,42,89.18,42S72.84,43.21,44.06,34.64Z"/></g><g id="Text_Outline" data-name="Text Outline"><path class="cls-4" d="M56,55.57l-1.88,11.3-1.79-.3,1.52-9.11a5.8,5.8,0,0,1-1.14.42,8.78,8.78,0,0,1-1.35.21l.25-1.53.92-.17c.29-.06.59-.14.88-.22s.59-.19.89-.31.62-.26.95-.42Z"/><path class="cls-4" d="M57.43,67.11l.18-1.73a4,4,0,0,0,2.15,1A2.76,2.76,0,0,0,61.64,66a1.92,1.92,0,0,0,.85-1.47,1.75,1.75,0,0,0-.55-1.55,3.33,3.33,0,0,0-2-.74q-.45,0-1.84-.1l1-5.82,5.49.57-.16,1.54-4-.42L60,60.75l1,.07A3.86,3.86,0,0,1,63.63,62a3.26,3.26,0,0,1,.71,2.59A3.42,3.42,0,0,1,63,67.14a4.4,4.4,0,0,1-3.15.68A5.06,5.06,0,0,1,57.43,67.11Z"/><path class="cls-4" d="M73.93,62.08A10.11,10.11,0,0,1,73.55,65a5.71,5.71,0,0,1-1,2A3.94,3.94,0,0,1,71,68.09a4.57,4.57,0,0,1-1.84.36,5.52,5.52,0,0,1-.64,0l-.62-.11-.53-.14L67,68V66.37a3.26,3.26,0,0,0,.41.21,4.22,4.22,0,0,0,.53.19,5.42,5.42,0,0,0,.59.14,3.76,3.76,0,0,0,.6.06,2.79,2.79,0,0,0,1.21-.25,2.48,2.48,0,0,0,.93-.76,3.69,3.69,0,0,0,.6-1.26A6.62,6.62,0,0,0,72.1,63h0a2.11,2.11,0,0,1-.37.47,2.64,2.64,0,0,1-.53.39,2.94,2.94,0,0,1-.66.26,2.86,2.86,0,0,1-.78.09,3.45,3.45,0,0,1-1.31-.26,3.1,3.1,0,0,1-1-.71,3.23,3.23,0,0,1-.69-1.11,3.92,3.92,0,0,1-.24-1.45,4.12,4.12,0,0,1,.3-1.58,3.47,3.47,0,0,1,2-2,4.07,4.07,0,0,1,1.49-.26,3.67,3.67,0,0,1,1.43.3,3.1,3.1,0,0,1,1.18.92,4.62,4.62,0,0,1,.8,1.61A8.21,8.21,0,0,1,73.93,62.08Zm-1.88-1.21a3.39,3.39,0,0,0-.14-1,2.45,2.45,0,0,0-.4-.79,1.82,1.82,0,0,0-.61-.51,1.69,1.69,0,0,0-.78-.19,1.71,1.71,0,0,0-.72.15,1.76,1.76,0,0,0-.6.43,2.09,2.09,0,0,0-.41.68,2.53,2.53,0,0,0-.16.88,2.8,2.8,0,0,0,.14.94,2,2,0,0,0,.4.69,1.7,1.7,0,0,0,.62.43,2.15,2.15,0,0,0,.8.15,1.79,1.79,0,0,0,.72-.14,1.85,1.85,0,0,0,.58-.39,1.78,1.78,0,0,0,.39-.58A1.83,1.83,0,0,0,72.05,60.87Z"/><path class="cls-4" d="M79.85,68A3.13,3.13,0,0,1,77,66.85a7.29,7.29,0,0,1-1.45-4,8.09,8.09,0,0,1,.5-4.58,3.34,3.34,0,0,1,2.76-1.85q3.67-.43,4.33,5.28a7.56,7.56,0,0,1-.54,4.43A3.36,3.36,0,0,1,79.85,68Zm-1-10.09q-2,.24-1.51,4.7.48,4.17,2.47,3.94T81.28,62Q80.77,57.65,78.86,57.87Z"/></g></g></svg>