<svg id="Layer_1" data-name="Layer 1" xmlns="http://www.w3.org/2000/svg" viewBox="0 0 320 212.46"><defs><style>.cls-1{fill:#49282c;}.cls-2{fill:#dc873e;}.cls-3{fill:#fff;}</style></defs><title>horses_racing_</title><path class="cls-1" d="M167,180c-10.43-3.31-12.27-5.94-10.17-11.33-7.22-5.33-14.39-10.7-21.67-15.92a44.3,44.3,0,0,0-7.74-4.49c-5.54-2.46-5.59-2.34-5.76-7.17-2.33-1.86-5.59-3.36-5.5-4.63,0.15-2.17,2-4.63,3.84-6.18,2.89-2.46,6.47-4.1,9.48-6.44,2-1.56,4.15-4.17,0-5.6-13.52-4.7-20.17-14-19.28-29.92-4.24,3-7.66,5-10.49,7.56-5.94,5.42-12.22,9.7-20.69,9.66a6.24,6.24,0,0,0-4,1.59c-11.73,11.65-34.23,11.05-48-5.15-2-2.41-4-4.93-6.24-7.15s-4.53-3.83-6.7-5.63a21.46,21.46,0,0,1,21.57.58c8.43,5.25,15.94,4.88,23.42-1.14C69.38,80.35,80.33,80.69,92.54,84c7.75,2.11,16.39,1.36,23.3-4.57,11-9.43,23.45-12.88,37.64-9.17,15.32,4,30.81,5.4,46.49,2.54,3.18-.58,6.21-1.94,9.31-2.95l-0.1-1.38-7.93-.85,11.12-8-5.55-1c4.91-6,12.84-6.29,17.45-10.27,5.48-4.73,11.81-4.25,18.09-7.36L238,40.38l-0.16-1.33,19.51-2.8c5.85-.84,11.7-1.64,17.54-2.53,1.56-.24,3.09-0.72,5.33-1.26l-3.08,4.77a2.89,2.89,0,0,0,.74.88c3,1.09,5.76,1.59,8.21,4.87,3,4,8.4,6.32,12.9,9.14,5.21,3.27,7.21,8,6.88,14.17h-7.31l-0.84,1,4,1.41c-6.72,4.74-10.64,3.81-15.11-.45-2-1.92-6.29-2.17-9.47-2-4.16.25-8.22,1.9-12.38,2.53-4.53.68-9.43,5.38-10.4,10-1.22,5.81-2.94,11.51-4.23,17.31-1.1,5-1.67,10-2.93,15-0.9,3.51-2.54,6.82-4.4,11.63,2.66,2.24,6.41,5.59,10.36,8.7,7.56,5.94,7,11.74-1.21,16.57a53.93,53.93,0,0,0-10.17,7.92c-2.35,2.28-4.49,3.42-7.88,3-5.78-.67-11.28.1-15.15,5.35a7.67,7.67,0,0,1-2.8,2c-4.13,2-8.74,3.42-12.37,6.11-8.12,6-15.28,2.62-22.53-1.32-2.86-1.55-5.5-3.48-9.45-6,5-1.58,8.68-3.07,12.47-3.73,1.34-.23,3.32,1.28,4.5,2.5,4,4.12,9.57,5,14.95,2.26,6.49-3.29,10.31-7.88,9.61-15.74-0.48-5.45.15-11,0-16.48-0.11-4.85-2.46-7.43-7.07-7-15.38,1.5-29.69-2.55-43.84-7.74a17.91,17.91,0,0,0-2.28-.53c-4.56,8.6-16.57,10.16-18.55,21.13,2.92,1.27,6.13,3.33,9.61,4,7.47,1.51,8.67,7.17,10.09,13.13,0.66,2.79,2.48,5.31,3.14,8.1C165.45,169.91,166.13,175,167,180ZM302.89,64.92c-3.92-10.71-23-23.78-34.31-23.82l2.4-3.48c-5.14,1.65-9.57,3.88-14.21,4.44-24.92,3-42.36,25.83-44.55,46.71-1,9.14,2,14.82,10.11,19.11,2.94,1.56,3.85-2.35,6.73-.7,3.77,2.16,5.42-1.14,6.75-5,1.93-5.63,6.42-4,8.36-9.6,2.47-7.17,4.58-14.68,8.44-21.09,2.36-3.92,3.89-6.87,1.85-11.5l-9.88,8-0.35-.42L259,51.81c1,3.21,1.31,7.33,3.44,10,3,3.69,7.63,3.3,12,1.62C277.95,62,281.6,61,286,59.49l-2.5,3.06c1.82,1.33,4.19,2.18,5,3.79,2,4.09,4.52,3.6,7.74,2.15l-2.34-4.77Zm-73,65.71-5.14,17.74,6.45,4.23c5-2.81,10.55-5.61,15.74-9,3.69-2.39,3.24-5.2-.87-6.9C241,134.63,235.79,132.85,229.84,130.63Z"/><path class="cls-2" d="M302.89,64.92l-9-1.2,2.34,4.77c-3.22,1.45-5.79,1.95-7.74-2.15-0.77-1.61-3.14-2.46-5-3.79l2.5-3.06C281.6,61,277.95,62,274.41,63.4c-4.38,1.68-9,2.07-12-1.62-2.13-2.64-2.41-6.77-3.44-10L244.24,67.56,244.58,68l9.88-8c2,4.62.51,7.57-1.85,11.5-3.85,6.41-6,13.92-8.44,21.09-1.94,5.63-2.61,15.67-7.13,22.93-4-5.83-28.65-14-27.48,4.92-3,.33-22.57,2.74-47.88-8.69-0.88-6.07-6.62-29.31-37.12-20.56-0.65-2.41,1.32-9.4,8.75-12.5,15.89-6.64,55.92,12.83,80.43,2.21,5.16-18.4,21.22-36.22,43-38.83,4.64-.55,9.07-2.78,14.21-4.44l-2.4,3.48C279.88,41.14,299,54.21,302.89,64.92ZM283,52.51l0.81-1.71c-1.94-4.68-5.47-6-11.85-3.9Z"/><path class="cls-3" d="M229.84,130.63c5.95,2.22,11.13,4,16.18,6.09,4.11,1.7,4.56,4.51.87,6.9-5.19,3.36-10.75,6.17-15.74,9l-6.45-4.23Z"/><path d="M283,52.51L272,46.9c6.38-2.06,9.91-.78,11.85,3.9Z"/></svg>