<svg id="Layer_1" data-name="Layer 1" xmlns="http://www.w3.org/2000/svg" viewBox="0 0 312 231.71"><defs><style>.cls-1{fill:#fff9ea;stroke:#7a6c2d;stroke-miterlimit:10;stroke-width:3px;}.cls-2{fill:#efd358;}</style></defs><title>horses_racing_</title><path class="cls-1" d="M162.94,211.92c-3.24-.63-4.07-3.31-5.78-5.66-2.36-3.23-6.64-5-9.89-7.66-4.38-3.58-8.44-7.56-12.89-11.05-3.21-2.52-4.36-5.57-3.08-9.19,4-11.3,1.73-20-8.68-27-6-4-10.63-10-15.87-15.15-4-3.88-5.37-8.59-4.84-14.1,0.2-2,.25-5.33-0.87-6-3.57-2.17-7.65-4.8-12-1.66a24,24,0,0,0-5.73,5.51C69.09,140.43,44,148.72,16.7,145.49A10,10,0,0,1,18.88,144c9.92-2.67,16.3-9.55,22.35-17.41,4.7-6.11,10.09-12.08,16.31-16.54,11.82-8.47,25-9.17,38.43-3.44,3.19,1.36,6.32,2.86,9.66,4.39,6.53-7.61,15.23-10.14,24.67-9.95,12.79,0.26,25.57,1.22,38.36,1.67a188.59,188.59,0,0,0,20.43-.46l-4.74-.81c0.15-7.81,6.55-10.28,11.28-14.8l-16,2.19c1.8-7,8.21-9.24,14.29-13.17l-8.24-.63-0.12-.59L193,72.36l-8.8-2.7L184,68.26c3.93-.69,7.84-1.57,11.8-2s8.12,0.06,11.92-.9c5.7-1.45,12.5-2.4,16.44-6.11,6.94-6.53,14.92-5.17,22.73-6.22,7-.94,14-2,20.88-3l-3.2,4.95c6.73-.67,8.6,5.21,12.74,7.95,4.43,2.93,9.35,5.39,13.06,9.07,2.42,2.4,3.07,6.6,4.88,10.86h-9.25L289,86.06c-6.33,4.21-9.58,3.31-14.27-1.23-2-1.9-6.29-2.05-9.47-1.83-4.17.29-8.21,2-12.38,2.63-4.64.68-7.68,3.76-7.88,8.39-0.25,5.81-.83,11.6-1,17.4a12.19,12.19,0,0,0,1.1,5.25c3.22,7.1,4.29,14.35,1.81,21.84-1.16,3.52.32,5,3.47,5.49,4.26,0.72,8.54,1.38,12.81,2.05,5.68,0.89,9.48,3.61,11.81,9.29,3.07,7.47,7.4,14.4,10.73,21.77,1.52,3.35,1.95,7.2,2.93,11.07-8.36-.26-10.52-2.94-10.22-10.38,0.08-2-1.45-4.19-2.47-6.17-1.89-3.68-3.85-7.33-5.94-10.91-2.52-4.31-6.24-6.16-11.32-5.46-3.1.42-6.26,0.35-9.8,0.53a32.17,32.17,0,0,0,1,4c1.34,3.29.5,5.66-2.45,7.7a27,27,0,0,0-6.34,5.6c-7,9.34-16.67,5.86-26,6.54,3.87-10.68,7.64-12.21,13.2-6.2,3.65-2.31,7.4-4.46,10.87-7,1.17-.85,1.62-2.69,2.4-4.08-1.29-.58-2.54-1.51-3.89-1.68-14.61-1.92-29-5.41-44.05-3.21-11.94,1.74-23.88-.68-35.49-4.07-2.21-.64-4.43-1.26-7.28-2.07-0.52,4.7-1.21,8.94-1.4,13.21-0.18,4.07,2.28,6.5,6.09,7.42a32.55,32.55,0,0,0,7.39,1.1c9.38,0,15.89,5.18,21.34,12,1.58,2,2.17,4.72,3.28,7.25-9.51,1.27-9.86,1-13.86-6.1a8.3,8.3,0,0,0-4.48-3.7c-7.63-2-15.38-3.66-22.74-5.35-4.1,6.8,1.7,14.14,7.73,18.75,3.56,2.73,7.59,5,10.72,8.1,2,2,2.71,5.24,4,7.92h-6ZM260.37,53.47c-5.87,2.24-10.24,5-14.85,5.48-19.85,2.16-32.22,13.9-40.6,30.75a18.39,18.39,0,0,0-1.35,11c2.93,14.93,13.61,23.9,25.83,31.32,0.78,0.47,3.75-.74,3.95-1.58,0.8-3.48,1.58-7.19,1.17-10.68-1.46-12.49-.23-24.07,8.11-34.31,1.47-1.81.89-5.3,1.25-8L242.42,77l-8.5,6.62-0.25-.43L248.5,66.83C246.63,77.16,251.65,83,260,80.92c3.05-.77,5.92-2.32,9-3,2.39-.55,5-0.34,7.44-0.46l0.06,1.33-4.78.41c1.94,1.42,4.26,2.24,4.89,3.75,1.8,4.32,4.53,3.21,7.77,2.46-0.84-1.83-4.43-1.65-4-7.75,3.32,0.56,7.68,3.7,10.59,4.18-2.65-10-23.08-24.38-34.16-24.23Z"/><path class="cls-2" d="M260.37,53.47l-3.6,4.12c11.08-.15,31.51,14.24,34.16,24.23a28.24,28.24,0,0,1-10.12-4.09c0.84,5.09,2.47,6.28,3.52,7.65-3.24.75-6,1.87-7.77-2.46-0.63-1.52-2.95-2.33-4.89-3.75l4.78-.41-0.06-1.33c-2.49.13-5.05-.09-7.44,0.46-3.06.7-5.93,2.25-9,3-8.34,2.11-13.37-3.77-11.49-14.09L233.67,83.18l0.25,0.43,8.5-6.62,1.44,0.44c-0.37,2.71-.07,6-1.25,8-7,11.84-10.94,20.54-7,32.48,1.94,5.85,4.92,13,2.25,19-11.33-2.33-23.67,0-27.14,13.21-17.86,2.52-29.36,2.29-58.36-6.21-2-17.33-11-35-33.33-25,5.33-26.13,52.72-.52,78.17-11.08a17.34,17.34,0,0,0,2.08-.75c1.57-4.44,4.05-14.24,5.61-17.38,8.38-16.85,20.76-28.6,40.6-30.75C250.13,58.45,254.49,55.71,260.37,53.47ZM272,67.62c-1.77-4.86-4.15-5.75-11.42-4.17C264.41,64.87,266.56,70.62,272,67.62Z"/><path d="M272,67.62c-5.39,3-7.55-2.75-11.42-4.17C267.81,61.88,270.19,62.76,272,67.62Z"/></svg>