<svg xmlns="http://www.w3.org/2000/svg" viewBox="0 0 241.94 147.59"><defs><style>.cls-1{fill:#201011;}.cls-2{fill:#943b21;}.cls-3{fill:#364844;stroke:#fff;stroke-miterlimit:10;}.cls-4{fill:#fff;}</style></defs><title>1715 Tilia-3</title><g id="Layer_2" data-name="Layer 2"><g id="Layer_1-2" data-name="Layer 1"><path class="cls-1" d="M214.7,0l-2.78,5.05c8.39,6,17,11.58,24.79,18.11,2.64,2.21,3.21,6.88,5.23,11.59l-9.29-.51,2.63,3c-5.39,4.3-9.19,3.35-14.34-1.17-2.14-1.88-6.64-1.6-10-1.41A47.62,47.62,0,0,0,200,37a8.45,8.45,0,0,0-4.57,3.07C190,49,186.91,58.45,185,68.86c-1.58,8.59,1.6,12.91,6.82,18.17,12,12,23.46,24.56,35.07,37,1.19,1.27,1.87,3,2.81,4.59-6.45,2.88-9,2-11.84-3.83-.14-.3-.22-.85-.39-.88-6.91-1.16-7.13-8.24-10.46-12.4-6.84-8.56-16.49-12.84-25.06-18.74-2.92-2-6.6-2.93-9.93-4.34-3.13-1.32-5,.11-5.29,3.1-1.46,17.14-5.09,34.36,1.43,51.31.46,1.2.3,3.83-.21,4a14.19,14.19,0,0,1-6.17.7c-.68-.07-1.55-2-1.67-3.13-.85-8-1.51-16.1-2.26-24.16q-1.46-15.63-3-31.26c-.08-.81-.25-1.6-.46-2.94-2.72.26-5.29.56-7.87.74-12.9.91-25.11-1.89-37.07-6.51A66.74,66.74,0,0,0,96.6,76.87c-1.34-.23-3.62,1-4.4,2.26C87.67,86.43,84.08,94.4,79,101.24c-6.69,8.93-8,17.1-.74,26.2a59.07,59.07,0,0,1,6.42,11.13c.38.79-.91,3.44-1.38,3.42-1.8-.06-4.61-.3-5.21-1.44-4.65-8.82-8.56-18-13.37-26.77-2.11-3.82-2.43-6.24.63-9.61,6.3-6.94,7.23-11.56,4.59-19.67-1.89,1.15-4,1.92-5.36,3.36C54.94,97.75,44.81,107.24,36.29,118c-3.6,4.55-7.65,8.59-11.51,12.79-1.57,1.71-5.16,2.6-7.5,2.15-1.33-.26-2.4-3.9-2.78-6.16-.17-1,1.54-3.07,2.68-3.29,2.28-.46,3.91-2.41,5.32-2.88,8.84-2.94,10-11.56,14.46-17.67,3.4-4.64,6.4-9.77,10.56-13.61C54.5,82.88,57.4,75,58.46,66c.89-7.58,1.54-15.26,8.8-20.4l-1.22-1c-1.75,1-3.86,1.72-5.18,3.15C55,54,47.43,56,39.3,56.81c-13.75,1.36-19.44,6.26-22.81,19.64-1.28,5.1-2.82,10-9.62,11.65,6.25-7.85,5.52-16.42,5.22-25-4.59.66-4.59.66-11.88,16.38,0-4.77-.58-9.63.15-14.28a15.65,15.65,0,0,1,9-11.9c4.45-2.11,9.16-3.67,14.78-5.87L8.12,37.4v-.81c3.54.68,7.18,1,10.58,2.12,6.6,2.13,13,2.43,19.48-.31,8.89-3.74,18-3.23,26.83,0,4.16,1.51,7.72,1.75,11.91-.12,7.62-3.4,15.8-3.67,24-2.73,8.43,1,16.87,1.92,25.32,2.71,6.39.6,8.83-.35,14.51-5.13l-5.22-1.69c2.91-2.17,5.53-4.14,8.16-6.1s5.08-3.74,7.77-5.73l-1.39-1.72c6.65-3,13.21-6.62,20.22-8.8,7.53-2.34,15.46-4.32,23.27-4.52,7.23-.18,13.62-2,20.08-4.56ZM206,5.68c-6.72,1.89-13.32,4-20.05,5.58-9.75,2.27-17.49,7.5-24.61,14.38-8.05,7.79-8.13,16.47-4.55,26a43.22,43.22,0,0,0,2.65,5.86c4,7.18,2.71,1.74,10.85,5.49.15-1.56,4.33,0,6-4.67C180.09,47.74,180.85,49,187,39.61c2.54-3.85,4-6.86,2-11.43l-7.64,5.72-.27-.48,13.13-14.64c-1.39,4.52-.76,8.25,2.56,11.21,3.62,3.22,7.82,3.15,12.17,1.49,3.38-1.29,6.82-2.43,11.21-4l-2.17,3.23c1.83,1.23,4.27,2,4.85,3.43,1.73,4.4,4.49,3.5,7.76,2.45l-2.22-4.7,9.22,1.21c-3.14-7.33-8.08-11.86-14.5-15.46S211.61,8.17,202.8,9.17Z"/><path class="cls-2" d="M206,5.68,202.8,9.17c8.81-1,14,4.92,20.35,8.48s11.35,8.13,14.5,15.46l-9.22-1.21,2.22,4.7c-3.27,1-6,1.94-7.76-2.45-.58-1.47-3-2.2-4.85-3.43l2.17-3.23c-4.38,1.55-7.82,2.68-11.21,4-4.35,1.67-8.55,1.74-12.17-1.49-3.33-3-4-6.69-2.56-11.21L181.15,33.41l.27.48,7.64-5.72c1.92,4.57.51,7.59-2,11.43-6.19,9.39-12.35,27-12.5,28.59-8.14-3.75-16.57,3.14-17.9,9.22-.85,3.89-23.33,5.26-68.33-10.41C87.53,51.65,79.64,49,76,47.67,93.64,30,131.6,69.36,159.64,26.33,165,18,176.21,13.52,186,11.26,192.69,9.7,199.29,7.57,206,5.68Zm1.17,8.76c3.67,1.92,5.84,7.68,11.45,4.49C216.69,12.6,211.48,14.52,207.18,14.44Z"/><path d="M207.18,14.44c4.31.08,9.51-1.84,11.45,4.49C213,22.11,210.84,16.35,207.18,14.44Z"/></g><g id="Layer_2-2" data-name="Layer 2"><path class="cls-3" d="M140.33,38.66s3.14,35.72,11.53,47.61c-4.39,1.39-5.88.52-5.88.52S136.47,72,134.42,38.44Z"/><path class="cls-3" d="M94,35.07,89,63.82s41.63,7.69,55.81,0c-3.33-23-4.65-26.88-4.65-26.88C140.48,38.76,127,40,94,35.07Z"/></g><g id="Text_Outline" data-name="Text Outline"><path class="cls-4" d="M108.58,50.26,106.8,61.58,105,61.3l1.43-9.12a5.76,5.76,0,0,1-1.14.43,8.66,8.66,0,0,1-1.34.23l.24-1.53.91-.17c.29-.06.59-.14.88-.23s.59-.2.89-.32.61-.26.94-.43Z"/><path class="cls-4" d="M117.78,52.42q-.82,1.22-1.56,2.42t-1.36,2.42q-.62,1.22-1.12,2.47a20.34,20.34,0,0,0-.82,2.58L111,62.13a19.44,19.44,0,0,1,.75-2.34q.46-1.16,1-2.31t1.27-2.3q.69-1.15,1.46-2.32l-5.28-.49.14-1.54,7.45.69Z"/><path class="cls-4" d="M122.88,51.31l-.12,11.45-1.81,0,.09-9.23a5.89,5.89,0,0,1-1.06.59,8.75,8.75,0,0,1-1.3.42l0-1.55.88-.3q.42-.16.84-.36t.83-.45q.42-.24.87-.56Z"/><path class="cls-4" d="M126.34,62.46l-.16-1.73a4,4,0,0,0,2.29.53,2.77,2.77,0,0,0,1.77-.75,1.92,1.92,0,0,0,.55-1.61,1.75,1.75,0,0,0-.84-1.41,3.33,3.33,0,0,0-2.07-.34q-.45,0-1.82.27l-.16-5.9,5.49-.52.15,1.54-4,.38.08,2.81,1-.12a3.87,3.87,0,0,1,2.83.65,3.26,3.26,0,0,1,1.2,2.4,3.41,3.41,0,0,1-.86,2.76,4.4,4.4,0,0,1-3,1.29A5.06,5.06,0,0,1,126.34,62.46Z"/></g></g></svg>