<svg id="Layer_1" data-name="Layer 1" xmlns="http://www.w3.org/2000/svg" viewBox="0 0 312 204"><defs><style>.cls-1{fill:#fff9ea;stroke:#7a6c2d;stroke-miterlimit:10;stroke-width:3px;}.cls-2{fill:#efd358;}</style></defs><title>horses_racing_</title><path class="cls-1" d="M253.88,55.11c-7.05,5.35-11.32,4.38-15.73.24-2.07-1.94-6.49-2-9.8-1.83A48.6,48.6,0,0,0,217,56a10.49,10.49,0,0,0-4.79,3c-7.73,9.1-11.17,19.94-11.87,31.66-0.39,6.42-2.17,11.82-6.89,16.55a19.55,19.55,0,0,0-5.22,9.85c-2.25,13.23-5.49,26.48-3.16,40.07,1,5.78,2.53,11.37,7.27,15.5,0.86,0.75,1.67,2.45,1.39,3.36s-2.08,1.58-3.2,1.55c-3.06-.07-6.12-0.56-10.54-1,4-5.06,2.07-7.9.58-11.59-2-4.89-1.91-10.67-2.36-16.1-0.52-6.22-.65-12.47-1.33-18.71a57.58,57.58,0,0,0-6,29.79c0.23,3,2.87,5.69,4.16,8.64a44.54,44.54,0,0,1,1.69,5.84c-2.71.24-5.46,0.86-8.09,0.51-0.93-.12-1.86-2.54-2.24-4-1-3.75-1.65-7.57-2.33-11.39-0.25-1.39-.62-3.06-0.11-4.24,5.63-13.06,2.25-26.59,2.73-40-8.92-1-17.58-1.39-26-3.14-11.53-2.41-22.89-5.7-34.21-9-4-1.15-6.53-.83-8.75,2.94-9.38,15.9-15.33,32.63-11.3,51.29,1.15,5.31,4.48,10.19,7.06,15.14,1.1,2.11,2.83,3.89,5.22,7.08-4.15,0-7,.47-9.59-0.2-1.32-.34-2.3-2.62-3.1-4.2-1.22-2.42-2.17-5-3.2-7.5a41.71,41.71,0,0,1-2.45-6.36c-1.46-6.44-2.67-12.94-4.89-19.25-3,14.32-5.34,28.53,7.91,41.42-3.94,0-6,0-8.11,0-5.86,0-5.83-.18-5-5.73,0.27-1.78,0-4.61-1.12-5.44-3.76-2.78-2.61-6.31-2.72-9.91-0.31-9.76-.6-19.55-1.7-29.24-0.44-3.84-3.43-7.33-4.47-11.18-1.16-4.29-1.44-8.82-2.1-13.24v-7c0.68-5.76.67-11.7,2.19-17.23,2.42-8.84,4-18.53,13.65-23.23,12.37-6,25.24-8.17,38.79-4.92,5.82,1.39,11.66,2.72,17.48,4.11,10.65,2.55,20.86,2.43,29.63-5.28A51.19,51.19,0,0,0,165.39,49,67.4,67.4,0,0,1,194.9,27.9l-5-.53-0.11-1.31L231,20.6l-2.45,4.11c2.65,0.93,5.26,1.27,7.11,2.64,3,2.23,5.17,5.71,8.32,7.63,6.66,4.05,13.1,8,14.15,16.66v2h-7.93M199,52.53L198.58,52l11.88-13.31c1.15,3.37,1.52,7.53,3.71,10.18,3,3.65,7.69,3.17,12.05,1.47,3.1-1.2,6.31-2.13,9.48-3.15a1.51,1.51,0,0,1,.69.38l-1.22,1.94c1.86,1.42,4.11,2.33,5,4,2,3.93,4.46,3.66,7.57,1.91-0.75-1.55-9.1-6.42-10-8.19,3.33,0.43,13.58,4.28,16.69,4.68-2.61-8.11-8.52-11.77-14.69-15.54s-11.33-9.11-19.41-8.29l-0.88-1.28,4.21-1.55c-6.15.92-11.39,3.32-16.86,4.08-23.09,3.21-39,24.18-42.22,42.08-1.31,7.38-2.42,15.71,4.8,20.66,6.07,4.16,7.85,1.36,14.77,4.08,4.5,1.77,2.86-2.46,3.19-7.25,0.46-6.64,6.62-4.52,7-12.5,0.36-7.6,6.48-13.86,10.7-19.12,2.76-3.43,2.27-6.32,1.26-10.31Z"/><path class="cls-2" d="M199,52.53L206.31,47c1,4,1.5,6.88-1.26,10.31-4.22,5.26-6.29,11.32-8.45,18.62-1.14,3.86-1.25,16-7,21.75-5.25.25-11.75-1.09-16.1,8.3-24.4,7.45-49.65-12.8-74.9-13.29C95.34,82.9,87.34,80.5,78.84,78.25c-1.43-5.66-.61-10.6,6.43-14.1,19.25-9.58,51.33,16,79.37,2.89,2.46-12.89,19.08-34.51,42.17-37.72,5.47-.76,10.71-3.16,16.86-4.08l-4.21,1.55,0.88,1.28c8.08-.81,13.3,4.56,19.41,8.29s12.08,7.44,14.69,15.54c-3.12-.4-6.28-2.34-10.53.65,3,1.31,3,1.31,3.79,2.86-3.11,1.75-5.54,2-7.57-1.91-0.84-1.63-3.09-2.53-5-4l1.22-1.94a1.51,1.51,0,0,0-.69-0.38c-3.17,1-6.38,1.94-9.48,3.15-4.36,1.69-9,2.18-12.05-1.47-2.2-2.65-2.57-6.81-3.71-10.18L198.58,52ZM235.84,40c-1.93-6.88-4.91-8.09-13.06-6.33Z"/><path d="M235.84,40l-13.06-6.33C230.93,31.95,233.91,33.17,235.84,40Z"/></svg>