<svg xmlns="http://www.w3.org/2000/svg" viewBox="0 0 134.08 34.58"><defs><style>.cls-1{isolation:isolate;}.cls-2{opacity:0.75;mix-blend-mode:multiply;}.cls-3{fill:#231f20;}.cls-4{fill:#953d21;}.cls-5{fill:#211213;}.cls-6{fill:#403c47;stroke:#534d5c;stroke-miterlimit:10;}.cls-7{font-size:8.35px;fill:#fff;stroke:#fff;stroke-linejoin:bevel;stroke-width:0.75px;font-family:LetterGothicStd, Letter Gothic Std;}</style></defs><title>1715</title><g class="cls-1"><g id="Layer_2" data-name="Layer 2"><g id="Layer_15" data-name="Layer 15"><g class="cls-2"><path class="cls-3" d="M49.48,26.34c2.51,9.65,14,9.34,22.88,6.51S84.12,31,91.29,32.37,97.87,31.9,102,28.2c4.39.34,14.44-.82,20.91-2.27,1.85,2.6,8.09,1.38,8.09,1.38l-5-2.77s8,1.66,8.09-2.73-8.14-3.36-8.14-3.36L131,15.79s-6.21-1.36-8.12,1.2c-6.43-1.59-16.46-3-20.85-2.73C98,10.47,98.6,8.63,91.41,9.85S81.26,12,72.49,9s-20.17-3.56-23,6C49.48,15,47.18,17.52,49.48,26.34Z"/><path class="cls-3" d="M129,20.52a2.94,2.94,0,0,0-1.81.76,5.38,5.38,0,0,0,3.85.06,5.08,5.08,0,0,1-5.57,2.19c-.82,1.38-2.66,1.73-4.26,1.73s-3.32-.18-4.72.61l1.4-2.14a7.34,7.34,0,0,1-7.34.83l1.29-1a29.89,29.89,0,0,0-7.87,2.6l1.1-2.4a7.82,7.82,0,0,1-7,.81c-1-.39-2.17-1-3.11-.44l2.4-.86a22.85,22.85,0,0,0-7.43-2.11l12-3.56a7.91,7.91,0,0,0-3.66-.37c3.61-1.13,7.68-2.22,11-.46a15.31,15.31,0,0,0,3,1.61l-2-1.76a6.91,6.91,0,0,1,5.8,1.84l-.52-1c2.21-.31,3.88,3,6,2.35a1.34,1.34,0,0,0-1.22-1.63c1.86,0,2.49-.35,4.32.54C126.12,19.39,127.79,19.65,129,20.52Z"/><path class="cls-3" d="M32.38,13.29a5.7,5.7,0,0,1,4.12,2.34c-3.48-.56-7,.77-10.1,2.42s-6.1,3.66-9.49,4.62S9.47,23.32,7,20.8c4,2,7.48,5.17,11.86,6,4.64.89,9.32-1,13.67-2.8L30.7,26.88c4.13-4.06,10.11-5.64,15.88-6.16,1-.09,4.51-.5,4.51-2.09,0-1-2.84-1.2-3.84-1.62A47.2,47.2,0,0,0,32.38,13.29Z"/></g><path class="cls-4" d="M42.48,19.34c2.51,9.65,14,9.34,22.88,6.51S77.12,24,84.29,25.37,90.87,24.9,95,21.2c4.39.34,14.44-.82,20.91-2.27,1.85,2.6,8.09,1.38,8.09,1.38l-5-2.77s8,1.66,8.09-2.73-8.14-3.36-8.14-3.36L124,8.79s-6.21-1.36-8.12,1.2C109.47,8.4,99.45,7,95.06,7.26,91,3.47,91.6,1.63,84.41,2.85S74.26,5,65.49,2s-20.17-3.56-23,6C42.48,8,40.18,10.52,42.48,19.34Z"/><path class="cls-5" d="M122,13.52a2.94,2.94,0,0,0-1.81.76,5.38,5.38,0,0,0,3.85.06,5.08,5.08,0,0,1-5.57,2.19c-.82,1.38-2.66,1.73-4.26,1.73s-3.32-.18-4.72.61l1.4-2.14a7.34,7.34,0,0,1-7.34.83l1.29-1A29.89,29.89,0,0,0,97,19.16l1.1-2.4a7.82,7.82,0,0,1-7,.81c-1-.39-2.17-1-3.11-.44l2.4-.86a22.85,22.85,0,0,0-7.43-2.11L95,10.6a7.91,7.91,0,0,0-3.66-.37c3.61-1.13,7.68-2.22,11-.46a15.31,15.31,0,0,0,3,1.61l-2-1.76a6.91,6.91,0,0,1,5.8,1.84l-.52-1c2.21-.31,3.88,3,6,2.35a1.34,1.34,0,0,0-1.22-1.63c1.86,0,2.49-.35,4.32.54C119.12,12.39,120.79,12.65,122,13.52Z"/><path class="cls-5" d="M25.38,6.29A5.7,5.7,0,0,1,29.5,8.63c-3.48-.56-7,.77-10.1,2.42s-6.1,3.66-9.49,4.62S2.47,16.32,0,13.8c4,2,7.48,5.17,11.86,6,4.64.89,9.32-1,13.67-2.8L23.7,19.88c4.13-4.06,10.11-5.64,15.88-6.16,1-.09,4.51-.5,4.51-2.09,0-1-2.84-1.2-3.84-1.62A47.2,47.2,0,0,0,25.38,6.29Z"/><rect class="cls-6" x="48.66" y="7.03" width="27.74" height="13.74"/><rect class="cls-6" x="73.54" y="3.89" width="3.24" height="20.22"/><text class="cls-7" transform="translate(51.01 16.81)">1715</text></g></g></g></svg>