<svg xmlns="http://www.w3.org/2000/svg" viewBox="0 0 291.76 147.53"><defs><style>.cls-1{fill:#6d4b51;}.cls-2{fill:#fff;}.cls-3{fill:#364844;stroke:#fff;stroke-miterlimit:10;}</style></defs><title>215 Sage-2</title><g id="Layer_2" data-name="Layer 2"><g id="Layer_1-2" data-name="Layer 1"><path class="cls-1" d="M152.9,147.53c-10.43-3.31-12.27-5.94-10.17-11.33-7.22-5.33-14.39-10.7-21.67-15.92a44.3,44.3,0,0,0-7.74-4.49c-5.54-2.46-5.59-2.34-5.76-7.17-2.33-1.86-5.59-3.36-5.5-4.63.15-2.17,2-4.63,3.84-6.18,2.89-2.46,6.47-4.1,9.48-6.44,2-1.56,4.15-4.17,0-5.6-13.52-4.7-20.17-14-19.28-29.92-4.24,3-7.66,5-10.49,7.56-5.94,5.42-12.22,9.7-20.69,9.66a6.24,6.24,0,0,0-4,1.59C49.2,86.3,26.7,85.7,12.94,69.5c-2-2.41-4-4.93-6.24-7.15S2.17,58.52,0,56.72a21.46,21.46,0,0,1,21.57.58C30,62.56,37.51,62.19,45,56.16c10.27-8.27,21.22-7.94,33.43-4.61,7.75,2.11,16.39,1.36,23.3-4.57,11-9.43,23.45-12.88,37.64-9.17,15.32,4,30.81,5.4,46.49,2.54,3.18-.58,6.21-1.94,9.31-2.95l-.1-1.38-7.93-.85,11.12-8-5.55-1c4.91-6,12.84-6.29,17.45-10.27,5.48-4.73,11.81-4.25,18.09-7.36l-4.37-.54-.16-1.33,19.51-2.8c5.85-.84,11.7-1.64,17.54-2.53C262.31,1,263.84.54,266.08,0L263,4.77c.32.39.48.78.74.88,3,1.09,5.76,1.59,8.21,4.87,3,4,8.4,6.32,12.9,9.14,5.21,3.27,7.21,8,6.88,14.17h-7.31l-.84,1,4,1.41C280.9,40.94,277,40,272.51,35.75c-2-1.92-6.29-2.17-9.47-2-4.16.25-8.22,1.9-12.38,2.53-4.53.68-9.43,5.38-10.4,10C239,52.1,237.32,57.8,236,63.59c-1.1,5-1.67,10-2.93,15-.9,3.51-2.54,6.82-4.4,11.63,2.66,2.24,6.41,5.59,10.36,8.7,7.56,5.94,7,11.74-1.21,16.57a53.93,53.93,0,0,0-10.17,7.92c-2.35,2.28-4.49,3.42-7.88,3-5.78-.67-11.28.1-15.15,5.35a7.67,7.67,0,0,1-2.8,2c-4.13,2-8.74,3.42-12.37,6.11-8.12,6-15.28,2.62-22.53-1.32-2.86-1.55-5.5-3.48-9.45-6,5-1.58,8.68-3.07,12.47-3.73,1.34-.23,3.32,1.28,4.5,2.5,4,4.12,9.57,5,14.95,2.26,6.49-3.29,10.31-7.88,9.61-15.74-.48-5.45.15-11,0-16.48-.11-4.85-2.46-7.43-7.07-7-15.38,1.5-29.69-2.55-43.84-7.74a17.91,17.91,0,0,0-2.28-.53c-4.56,8.6-16.57,10.16-18.55,21.13,2.92,1.27,6.13,3.33,9.61,4,7.47,1.51,8.67,7.17,10.09,13.13.66,2.79,2.48,5.31,3.14,8.1C151.33,137.44,152,142.51,152.9,147.53ZM288.77,32.45c-3.92-10.71-23-23.78-34.31-23.82l2.4-3.48C251.72,6.8,247.29,9,242.65,9.59c-24.92,3-42.36,25.83-44.55,46.71-1,9.14,2,14.82,10.11,19.11,2.94,1.56,3.85-2.35,6.73-.7,3.77,2.16,5.42-1.14,6.75-5,1.93-5.63,6.42-4,8.36-9.6,2.47-7.17,4.58-14.68,8.44-21.09,2.36-3.92,3.89-6.87,1.85-11.5l-9.88,8-.35-.42,14.72-15.76c1,3.21,1.31,7.33,3.44,10,3,3.69,7.63,3.3,12,1.62,3.54-1.36,7.19-2.44,11.61-3.91l-2.5,3.06c1.82,1.33,4.19,2.18,5,3.79,2,4.09,4.52,3.6,7.74,2.15l-2.34-4.77Zm-73,65.71-5.14,17.74,6.45,4.23c5-2.81,10.55-5.61,15.74-9,3.69-2.39,3.24-5.2-.87-6.9C226.85,102.16,221.67,100.39,215.72,98.16Z"/><path class="cls-2" d="M288.77,32.45l-9-1.2L282.1,36c-3.22,1.45-5.79,1.95-7.74-2.15-.77-1.61-3.14-2.46-5-3.79L271.9,27c-4.42,1.48-8.07,2.56-11.61,3.91-4.38,1.68-9,2.07-12-1.62-2.13-2.64-2.41-6.77-3.44-10L230.12,35.1l.35.42,9.88-8c2,4.62.51,7.57-1.85,11.5-3.85,6.41-6,13.92-8.44,21.09-1.94,5.63-3.09,11.53-5,17.17-1.33,3.86-25.27,10.2-29.58,10.68-3,.33-22.57,2.74-47.88-8.69-.88-6.07-6.62-29.31-37.12-20.56-.65-2.41,1.32-9.4,8.75-12.5,15.89-6.64,78.74,8.25,80.43,2.21,5.16-18.4,21.22-36.22,43-38.83,4.64-.55,9.07-2.78,14.21-4.44l-2.4,3.48C265.76,8.67,284.85,21.75,288.77,32.45ZM268.9,20l.81-1.71c-1.94-4.68-5.47-6-11.85-3.9Z"/><path d="M268.9,20l-11-5.61c6.38-2.06,9.91-.78,11.85,3.9Z"/></g><g id="Layer_2-2" data-name="Layer 2"><path class="cls-3" d="M179.92,41.55s4.15,41.41,12.54,53.3a30.54,30.54,0,0,1-6.26-.29s-9.39-19-11.44-52.61Z"/><path class="cls-3" d="M134.8,37.49c-1.46,6.22-5.61,34.29-5.61,34.29s41.63,7.69,55.81,0c-3.33-23-5.18-31.1-5.18-31.1S160.5,45.88,134.8,37.49Z"/></g><g id="Text_Outline" data-name="Text Outline"><path class="cls-2" d="M153.36,69.76l-7-.85.11-.86a3.26,3.26,0,0,1,.27-1,4,4,0,0,1,.5-.82,4.84,4.84,0,0,1,.68-.7,10,10,0,0,1,.8-.61q.42-.29.85-.56l.85-.54q.39-.26.72-.51a4,4,0,0,0,.58-.54,2.73,2.73,0,0,0,.41-.62,2.36,2.36,0,0,0,.21-.73,2,2,0,0,0,0-.79,1.51,1.51,0,0,0-.31-.6,1.64,1.64,0,0,0-.54-.4,2.28,2.28,0,0,0-.71-.2,3.39,3.39,0,0,0-1.43.15,4.79,4.79,0,0,0-1.47.79l.21-1.73a5.65,5.65,0,0,1,.74-.36,4.8,4.8,0,0,1,.76-.23,4.5,4.5,0,0,1,.81-.09,5.91,5.91,0,0,1,.88,0,4.46,4.46,0,0,1,1.34.36,2.94,2.94,0,0,1,1,.71,2.57,2.57,0,0,1,.55,1,3.44,3.44,0,0,1,.08,1.35,4.14,4.14,0,0,1-.31,1.19,4,4,0,0,1-.6.95,5.22,5.22,0,0,1-.85.79q-.48.37-1.07.74l-1,.6q-.49.29-.89.58a3.77,3.77,0,0,0-.66.59,1.19,1.19,0,0,0-.3.64v0l5,.61Z"/><path class="cls-2" d="M160.3,58.68l-.53,11.44L158,70l.42-9.22a5.77,5.77,0,0,1-1.08.55,8.74,8.74,0,0,1-1.31.37l.07-1.55.89-.27q.43-.14.85-.33t.85-.41q.43-.23.89-.53Z"/><path class="cls-2" d="M163.3,70l-.09-1.74a4,4,0,0,0,2.27.63,2.77,2.77,0,0,0,1.8-.67,1.92,1.92,0,0,0,.62-1.58,1.75,1.75,0,0,0-.78-1.45,3.33,3.33,0,0,0-2.05-.43q-.45,0-1.83.19l.1-5.9,5.51-.28.08,1.54-4,.2,0,2.81,1-.08a3.87,3.87,0,0,1,2.8.78,3.26,3.26,0,0,1,1.1,2.45,3.42,3.42,0,0,1-1,2.72,4.4,4.4,0,0,1-3,1.16A5.06,5.06,0,0,1,163.3,70Z"/></g></g></svg>