<svg id="Layer_1" data-name="Layer 1" xmlns="http://www.w3.org/2000/svg" viewBox="0 0 320 204.31"><defs><style>.cls-1{fill:#201011;}.cls-2{fill:#943b21;}</style></defs><title>horses_racing_</title><path class="cls-1" d="M253.73,36.22L251,41.28c8.39,6,17,11.58,24.79,18.11C278.38,61.6,279,66.27,281,71l-9.29-.51,2.63,3c-5.39,4.3-9.19,3.35-14.34-1.17-2.14-1.88-6.64-1.6-10-1.41a47.62,47.62,0,0,0-11,2.36,8.45,8.45,0,0,0-4.57,3.07c-5.36,8.87-8.48,18.34-10.39,28.75-1.58,8.59,1.6,12.91,6.82,18.17,12,12,23.46,24.56,35.07,37,1.19,1.27,1.87,3,2.81,4.59-6.45,2.88-9,2-11.84-3.83a2.18,2.18,0,0,0-.39-0.88c-6.91-1.16-7.13-8.24-10.46-12.4-6.84-8.56-16.49-12.84-25.06-18.74-2.92-2-6.6-2.93-9.93-4.34-3.13-1.32-5,.11-5.29,3.1-1.46,17.14-5.09,34.36,1.43,51.31,0.46,1.2.3,3.83-.21,4a14.19,14.19,0,0,1-6.17.7c-0.68-.07-1.55-2-1.67-3.13-0.85-8-1.51-16.1-2.26-24.16q-1.46-15.63-3-31.26c-0.08-.81-0.25-1.6-0.46-2.94-2.72.26-5.29,0.56-7.87,0.74-12.9.91-25.11-1.89-37.07-6.51a66.74,66.74,0,0,0-12.88-3.39c-1.34-.23-3.62,1-4.4,2.26-4.54,7.3-8.12,15.27-13.24,22.11-6.69,8.93-8,17.1-.74,26.2a59.07,59.07,0,0,1,6.42,11.13c0.38,0.79-.91,3.44-1.38,3.42-1.8-.06-4.61-0.3-5.21-1.44-4.65-8.82-8.56-18-13.37-26.77-2.11-3.82-2.43-6.24.63-9.61,6.3-6.94,7.23-11.56,4.59-19.67-1.89,1.15-4,1.92-5.36,3.36C94,134,83.84,143.46,75.32,154.23c-3.6,4.55-7.65,8.59-11.51,12.79-1.57,1.71-5.16,2.6-7.5,2.15-1.33-.26-2.4-3.9-2.78-6.16-0.17-1,1.54-3.07,2.68-3.29,2.28-.46,3.91-2.41,5.32-2.88,8.84-2.94,10-11.56,14.46-17.67,3.4-4.64,6.4-9.77,10.56-13.61,7-6.45,9.89-14.37,10.95-23.38,0.89-7.58,1.54-15.26,8.8-20.4l-1.22-1c-1.75,1-3.86,1.72-5.18,3.15C94,90.26,86.46,92.22,78.33,93c-13.75,1.36-19.44,6.26-22.81,19.64-1.28,5.1-2.82,10-9.62,11.65,6.25-7.85,5.52-16.42,5.22-25-4.59.66-4.59,0.66-11.88,16.38,0-4.77-.58-9.63.15-14.28a15.65,15.65,0,0,1,9-11.9c4.45-2.11,9.16-3.67,14.78-5.87l-16.08-10V72.81c3.54,0.68,7.18,1,10.58,2.12,6.6,2.13,13,2.43,19.48-.31,8.89-3.74,18-3.23,26.83,0,4.16,1.51,7.72,1.75,11.91-.12,7.62-3.4,15.8-3.67,24-2.73,8.43,1,16.87,1.92,25.32,2.71,6.39,0.6,8.83-.35,14.51-5.13l-5.22-1.69c2.91-2.17,5.53-4.14,8.16-6.1s5.08-3.74,7.77-5.73l-1.39-1.72c6.65-3,13.21-6.62,20.22-8.8C216.9,43,224.84,41,232.65,40.79c7.23-.18,13.62-2,20.08-4.56h1ZM245,41.9c-6.72,1.89-13.32,4-20.05,5.58-9.75,2.27-17.49,7.5-24.61,14.38-8.05,7.79-8.13,16.47-4.55,26a43.22,43.22,0,0,0,2.65,5.86c4,7.18,1,5.62,9.19,9.36,0.15-1.56,1.62-.39,1.75-1.5,1.27-11.18,10.46-16.38,16.65-25.77,2.54-3.85,4-6.86,2-11.43l-7.64,5.72-0.27-.48L233.31,55c-1.39,4.52-.76,8.25,2.56,11.21,3.62,3.22,7.82,3.15,12.17,1.49,3.38-1.29,6.82-2.43,11.21-4l-2.17,3.23c1.83,1.23,4.27,2,4.85,3.43,1.73,4.4,4.49,3.5,7.76,2.45l-2.22-4.7,9.22,1.21c-3.14-7.33-8.08-11.86-14.5-15.46s-11.55-9.49-20.35-8.48Z"/><path class="cls-2" d="M245,41.9l-3.21,3.49c8.81-1,14,4.92,20.35,8.48s11.35,8.13,14.5,15.46l-9.22-1.21,2.22,4.7c-3.27,1-6,1.94-7.76-2.45-0.58-1.47-3-2.2-4.85-3.43l2.17-3.23c-4.38,1.55-7.82,2.68-11.21,4-4.35,1.67-8.55,1.74-12.17-1.49-3.33-3-4-6.69-2.56-11.21L220.18,69.63l0.27,0.48,7.64-5.72c1.92,4.57.51,7.59-2,11.43-6.19,9.39-6.13,11.08-8.74,22a48.58,48.58,0,0,1-3.49,8.45c-3.66-1.68-13.33-3.94-18.22,8.93-23.15,7.23-44.61-11.33-67.15-10,1-3.5,1-8.25-2-14-2.41-4.61-6-8.5-11.87-9.62,15.36-10.25,57.13,7.63,75.88-3.12,0.11-5.17,5.24-12.05,10-16.62C207.49,55,215.24,49.75,225,47.48,231.72,45.92,238.32,43.8,245,41.9Zm1.17,8.76c3.67,1.92,5.84,7.68,11.45,4.49C255.72,48.82,250.51,50.74,246.21,50.66Z"/><path d="M246.21,50.66c4.31,0.08,9.51-1.84,11.45,4.49C252.05,58.34,249.87,52.58,246.21,50.66Z"/></svg>