<svg xmlns="http://www.w3.org/2000/svg" viewBox="0 0 18.37 202.07"><defs><style>.cls-1{fill:#fff;}.cls-2{fill:#29343f;}</style></defs><title>leaderboard_finish_line</title><g id="Layer_2" data-name="Layer 2"><g id="Layer_4" data-name="Layer 4"><g id="Layer_15" data-name="Layer 15"><rect class="cls-1" width="18.37" height="202.07"/><rect class="cls-2" x="12.25" y="195.94" width="6.12" height="6.12"/><rect class="cls-2" y="195.94" width="6.12" height="6.12"/><rect class="cls-2" x="6.12" y="189.82" width="6.12" height="6.12"/><rect class="cls-2" x="12.25" y="183.7" width="6.12" height="6.12"/><rect class="cls-2" y="183.7" width="6.12" height="6.12"/><rect class="cls-2" x="6.12" y="177.57" width="6.12" height="6.12"/><rect class="cls-2" x="12.25" y="171.45" width="6.12" height="6.12"/><rect class="cls-2" y="171.45" width="6.12" height="6.12"/><rect class="cls-2" x="6.12" y="165.33" width="6.12" height="6.12"/><rect class="cls-2" x="12.25" y="159.2" width="6.12" height="6.12"/><rect class="cls-2" y="159.2" width="6.12" height="6.12"/><rect class="cls-2" x="6.12" y="153.08" width="6.12" height="6.12"/><rect class="cls-2" x="12.25" y="146.96" width="6.12" height="6.12"/><rect class="cls-2" y="146.96" width="6.12" height="6.12"/><rect class="cls-2" x="6.12" y="140.83" width="6.12" height="6.12"/><rect class="cls-2" x="12.25" y="134.71" width="6.12" height="6.12"/><rect class="cls-2" y="134.71" width="6.12" height="6.12"/><rect class="cls-2" x="6.12" y="128.59" width="6.12" height="6.12"/><rect class="cls-2" x="12.25" y="122.46" width="6.12" height="6.12"/><rect class="cls-2" y="122.46" width="6.12" height="6.12"/><rect class="cls-2" x="6.12" y="116.34" width="6.12" height="6.12"/><rect class="cls-2" x="12.25" y="110.22" width="6.12" height="6.12"/><rect class="cls-2" y="110.22" width="6.12" height="6.12"/><rect class="cls-2" x="6.12" y="104.09" width="6.12" height="6.12"/><rect class="cls-2" x="12.25" y="97.97" width="6.12" height="6.12"/><rect class="cls-2" y="97.97" width="6.12" height="6.12"/><rect class="cls-2" x="6.12" y="91.85" width="6.12" height="6.12"/><rect class="cls-2" x="12.25" y="85.72" width="6.12" height="6.12"/><rect class="cls-2" y="85.72" width="6.12" height="6.12"/><rect class="cls-2" x="6.12" y="79.6" width="6.12" height="6.12"/><rect class="cls-2" x="12.25" y="73.48" width="6.12" height="6.12"/><rect class="cls-2" y="73.48" width="6.12" height="6.12"/><rect class="cls-2" x="6.12" y="67.36" width="6.12" height="6.12"/><rect class="cls-2" x="12.25" y="61.23" width="6.12" height="6.12"/><rect class="cls-2" y="61.23" width="6.12" height="6.12"/><rect class="cls-2" x="6.12" y="55.11" width="6.12" height="6.12"/><rect class="cls-2" x="12.25" y="48.99" width="6.12" height="6.12"/><rect class="cls-2" y="48.99" width="6.12" height="6.12"/><rect class="cls-2" x="6.12" y="42.86" width="6.12" height="6.12"/><rect class="cls-2" x="12.25" y="36.74" width="6.12" height="6.12"/><rect class="cls-2" y="36.74" width="6.12" height="6.12"/><rect class="cls-2" x="6.12" y="30.62" width="6.12" height="6.12"/><rect class="cls-2" x="12.25" y="24.49" width="6.12" height="6.12"/><rect class="cls-2" y="24.49" width="6.12" height="6.12"/><rect class="cls-2" x="6.12" y="18.37" width="6.12" height="6.12"/><rect class="cls-2" x="12.25" y="12.25" width="6.12" height="6.12"/><rect class="cls-2" y="12.25" width="6.12" height="6.12"/><rect class="cls-2" x="6.12" y="6.12" width="6.12" height="6.12"/><rect class="cls-2" x="12.25" width="6.12" height="6.12"/><rect class="cls-2" width="6.12" height="6.12"/></g></g></g></svg>