<svg id="_4th_Place" data-name="4th Place" xmlns="http://www.w3.org/2000/svg" xmlns:xlink="http://www.w3.org/1999/xlink" viewBox="0 0 1092.44 2201.25"><defs><style>.cls-1{fill:ivory;}.cls-1,.cls-12,.cls-13,.cls-2,.cls-3,.cls-4,.cls-5,.cls-6,.cls-7,.cls-8,.cls-9{stroke:#000;stroke-miterlimit:10;}.cls-1,.cls-12,.cls-13,.cls-2,.cls-3,.cls-4,.cls-5,.cls-6,.cls-7,.cls-8{stroke-width:10px;}.cls-2{fill:#efd259;}.cls-3{fill:none;}.cls-4{fill:#a38f3b;}.cls-6{fill:url(#linear-gradient);}.cls-7{fill:url(#linear-gradient-2);}.cls-8{fill:#896834;}.cls-9{fill:#a50e19;stroke-width:12px;}.cls-10,.cls-14{fill:#fff;}.cls-11{fill:url(#linear-gradient-3);}.cls-12{fill:url(#linear-gradient-4);}.cls-13{fill:url(#linear-gradient-5);}.cls-14{font-size:165px;font-family:Montserrat;font-weight:700;}</style><linearGradient id="linear-gradient" x1="257.09" y1="1245.52" x2="289.04" y2="1088.17" gradientUnits="userSpaceOnUse"><stop offset="0" stop-color="#fff" stop-opacity="0.01"/><stop offset="0" stop-color="#fff" stop-opacity="0.07"/><stop offset="0" stop-color="#fff" stop-opacity="0.23"/><stop offset="0" stop-color="#fff" stop-opacity="0.49"/><stop offset="0" stop-color="#fff" stop-opacity="0.84"/><stop offset="0" stop-color="#fff"/><stop offset="0.1" stop-color="#fff" stop-opacity="0.98"/><stop offset="0.21" stop-color="#fff" stop-opacity="0.93"/><stop offset="0.33" stop-color="#fff" stop-opacity="0.85"/><stop offset="0.44" stop-color="#fff" stop-opacity="0.73"/><stop offset="0.56" stop-color="#fff" stop-opacity="0.58"/><stop offset="0.68" stop-color="#fff" stop-opacity="0.4"/><stop offset="0.79" stop-color="#fff" stop-opacity="0.18"/><stop offset="0.88" stop-color="#fff" stop-opacity="0"/></linearGradient><linearGradient id="linear-gradient-2" x1="800.72" y1="1253.99" x2="835.6" y2="1082.2" gradientUnits="userSpaceOnUse"><stop offset="0" stop-color="#fff" stop-opacity="0.01"/><stop offset="0" stop-color="#fff" stop-opacity="0.07"/><stop offset="0" stop-color="#fff" stop-opacity="0.23"/><stop offset="0" stop-color="#fff" stop-opacity="0.49"/><stop offset="0" stop-color="#fff" stop-opacity="0.84"/><stop offset="0" stop-color="#fff"/><stop offset="0.11" stop-color="#fff" stop-opacity="0.98"/><stop offset="0.22" stop-color="#fff" stop-opacity="0.94"/><stop offset="0.33" stop-color="#fff" stop-opacity="0.86"/><stop offset="0.44" stop-color="#fff" stop-opacity="0.75"/><stop offset="0.55" stop-color="#fff" stop-opacity="0.61"/><stop offset="0.66" stop-color="#fff" stop-opacity="0.43"/><stop offset="0.77" stop-color="#fff" stop-opacity="0.23"/><stop offset="0.88" stop-color="#fff" stop-opacity="0"/></linearGradient><linearGradient id="linear-gradient-3" x1="702.19" y1="485.22" x2="702.19" y2="239.42" gradientUnits="userSpaceOnUse"><stop offset="0" stop-color="#fff" stop-opacity="0"/><stop offset="0.24" stop-color="#fff" stop-opacity="0"/><stop offset="0.27" stop-color="#fff" stop-opacity="0.05"/><stop offset="0.41" stop-color="#fff" stop-opacity="0.34"/><stop offset="0.55" stop-color="#fff" stop-opacity="0.57"/><stop offset="0.67" stop-color="#fff" stop-opacity="0.76"/><stop offset="0.78" stop-color="#fff" stop-opacity="0.89"/><stop offset="0.87" stop-color="#fff" stop-opacity="0.97"/><stop offset="0.93" stop-color="#fff"/></linearGradient><linearGradient id="linear-gradient-4" x1="365.53" y1="1895.72" x2="420.13" y2="1626.78" gradientUnits="userSpaceOnUse"><stop offset="0.06" stop-color="#fff"/><stop offset="0.16" stop-color="#fff" stop-opacity="0.99"/><stop offset="0.23" stop-color="#fff" stop-opacity="0.95"/><stop offset="0.3" stop-color="#fff" stop-opacity="0.88"/><stop offset="0.36" stop-color="#fff" stop-opacity="0.79"/><stop offset="0.43" stop-color="#fff" stop-opacity="0.67"/><stop offset="0.49" stop-color="#fff" stop-opacity="0.52"/><stop offset="0.54" stop-color="#fff" stop-opacity="0.35"/><stop offset="0.6" stop-color="#fff" stop-opacity="0.15"/><stop offset="0.64" stop-color="#fff" stop-opacity="0"/><stop offset="0.85" stop-color="#fff" stop-opacity="0"/></linearGradient><linearGradient id="linear-gradient-5" x1="604.3" y1="1866.92" x2="652.47" y2="1629.66" xlink:href="#linear-gradient-4"/></defs><title>horse_main_</title><path class="cls-1" d="M498.94,1263.39s-198.22,14.72-216.09,220.84c63.15-72.68,63.37-64.85,55.66-48.14-29.73,64.45,26.16,184.17,122.28,256.22,94.84,71.1,39.32,83.4,39.32,83.4s94.16-25.3,25-139.4C409.8,1446,451.29,1326.53,498.94,1263.39Z"/><path class="cls-1" d="M460.83,247.92S331.7,309.58,342.53,428.61c39.68-83,49.12-54.11,58.83-54.11-66,205.61-9.62,209.21-59.47,245.28s-44.7,179.37,14,226.75,130.89-33.9,130.89-33.9l51.87-214.5-15.8-350.23H460.83Z"/><path class="cls-2" d="M573.38,223S396.63,132.83,382.2,161.68c-10.82,21.64,33.14,65.6,78.62,86.23,15.16,6.88,30.49,11.16,44,11.16C429.1,356.47,407.45,627,411.06,724.39s-49.7,158.49-49.7,158.49S284.81,1013,277.6,1056.25s-32.46,32.46-14.43,64.93c-7.21,50.5-1.92,129.86-6.37,162.32s24.41,36.07,24.41,36.07,3.61-148.93,21.64-175.46,0-35.44,10.82-58S349.74,930,371.38,937.21s0,148.85,0,148.85-126.25,165-3.61,320.08c32.46,126.25,32.46,180.36,32.46,194.78s-28.86,14.43-14.43,54.11S382.2,1809.89,375,1847.89s-18,59.64,10.82,66.85,36.07-194.78,57.71-234.46-7.93-61.51-7.21-79.36c0.84-21-21.64-147.89,28.86-165.93s144.29,3.61,151.5,14.43,18,140.68,0,162.32-32.46,50.5-18,64.93,37.78,184,27.91,223.64S660,1914.93,660,1914.93s-10.82-180.54,0-205.79-7.21-72.14,0-93.78,14.43-162.32,54.11-194.78,125.43-166.15,67.72-310.43-34.46-185.51-31.65-204.25c1.72-11.47,25.09,52.68,45.68,189.08,3.05,20.22-5.9,31.11,7.09,49.14s9,88.37,9,128,22.43,26.36,22.43,26.36,10.33-95.83,17-145.67c4.3-32-8.11-51.4-18.93-66.78S818.66,908.19,761,832.52,685.2,679.45,685.2,679.45,782.59,808.83,898,739.56s72.14-173.87,54.11-211.75-90.18-12.63-144.28-110S764.56,262.68,696,215.79c90.18,7.21,122.64-119,108.21-119s-86.57,34.46-144.28,93C577,190.54,573.38,223,573.38,223Z"/><path class="cls-1" d="M538.68,206.12s94.23-40.83,77.09-109.36C703.12,151.82,660,113.14,660,151.44,804.24,183.33,800.63,205,807.84,244.65s-10.82-7.21-61.32-18c86.57,86.57,119,68.54,119,68.54s-178.09-1.3-216.43-50.5-14.43,36.07-14.43,36.07Z"/><path class="cls-3" d="M685.2,679.45s-49.2-52.5-78.87-145.74c0,0-42.77,49.8-42.77-21.19"/><path class="cls-3" d="M588.32,517.82c0-18.2,46.62-82.64,72.78,2.13,9.4,30.44-7.44,120.15,94.21,219.62"/><circle id="nostril_R" class="cls-4" cx="771.3" cy="593.57" r="31.15"/><circle id="nostril_L" class="cls-4" cx="930.64" cy="570.37" r="23.2"/><ellipse id="eye_L" class="cls-5" cx="630.9" cy="402.12" rx="20.35" ry="30.2"/><ellipse id="eye_R" class="cls-5" cx="773.33" cy="379.64" rx="20.35" ry="30.2"/><path class="cls-2" d="M597.77,433.13s31.16-26.87,56.26,8.21"/><path class="cls-2" d="M766,420.73s9.32-29.93,33.52-13.61"/><path class="cls-2" d="M561.45,390.75s116.83-9.11,95.63-48.79"/><path class="cls-3" d="M745.15,327.23s-6.2,27.62,67.33,31.1"/><path class="cls-6" d="M266.16,1085.79c-8.08,11.44-14.79,14.16-3,35.39-5.15,36-3.93,86.78-4.42,124.68a254,254,0,0,0,26.08,1.65c3.09-42.06,8.57-89.51,18-103.41,16.17-23.79,3.36-33.42,8.33-51.44"/><path class="cls-7" d="M795.28,1091.44c0.18,1.17.36,2.34,0.54,3.52,3.05,20.22-5.9,31.11,7.09,49.14,11.4,15.82,9.74,71.87,9.16,112.19,4.38,0.11,8.76.18,13.15,0.18a32.13,32.13,0,0,0,14.18-3.56c3.56-31.6,8.32-72.74,12-100.07,4.3-32-8.11-51.4-18.93-66.78a18.05,18.05,0,0,1-2.06-4.92"/><path class="cls-8" d="M818.33,1232.57s-31.86,54.54-31.86,94.21,75.75,32.46,90.18,21.64,14.93-56.24-34.43-122C824.71,1247.81,818.33,1232.57,818.33,1232.57Z"/><path class="cls-9" d="M399.25,789.38S287.66,955.53,256.33,1009.75c57.34,76.31,84.2,49.26,84.2,49.26l-47.34,225.08s281.73,120.93,529.09,0c-24.3-162.62-22-198-59.43-344.39,30,137.07,26.27,116.2,26.27,116.2s43.83,8.79,81.69-31c-17.06-68.18-124.11-212.27-124.11-212.27S577.27,1080.3,399.25,789.38Z"/><path class="cls-8" d="M256.33,1233s-58.09,64.93-43.66,104.61,89.38,24.25,95.19,19.34S315.63,1233,286,1233H256.33Z"/><path class="cls-10" d="M641.22,409.43c7.66,0,7.67-11.91,0-11.91s-7.67,11.91,0,11.91h0Z"/><path class="cls-10" d="M785.22,385.43c7.66,0,7.67-11.91,0-11.91s-7.67,11.91,0,11.91h0Z"/><path class="cls-11" d="M639.47,280S697,426.38,771,485.22c-45.76-127.74-21.38-150.78-43.54-195.74C685.53,277.34,669.72,275.22,649,249,620.77,215.72,639.47,280,639.47,280Z"/><path class="cls-12" d="M386.53,1620c-4.77,6.73-7.43,16.6-.72,35.08,14.43,39.68-3.61,154.86-10.82,192.86-4,20.87-9,36.81-8,48.13l34.21-.27c17-50.24,25.12-184,42.3-215.47"/><path class="cls-13" d="M600,1636.41c-8,15.55-10.73,30.92-1.4,40.26,12.08,12.09,30.43,133,30.27,195.25,9.63-1.13,19.2-1.61,28.77-1.88-2.44-55.22-5.06-143.78,2.28-160.91,8.68-20.25-1.19-54.41-1.73-78.31"/><path class="cls-8" d="M379,1825.22s-69.7,22.55-71.1,97.52,117.63,46.11,139.27,20.86-25.07-104.84-30.46-118.38C383.29,1844.81,379,1825.22,379,1825.22Z"/><path class="cls-8" d="M628.23,1847.89s-54.85,54.82-44,113.14,109.58,27.75,117.92,7-13.67-101.82-45.44-122.52C645.88,1868.81,628.23,1847.89,628.23,1847.89Z"/><text class="cls-14" transform="translate(380.9 1161.15)">1590</text></svg>