<svg id="_2nd_Place" data-name="2nd Place" xmlns="http://www.w3.org/2000/svg" xmlns:xlink="http://www.w3.org/1999/xlink" viewBox="0 0 1363.09 2280.91"><defs><style>.cls-1{fill:ivory;}.cls-1,.cls-10,.cls-11,.cls-12,.cls-13,.cls-2,.cls-3,.cls-4,.cls-5,.cls-6,.cls-7,.cls-8,.cls-9{stroke:#000;stroke-miterlimit:10;}.cls-1,.cls-10,.cls-11,.cls-12,.cls-13,.cls-2,.cls-3,.cls-4,.cls-5,.cls-6,.cls-7,.cls-8{stroke-width:10px;}.cls-14,.cls-16,.cls-2{fill:#fff;}.cls-3{fill:#896834;}.cls-4{fill:#efd259;}.cls-6{fill:none;}.cls-7{fill:#541818;}.cls-8{fill:#a38f3b;}.cls-9{fill:#a50e19;stroke-width:12px;}.cls-10{fill:url(#linear-gradient);}.cls-11{fill:url(#linear-gradient-2);}.cls-12{fill:url(#linear-gradient-3);}.cls-13{fill:url(#linear-gradient-4);}.cls-15{fill:url(#linear-gradient-5);}.cls-16{font-size:150px;font-family:Montserrat;font-weight:700;}</style><linearGradient id="linear-gradient" x1="417.11" y1="1972.78" x2="465.14" y2="1736.21" gradientUnits="userSpaceOnUse"><stop offset="0.06" stop-color="#fff"/><stop offset="0.16" stop-color="#fff" stop-opacity="0.99"/><stop offset="0.23" stop-color="#fff" stop-opacity="0.95"/><stop offset="0.3" stop-color="#fff" stop-opacity="0.88"/><stop offset="0.36" stop-color="#fff" stop-opacity="0.79"/><stop offset="0.43" stop-color="#fff" stop-opacity="0.67"/><stop offset="0.49" stop-color="#fff" stop-opacity="0.52"/><stop offset="0.54" stop-color="#fff" stop-opacity="0.35"/><stop offset="0.6" stop-color="#fff" stop-opacity="0.15"/><stop offset="0.64" stop-color="#fff" stop-opacity="0"/><stop offset="0.85" stop-color="#fff" stop-opacity="0"/></linearGradient><linearGradient id="linear-gradient-2" x1="783.02" y1="1968.22" x2="829.55" y2="1739.05" xlink:href="#linear-gradient"/><linearGradient id="linear-gradient-3" x1="226.29" y1="1409.5" x2="266.12" y2="1213.36" gradientUnits="userSpaceOnUse"><stop offset="0" stop-color="#fff" stop-opacity="0"/><stop offset="0.01" stop-color="#fff" stop-opacity="0.11"/><stop offset="0.03" stop-color="#fff" stop-opacity="0.29"/><stop offset="0.05" stop-color="#fff" stop-opacity="0.46"/><stop offset="0.07" stop-color="#fff" stop-opacity="0.61"/><stop offset="0.1" stop-color="#fff" stop-opacity="0.73"/><stop offset="0.12" stop-color="#fff" stop-opacity="0.83"/><stop offset="0.15" stop-color="#fff" stop-opacity="0.91"/><stop offset="0.18" stop-color="#fff" stop-opacity="0.96"/><stop offset="0.22" stop-color="#fff" stop-opacity="0.99"/><stop offset="0.3" stop-color="#fff"/><stop offset="0.34" stop-color="#fff" stop-opacity="0.97"/><stop offset="0.4" stop-color="#fff" stop-opacity="0.88"/><stop offset="0.48" stop-color="#fff" stop-opacity="0.74"/><stop offset="0.57" stop-color="#fff" stop-opacity="0.54"/><stop offset="0.68" stop-color="#fff" stop-opacity="0.28"/><stop offset="0.78" stop-color="#fff" stop-opacity="0"/></linearGradient><linearGradient id="linear-gradient-4" x1="959.51" y1="1381.82" x2="999.17" y2="1186.45" gradientUnits="userSpaceOnUse"><stop offset="0" stop-color="#fff" stop-opacity="0"/><stop offset="0.01" stop-color="#fff" stop-opacity="0.11"/><stop offset="0.02" stop-color="#fff" stop-opacity="0.29"/><stop offset="0.03" stop-color="#fff" stop-opacity="0.46"/><stop offset="0.04" stop-color="#fff" stop-opacity="0.61"/><stop offset="0.06" stop-color="#fff" stop-opacity="0.73"/><stop offset="0.07" stop-color="#fff" stop-opacity="0.83"/><stop offset="0.09" stop-color="#fff" stop-opacity="0.91"/><stop offset="0.11" stop-color="#fff" stop-opacity="0.96"/><stop offset="0.13" stop-color="#fff" stop-opacity="0.99"/><stop offset="0.18" stop-color="#fff"/><stop offset="0.46" stop-color="#fff" stop-opacity="0.46"/><stop offset="0.7" stop-color="#fff" stop-opacity="0"/></linearGradient><linearGradient id="linear-gradient-5" x1="792.36" y1="590.05" x2="792.36" y2="360.55" gradientUnits="userSpaceOnUse"><stop offset="0" stop-color="#fff" stop-opacity="0"/><stop offset="0.24" stop-color="#fff" stop-opacity="0"/><stop offset="0.27" stop-color="#fff" stop-opacity="0.05"/><stop offset="0.41" stop-color="#fff" stop-opacity="0.34"/><stop offset="0.55" stop-color="#fff" stop-opacity="0.57"/><stop offset="0.67" stop-color="#fff" stop-opacity="0.76"/><stop offset="0.78" stop-color="#fff" stop-opacity="0.89"/><stop offset="0.87" stop-color="#fff" stop-opacity="0.97"/><stop offset="0.93" stop-color="#fff"/></linearGradient></defs><title>horse_main_</title><path class="cls-1" d="M465,1467s-1.64-1.93-4.58-5.11c-25.73-27.82-151.31-151.38-158,80.11-7.5,258-85.5,196.49-85.5,196.49s90.62,81,124.06-52.5c7.94,60,0,54,0,54s82.93-87,49.93-186-33.52-161.35,72.49-88.93"/><path id="body" class="cls-2" d="M588.28,426.18C469.05,582.4,541.77,931.84,541.77,931.84l-160.2,185.37s-48.6,14.67-56.82,51.67-73.58,141.18-114.69,165.85-139.78,65.78-139.78,65.78l78.11,45.76,78.11-74.54s93.91-152.51,143.29-160.45c25.45-4.1,30.9-49.33,30.9-49.33l93-69.77s-4.11,102.78-28.78,131.55-111.55,215.58-37,312.44c75.91,98.63,8.22,172.66,8.22,172.66s-16.93,23-12.82,47.7,8.71,125-28.29,162-61.67,123.33-61.67,123.33,86.33,37,123.33,20.56,53.44-12.33,53.44-12.33l-49.33-111c-16.44-37-6.25-144.82,10.56-159.23,23.3-20,22.33-46.33,22.33-66.88s15.68-103,79-118c39-9.25,171.36-30.69,176.22,87.49,1.18,28.69-2.68,49.58-8.53,59.25-8.36,13.81-8,29.92.58,50.31,4.26,10.06,41.9,85.36,10.38,142.91s-11,90.44-11,90.44,127.44,37,152.11,0-65.78-82.22-86.33-119.22-23.17-94.56-10.83-127.45,5-56.2.92-76.75-6.67-108.08,27.89-142c81-79.62,76.58-196.42,35.47-270.41s-65.78-217.89-65.78-217.89,76.43,60.49,95.84,104.48c10.07,22.83-6,37.26,22.83,53.71s86.89,92.59,86.89,133.7,16.44,82.76,16.44,82.76,90.44,15.91,90.44-41.65-53.44-28.78-69.89-49.33-77.57-132.44-77.57-153-16.55-41.29-33.57-57.74c-9.36-9-138.21-187.13-155.61-216.12s-20.3-52.19-20.3-52.19"/><path class="cls-2" d="M671.92,821.2s50,39.63,77.42,55"/><path id="hair_bangs" class="cls-2" d="M946.18,222.08S909.1,355.55,809,355.55c-66.53,85.27-155.12,51.59-191.3,2.14,27.24-54.47,87.89-102.24,145.9-101C724.5,299.59,729.55,316,729.55,316s73.15-79.45,128.64-73.15c-47.92,27.74-68.34,67.45-68.34,67.45S876.53,321.13,946.18,222.08Z"/><ellipse id="eye_L" class="cls-2" cx="721.41" cy="498.73" rx="19.55" ry="29.01"/><ellipse id="eye_R" class="cls-2" cx="858.2" cy="477.14" rx="19.55" ry="29.01"/><path id="brow_R" class="cls-2" d="M686.1,469.72s10.71-74.29,63.37-45.29"/><path id="cheek" class="cls-2" d="M617.7,560.64s16.09,20.57,38,23.94a38.23,38.23,0,0,0,23.43-3.76c32.79-16.4,6.31-53.08,6.31-53.08"/><path id="mouth" class="cls-2" d="M781.94,727.11S718.2,667.84,679.1,580.82C655.67,584.58,664,585,664,585s20.77,290.95,141.25,290.95c13.69,0-19.16-57.23-25.82-79.45C767.76,757.65,781.94,727.11,781.94,727.11Z"/><circle id="nostril_R" class="cls-2" cx="976.09" cy="686.26" r="29.91"/><circle id="nostril_L" class="cls-2" cx="1129.12" cy="663.98" r="22.28"/><path class="cls-3" d="M999.38,1363.51s-9,62.73,0,86.08c79.67,15.14,110.9-12.8,145.41-55.53-60.8-49.3-108.41-38.78-108.41-38.78S1028.17,1374,999.38,1363.51Z"/><path class="cls-3" d="M191.61,1341.18s-89.89-6-127.69,49.7c60.8,96.84,127.69,73.83,127.69,73.83s28.17-49.57,25-79C188.81,1374.33,192.76,1354,191.61,1341.18Z"/><path class="cls-3" d="M395.06,1918.5s-65.38,57.32-75.24,116.48c39.44,75.6,207.07,19.72,207.07,19.72s-45.45-102.64-68.74-122.81C415.13,1954.46,395.06,1918.5,395.06,1918.5Z"/><path class="cls-3" d="M758.61,1918.5s-49.32,47.46-39.46,119.77c115,74,195.56,0,195.56,0s-12.81-85.68-98.43-118.44C763.53,1957.74,758.61,1918.5,758.61,1918.5Z"/><path id="shirt_green" class="cls-2" d="M516.1,933.94s-166.84,122.35-203.92,122.35,102,140.89,102,140.89L471.6,1149s-59.32,166.84-100.11,189.09c166.84,122.35,396.72,155.72,537.6,40.78-37.08-118.64-94-204.13-110.05-280,69.27,105.77,65.56,92.94,65.56,92.94s92.69-35.58,122.35-92.94c-92.69-42.53-217.32-170.39-217.32-170.39S664.4,1119.32,516.1,933.94Z"/><path id="body-2" data-name="body" class="cls-4" d="M633.5,372.74l-15.8-15L460.83,208.29S439.92,333.4,588.28,407.82C469.05,564,516.1,933.94,516.1,933.94L381.57,1117.21s-48.6,14.67-56.82,51.67-73.58,141.18-114.69,165.85-139.78,65.78-139.78,65.78l78.11,45.76,78.11-74.54s93.91-152.51,143.29-160.45c25.45-4.1,30.9-49.33,30.9-49.33l93-69.77s-4.11,102.78-28.78,131.55-111.55,215.58-37,312.44c75.91,98.63,8.22,172.66,8.22,172.66s-16.93,23-12.82,47.7,8.71,125-28.29,162-61.67,123.33-61.67,123.33,86.33,37,123.33,20.56,53.44-12.33,53.44-12.33l-49.33-111c-16.44-37-6.25-144.82,10.56-159.23,23.3-20,22.33-46.33,22.33-66.88s15.68-103,79-118c39-9.25,171.36-30.69,176.22,87.49,1.18,28.69-2.68,49.58-8.53,59.25-8.36,13.81-8,29.92.58,50.31,4.26,10.06,41.9,85.36,10.38,142.91s-11,90.44-11,90.44,127.44,37,152.11,0-65.78-82.22-86.33-119.22-23.17-94.56-10.83-127.45,5-56.2.92-76.75-6.67-108.08,27.89-142c81-79.62,76.58-196.42,35.47-270.41s-65.78-217.89-65.78-217.89,76.43,60.49,95.84,104.48c10.07,22.83-6,37.26,22.83,53.71s86.89,92.59,86.89,133.7,16.44,82.76,16.44,82.76,90.44,15.91,90.44-41.65-53.44-28.78-69.89-49.33-77.57-132.44-77.57-153-16.55-41.29-33.57-57.74c-9.36-9-138.21-187.13-155.61-216.12s-20.3-52.19-20.3-52.19,35.57,11.29,55.87-.31-43.57-85.23-23.28-148.81c162.77,149.12,296.16,133.31,362.85,37.62s-44.09-216.61-134.49-193C832.09,618.41,868.23,458.7,868.23,458.7s2.9-121.78-95.69-139.18c58-60.89,11.6-176.87-23.2-188.47-31.89,113.08-31.89,185.57-31.89,185.57S636.54,359.27,633.5,372.74Z"/><path class="cls-2" d="M671.92,821.2s50,39.63,77.42,55"/><ellipse id="eye_L-2" data-name="eye_L" class="cls-5" cx="721.41" cy="498.73" rx="19.55" ry="29.01"/><ellipse id="eye_R-2" data-name="eye_R" class="cls-5" cx="862.2" cy="477.14" rx="19.55" ry="29.01"/><path id="brow_L" class="cls-6" d="M830.76,405.72s26.52-42.46,54.88,14.29"/><path id="cheek-2" data-name="cheek" class="cls-6" d="M617.7,560.64s16.09,20.57,38,23.94a38.23,38.23,0,0,0,23.43-3.76c32.79-16.4,6.31-53.08,6.31-53.08"/><path id="mouth-2" data-name="mouth" class="cls-7" d="M781.94,727.11S718.2,667.84,679.1,580.82C655.67,584.58,664,585,664,585S686.1,797.2,770,848.72c11.66,7.17,16.1-30,9.44-52.24C767.76,757.65,781.94,727.11,781.94,727.11Z"/><circle id="nostril_R-2" data-name="nostril_R" class="cls-8" cx="976.09" cy="686.26" r="29.91"/><circle id="nostril_L-2" data-name="nostril_L" class="cls-8" cx="1129.12" cy="663.98" r="22.28"/><path id="shirt_green-2" data-name="shirt_green" class="cls-9" d="M516.1,933.94s-166.84,122.35-203.92,122.35,102,140.89,102,140.89L471.6,1149s-59.32,166.84-100.11,189.09c166.84,122.35,396.72,155.72,537.6,40.78-37.08-118.64-94-204.13-110.05-280,69.27,105.77,65.56,92.94,65.56,92.94s92.69-35.58,122.35-92.94c-92.69-42.53-217.32-170.39-217.32-170.39S664.4,1119.32,516.1,933.94Z"/><path class="cls-10" d="M423,1743.54a67.41,67.41,0,0,0,.4,13c4.11,24.67,8.71,125-28.29,162-11.27,11.27-21.39,27.12-30,43.71,3.89,0,7.78,0,11.68.33,32,2.53,64,3.28,96,3.3l-11.91-26.79c-16.44-37-6.25-144.82,10.56-159.23,13.28-11.38,18.67-24.84,20.86-38.12"/><path class="cls-11" d="M744.13,1733.11a41.27,41.27,0,0,1-3.75,8.62c-8.36,13.81-8,29.92.58,50.31,4.26,10.06,41.9,85.36,10.38,142.91a161.9,161.9,0,0,0-11,24.6c17.38-.26,34.77,0,52.4,2,27.12,3.22,53.83,7.07,80.59,11-22.84-22.78-55.73-45.83-67.13-66.35-20.56-37-23.17-94.56-10.83-127.45a100.87,100.87,0,0,0,6.46-45.3"/><path id="hair_bangs-2" data-name="hair_bangs" class="cls-1" d="M946.18,222.08S909.1,355.55,809,355.55c-66.53,85.27-155.12,51.59-191.3,2.14,27.24-54.47,87.89-102.24,145.9-101C724.5,299.59,729.55,316,729.55,316s73.15-79.45,128.64-73.15c-47.92,27.74-68.34,67.45-68.34,67.45S876.53,321.13,946.18,222.08Z"/><path id="hair_flow" class="cls-1" d="M547.56,383.36s-80.33,56.21-57.63,85.22C465,602.19,346.16,627.48,401.65,754.86c63.33-152.67,66.84-7.57,31.53,53s3.78,83.24,22.7,93.32c-8.83-26.48,11.26-59.27,11.94-58s41,46.66,15.81,78.19,6.51,55.9,6.51,55.9l26-43.28s-43.87-375.57,72.18-526.12C554.06,401.73,547.56,383.36,547.56,383.36Z"/><path id="brow_R-2" data-name="brow_R" class="cls-6" d="M654.42,469.82s10.71-74.58,63.37-45.46"/><path class="cls-12" d="M301.76,1220.59c-24.8,44.11-63.82,97.41-91.7,114.13-11.57,6.94-27.71,15.19-44.92,23.46,4.08,16.24,15.88,31.65,28.68,44.73l32.68-31.18S284.82,1277,333.7,1233"/><path class="cls-13" d="M894.86,1210.1c1.66,6.7,6,13,17.63,19.71,28.78,16.44,86.89,92.58,86.89,133.7a189.63,189.63,0,0,0,2,26.82c12.74,0.42,25.1-.41,36.27-4.79,10.45-3.87,18.65-11.5,24.83-21.06-10.63-.92-20.55-2.19-26.16-9.2-16.44-20.56-77.57-132.44-77.57-153,0-8.6-2.9-17.22-7.52-25.56"/><path class="cls-3" d="M999.38,1363.51s-9,62.73,0,86.08c79.67,15.14,110.9-12.8,145.41-55.53-60.8-49.3-108.41-38.78-108.41-38.78S1028.17,1374,999.38,1363.51Z"/><path class="cls-3" d="M191.61,1341.18s-89.89-6-127.69,49.7c60.8,96.84,127.69,73.83,127.69,73.83s28.17-49.57,25-79C188.81,1374.33,192.76,1354,191.61,1341.18Z"/><path class="cls-3" d="M395.06,1918.5s-65.38,57.32-75.24,116.48c39.44,75.6,207.07,19.72,207.07,19.72s-45.45-102.64-68.74-122.81C415.13,1954.46,395.06,1918.5,395.06,1918.5Z"/><path class="cls-3" d="M758.61,1918.5s-49.32,47.46-39.46,119.77c115,74,195.56,0,195.56,0s-12.81-85.68-98.43-118.44C763.53,1957.74,758.61,1918.5,758.61,1918.5Z"/><path class="cls-14" d="M728.7,502.5c7.66,0,7.67-11.91,0-11.91s-7.67,11.91,0,11.91h0Z"/><path class="cls-14" d="M868.7,482.5c7.66,0,7.67-11.91,0-11.91s-7.67,11.91,0,11.91h0Z"/><path class="cls-15" d="M724.52,412.82c21.79-3.08,68.67-17.45,86.48-52.26C830.31,543.23,860.2,590,860.2,590S779.31,511.15,724.52,412.82Z"/><text class="cls-16" transform="translate(479.87 1320.42)">1590</text></svg>