<svg id="_4th_Place" data-name="4th Place" xmlns="http://www.w3.org/2000/svg" xmlns:xlink="http://www.w3.org/1999/xlink" viewBox="0 0 1044.42 2352.94"><defs><style>.cls-1,.cls-11,.cls-12,.cls-2,.cls-3,.cls-4,.cls-5,.cls-6,.cls-7,.cls-8{stroke:#000;stroke-miterlimit:10;}.cls-1{stroke-width:4px;}.cls-2{fill:#db8742;}.cls-11,.cls-12,.cls-2,.cls-3,.cls-4,.cls-5,.cls-6,.cls-7{stroke-width:10px;}.cls-3{fill:none;}.cls-4{fill:#995e36;}.cls-6{fill:url(#linear-gradient);}.cls-7{fill:url(#linear-gradient-2);}.cls-8{fill:#a50e19;stroke-width:12px;}.cls-13,.cls-9{fill:#fff;}.cls-10{fill:url(#linear-gradient-3);}.cls-11{fill:url(#linear-gradient-4);}.cls-12{fill:url(#linear-gradient-5);}.cls-13{font-size:165px;font-family:Montserrat;font-weight:700;}</style><linearGradient id="linear-gradient" x1="232.13" y1="1401.57" x2="264.08" y2="1244.22" gradientUnits="userSpaceOnUse"><stop offset="0"/><stop offset="0.91" stop-opacity="0.2"/><stop offset="1" stop-opacity="0"/></linearGradient><linearGradient id="linear-gradient-2" x1="775.77" y1="1410.03" x2="810.65" y2="1238.24" xlink:href="#linear-gradient"/><linearGradient id="linear-gradient-3" x1="672.23" y1="633.26" x2="672.23" y2="387.47" gradientUnits="userSpaceOnUse"><stop offset="0" stop-color="#fff" stop-opacity="0"/><stop offset="0.24" stop-color="#fff" stop-opacity="0"/><stop offset="0.27" stop-color="#fff" stop-opacity="0.05"/><stop offset="0.41" stop-color="#fff" stop-opacity="0.34"/><stop offset="0.55" stop-color="#fff" stop-opacity="0.57"/><stop offset="0.67" stop-color="#fff" stop-opacity="0.76"/><stop offset="0.78" stop-color="#fff" stop-opacity="0.89"/><stop offset="0.87" stop-color="#fff" stop-opacity="0.97"/><stop offset="0.93" stop-color="#fff"/></linearGradient><linearGradient id="linear-gradient-4" x1="340.57" y1="2051.76" x2="395.17" y2="1782.82" gradientUnits="userSpaceOnUse"><stop offset="0.06"/><stop offset="0.73" stop-opacity="0.43"/><stop offset="0.85" stop-opacity="0"/></linearGradient><linearGradient id="linear-gradient-5" x1="579.34" y1="2022.97" x2="627.51" y2="1785.7" gradientUnits="userSpaceOnUse"><stop offset="0.06"/><stop offset="0.73" stop-opacity="0.48"/><stop offset="0.85" stop-opacity="0"/></linearGradient></defs><title>horse_main_</title><path class="cls-1" d="M474,1419.43s-198.22,14.72-216.09,220.84c63.15-72.68,63.37-64.85,55.66-48.14-29.73,64.45,26.16,184.17,122.28,256.22,94.84,71.1,39.32,83.4,39.32,83.4s94.16-25.3,25-139.4C384.85,1602,426.33,1482.58,474,1419.43Z"/><path class="cls-1" d="M435.87,404s-129.12,61.66-118.3,180.69c39.68-83,49.12-54.11,58.83-54.11-66,205.61-9.62,209.21-59.47,245.28s-44.7,179.37,14,226.75,130.89-33.9,130.89-33.9l51.87-214.5L497.92,404H435.87Z"/><path class="cls-2" d="M548.42,379s-176.75-90.18-191.18-61.32c-10.82,21.64,33.14,65.6,78.62,86.23,15.16,6.88,30.49,11.16,44,11.16C404.14,512.51,382.49,783,386.1,880.44s-49.7,158.49-49.7,158.49S259.85,1169,252.64,1212.29s-32.46,32.46-14.43,64.93c-7.21,50.5-1.92,129.86-6.37,162.32s24.41,36.07,24.41,36.07,3.61-148.93,21.64-175.46,0-35.44,10.82-58,36.07-156.06,57.71-148.85,0,148.85,0,148.85-126.25,165-3.61,320.08c32.46,126.25,32.46,180.36,32.46,194.78s-28.86,14.43-14.43,54.11-3.61,154.86-10.82,192.86-18,59.64,10.82,66.85,36.07-194.78,57.71-234.46-7.93-61.51-7.21-79.36c0.84-21-21.64-147.89,28.86-165.93s144.29,3.61,151.5,14.43,18,140.68,0,162.32-32.46,50.5-18,64.93,37.78,184,27.91,223.64S635,2071,635,2071s-10.82-180.54,0-205.79-7.21-72.14,0-93.79,14.43-162.32,54.11-194.78,125.43-166.15,67.72-310.43-34.46-185.51-31.65-204.25c1.72-11.47,25.09,52.68,45.68,189.08,3.05,20.22-5.9,31.11,7.09,49.14s9,88.37,9,128,22.43,26.36,22.43,26.36,10.33-95.83,17-145.67c4.3-32-8.11-51.4-18.93-66.78S793.71,1064.23,736,988.57s-75.75-153.08-75.75-153.08,97.39,129.38,212.82,60.11,72.14-173.87,54.11-211.75-90.18-12.63-144.28-110-43.29-155.11-111.82-202c90.18,7.21,122.64-119,108.21-119s-86.57,34.46-144.28,93C552,346.59,548.42,379,548.42,379Z"/><path class="cls-1" d="M513.72,362.16s94.23-40.83,77.09-109.36C678.16,307.86,635,269.18,635,307.48,779.28,339.37,775.67,361,782.88,400.69s-10.82-7.21-61.32-18c86.57,86.57,119,68.54,119,68.54s-178.09-1.3-216.43-50.5-14.43,36.07-14.43,36.07Z"/><path class="cls-3" d="M660.24,835.49S611,783,581.38,689.75c0,0-42.77,49.8-42.77-21.19"/><path class="cls-3" d="M563.36,673.86c0-18.2,46.62-82.64,72.78,2.13,9.4,30.44-7.44,120.15,94.21,219.62"/><circle id="nostril_R" class="cls-4" cx="746.34" cy="749.61" r="31.15"/><circle id="nostril_L" class="cls-4" cx="905.68" cy="726.42" r="23.2"/><ellipse id="eye_L" class="cls-5" cx="605.94" cy="558.16" rx="20.35" ry="30.2"/><ellipse id="eye_R" class="cls-5" cx="748.37" cy="535.68" rx="20.35" ry="30.2"/><path class="cls-2" d="M572.82,589.18s31.16-26.87,56.26,8.21"/><path class="cls-2" d="M741,576.77s9.32-29.93,33.52-13.61"/><path class="cls-2" d="M536.49,546.79s116.83-9.11,95.63-48.79"/><path class="cls-3" d="M720.19,483.27s-6.2,27.62,67.33,31.1"/><path class="cls-6" d="M241.21,1241.83c-8.08,11.44-14.79,14.16-3,35.39-5.15,36-3.93,86.78-4.42,124.68a254,254,0,0,0,26.08,1.65c3.09-42.06,8.57-89.51,18-103.41,16.17-23.79,3.36-33.42,8.33-51.44"/><path class="cls-7" d="M770.32,1247.49c0.18,1.17.36,2.34,0.54,3.52,3.05,20.22-5.9,31.11,7.09,49.14,11.4,15.82,9.74,71.87,9.16,112.19,4.38,0.11,8.76.18,13.15,0.18a32.13,32.13,0,0,0,14.18-3.56c3.56-31.6,8.32-72.74,12-100.07,4.3-32-8.11-51.4-18.93-66.78a18.05,18.05,0,0,1-2.06-4.92"/><path class="cls-5" d="M793.37,1388.61s-31.86,54.54-31.86,94.21,75.75,32.46,90.18,21.64,14.93-56.24-34.43-122C799.76,1403.86,793.37,1388.61,793.37,1388.61Z"/><path class="cls-8" d="M374.29,945.42S262.7,1111.57,231.37,1165.79c57.34,76.31,84.2,49.26,84.2,49.26l-47.34,225.08s281.73,120.93,529.09,0c-24.3-162.62-22-198-59.43-344.39,30,137.07,26.27,116.2,26.27,116.2s43.83,8.79,81.69-31c-17.06-68.18-124.11-212.27-124.11-212.27S552.31,1236.35,374.29,945.42Z"/><path class="cls-5" d="M231.37,1389s-58.09,64.93-43.66,104.61,89.38,24.25,95.19,19.34S290.67,1389,261,1389H231.37Z"/><path class="cls-9" d="M616.26,565.47c7.66,0,7.67-11.91,0-11.91s-7.67,11.91,0,11.91h0Z"/><path class="cls-9" d="M760.26,541.47c7.66,0,7.67-11.91,0-11.91s-7.67,11.91,0,11.91h0Z"/><path class="cls-10" d="M609.51,428S667,574.42,741,633.26c-45.76-127.74-21.38-150.78-43.54-195.74C655.57,425.39,639.76,423.27,619,397,590.81,363.77,609.51,428,609.51,428Z"/><path class="cls-11" d="M361.57,1776c-4.77,6.73-7.43,16.6-.72,35.08,14.43,39.68-3.61,154.86-10.82,192.86-4,20.87-9,36.81-8,48.13l34.21-.27c17-50.24,25.12-184,42.3-215.47"/><path class="cls-12" d="M575.07,1792.46c-8,15.55-10.73,30.92-1.4,40.26,12.08,12.09,30.43,133,30.27,195.25,9.63-1.13,19.2-1.61,28.77-1.88-2.44-55.22-5.06-143.78,2.28-160.91,8.68-20.25-1.19-54.41-1.73-78.31"/><path class="cls-5" d="M354,1981.26s-69.7,22.55-71.1,97.52,117.63,46.11,139.27,20.86-25.07-104.84-30.46-118.38C358.33,2000.85,354,1981.26,354,1981.26Z"/><path class="cls-5" d="M603.27,2003.93s-54.85,54.82-44,113.14,109.58,27.75,117.92,7-13.67-101.82-45.44-122.52C620.93,2024.85,603.27,2003.93,603.27,2003.93Z"/><text class="cls-13" transform="translate(355.37 1323.98)">1605</text></svg>