<svg id="_4th_Place" data-name="4th Place" xmlns="http://www.w3.org/2000/svg" xmlns:xlink="http://www.w3.org/1999/xlink" viewBox="0 0 1152.46 2172.87"><defs><style>.cls-1{fill:#6d4a50;}.cls-1,.cls-10,.cls-12,.cls-13,.cls-2,.cls-3,.cls-4,.cls-5,.cls-6,.cls-7,.cls-8,.cls-9{stroke:#000;stroke-miterlimit:10;}.cls-1,.cls-12,.cls-13,.cls-2,.cls-3,.cls-4,.cls-5,.cls-6,.cls-7,.cls-8,.cls-9{stroke-width:10px;}.cls-11,.cls-14,.cls-2{fill:#fff;}.cls-3{fill:none;}.cls-4{fill:#5b5a5a;}.cls-6{fill:#efefef;}.cls-12,.cls-13,.cls-7,.cls-8{opacity:0.24;}.cls-7{fill:url(#linear-gradient);}.cls-8{fill:url(#linear-gradient-2);}.cls-9{fill:#cecece;}.cls-10{fill:#a50e19;stroke-width:12px;}.cls-12{fill:url(#linear-gradient-3);}.cls-13{fill:url(#linear-gradient-4);}.cls-14{font-size:200px;font-family:Montserrat;font-weight:700;}</style><linearGradient id="linear-gradient" x1="264.4" y1="1326.32" x2="296.35" y2="1168.97" gradientUnits="userSpaceOnUse"><stop offset="0"/><stop offset="0.91" stop-opacity="0.2"/><stop offset="1" stop-opacity="0"/></linearGradient><linearGradient id="linear-gradient-2" x1="808.03" y1="1334.79" x2="842.91" y2="1163" xlink:href="#linear-gradient"/><linearGradient id="linear-gradient-3" x1="372.83" y1="1976.52" x2="427.44" y2="1707.58" gradientUnits="userSpaceOnUse"><stop offset="0.06"/><stop offset="0.73" stop-opacity="0.43"/><stop offset="0.85" stop-opacity="0"/></linearGradient><linearGradient id="linear-gradient-4" x1="611.6" y1="1947.72" x2="659.78" y2="1710.46" gradientUnits="userSpaceOnUse"><stop offset="0.06"/><stop offset="0.73" stop-opacity="0.48"/><stop offset="0.85" stop-opacity="0"/></linearGradient></defs><title>horse_main_</title><path class="cls-1" d="M506.25,1344.19S308,1358.91,290.17,1565c63.15-72.68,63.37-64.85,55.66-48.14C316.1,1581.33,372,1701,468.11,1773.1c94.84,71.1,39.32,83.4,39.32,83.4s94.16-25.3,25-139.4C417.11,1526.79,458.6,1407.33,506.25,1344.19Z"/><path class="cls-1" d="M468.13,328.71S339,390.37,349.83,509.41c39.68-83,49.12-54.11,58.83-54.11-66,205.61-9.62,209.21-59.47,245.28s-44.7,179.37,14,226.75,130.89-33.9,130.89-33.9L546,678.94l-15.8-350.23H468.13Z"/><path class="cls-2" d="M580.69,303.8s-176.75-90.18-191.18-61.32c-10.82,21.64,33.14,65.6,78.62,86.23,15.16,6.88,30.49,11.16,44,11.16-75.75,97.39-97.39,367.93-93.79,465.32s-49.7,158.49-49.7,158.49S292.12,1093.76,284.91,1137s-32.46,32.46-14.43,64.93c-7.21,50.5-1.92,129.86-6.37,162.32s24.41,36.07,24.41,36.07,3.61-148.93,21.64-175.46,0-35.44,10.82-58S357,1010.8,378.69,1018s0,148.85,0,148.85-126.25,165-3.61,320.08c32.46,126.25,32.46,180.36,32.46,194.78s-28.86,14.43-14.43,54.11-3.61,154.86-10.82,192.86-18,59.64,10.82,66.85,36.07-194.78,57.71-234.46-7.93-61.51-7.21-79.36c0.84-21-21.64-147.89,28.86-165.93s144.29,3.61,151.5,14.43,18,140.68,0,162.32-32.46,50.5-18,64.93,37.78,184,27.91,223.64,33.41,14.62,33.41,14.62-10.82-180.54,0-205.79-7.21-72.14,0-93.79,14.43-162.32,54.11-194.78,125.43-166.15,67.72-310.43-34.46-185.51-31.65-204.25c1.72-11.47,25.09,52.68,45.68,189.08,3.05,20.22-5.9,31.11,7.09,49.14s9,88.37,9,128,22.43,26.36,22.43,26.36,10.33-95.83,17-145.67c4.3-32-8.11-51.4-18.93-66.78S826,989,768.26,913.32s-75.75-153.08-75.75-153.08,97.39,129.38,212.82,60.11,72.14-173.87,54.11-211.75-90.18-12.63-144.28-110-43.29-155.11-111.82-202c90.18,7.21,122.64-119,108.21-119S725,212,667.26,270.53C584.3,271.34,580.69,303.8,580.69,303.8Z"/><path class="cls-1" d="M546,286.92s94.23-40.83,77.09-109.36c87.35,55.06,44.18,16.38,44.18,54.68,144.28,31.89,140.68,53.53,147.89,93.21s-10.82-7.21-61.32-18c86.57,86.57,119,68.54,119,68.54s-178.09-1.3-216.43-50.5S642,361.52,642,361.52Z"/><path class="cls-3" d="M692.51,760.25s-49.2-52.5-78.87-145.74c0,0-42.77,49.8-42.77-21.19"/><path class="cls-3" d="M595.63,598.62c0-18.2,46.62-82.64,72.78,2.13,9.4,30.44-7.44,120.15,94.21,219.62"/><circle id="nostril_R" class="cls-4" cx="778.61" cy="674.37" r="31.15"/><circle id="nostril_L" class="cls-4" cx="937.95" cy="651.17" r="23.2"/><ellipse id="eye_L" class="cls-5" cx="638.21" cy="482.91" rx="20.35" ry="30.2"/><ellipse id="eye_R" class="cls-5" cx="780.64" cy="460.43" rx="20.35" ry="30.2"/><path class="cls-6" d="M605.08,513.93s31.16-26.87,56.26,8.21"/><path class="cls-6" d="M773.29,501.53s9.32-29.93,33.52-13.61"/><path class="cls-6" d="M568.76,471.55s116.83-9.11,95.63-48.79"/><path class="cls-3" d="M752.46,408s-6.2,27.62,67.33,31.1"/><path class="cls-7" d="M273.47,1166.59c-8.08,11.44-14.79,14.16-3,35.39-5.15,36-3.93,86.78-4.42,124.68a254,254,0,0,0,26.08,1.65c3.09-42.06,8.57-89.51,18-103.41,16.17-23.79,3.36-33.42,8.33-51.44"/><path class="cls-8" d="M802.58,1172.24c0.18,1.17.36,2.34,0.54,3.52,3.05,20.22-5.9,31.11,7.09,49.14,11.4,15.82,9.74,71.87,9.16,112.19,4.38,0.11,8.76.18,13.15,0.18a32.13,32.13,0,0,0,14.18-3.56c3.56-31.6,8.32-72.74,12-100.07,4.3-32-8.11-51.4-18.93-66.78a18.05,18.05,0,0,1-2.06-4.92"/><path class="cls-9" d="M825.64,1313.37s-31.86,54.54-31.86,94.21S869.52,1440,884,1429.22s14.93-56.24-34.43-122C832,1328.61,825.64,1313.37,825.64,1313.37Z"/><path class="cls-10" d="M406.56,870.17S295,1036.33,263.64,1090.55c57.34,76.31,84.2,49.26,84.2,49.26l-47.34,225.08s281.73,120.93,529.09,0c-24.3-162.62-22-198-59.43-344.39,30,137.07,26.27,116.2,26.27,116.2s43.83,8.79,81.69-31C861,1037.54,754,893.45,754,893.45S584.58,1161.1,406.56,870.17Z"/><path class="cls-9" d="M263.64,1313.8S205.55,1378.72,220,1418.4s89.38,24.25,95.19,19.34,7.77-123.95-21.88-123.95H263.64Z"/><path class="cls-11" d="M648.53,490.22c7.66,0,7.67-11.91,0-11.91s-7.67,11.91,0,11.91h0Z"/><path class="cls-11" d="M792.53,466.22c7.66,0,7.67-11.91,0-11.91s-7.67,11.91,0,11.91h0Z"/><path class="cls-12" d="M393.83,1700.75c-4.77,6.73-7.43,16.6-.72,35.08,14.43,39.68-3.61,154.86-10.82,192.86-4,20.87-9,36.81-8,48.13l34.21-.27c17-50.24,25.12-184,42.3-215.47"/><path class="cls-13" d="M607.34,1717.21c-8,15.55-10.73,30.92-1.4,40.26,12.08,12.09,30.43,133,30.27,195.25,9.63-1.13,19.2-1.61,28.77-1.88-2.44-55.22-5.06-143.78,2.28-160.91,8.68-20.25-1.19-54.41-1.73-78.31"/><path class="cls-9" d="M386.27,1906s-69.7,22.55-71.1,97.52,117.63,46.11,139.27,20.86S429.37,1919.56,424,1906C390.6,1925.6,386.27,1906,386.27,1906Z"/><path class="cls-9" d="M635.54,1928.69s-54.85,54.82-44,113.14,109.58,27.75,117.92,7S695.76,1947,664,1926.27C653.19,1949.6,635.54,1928.69,635.54,1928.69Z"/><text class="cls-14" transform="translate(412.51 1263.96)">215</text></svg>